<?xml version="1.0" encoding="UTF-8"?>
<svg id="Layer_2" data-name="Layer 2" xmlns="http://www.w3.org/2000/svg" viewBox="0 0 262.99 36.2">
  <defs>
    <style>
      .cls-1 {
        fill: #fff;
        stroke-width: 0px;
      }
    </style>
  </defs>
  <g id="Layer_1-2" data-name="Layer 1">
    <g>
      <path class="cls-1" d="M100.36,17.82l.45-1.7h-2.41c-.77,0-1.25.34-1.43,1l-.37,1.37c-.1.39-.09.66.02.8.12.15.41.22.86.22h1.57c.35,0,.6-.1.76-.29.16-.19.34-.66.54-1.41M105.24,21.85h-5.42l.08-1.32c-.28.49-.6.83-.94,1.03-.34.19-.9.29-1.67.29h-3.89c-1.14,0-1.87-.26-2.19-.8-.32-.53-.3-1.46.05-2.79l.24-.88c.35-1.3.82-2.22,1.41-2.77.6-.55,1.47-.82,2.63-.82h4.94c.29,0,.54-.08.75-.24.22-.16.35-.35.41-.56.04-.14.03-.26-.02-.36-.11-.23-.35-.34-.75-.34h-5.36c-.79,0-1.56.17-2.31.51l1.15-2.84h9.9c1.3,0,2.14.34,2.52,1.02.37.68.34,1.83-.1,3.47l-1.39,5.2c-.21.77-.3,1.27-.29,1.49.02.22.1.47.24.73ZM90.06,19.08l-1.08,2.77h-6.8c-1.06,0-1.78-.27-2.15-.81-.42-.6-.45-1.57-.09-2.91l1.56-5.84h-2.32l.63-2.33h2.32l.68-2.54,5.45-.02-.69,2.56h4.3l-.62,2.33h-4.3l-1.68,6.29c-.11.4-.14.64-.1.71.08.15.38.23.89.23h1.91c.52,0,.92-.04,1.21-.11.05-.01.34-.12.88-.32ZM78.66,13.85c-.27-.24-.47-.38-.62-.41-.41-.11-.99-.16-1.73-.16-.88,0-1.53.11-1.96.35-.53.29-.91.85-1.13,1.66l-1.03,3.84c-.2.75-.31,1.28-.33,1.58-.02.3.05.68.2,1.14h-6.6c.18-.21.31-.38.4-.48.3-.37.59-1.12.89-2.24l1.72-6.42c.05-.17.08-.3.1-.39.13-.49.21-.87.22-1.12.02-.25-.04-.67-.16-1.24h5.39l-.34,1.94c.54-.75,1-1.26,1.4-1.5.47-.29,1.13-.44,1.96-.44h2.64l-1.04,3.9ZM58.04,14.82l-.64-5.47-3.72,5.48h4.36ZM65.19,21.85h-7.39c.11-.09.2-.18.25-.25.18-.23.32-.51.41-.83.09-.35.12-.75.07-1.2l-.25-2.06h-6.46l-1.59,2.22c-.21.29-.36.6-.44.92-.09.35-.12.68-.08.99,0,.05.02.12.06.21h-4.14c.41-.45.83-.9,1.25-1.36.4-.48.8-1,1.19-1.57l8.67-12.34-.42-.9h6.67l1.48,13.96c.06.46.14.86.26,1.21.11.35.27.68.47,1.01Z"/>
      <path class="cls-1" d="M185.34,17.82l.45-1.7h-2.41c-.77,0-1.25.34-1.43,1l-.37,1.37c-.1.39-.09.66.03.8.12.15.41.22.86.22h1.57c.35,0,.6-.1.76-.29.16-.19.33-.66.53-1.41M190.22,21.85h-5.42l.08-1.32c-.28.49-.6.83-.93,1.03-.34.19-.9.29-1.67.29h-3.89c-1.14,0-1.87-.26-2.19-.8-.32-.53-.3-1.46.05-2.79l.23-.88c.35-1.3.82-2.22,1.41-2.77.59-.55,1.47-.82,2.63-.82h4.94c.29,0,.54-.08.75-.24.22-.16.35-.35.41-.56.04-.14.03-.26-.02-.36-.11-.23-.35-.34-.75-.34h-5.36c-.78,0-1.56.17-2.31.51l1.15-2.84h9.9c1.3,0,2.14.34,2.52,1.02.37.68.34,1.83-.1,3.47l-1.39,5.2c-.21.77-.3,1.27-.28,1.49.02.22.09.47.24.73ZM173.77,21.85h-6.6c.28-.32.52-.68.72-1.06.19-.38.39-.94.58-1.66l1.71-6.41c.21-.77.32-1.29.34-1.57.02-.27-.04-.67-.18-1.17h6.01l-2.45,9.15c-.2.76-.31,1.28-.33,1.58-.02.3.05.68.2,1.14ZM176.62,8.82h-5.35l.84-3.14h5.35l-.84,3.14ZM160.89,18.61l1.45-5.4c.17-.62,0-.93-.5-.93h-2.16c-.52,0-.86.31-1.02.93l-1.44,5.4c-.16.6.02.9.53.9h2.16c.5,0,.83-.3.99-.9ZM165.92,21.85h-5.42l.05-1.27c-.27.37-.46.62-.59.76-.32.34-.67.51-1.05.51h-4.57c-2.26,0-3.06-1.23-2.4-3.69l1.21-4.51c.31-1.17.83-2.08,1.54-2.73.71-.65,1.66-.97,2.84-.97h4.23c.41,0,.69.09.84.27.15.18.23.48.26.91l.91-3.22c.14-.54.23-.98.25-1.33.02-.35-.01-.65-.11-.91h5.87l-3.73,13.96c-.25.95-.29,1.69-.11,2.21ZM145.8,14.87l.43-1.62c.17-.65,0-.97-.54-.97h-2.23c-.26,0-.47.06-.64.19-.17.12-.31.39-.41.79l-.43,1.62h3.82ZM150.44,17.2h-9.08l-.3,1.11c-.21.8.09,1.2.93,1.2h5.23c.7,0,1.18-.02,1.44-.07.26-.05.64-.19,1.13-.44l-1.15,2.84h-10.83c-1.14,0-1.87-.26-2.19-.8-.32-.53-.3-1.46.05-2.78l1.26-4.71c.35-1.32.83-2.26,1.42-2.8.59-.54,1.47-.81,2.64-.81h8.26c1.14,0,1.87.26,2.2.78.33.52.31,1.46-.05,2.82l-.98,3.65ZM133.2,21.85h-6.58c.3-.38.54-.84.72-1.35.18-.52.35-.99.5-1.42l2.66-9.96-7.52,12.73h-3.87l-.57-12.75-2.68,9.84c-.24.88-.36,1.47-.38,1.79-.01.32.04.69.17,1.12h-3.53c.3-.34.53-.68.69-1.02.16-.34.36-.97.61-1.89l2.86-10.68c.22-.82.34-1.36.35-1.62.02-.27-.04-.59-.19-.96h7.7l.36,9.2,5.48-9.2h7.52c-.32.46-.57.91-.75,1.32-.18.42-.34.91-.49,1.47l-2.84,10.61c-.23.85-.35,1.41-.38,1.71-.02.29.02.65.14,1.06Z"/>
      <path class="cls-1" d="M256.31,17.82l.46-1.7h-2.41c-.77,0-1.25.33-1.43,1l-.37,1.37c-.1.39-.1.66.03.8.12.15.41.22.86.22h1.57c.35,0,.6-.1.76-.29.16-.19.33-.66.53-1.4M261.2,21.85h-5.42l.08-1.32c-.28.49-.6.83-.94,1.03-.34.19-.9.29-1.67.29h-3.89c-1.14,0-1.87-.27-2.19-.8-.32-.53-.3-1.46.05-2.79l.24-.88c.35-1.3.82-2.22,1.41-2.77.59-.55,1.47-.82,2.63-.82h4.94c.29,0,.54-.08.75-.24.22-.16.35-.35.41-.56.03-.13.03-.26-.02-.36-.11-.23-.35-.34-.75-.34h-5.36c-.78,0-1.55.17-2.31.51l1.15-2.84h9.9c1.3,0,2.14.34,2.52,1.02.37.68.34,1.83-.1,3.46l-1.39,5.2c-.2.77-.3,1.27-.28,1.49.02.22.1.47.24.73ZM245.13,21.85h-6.17c.23-.28.45-.56.68-.86.22-.43.44-1.05.66-1.87l1.6-5.98c.15-.57,0-.85-.46-.85h-1.77c-.45,0-.76.28-.91.85l-1.6,5.98c-.22.82-.34,1.36-.36,1.63-.02.27.06.64.24,1.1h-6.19c.16-.15.33-.32.52-.48.24-.32.51-1.07.83-2.24l1.6-5.98c.15-.57,0-.85-.45-.85h-1.77c-.46,0-.76.28-.91.85l-1.6,5.98c-.22.82-.34,1.36-.36,1.63-.02.27.06.64.24,1.1h-6.17c.22-.26.45-.53.67-.81.22-.45.45-1.09.67-1.92l1.72-6.42c.18-.68.28-1.16.29-1.45,0-.29-.05-.72-.17-1.29h5.17l-.25,1.45c.56-.97,1.17-1.45,1.82-1.45h4.85c.62,0,1.02.08,1.2.23.18.15.29.51.34,1.06.27-.49.46-.8.59-.92.25-.25.58-.37,1.01-.37h3.73c1.14,0,1.87.28,2.18.85.39.69.34,1.96-.15,3.81l-1.2,4.51c-.22.82-.34,1.36-.36,1.63-.02.27.06.64.24,1.1ZM217.04,17.82l.45-1.7h-2.41c-.77,0-1.25.33-1.43,1l-.37,1.37c-.1.39-.1.66.02.8.12.15.41.22.86.22h1.57c.35,0,.6-.1.76-.29.16-.19.33-.66.54-1.4ZM221.92,21.85h-5.42l.08-1.32c-.28.49-.6.83-.94,1.03-.34.19-.9.29-1.67.29h-3.89c-1.14,0-1.86-.27-2.19-.8-.32-.53-.3-1.46.05-2.79l.24-.88c.35-1.3.82-2.22,1.41-2.77.59-.55,1.47-.82,2.63-.82h4.94c.29,0,.54-.08.75-.24.22-.16.35-.35.41-.56.04-.13.03-.26-.02-.36-.1-.23-.35-.34-.74-.34h-5.36c-.79,0-1.55.17-2.31.51l1.15-2.84h9.9c1.31,0,2.14.34,2.52,1.02.37.68.34,1.83-.09,3.46l-1.39,5.2c-.2.77-.3,1.27-.29,1.49.02.22.1.47.24.73ZM211.82,9c-.15-.19-.29-.33-.44-.4-.33-.17-.84-.25-1.5-.25h-2.53l-2.87,10.72c-.19.72-.31,1.22-.35,1.5-.04.27-.03.7.05,1.27h-6.51c.28-.37.51-.82.7-1.34.19-.52.35-1,.5-1.43l2.87-10.72h-2.55c-.47,0-.83.03-1.09.1-.25.07-.65.26-1.19.57l1.35-3.35h13.97l-.41,3.33Z"/>
      <path class="cls-1" d="M219.63,29.66v.96h-2.13v5.42h-1.07v-5.42h-2.13v-.96h5.33ZM210.58,29.66v1h-2.9v1.68h2.53v.94h-2.53v1.76h2.51l.46,1h-4.03v-6.38h3.97ZM200.13,29.54c.85,0,1.55.23,2.12.68l-.56.9c-.46-.38-.98-.57-1.57-.57-.32,0-.58.07-.76.21-.18.14-.28.35-.28.63,0,.24.09.42.27.54.18.12.53.24,1.03.34.77.17,1.32.4,1.64.69.32.29.48.69.48,1.2,0,.6-.21,1.08-.62,1.45-.41.36-.97.54-1.68.54-.96,0-1.74-.28-2.36-.83l.58-.9c.22.23.49.41.82.54.33.13.66.2,1,.2.37,0,.67-.08.88-.23.21-.16.32-.38.32-.66,0-.24-.1-.42-.3-.56-.2-.14-.55-.26-1.05-.37-.76-.17-1.3-.4-1.61-.7-.31-.3-.47-.69-.47-1.19,0-.57.19-1.03.59-1.38.39-.35.91-.52,1.54-.52ZM194.27,29.66v1h-2.77v1.77h2.33v.95h-2.33v2.67h-1.07v-6.38h3.84ZM186.38,29.66v1h-2.77v1.77h2.33v.95h-2.33v2.67h-1.07v-6.38h3.84ZM175.19,30.54c-.62,0-1.13.22-1.52.65-.39.43-.59.99-.59,1.66s.2,1.22.59,1.65c.39.43.9.65,1.52.65s1.12-.22,1.52-.65c.39-.43.59-.98.59-1.65s-.2-1.22-.59-1.66c-.4-.44-.9-.65-1.52-.65ZM172.9,30.49c.61-.63,1.37-.94,2.29-.94s1.68.31,2.29.94c.61.63.91,1.42.91,2.36s-.3,1.74-.91,2.37c-.61.62-1.37.93-2.29.93s-1.68-.31-2.29-.93c-.61-.62-.91-1.41-.91-2.37s.31-1.73.91-2.36ZM162.28,31.04c0,.26.17.57.5.92.28-.17.47-.32.59-.45.12-.13.18-.29.18-.48s-.06-.34-.17-.46c-.11-.11-.27-.17-.45-.17s-.35.06-.47.17c-.12.11-.17.27-.17.47ZM162.62,33.18l-.09-.09c-.29.2-.5.39-.63.56-.13.17-.2.38-.2.63,0,.28.1.51.28.68.19.17.43.25.72.25.41,0,.79-.2,1.16-.59l-1.25-1.44ZM162.9,29.54c.48,0,.87.14,1.17.41.29.27.44.62.44,1.04,0,.15-.02.29-.07.43-.05.14-.1.25-.16.34-.06.09-.15.19-.27.3-.12.11-.22.19-.31.25-.08.06-.21.14-.36.24l1.16,1.31.7-.89h1.19l-1.24,1.63,1.29,1.44h-1.32l-.61-.69c-.54.52-1.16.78-1.85.78-.57,0-1.04-.16-1.43-.48-.39-.32-.58-.75-.58-1.3,0-.41.1-.75.31-1.02.2-.27.55-.55,1.03-.85-.45-.52-.68-1.01-.68-1.47,0-.43.15-.78.44-1.05.29-.27.68-.41,1.15-.41ZM151.89,32.86h2.88s0,.1,0,.18c0,.2.01.34.01.41,0,.88-.25,1.55-.74,2.04-.49.48-1.16.72-2,.72-.5,0-.95-.07-1.34-.22-.39-.15-.73-.38-1.03-.68-.29-.3-.51-.65-.67-1.05-.15-.4-.23-.84-.23-1.3s.08-.9.24-1.3c.16-.4.39-.75.7-1.05.3-.3.65-.52,1.05-.68.4-.15.83-.23,1.29-.23.42,0,.83.09,1.21.27.38.18.72.45,1.02.82l-.73.55c-.21-.24-.44-.42-.7-.54-.26-.12-.52-.18-.79-.18-.66,0-1.2.22-1.62.65-.42.43-.63.99-.63,1.68s.21,1.27.63,1.71c.42.44.96.65,1.63.65.51,0,.93-.13,1.26-.4.33-.27.49-.64.49-1.1v-.09h-1.26l-.67-.85ZM144.46,29.66v6.5h-.03l-3.83-4.07v3.96h-1.07v-6.5h.03l3.83,4.07v-3.95h1.07ZM134.97,36.04h-1.07v-6.38h1.07v6.38ZM129.88,29.66v.96h-2.13v5.42h-1.07v-5.42h-2.13v-.96h5.33ZM120.52,29.66v6.5h-.03l-3.83-4.07v3.96h-1.07v-6.5h.03l3.83,4.07v-3.95h1.07ZM111.04,36.04h-1.07v-6.38h1.07v6.38ZM103.37,30.6h-1.1v2.15h1.1c.38,0,.68-.09.9-.27.22-.18.33-.45.33-.8s-.11-.61-.33-.79c-.22-.19-.52-.28-.9-.28ZM103.46,29.66c.64,0,1.17.18,1.59.54.42.36.63.85.63,1.48,0,.44-.11.82-.33,1.13-.22.31-.6.55-1.13.73l1.76,2.5h-1.25l-2.49-3.19v.85s.01,2.34.01,2.34h-1.06v-6.38h2.26ZM94.81,30.6h-1.16v2.23h1.16c.38,0,.67-.1.89-.29.22-.19.33-.47.33-.82s-.11-.64-.33-.83c-.22-.19-.52-.29-.89-.29ZM94.91,29.66c.63,0,1.16.18,1.57.55.42.37.62.87.62,1.52s-.21,1.14-.62,1.51c-.41.37-.94.55-1.57.55h-1.26v2.26h-1.07v-6.38h2.33Z"/>
      <path class="cls-1" d="M36.2,12.96c-.07-.09-.14-.15-.21-.19-.16-.08-.39-.12-.71-.12h-1.19l-1.35,5.06c-.09.34-.15.58-.17.71-.02.13-.01.33.02.6h-3.07c.13-.18.24-.39.33-.63.09-.25.17-.47.23-.68l1.35-5.06h-1.2c-.22,0-.39.02-.51.05-.12.03-.31.12-.56.27l.64-1.58h6.59l-.19,1.57ZM27.18,19.02h-3.1c.14-.18.25-.39.34-.64.09-.24.16-.47.23-.67l1.26-4.7-3.55,6.01h-1.83l-.27-6.02-1.26,4.64c-.11.41-.17.7-.18.84,0,.15.02.33.08.53h-1.66c.14-.16.25-.32.33-.48.08-.16.17-.46.29-.89l1.35-5.04c.1-.39.16-.64.17-.77s-.02-.28-.09-.45h3.63l.17,4.34,2.59-4.34h3.55c-.15.22-.27.43-.35.62-.09.2-.16.43-.23.69l-1.34,5.01c-.11.4-.17.67-.18.81-.01.14.01.3.07.5ZM13.69,15.7l-.3-2.58-1.76,2.58h2.06ZM17.07,19.02h-3.49c.06-.04.09-.08.12-.12.09-.11.15-.24.19-.39.04-.17.06-.36.03-.57l-.12-.97h-3.05l-.75,1.05c-.1.14-.17.28-.21.43-.05.17-.06.32-.04.47,0,.02.01.06.03.1h-1.95c.19-.21.39-.43.59-.64.19-.22.38-.47.56-.74l4.09-5.82-.2-.43h3.14l.7,6.58c.03.22.07.41.12.57.05.16.13.32.22.47ZM2.41,12.97c-2.65,2.7-3.54,4.99-.51,7.63,4.17,3.64,14.02,7.43,19.15,8.21,10.98,1.67,14.64-3.1,19.19-13.78C42.44,9.85,44.79.46,36.68.02c-.21-.01-.44-.02-.67-.02C27.53,0,7.48,7.79,2.41,12.97Z"/>
    </g>
  </g>
</svg>