<?xml version="1.0" encoding="UTF-8"?>
<svg id="Layer_2" data-name="Layer 2" xmlns="http://www.w3.org/2000/svg" xmlns:xlink="http://www.w3.org/1999/xlink" viewBox="0 0 1150.52 331.95">
  <defs>
    <style>
      .cls-1 {
        fill: url(#linear-gradient);
      }

      .cls-1, .cls-2, .cls-3, .cls-4, .cls-5, .cls-6 {
        stroke-width: 0px;
      }

      .cls-2 {
        fill: url(#linear-gradient-6);
      }

      .cls-3 {
        fill: url(#linear-gradient-5);
      }

      .cls-4 {
        fill: url(#linear-gradient-2);
      }

      .cls-5 {
        fill: url(#linear-gradient-3);
      }

      .cls-7 {
        fill: #f6d323;
        font-family: Helvetica-Bold, Helvetica;
        font-size: 60px;
        font-weight: 700;
      }

      .cls-6 {
        fill: url(#linear-gradient-4);
      }
    </style>
    <linearGradient id="linear-gradient" x1="107.42" y1="245.5" x2="243.48" y2="245.5" gradientUnits="userSpaceOnUse">
      <stop offset="0" stop-color="#db2e2a"/>
      <stop offset=".37" stop-color="#921b20"/>
      <stop offset="1" stop-color="#db2e2a"/>
    </linearGradient>
    <linearGradient id="linear-gradient-2" x1="-1519.72" y1="-98.79" x2="-1389.18" y2="-98.79" gradientTransform="translate(-449.03 -67.19) rotate(-163.02) scale(1 -1)" xlink:href="#linear-gradient"/>
    <linearGradient id="linear-gradient-3" x1="0" y1="226.61" x2="146.96" y2="226.61" xlink:href="#linear-gradient"/>
    <linearGradient id="linear-gradient-4" x1="-1612.28" y1="-164.24" x2="-1484.02" y2="-164.24" gradientTransform="translate(-449.03 -67.19) rotate(-163.02) scale(1 -1)" xlink:href="#linear-gradient"/>
    <linearGradient id="linear-gradient-5" x1="87.11" y1="135.21" x2="1063.41" y2="135.21" xlink:href="#linear-gradient"/>
    <linearGradient id="linear-gradient-6" x1="33.29" y1="264.64" x2="1117.23" y2="264.64" xlink:href="#linear-gradient"/>
  </defs>
  <g id="Layer_1-2" data-name="Layer 1">
    <g>
      <polygon class="cls-1" points="243.48 284.52 230.64 206.49 107.42 249.93 115.94 277.58 243.48 284.52"/>
      <polygon class="cls-4" points="907.04 284.52 919.88 206.49 1043.1 249.93 1034.58 277.58 907.04 284.52"/>
      <path class="cls-5" d="M223.46,304c-78.89,46.36-190.18,20.04-190.18,20.04l36.51-102.98L0,121.74s44.88,10.59,97.79,6.48l22.76,138.35c4.34,20.59,181.77-8.93,102.91,37.43Z"/>
      <path class="cls-6" d="M927.06,304c78.89,46.36,190.18,20.04,190.18,20.04l-36.51-102.98,69.79-99.32s-44.88,10.59-97.79,6.48l-22.76,138.35c-4.34,20.59-181.77-8.93-102.91,37.43Z"/>
      <path class="cls-3" d="M575.26,202.47c-326.83-3.73-458.78,43.81-454.81,67.96l-22.66-137.78c-11.67-70.93-10.86-63.1-10.52-63.95C96.91,45.62,200.2-7.1,575.26.8c375.07-7.9,478.35,44.82,487.99,67.9.34.85,1.15-6.97-10.52,63.95l-22.67,137.77c3.97-24.15-127.98-71.68-454.81-67.96Z"/>
      <path class="cls-2" d="M575.26,199.13c-3.78.01-7.56.02-11.34.02-19.33.02-38.65-.21-57.98-.03l-57.96,1.18c-19.31.53-38.6,1.69-57.89,2.5-9.66.32-19.27,1.18-28.9,1.89l-28.87,2.19c-38.36,3.81-76.81,7.92-114.34,16.03-4.75.8-9.38,1.97-14.03,3.12l-13.95,3.41c-2.34.52-4.63,1.18-6.9,1.92l-13.65,4.23c-1.13.36-2.29.68-3.4,1.08l-3.3,1.29c-4.38,1.76-8.87,3.34-13.16,5.25l-6.3,3.1c-2.09,1.04-4.25,2-6.15,3.3l-5.87,3.67c-1.73,1.43-3.54,2.81-5.22,4.28l-2.21,2.39c-.6.81-1.22,1.56-1.39,2.42-.47,1.65.56,3.07,2.41,4.15,3.71,2.1,8.58,2.95,13.21,3.7,4.7.71,9.49,1.14,14.28,1.49,9.59.69,19.25,1,28.9,1.36,9.66.36,19.33.7,29,1.42,4.84.37,9.67.84,14.49,1.58,4.8.79,9.67,1.67,14.18,3.95,1.12.58,2.19,1.33,3.09,2.29.85.99,1.55,2.24,1.57,3.58.06,2.68-1.5,4.79-2.99,6.58-3.17,3.58-7.1,6.28-11.04,8.88-7.94,5.13-16.44,9.48-25.25,13.2-17.62,7.49-36.54,12.2-55.71,14.8-19.19,2.57-38.65,3.12-57.97,2.16-19.31-1.02-38.58-3.29-57.36-7.46,18.84,3.93,38.12,5.95,57.4,6.72,19.28.71,38.66-.09,57.68-2.88,19.02-2.72,37.75-7.44,55.13-14.93,8.69-3.71,17.07-8.06,24.85-13.14,3.84-2.56,7.68-5.25,10.56-8.55,1.38-1.62,2.59-3.5,2.5-5.28-.06-1.77-1.65-3.22-3.6-4.22-3.97-2-8.76-2.9-13.43-3.63-4.72-.71-9.5-1.15-14.3-1.5-9.6-.68-19.25-.98-28.91-1.29-9.66-.32-19.33-.59-29.01-1.24-4.84-.34-9.69-.75-14.52-1.45-4.81-.8-9.73-1.5-14.31-4.03-1.14-.63-2.21-1.55-3.01-2.72-.81-1.22-.93-2.77-.64-4.07.27-1.32,1.12-2.41,1.84-3.39l2.44-2.66c1.78-1.58,3.67-3.04,5.51-4.56l6.05-3.83c1.97-1.36,4.16-2.35,6.29-3.42l6.43-3.2c4.37-1.96,8.9-3.59,13.34-5.4l3.35-1.32c1.13-.4,2.29-.73,3.43-1.1l13.77-4.33c2.28-.76,4.59-1.43,6.95-1.97l14.03-3.49c4.67-1.18,9.35-2.38,14.11-3.2,37.8-8.02,76.36-11.94,114.83-15.6l28.93-2.06c9.65-.67,19.28-1.48,28.95-1.76,19.33-.73,38.64-1.8,57.97-2.24l58.01-.92c19.34-.09,38.67.2,58.01.31,3.78.05,7.55.09,11.33.13,3.78-.04,7.55-.07,11.33-.13,19.34-.11,38.67-.4,58.01-.31l58.01.92c19.33.44,38.65,1.52,57.97,2.24,9.67.28,19.31,1.09,28.95,1.76l28.93,2.06c38.47,3.65,77.03,7.58,114.83,15.6,4.76.82,9.43,2.02,14.11,3.2l14.03,3.49c2.35.53,4.66,1.21,6.95,1.97l13.77,4.33c1.14.37,2.3.7,3.43,1.1l3.35,1.32c4.44,1.81,8.97,3.43,13.34,5.4l6.43,3.2c2.14,1.08,4.33,2.06,6.29,3.42l6.05,3.83c1.84,1.52,3.73,2.98,5.51,4.56l2.44,2.66c.72.99,1.57,2.08,1.84,3.39.29,1.3.17,2.85-.64,4.07-.8,1.17-1.87,2.09-3,2.72-4.58,2.52-9.5,3.23-14.31,4.03-4.84.71-9.68,1.12-14.52,1.45-9.68.65-19.36.92-29.01,1.24-9.66.31-19.31.61-28.91,1.29-4.8.34-9.58.79-14.3,1.5-4.67.73-9.46,1.64-13.43,3.63-1.95,1-3.54,2.46-3.6,4.23-.09,1.78,1.12,3.66,2.5,5.28,2.87,3.3,6.72,5.99,10.56,8.55,7.78,5.08,16.17,9.43,24.85,13.14,17.38,7.49,36.11,12.22,55.13,14.93,19.02,2.79,38.4,3.6,57.68,2.88,19.28-.77,38.56-2.79,57.4-6.72-18.78,4.17-38.05,6.44-57.36,7.46-19.32.96-38.78.41-57.97-2.16-19.17-2.6-38.09-7.31-55.71-14.8-8.81-3.72-17.31-8.07-25.25-13.2-3.93-2.61-7.87-5.3-11.04-8.88-1.5-1.79-3.06-3.9-3-6.58.02-1.34.72-2.59,1.57-3.58.9-.96,1.97-1.71,3.09-2.29,4.51-2.28,9.39-3.16,14.18-3.95,4.82-.75,9.65-1.22,14.49-1.58,9.67-.73,19.35-1.07,29.01-1.42,9.66-.36,19.31-.67,28.9-1.36,4.79-.36,9.58-.78,14.28-1.49,4.63-.76,9.5-1.6,13.21-3.7,1.85-1.08,2.88-2.49,2.41-4.15-.17-.86-.79-1.61-1.39-2.42l-2.21-2.39c-1.68-1.47-3.49-2.85-5.22-4.28l-5.87-3.67c-1.89-1.31-4.05-2.26-6.15-3.3l-6.3-3.1c-4.29-1.91-8.78-3.49-13.16-5.25l-3.3-1.29c-1.12-.39-2.27-.72-3.4-1.08l-13.65-4.23c-2.26-.74-4.55-1.4-6.9-1.92l-13.95-3.41c-4.64-1.15-9.28-2.32-14.03-3.12-37.53-8.11-75.98-12.22-114.34-16.03l-28.87-2.19c-9.63-.71-19.24-1.56-28.9-1.89-19.3-.81-38.58-1.97-57.89-2.5l-57.96-1.18c-19.32-.18-38.65.05-57.98.03-3.78,0-7.56,0-11.34-.02Z"/>
    </g>
    <text class="cls-7" transform="translate(349.87 121.57)"><tspan x="0" y="0">Album redesign </tspan></text>
  </g>
</svg>