<?xml version="1.0" encoding="UTF-8"?>
<svg id="Layer_2" data-name="Layer 2" xmlns="http://www.w3.org/2000/svg" viewBox="0 0 213.27 619.11">
  <defs>
    <style>
      .cls-1 {
        fill: #a51e22;
      }

      .cls-1, .cls-2, .cls-3 {
        stroke-width: 0px;
      }

      .cls-4 {
        fill: #fad31d;
      }

      .cls-4, .cls-5, .cls-6, .cls-7, .cls-8, .cls-9, .cls-10 {
        stroke: #231f20;
        stroke-miterlimit: 10;
        stroke-width: 4px;
      }

      .cls-5 {
        fill: #fad023;
      }

      .cls-6 {
        fill: #338047;
      }

      .cls-2 {
        fill: #181a4c;
      }

      .cls-7 {
        fill: #89b4c1;
      }

      .cls-8 {
        fill: #f2d422;
      }

      .cls-9 {
        fill: #f9dc17;
      }

      .cls-3 {
        fill: #fff;
      }

      .cls-10 {
        fill: #9a1c1f;
      }
    </style>
  </defs>
  <g id="Layer_1-2" data-name="Layer 1">
    <g>
      <path class="cls-7" d="M22.08,198.74s29.01-34.98,40.51-52.74c0,0,20-1.08,32.51-7,0,0,1,40.36,8.5,42.51s63.51,29.06,63.51,29.06c0,0-3.5,16.68,34.51,19.91,0,0-11,24.75-7,42.51l.5,59.19s-2,20.45,6.5,41.43c0,0-26.01,0-32.51,21.52l-62.51,31.21s-9,1.08-7.5,42.51c0,0-21.5-11.84-34.01-4.84,0,0-25.51-44.66-40.01-54.35l-3-210.94Z"/>
      <path class="cls-10" d="M10.1,139.75s15.21,4.94,18.62,16.91l1.53,108.92s30.54,6.26,33.67,44.48c0,0,4.78,31.95-33.67,48.58l-1.26,101.94s-5.27,14.91-15.92,15.53l.84,134.06s-1.31,8.7-7.6,6.62L2.01,2.48S8.17.04,9.02,6.17l1.08,133.58Z"/>
      <path class="cls-9" d="M191.48,150.94c2.82,40.98-28.73,69.43-55.77,92.34-1.67,1.42-11.12,7.69-11.46,8.34-1.21,2.27,4.53,7.29,5.6,10.53,4.53,13.74-11.63,23.11-21.64,26.82-4.64,1.72-41.17,10.92-42.83,9.38-1.04-7.81-5.44-14.42-10.48-19.82,10.8-7.01,22.57-21.56,10.43-33.67,18.08-12.81,35.72-29.1,47.61-48.75,6.22-10.27,13.68-21.81,7.2-33.73-3.38-6.23-6.23-7.66-13.11-6.82,8.27-46.42,80.39-63.24,84.43-4.62ZM145.81,150.09c6.44,13.4-11.27,39.33-18.87,49.84-8.92,12.34-19.34,23.49-29.34,34.79-.33,1.58,9.56,8.13,11.1,8.46,2.8.6,10.87-6.32,13.44-8.62,14.55-13.03,34.77-36.05,41.83-54.99,9.27-24.9,6.22-47.1-23.73-35.21l5.56,5.73ZM85.02,272.16c-1.88,11.34-8.95,10.16-15.79,15.91,11.89-2.44,27.53-4.36,34.46-16.22,6.03-10.32-5.34-24.59-15.28-13.89-4.29,4.61-2.51,8.9-3.39,14.21Z"/>
      <path class="cls-4" d="M123.7,442.24c-.84-4.39-5.18-11.42-7.52-15.38-12.71-21.51-30.36-37.43-49.89-51.4,11.6-11.04,1.06-25.41-9.5-31.67,2.05-4.07,5.22-7.56,7.01-11.81,1.08-2.56,1.24-8.53,3.37-9.57,16.29,3.69,56.6,7.31,63.82,26.27,3.49,9.17-7.28,16.76-6.86,18.58,26,20.51,65.55,49.95,68.31,87.75,2.44,33.41-10.2,53.35-43.08,49.42-19.45-2.32-35.32-20.09-40.4-39.68,11.91.99,16.91-11.25,14.75-22.51ZM142.7,475.01c28.12,11.16,32.17-9.72,23.6-33.71-6.64-18.61-29.03-43.72-43.63-56.12-3.4-2.88-9.52-9.15-13.75-7.76-1.42.46-10.63,6.95-10.37,8.18,14.16,16.56,32.41,34.35,42.8,53.97,4.53,8.55,14.32,29.87.79,33.35l.56,2.09ZM83.35,343.82c4.46,7.03.42,14.61,7.1,19.92,7.62,6.05,14.96.91,15.15-8.67.32-16.16-23.74-18.98-35.14-21.05,5.5,5.1,8.38,2.71,12.89,9.81Z"/>
      <path class="cls-5" d="M33.08,187.71c0-1.54,10.46-22.59,12.05-27.85,5.43-17.92,12.17-60.95-17.74-50.22-1.61-17.57-1.38-33.33,7.18-48.89,8.94-16.24,24.95-23.27,40.88-12.52,28.61,19.3,8.68,84.34-2.85,110.59-9.78,22.25-22.97,43.08-39.53,60.01v-31.12ZM56.95,169.52c11.24-22.65,27.66-62.88,18.98-88.12-2.61-7.59-8.47-13.68-16.26-14.14-13.06-.76-16.82,15.73-18.98,26.55l1.92,1.16c11.44-3.09,13.91,2.95,15.81,13.43,5.77,31.68-10.48,61.82-18.7,91.04l17.22-29.92Z"/>
      <path class="cls-8" d="M76.87,466.1c11.09,25.79,31.94,97.18-4.91,108.34-18.25,5.53-30.12-5.03-37.15-22.28-1.26-3.09-4.58-12.68-4.58-15.48v-24.49l1.96-1.12c26.18,9.1,20.94-29.19,16.53-45.3-1.97-7.2-14.69-32.3-14.69-34.19v-30.1c17.62,18.61,32.43,40.41,42.84,64.61ZM61.41,487.83c.96,8.33,2.38,36.23-7.99,38.08-1.53.27-9.95-.45-9.92.58,2.42,15.57,12.97,35.86,29.43,21.43,20.29-17.79-1.16-70.19-10.9-90.35-5.73-11.86-12.21-24.62-20.4-34.67,6.41,21.51,17.17,42.18,19.79,64.92Z"/>
      <path class="cls-3" d="M19.53,349.05c.39,26.15-.31,52.34.02,78.5.14,10.78,5.47,29.74-6.59,35.16l-2.85-308.15c5.05-.29,7.92,4.74,8.55,9.67l.97,110.69c44.33,5.42,43.86,67.94-.1,74.14ZM19.58,330.06c21.58-1.25,21.8-35.9,0-36.73v36.73Z"/>
      <path class="cls-8" d="M209.93,310.91c-2.17,1.28-3.94,1.11-6.41,3.3-6.37,5.66-6.43,16.25-4.24,24.02l-91.5-28.07,90.54-29.09c.62,3.97-.82,7.62-.46,11.75.68,7.76,5.98,14.92,13.28,15.82.38,2.31-.11,1.62-1.21,2.27ZM186.88,296.47l-48.74,13.69,49.7,12.8c1.7-4.64,2.09-9.74,6.21-12.82l-.46-1.53c-.54-.52-1.71-.76-2.06-1.3-1.54-2.34-3.16-10.42-4.66-10.83Z"/>
      <path class="cls-6" d="M140.25,144.36l5.56,5.73c6.44,13.4-11.27,39.33-18.87,49.84-8.92,12.34-19.34,23.49-29.34,34.79-.33,1.58,9.56,8.13,11.1,8.46,2.8.6,10.87-6.32,13.44-8.62,14.55-13.03,34.77-36.05,41.83-54.99,9.27-24.9,6.22-47.1-23.73-35.21Z"/>
      <path class="cls-6" d="M88.41,257.95c-4.29,4.61-2.51,8.9-3.39,14.21-1.88,11.34-8.95,10.16-15.79,15.91,11.89-2.44,27.53-4.36,34.46-16.22,6.03-10.32-5.34-24.59-15.28-13.89Z"/>
      <path class="cls-6" d="M142.14,472.92l.56,2.09c28.12,11.16,32.17-9.72,23.6-33.71-6.64-18.61-29.03-43.72-43.63-56.12-3.4-2.88-9.52-9.15-13.75-7.76-1.42.46-10.63,6.95-10.37,8.18,14.16,16.56,32.41,34.35,42.8,53.97,4.53,8.55,14.32,29.87.79,33.35Z"/>
      <path class="cls-6" d="M69.22,332.96c5.5,5.1,9.62,3.76,14.13,10.86,4.46,7.03.42,14.61,7.1,19.92,7.62,6.05,14.96.91,15.15-8.67.32-16.16-24.97-20.03-36.37-22.11Z"/>
      <path class="cls-6" d="M39.73,199.44l17.22-29.92c11.24-22.65,27.66-62.88,18.98-88.12-2.61-7.59-8.47-13.68-16.26-14.14-13.06-.76-16.82,15.73-18.98,26.55l1.92,1.16c11.44-3.09,13.91,2.95,15.81,13.43,5.77,31.68-10.48,61.82-18.7,91.04Z"/>
      <path class="cls-6" d="M41.63,422.91c6.41,21.51,17.17,42.18,19.79,64.92.96,8.33,2.38,36.23-7.99,38.08-1.53.27-9.95-.45-9.92.58,2.42,15.57,12.97,35.86,29.43,21.43,20.29-17.79-1.16-70.19-10.9-90.35-5.73-11.86-12.21-24.62-20.4-34.67Z"/>
      <path class="cls-1" d="M19.58,293.32v36.73c21.58-1.25,21.8-35.9,0-36.73Z"/>
      <path class="cls-6" d="M191.54,307.3c-1.54-2.34-3.16-10.42-4.66-10.83l-48.74,13.69,49.7,12.8c1.7-4.64,2.09-9.74,6.21-12.82l-.46-1.53c-.54-.52-1.71-.76-2.06-1.3Z"/>
      <path class="cls-2" d="M62.88,179.73l-5.19,8.36s3.26,11.78,22.3,4.95c0,0,3.79,17.98,12.09,30.07l7.27-8.53s-5.61-8.29-9.17-19.78c-2.52-8.14-.61-20.93,0-31.82,0,0-4.1,19.52-14.07,19.59-2.82.02-9.25.06-13.23-2.84Z"/>
      <path class="cls-2" d="M143.4,236.97l-7.68,6.31s1.8,14.43,21.33,19.44c0,0-3.38,17.35-2.25,32.32l9.16-2.94s-2.81-10.79,1.38-23.54c2.53-7.71,10.06-15.64,15.38-23.74,0,0-16.91,9.65-28.66,4.43-3.92-1.74-6.43-6.93-8.66-12.28Z"/>
      <path class="cls-2" d="M165.18,327.38l-9.22-3.12s-9.92,9.9-2.47,29.96c0,0-8.88,1.45-14.63,6.33-3.77,3.2-6.52,6.71-7.81,12.83l10.48,7.73s.21-12.57,12.31-16.23c7.32-2.21,17.68-.17,26.9-.15,0,0-17.07-9.31-19.88-22.65-.94-4.45,1.55-9.65,4.34-14.69Z"/>
      <path class="cls-2" d="M95.61,400.43l-6.73-7.22s-13.31,2.62-17.04,23.84c0,0-4.73-3.96-12.02-3.17-4.77.52-6.18,1.86-10.32,6.28l8.26,10.94s-2.99-8.77,9.04-4.86c7.28,2.36,13.46,12.52,21.22,17.86,0,0-8.21-20.16-3.92-33.03,1.43-4.29,6.64-7.99,11.5-10.63Z"/>
    </g>
  </g>
</svg>