<?xml version="1.0" encoding="UTF-8"?>
<svg id="Layer_2" data-name="Layer 2" xmlns="http://www.w3.org/2000/svg" viewBox="0 0 122.7 120.99">
  <defs>
    <style>
      .cls-1 {
        fill: #f7d424;
        stroke-width: 0px;
      }
    </style>
  </defs>
  <g id="Layer_1-2" data-name="Layer 1">
    <g>
      <g>
        <path class="cls-1" d="M37.04,46.06c.69-.37,1.32-.87,1.87-1.48,1.27-1.4,2.04-3.33,2.06-5.23.02-1.74-.67-3.91-2.13-4.68-.83-.43-2.1-.58-3-.14-.61.29-1.13.81-1.46,1.44-.63,1.2-.12,2.17-.37,3.35-.87,4.05-3.64,1.91-4.36.56-.49-.91-.62-2-.57-3.08.43-10.72,12.28-7.52,17.81-5.19,5.64,2.38,10.81,6.27,16.77,7.83,3.1.81,7.31.62,9.83-1.99-.35-.29-.69-.58-1.04-.86-.4-.16-.79-.34-1.19-.52-2.11.67-4.65.53-6.4.35-4.47-.45-8.55-2.52-12.52-4.47-3.4-1.67-6.82-3.24-10.49-4.19-3.16-.82-7-1.81-10.32-.63-5.08,1.81-8.07,8.22-6.35,13.47,1.65,5.04,7.03,8.09,11.87,5.47Z"/>
        <path class="cls-1" d="M47.69,30.93c.28.13.56.25.84.38-.28-.13-.56-.26-.84-.38Z"/>
        <path class="cls-1" d="M78.11.82c-3.26-.86-7.08-.34-9.8,2.17-2.72,2.51-3.85,7.23-1.9,10.16,1.94,2.93,7.01,2.55,8.5-.96.82-1.94.52-4.32,1.74-6.01,1.04-1.43,2.92-1.86,4.42-1.36,1.5.5,2.65,1.77,3.53,3.17,6.67,10.61-1.44,25.12-12.67,27.35-10.23,2.03-18.36-5.25-25.44-12.68-3.74-3.93-5.52-12.88.98-15.89.62-.29,1.44-.71,1.39-1.43-.02-.27-.17-.5-.32-.69-1.21-1.52-3.11-2.24-5.02-2.19-2.44.07-5.09,1.25-6.95,3.16-.82.84-1.79,3.83-2.63,4.24-.94.45-4.24-1.74-5.13-2.17C20.32,3.59,11.26-2.11,1.24.79c-2.16.63-1.1,2.64.12,3.5,2.5,1.77,4.41,4.5,7.03,6.03-.4,1.02-1.34,1.91-1.77,3.04-.49,1.29-.69,2.68-.62,4.03.28,5.1,3.81,8.05,7.63,8.73.66.12,1.13-.73.73-1.38-2.42-4,2.93-6.59,5.26-6.76,2.68-.2,5.36.15,7.98.58,5.19.86,9.56,3.46,13.62,6.72,6.51,6.71,14.06,12.55,22.92,14.76,6.55,1.63,14.25.44,19.43-4.91,1.99-2.05,3.5-4.61,4.53-7.37.5-1.34.89-2.73,1.16-4.13,1.88-9.71-2.67-20.56-11.14-22.8Z"/>
      </g>
      <g>
        <path class="cls-1" d="M76.64,83.95c.37-.69.87-1.32,1.48-1.87,1.4-1.27,3.33-2.04,5.23-2.06,1.74-.02,3.91.67,4.68,2.13.43.83.58,2.1.14,3-.29.61-.81,1.13-1.44,1.46-1.2.63-2.17.12-3.35.37-4.05.87-1.91,3.64-.56,4.36.91.49,2,.62,3.08.57,10.72-.43,7.52-12.28,5.19-17.81-2.38-5.64-6.27-10.81-7.83-16.77-.81-3.1-.62-7.31,1.99-9.83.29.35.58.69.86,1.04.16.4.34.79.52,1.19-.67,2.11-.53,4.65-.35,6.4.45,4.47,2.52,8.55,4.47,12.52,1.67,3.4,3.24,6.82,4.19,10.49.82,3.16,1.81,7,.63,10.32-1.81,5.08-8.22,8.07-13.47,6.35-5.04-1.65-8.09-7.03-5.47-11.87Z"/>
        <path class="cls-1" d="M91.78,73.3c-.13-.28-.25-.56-.38-.84.13.28.26.56.38.84Z"/>
        <path class="cls-1" d="M121.88,42.87c.86,3.26.34,7.08-2.17,9.8-2.51,2.72-7.23,3.85-10.16,1.9-2.93-1.94-2.55-7.01.96-8.5,1.94-.82,4.32-.52,6.01-1.74,1.43-1.04,1.86-2.92,1.36-4.42-.5-1.5-1.77-2.65-3.17-3.53-10.61-6.67-25.12,1.44-27.35,12.67-2.03,10.23,5.25,18.36,12.68,25.44,3.93,3.74,12.88,5.52,15.89-.98.29-.62.71-1.44,1.43-1.39.27.02.5.17.69.32,1.52,1.21,2.24,3.11,2.19,5.02-.07,2.44-1.25,5.09-3.16,6.95-.84.82-3.83,1.79-4.24,2.63-.45.94,1.74,4.24,2.17,5.13,4.1,8.48,9.8,17.54,6.9,27.56-.63,2.16-2.64,1.1-3.5-.12-1.77-2.5-4.5-4.41-6.03-7.03-1.02.4-1.91,1.34-3.04,1.77-1.29.49-2.68.69-4.03.62-5.1-.28-8.05-3.81-8.73-7.63-.12-.66.73-1.13,1.38-.73,4,2.42,6.59-2.93,6.76-5.26.2-2.68-.15-5.36-.58-7.98-.86-5.19-3.46-9.56-6.72-13.62-6.71-6.51-12.55-14.06-14.76-22.92-1.63-6.55-.44-14.25,4.91-19.43,2.05-1.99,4.61-3.5,7.37-4.53,1.34-.5,2.73-.89,4.13-1.16,9.71-1.88,20.56,2.67,22.8,11.14Z"/>
      </g>
      <path class="cls-1" d="M52.34,46.33c3.13,5.3,12.4,4.44,19.15,2.97.81-.18,1.59-.37,2.31-.55-.28.68-.56,1.42-.82,2.19-2.28,6.53-4.25,15.64.63,19.38-8.63,1.35-10.63-6.68-4.31-17.59-11.61,4.96-19.33,2-16.96-6.4Z"/>
      <path class="cls-1" d="M88.48,115.43v-32.41c0-.92-.74-1.66-1.66-1.66-.92,0-1.66.74-1.66,1.66v32.41c0,.92.74,1.66,1.66,1.66s1.66-.74,1.66-1.66Z"/>
      <path class="cls-1" d="M38.63,36.06c0-.92-.74-1.66-1.66-1.66H4.56c-.92,0-1.66.74-1.66,1.66,0,.92.74,1.66,1.66,1.66h32.41c.92,0,1.66-.74,1.66-1.66Z"/>
      <path class="cls-1" d="M117.42,50.41c0-2.67-2.16-4.83-4.83-4.83h0c-10.25,0-19.59-4.21-26.41-11.02-6.81-6.82-11.02-16.16-11.02-26.41v-.28c0-2.67-2.15-4.84-4.82-4.85-2.67,0-4.84,2.15-4.85,4.82v.29s0,.01,0,.01c0,12.93,5.33,24.73,13.85,33.24,8.52,8.52,20.31,13.85,33.24,13.85,2.67,0,4.83-2.16,4.83-4.83Z"/>
    </g>
  </g>
</svg>