<?xml version="1.0" encoding="UTF-8"?>
<svg id="Layer_2" data-name="Layer 2" xmlns="http://www.w3.org/2000/svg" viewBox="0 0 1614.39 680.9">
  <defs>
    <style>
      .cls-1, .cls-2, .cls-3, .cls-4, .cls-5, .cls-6, .cls-7, .cls-8, .cls-9, .cls-10, .cls-11, .cls-12, .cls-13, .cls-14 {
        stroke: #231f20;
        stroke-miterlimit: 10;
      }

      .cls-1, .cls-5 {
        fill: #fad023;
      }

      .cls-1, .cls-6, .cls-8, .cls-9, .cls-10, .cls-11, .cls-12 {
        stroke-width: 2px;
      }

      .cls-2, .cls-3, .cls-4, .cls-5, .cls-7, .cls-13, .cls-14 {
        stroke-width: 3px;
      }

      .cls-2, .cls-6 {
        fill: #9a1c1f;
      }

      .cls-15 {
        fill: #a51e22;
      }

      .cls-15, .cls-16, .cls-17 {
        stroke-width: 0px;
      }

      .cls-18 {
        letter-spacing: -.02em;
      }

      .cls-19 {
        font-size: 242.87px;
      }

      .cls-19, .cls-20 {
        fill: #f6d323;
        font-family: CalisMTBol, 'Calisto MT';
      }

      .cls-3, .cls-9 {
        fill: #fad31d;
      }

      .cls-4, .cls-11 {
        fill: #f2d422;
      }

      .cls-21 {
        letter-spacing: -.04em;
      }

      .cls-22 {
        letter-spacing: -.1em;
      }

      .cls-20 {
        font-size: 128.94px;
      }

      .cls-16 {
        fill: #181a4c;
      }

      .cls-7, .cls-8 {
        fill: #89b4c1;
      }

      .cls-10, .cls-14 {
        fill: #f9dc17;
      }

      .cls-17 {
        fill: #fff;
      }

      .cls-12, .cls-13 {
        fill: #338047;
      }

      .cls-23 {
        letter-spacing: -.03em;
      }
    </style>
  </defs>
  <g id="Layer_1-2" data-name="Layer 1">
    <g>
      <text class="cls-20" transform="translate(7.58 284.1)"><tspan x="0" y="0">SGT PEPPER’S </tspan><tspan class="cls-18" x="957.57" y="0">L</tspan><tspan x="1040.74" y="0">ONE</tspan><tspan class="cls-22" x="1334.96" y="0">L</tspan><tspan x="1408.06" y="0">Y </tspan></text>
      <text class="cls-19" transform="translate(0 484.13) scale(.62 1)"><tspan x="0" y="0">HEA</tspan><tspan class="cls-21" x="546.34" y="0">R</tspan><tspan x="712.96" y="0">T C</tspan><tspan class="cls-23" x="1123.75" y="0">L</tspan><tspan x="1278.74" y="0">UB </tspan><tspan class="cls-23" x="1692.26" y="0">B</tspan><tspan x="1844.53" y="0" xml:space="preserve">AND   </tspan></text>
    </g>
    <g>
      <path class="cls-8" d="M779.24,154.17s26.32-23.48,39.68-32.79c0,0,.81-16.19,5.26-26.32,0,0-30.37-.81-31.98-6.88-1.62-6.07-21.86-51.42-21.86-51.42,0,0-12.55,2.83-14.98-27.94,0,0-18.62,8.91-31.98,5.67l-44.54-.4s-15.39,1.62-31.17-5.26c0,0,0,21.05-16.19,26.32l-23.48,50.61s-.81,7.29-31.98,6.07c0,0,8.91,17.41,3.64,27.53,0,0,33.6,20.65,40.89,32.39l158.71,2.43Z"/>
      <path class="cls-6" d="M823.62,163.86s-3.71-12.31-12.72-15.07l-81.95-1.24s-4.71-24.72-33.46-27.25c0,0-24.04-3.87-36.55,27.25l-76.7,1.02s-11.21,4.27-11.69,12.89l-100.87-.68s-6.55,1.06-4.98,6.15l462.2,3.48s1.83-4.99-2.78-5.68l-100.5-.87Z"/>
      <path class="cls-10" d="M811.73,85.37c.63-5.56-.45-7.87-5.13-10.61-8.96-5.24-17.65.8-25.37,5.83-14.78,9.63-27.03,23.91-36.68,38.55-9.12-9.83-20.06-.3-25.34,8.45-4.06-4.08-9.04-7.64-14.91-8.48-1.16-1.34,5.77-30.91,7.06-34.67,2.79-8.1,9.84-21.19,20.18-17.52,2.44.86,6.22,5.51,7.92,4.53.49-.28,5.21-7.92,6.27-9.28,17.24-21.89,38.65-47.43,69.48-45.15,44.1,3.27,31.45,61.66-3.48,68.35ZM820.16,58.5c8.94-24.24-7.76-26.71-26.49-19.21-14.25,5.71-31.57,22.08-41.38,33.86-1.73,2.08-6.94,8.62-6.48,10.88.25,1.24,5.18,9.25,6.37,8.99,8.5-8.09,16.9-16.53,26.18-23.75,7.91-6.15,27.41-20.49,37.5-15.27l4.31,4.5ZM734.69,100.47c8.05-8.05-2.69-17.25-10.45-12.37-8.93,5.61-10.37,18.28-12.21,27.9,4.33-5.53,3.43-11.26,11.97-12.78,4-.71,7.22.73,10.69-2.75Z"/>
      <path class="cls-9" d="M579.1,83.84c-14.74-4.11-28.11-16.96-29.86-32.71-2.96-26.62,12.05-36.86,37.18-34.88,28.44,2.24,50.59,34.25,66.02,55.3,1.37.33,7.08-8.39,13.98-5.56,14.26,5.85,16.99,38.48,19.76,51.67-.78,1.73-5.28,1.85-7.2,2.73-3.2,1.45-5.82,4.01-8.88,5.67-4.71-8.55-15.53-17.08-23.83-7.69-10.51-15.82-22.48-30.1-38.67-40.39-2.98-1.89-8.27-5.41-11.57-6.09-8.47-1.75-17.69,2.3-16.94,11.94ZM572.95,56.97c2.62-10.95,18.66-3.03,25.09.64,14.76,8.41,28.15,23.19,40.6,34.65.92.21,5.81-7.25,6.16-8.4,1.04-3.42-3.67-8.38-5.84-11.13-9.32-11.82-28.22-29.94-42.22-35.32-18.05-6.93-33.76-3.66-25.36,19.11l1.57.45ZM677.46,115c-1.56-9.23-3.68-28.7-15.84-28.45-7.21.15-11.07,6.1-6.52,12.27,3.99,5.4,9.7,2.13,14.98,5.74,5.34,3.65,3.54,5.98,7.38,10.44Z"/>
      <path class="cls-1" d="M764.12,145.26c12.74-13.4,28.41-24.09,45.15-32,19.75-9.34,68.69-25.47,83.21-2.31,8.09,12.9,2.8,25.86-9.42,33.1-11.71,6.93-23.57,7.12-36.79,5.82,8.07-24.21-24.3-18.75-37.78-14.36-3.96,1.29-19.79,9.76-20.95,9.76h-23.42ZM778.71,139.88c21.99-6.65,44.66-19.81,68.5-15.14,7.89,1.55,12.43,3.54,10.1,12.8l.87,1.56c8.14-1.75,20.55-4.79,19.97-15.37-.34-6.3-4.93-11.05-10.64-13.16-18.99-7.02-49.25,6.26-66.3,15.36l-22.51,13.94Z"/>
      <path class="cls-11" d="M626.7,144.49h-22.65c-1.42,0-20.3-10.3-25.72-11.9-12.12-3.57-40.93-7.82-34.08,13.38l-.85,1.59h-18.43c-2.11,0-9.32-2.69-11.65-3.71-12.98-5.69-20.92-15.3-16.76-30.07,8.4-29.83,62.11-12.95,81.52-3.97,18.21,8.43,34.62,20.42,48.62,34.68ZM610.58,138.34c-7.57-6.63-17.16-11.87-26.09-16.51-15.16-7.89-54.59-25.25-67.98-8.83-10.86,13.32,4.41,21.86,16.13,23.83.78.02.24-6.79.44-8.03,1.39-8.4,22.38-7.25,28.65-6.47,17.11,2.12,32.67,10.83,48.85,16.02Z"/>
      <path class="cls-17" d="M721.93,156.15l83.28.79c3.7.51,7.49,2.83,7.27,6.92l-231.85-2.3c4.07-9.77,18.34-5.45,26.45-5.34,19.68.27,39.38-.3,59.06.01,4.67-35.59,51.7-35.97,55.78-.08ZM708.08,156.19c-.62-17.65-26.7-17.47-27.64,0h27.64Z"/>
      <path class="cls-11" d="M696.56,1.1c.68,5.91,6.07,10.2,11.9,10.75,3.11.29,5.86-.87,8.84-.37l-21.89,73.3-21.12-74.08c5.85,1.78,13.81,1.72,18.07-3.43,1.65-2,1.52-3.43,2.48-5.19.49-.89-.04-1.29,1.71-.98ZM697.57,16.98c-.4-.29-.59-1.23-.98-1.67l-1.15-.38c-2.32,3.34-6.16,3.66-9.65,5.03l9.63,40.24,10.3-39.46c-.3-1.21-6.39-2.52-8.15-3.77Z"/>
      <path class="cls-12" d="M820.16,58.5l-4.31-4.5c-10.08-5.22-29.59,9.13-37.5,15.27-9.28,7.22-17.68,15.66-26.18,23.75-1.19.27-6.12-7.74-6.37-8.99-.45-2.27,4.75-8.8,6.48-10.88,9.8-11.78,27.13-28.15,41.38-33.86,18.73-7.5,35.43-5.03,26.49,19.21Z"/>
      <path class="cls-12" d="M734.69,100.47c-3.47,3.47-6.69,2.03-10.69,2.75-8.53,1.52-7.64,7.25-11.97,12.78,1.84-9.62,3.28-22.29,12.21-27.9,7.76-4.88,18.5,4.32,10.45,12.37Z"/>
      <path class="cls-12" d="M572.95,56.97l-1.57-.45c-8.4-22.76,7.32-26.04,25.36-19.11,14,5.38,32.9,23.5,42.22,35.32,2.17,2.75,6.88,7.71,5.84,11.13-.35,1.15-5.23,8.6-6.16,8.4-12.46-11.46-25.85-26.24-40.6-34.65-6.43-3.66-22.47-11.59-25.09-.64Z"/>
      <path class="cls-12" d="M678.25,116c-3.84-4.45-2.83-7.79-8.17-11.44-5.29-3.61-10.99-.34-14.98-5.74-4.55-6.17-.69-12.11,6.52-12.27,12.16-.26,15.07,20.22,16.63,29.45Z"/>
      <path class="cls-12" d="M778.71,139.88l22.51-13.94c17.05-9.1,47.31-22.39,66.3-15.36,5.71,2.11,10.3,6.86,10.64,13.16.57,10.58-11.83,13.61-19.97,15.37l-.87-1.56c2.33-9.26-2.22-11.26-10.1-12.8-23.83-4.67-46.51,8.49-68.5,15.14Z"/>
      <path class="cls-12" d="M610.58,138.34c-16.18-5.19-31.74-13.9-48.85-16.02-6.27-.78-27.26-1.93-28.65,6.47-.2,1.24.34,8.05-.44,8.03-11.72-1.96-26.98-10.5-16.13-23.83,13.38-16.43,52.81.94,67.98,8.83,8.92,4.64,18.52,9.89,26.09,16.51Z"/>
      <path class="cls-15" d="M708.08,156.19h-27.64c.94-17.47,27.01-17.65,27.64,0Z"/>
      <path class="cls-12" d="M697.57,16.98c1.76,1.25,7.84,2.56,8.15,3.77l-10.3,39.46-9.63-40.24c3.49-1.37,7.33-1.69,9.65-5.03l1.15.38c.39.44.57,1.38.98,1.67Z"/>
      <path class="cls-16" d="M793.55,121.14l-6.29,4.2s-8.87-2.64-3.73-18.05c0,0-13.53-3.07-22.62-9.79l6.42-5.89s6.24,4.54,14.88,7.42c6.12,2.04,15.75.49,23.94,0,0,0-14.68,3.32-14.74,11.39-.01,2.28-.04,7.49,2.14,10.71Z"/>
      <path class="cls-16" d="M750.48,55.95l-4.75,6.22s-10.86-1.46-14.63-17.27c0,0-13.05,2.73-24.32,1.82l2.21-7.41s8.12,2.27,17.71-1.12c5.8-2.05,11.77-8.15,17.86-12.45,0,0-7.26,13.69-3.33,23.2,1.31,3.17,5.21,5.21,9.24,7.01Z"/>
      <path class="cls-16" d="M682.46,38.32l2.35,7.47s-7.45,8.03-22.54,2c0,0-1.09,7.19-4.77,11.85-2.4,3.05-5.05,5.28-9.65,6.32l-5.81-8.48s9.46-.17,12.21-9.96c1.67-5.92.13-14.31.12-21.77,0,0,7,13.82,17.04,16.09,3.35.76,7.26-1.26,11.06-3.51Z"/>
      <path class="cls-16" d="M627.49,94.64l5.43,5.45s-1.97,10.78-17.94,13.8c0,0,2.98,3.83,2.39,9.73-.39,3.86-1.4,5-4.72,8.35l-8.23-6.69s6.6,2.42,3.66-7.32c-1.78-5.89-9.42-10.9-13.43-17.18,0,0,15.17,6.65,24.85,3.17,3.23-1.16,6.01-5.37,8-9.31Z"/>
    </g>
    <g>
      <path class="cls-7" d="M619.27,526.23s-26.32,23.48-39.68,32.79c0,0-.81,16.19-5.26,26.32,0,0,30.37.81,31.98,6.88,1.62,6.07,21.86,51.42,21.86,51.42,0,0,12.55-2.83,14.98,27.94,0,0,18.62-8.91,31.98-5.67l44.54.4s15.39-1.62,31.17,5.26c0,0,0-21.05,16.19-26.32l23.48-50.61s.81-7.29,31.98-6.07c0,0-8.91-17.41-3.64-27.53,0,0-33.6-20.65-40.89-32.39l-158.71-2.43Z"/>
      <path class="cls-2" d="M574.89,516.54s3.71,12.31,12.72,15.07l81.95,1.24s4.71,24.72,33.46,27.25c0,0,24.04,3.87,36.55-27.25l76.7-1.02s11.21-4.27,11.69-12.89l100.87.68s6.55-1.06,4.98-6.15l-462.2-3.48s-1.83,4.99,2.78,5.68l100.5.87Z"/>
      <path class="cls-14" d="M586.78,595.03c-.63,5.56.45,7.87,5.13,10.61,8.96,5.24,17.65-.8,25.37-5.83,14.78-9.63,27.03-23.91,36.68-38.55,9.12,9.83,20.06.3,25.34-8.45,4.06,4.08,9.04,7.64,14.91,8.48,1.16,1.34-5.77,30.91-7.06,34.67-2.79,8.1-9.84,21.19-20.18,17.52-2.44-.86-6.22-5.51-7.92-4.53-.49.28-5.21,7.92-6.27,9.28-17.24,21.89-38.65,47.43-69.48,45.15-44.1-3.27-31.45-61.66,3.48-68.35ZM578.36,621.9c-8.94,24.24,7.76,26.71,26.49,19.21,14.25-5.71,31.57-22.08,41.38-33.86,1.73-2.08,6.94-8.62,6.48-10.88-.25-1.24-5.18-9.25-6.37-8.99-8.5,8.09-16.9,16.53-26.18,23.75-7.91,6.15-27.41,20.49-37.5,15.27l-4.31-4.5ZM663.82,579.93c-8.05,8.05,2.69,17.25,10.45,12.37,8.93-5.61,10.37-18.28,12.21-27.9-4.33,5.53-3.43,11.26-11.97,12.78-4,.71-7.22-.73-10.69,2.75Z"/>
      <path class="cls-3" d="M819.41,596.57c14.74,4.11,28.11,16.96,29.86,32.71,2.96,26.62-12.05,36.86-37.18,34.88-28.44-2.24-50.59-34.25-66.02-55.3-1.37-.33-7.08,8.39-13.98,5.56-14.26-5.85-16.99-38.48-19.76-51.67.78-1.73,5.28-1.85,7.2-2.73,3.2-1.45,5.82-4.01,8.88-5.67,4.71,8.55,15.53,17.08,23.83,7.69,10.51,15.82,22.48,30.1,38.67,40.39,2.98,1.89,8.27,5.41,11.57,6.09,8.47,1.75,17.69-2.3,16.94-11.94ZM825.56,623.43c-2.62,10.95-18.66,3.03-25.09-.64-14.76-8.41-28.15-23.19-40.6-34.65-.92-.21-5.81,7.25-6.16,8.4-1.04,3.42,3.67,8.38,5.84,11.13,9.32,11.82,28.22,29.94,42.22,35.32,18.05,6.93,33.76,3.66,25.36-19.11l-1.57-.45ZM721.05,565.4c1.56,9.23,3.68,28.7,15.84,28.45,7.21-.15,11.07-6.1,6.52-12.27-3.99-5.4-9.7-2.13-14.98-5.74-5.34-3.65-3.54-5.98-7.38-10.44Z"/>
      <path class="cls-5" d="M634.39,535.15c-12.74,13.4-28.41,24.09-45.15,32-19.75,9.34-68.69,25.47-83.21,2.31-8.09-12.9-2.8-25.86,9.42-33.1,11.71-6.93,23.57-7.12,36.79-5.82-8.07,24.21,24.3,18.75,37.78,14.36,3.96-1.29,19.79-9.76,20.95-9.76h23.42ZM619.8,540.53c-21.99,6.65-44.66,19.81-68.5,15.14-7.89-1.55-12.43-3.54-10.1-12.8l-.87-1.56c-8.14,1.75-20.55,4.79-19.97,15.37.34,6.3,4.93,11.05,10.64,13.16,18.99,7.02,49.25-6.26,66.3-15.36l22.51-13.94Z"/>
      <path class="cls-4" d="M771.81,535.91h22.65c1.42,0,20.3,10.3,25.72,11.9,12.12,3.57,40.93,7.82,34.08-13.38l.85-1.59h18.43c2.11,0,9.32,2.69,11.65,3.71,12.98,5.69,20.92,15.3,16.76,30.07-8.4,29.83-62.11,12.95-81.52,3.97-18.21-8.43-34.62-20.42-48.62-34.68ZM787.93,542.06c7.57,6.63,17.16,11.87,26.09,16.51,15.16,7.89,54.59,25.25,67.98,8.83,10.86-13.32-4.41-21.86-16.13-23.83-.78-.02-.24,6.79-.44,8.03-1.39,8.4-22.38,7.25-28.65,6.47-17.11-2.12-32.67-10.83-48.85-16.02Z"/>
      <path class="cls-17" d="M676.58,524.25l-83.28-.79c-3.7-.51-7.49-2.83-7.27-6.92l231.85,2.3c-4.07,9.77-18.34,5.45-26.45,5.34-19.68-.27-39.38.3-59.06-.01-4.67,35.59-51.7,35.97-55.78.08ZM690.43,524.22c.62,17.65,26.7,17.47,27.64,0h-27.64Z"/>
      <path class="cls-4" d="M701.96,679.3c-.68-5.91-6.07-10.2-11.9-10.75-3.11-.29-5.86.87-8.84.37l21.89-73.3,21.12,74.08c-5.85-1.78-13.81-1.72-18.07,3.43-1.65,2-1.52,3.43-2.48,5.19-.49.89.04,1.29-1.71.98ZM700.95,663.43c.4.29.59,1.23.98,1.67l1.15.38c2.32-3.34,6.16-3.66,9.65-5.03l-9.63-40.24-10.3,39.46c.3,1.21,6.39,2.52,8.15,3.77Z"/>
      <path class="cls-13" d="M578.36,621.9l4.31,4.5c10.08,5.22,29.59-9.13,37.5-15.27,9.28-7.22,17.68-15.66,26.18-23.75,1.19-.27,6.12,7.74,6.37,8.99.45,2.27-4.75,8.8-6.48,10.88-9.8,11.78-27.13,28.15-41.38,33.86-18.73,7.5-35.43,5.03-26.49-19.21Z"/>
      <path class="cls-13" d="M663.82,579.93c3.47-3.47,6.69-2.03,10.69-2.75,8.53-1.52,7.64-7.25,11.97-12.78-1.84,9.62-3.28,22.29-12.21,27.9-7.76,4.88-18.5-4.32-10.45-12.37Z"/>
      <path class="cls-13" d="M825.56,623.43l1.57.45c8.4,22.76-7.32,26.04-25.36,19.11-14-5.38-32.9-23.5-42.22-35.32-2.17-2.75-6.88-7.71-5.84-11.13.35-1.15,5.23-8.6,6.16-8.4,12.46,11.46,25.85,26.24,40.6,34.65,6.43,3.66,22.47,11.59,25.09.64Z"/>
      <path class="cls-13" d="M720.26,564.4c3.84,4.45,2.83,7.79,8.17,11.44,5.29,3.61,10.99.34,14.98,5.74,4.55,6.17.69,12.11-6.52,12.27-12.16.26-15.07-20.22-16.63-29.45Z"/>
      <path class="cls-13" d="M619.8,540.53l-22.51,13.94c-17.05,9.1-47.31,22.39-66.3,15.36-5.71-2.11-10.3-6.86-10.64-13.16-.57-10.58,11.83-13.61,19.97-15.37l.87,1.56c-2.33,9.26,2.22,11.26,10.1,12.8,23.83,4.67,46.51-8.49,68.5-15.14Z"/>
      <path class="cls-13" d="M787.93,542.06c16.18,5.19,31.74,13.9,48.85,16.02,6.27.78,27.26,1.93,28.65-6.47.2-1.24-.34-8.05.44-8.03,11.72,1.96,26.98,10.5,16.13,23.83-13.38,16.43-52.81-.94-67.98-8.83-8.92-4.64-18.52-9.89-26.09-16.51Z"/>
      <path class="cls-15" d="M690.43,524.22h27.64c-.94,17.47-27.01,17.65-27.64,0Z"/>
      <path class="cls-13" d="M700.95,663.43c-1.76-1.25-7.84-2.56-8.15-3.77l10.3-39.46,9.63,40.24c-3.49,1.37-7.33,1.69-9.65,5.03l-1.15-.38c-.39-.44-.57-1.38-.98-1.67Z"/>
      <path class="cls-16" d="M604.96,559.26l6.29-4.2s8.87,2.64,3.73,18.05c0,0,13.53,3.07,22.62,9.79l-6.42,5.89s-6.24-4.54-14.88-7.42c-6.12-2.04-15.75-.49-23.94,0,0,0,14.68-3.32,14.74-11.39.01-2.28.04-7.49-2.14-10.71Z"/>
      <path class="cls-16" d="M648.03,624.46l4.75-6.22s10.86,1.46,14.63,17.27c0,0,13.05-2.73,24.32-1.82l-2.21,7.41s-8.12-2.27-17.71,1.12c-5.8,2.05-11.77,8.15-17.86,12.45,0,0,7.26-13.69,3.33-23.2-1.31-3.17-5.21-5.21-9.24-7.01Z"/>
      <path class="cls-16" d="M716.06,642.09l-2.35-7.47s7.45-8.03,22.54-2c0,0,1.09-7.19,4.77-11.85,2.4-3.05,5.05-5.28,9.65-6.32l5.81,8.48s-9.46.17-12.21,9.96c-1.67,5.92-.13,14.31-.12,21.77,0,0-7-13.82-17.04-16.09-3.35-.76-7.26,1.26-11.06,3.51Z"/>
      <path class="cls-16" d="M771.02,585.77l-5.43-5.45s1.97-10.78,17.94-13.8c0,0-2.98-3.83-2.39-9.73.39-3.86,1.4-5,4.72-8.35l8.23,6.69s-6.6-2.42-3.66,7.32c1.78,5.89,9.42,10.9,13.43,17.18,0,0-15.17-6.65-24.85-3.17-3.23,1.16-6.01,5.37-8,9.31Z"/>
    </g>
  </g>
</svg>