<?xml version="1.0" encoding="UTF-8"?>
<svg id="Layer_2" data-name="Layer 2" xmlns="http://www.w3.org/2000/svg" viewBox="0 0 1119.2 615.18">
  <defs>
    <style>
      .cls-1 {
        fill: #f6d323;
        stroke-width: 0px;
      }
    </style>
  </defs>
  <g id="Layer_1-2" data-name="Layer 1">
    <g>
      <path class="cls-1" d="M149.02,12.95c73.75,11.18,73.61,147.85,46.13,201.79-6.61,12.98-17.05,20.11-23.33,32.5,60.21,44.94,67.67,175.22,28.19,234.99-7.73,11.7-38.28,39.06-50.99,39.06H3.01s15.13-37.16,15.13-37.16l.08-430.87c-.35-15.61-9.86-28.52-18.22-40.31h149.02ZM131.54,215.95c20.66-24.25,20.98-113.7,9.55-142.66-9.25-23.43-22.26-28.84-45.68-23.93-9.64,2.02-10.15,7.28-11.12,16.96-4.59,46.22,2.93,101.21.58,148.38,4.71,16.81,37.47,12.05,46.67,1.25ZM143.58,468.5c19.52-29.94,20.35-173.34-17.19-191.61-9.02-4.39-40.09-4.63-42.09,9.65l.63,177.41c8.93,20.74,47.53,21.61,58.66,4.55Z"/>
      <path class="cls-1" d="M541.91,615.18c6.67-15.47,13.41-29.42,15.02-46.98,6.63-72.17-1.45-161.73-.1-236.46.24-13.33,8.62-79.22-.31-85.22-22.72-4.72-35.16,2.77-50.72,18.98l8.79-56.88h150.94s8.8,56.88,8.8,56.88c-15.78-18.05-27.6-22.48-51.17-19.44,1.16,68.49-1.45,137.24-.11,205.75.15,7.66,3.07,14.74,3.26,22.4,1.17,47.22-7.85,98.1,11.92,140.98h-96.34Z"/>
      <path class="cls-1" d="M487.72,207.22c.3,7.76-6.76,10.83-8.4,18.48-1.62,7.6-.52,13.72.21,21.1,4.39,44.4,40.85,230.36,58.47,263.99,2.97,5.68,8.84,1.77,6.92,10.49h-72.25c11.34-24.21,4.1-46.51,0-71.23h-52.69c-11.3,19.59-15.88,50.66-4.52,71.23h-63.22c11.37-15.29,15.26-33.12,19.66-51.7,19-80.16,33.95-165.35,45.3-246.39l-7.77-15.98h78.28ZM448.56,327.03c-7.82-.96-4.79.02-6.08,4.73-7.41,26.99-10.33,55.7-17.98,82.65h39.13s-15.07-87.39-15.07-87.39Z"/>
      <path class="cls-1" d="M1104.87,213.71l-21.1,51.78c-17.6-28.06-64.29-37.96-82.61-6.31-28.94,49.99,46.96,74.02,74.56,94.34,101.26,74.57,7.7,221.16-97.98,163.66-41.7-22.69-39.94-89.77,6.72-102.71-46.32,87.94,90.83,102.49,75.11,14.67-6.27-35-65.64-50.92-87.12-74.64-42.9-47.37-28.11-131.99,34.14-147.77,40.19-10.19,60.62,15.49,98.28,6.98Z"/>
      <path class="cls-1" d="M937.8,207.22c8.05,2.11-5.61,42.09-1.52,51.81-9.71,2.9-7.95-4.51-12.71-7.53-15.11-9.6-30.57-4.21-47.49-5.43v87.42c10.98-1.08,23.8,1.66,34.45-.18,7.78-1.35,14.35-9.43,15.22-9.47,7.39-.38,1.5,7.62,1.5,8.03v50.19c-14.6-14.7-32.94-8.74-51.18-9.71v113.32c15.43,1.62,30.31-2.15,44.2-9.13,4.54-2.28,19.12-16.1,22.04-13.5l-9.03,58.25h-123.43c5.17-9.62,8.16-16.07,9.18-27.36,5.65-62.06,5.15-193.56-.03-256.08-.97-11.74-3.77-20.57-9.15-30.63h127.95Z"/>
      <path class="cls-1" d="M355.25,207.22l-6.06,51.79c-9.14-.49-13.74-11.01-22.69-12.79-11.18-2.21-25.8,1.23-37.49-.15v87.42c19.63-.77,37.95,4.72,54.19-9.71v58.28c-8.14-.64-10.78-8-19.74-9.53-10.68-1.82-23.46.89-34.45-.18v113.32c24.48,2.85,46.79-8.24,66.2-22.66l-9,58.28h-120.42c4.64-12.05,8.07-20.32,9.14-33.89,3.01-38.32,4.47-241.22-4.62-267.23-1.86-5.34-5.59-8.17-7.53-12.95h132.47Z"/>
      <path class="cls-1" d="M752.65,207.22c-3.3,12.38-8.02,20.15-9.15,33.87-6.23,75.21,4.9,160.21.12,236.5.18,3.81,1.4,6.41,4.95,7.68,18.54,6.65,58.95-24.72,61.27-22.24l-13.54,58.26h-118.92c6.4-8.77,8.21-12.97,9.17-24.13,5.64-65.16,5.05-193.63-.02-259.31-.89-11.58-5.44-19.56-6.15-30.63h72.25Z"/>
      <path class="cls-1" d="M562.98,67.99l-14.63,5.31,1.31,49.83c-3.39,5-27.18,5-30.57,0,1.82-39.73,4.69-82.4-1.32-121.47L550.93.02c-2.68,9.9-7.4,48.07,1.87,51.4l10.17.4-1.68-48.66L593.07.02c-4.41,34.41-3.84,70.4-3.15,105.35.15,7.7,6.39,17.67-1.82,20.41-5.18,1.73-23.91,1.94-26.87-2.7-1.81-2.32,1.74-4.08,1.74-4.89v-50.19Z"/>
      <path class="cls-1" d="M665.34,0c-.27,8.07,2.4,17.21-4.51,22.6-6.38-8.96-16.28-6.44-25.61-6.43l1.33,32.57c5.25,8.13,21.6-1.61,22.74-.17l.04,21.02-24.11-1.62v42.12s30.1-6.47,30.1-6.47l-7.51,22.65h-48.17c-7.45-5.21-1.52-12.68-1.36-20.9.7-34.46,1.46-71.71-3.16-105.37h60.21Z"/>
      <path class="cls-1" d="M511.8,3.24l-.03,19.43c-7.53-6.89-14.25-7.55-24.05-6.48v101.99c0,.81,3.55,2.58,1.74,4.89-3.45,5.4-29.81,5.57-31.5-1.91l2.67-104.99-27.11,6.46,3.01-19.4h75.26Z"/>
    </g>
  </g>
</svg>