<?xml version="1.0" encoding="UTF-8"?>
<svg id="Layer_2" data-name="Layer 2" xmlns="http://www.w3.org/2000/svg" xmlns:xlink="http://www.w3.org/1999/xlink" viewBox="0 0 539.81 762.48">
  <defs>
    <style>
      .cls-1 {
        fill: #8f8571;
      }

      .cls-1, .cls-2, .cls-3, .cls-4 {
        stroke-width: 0px;
      }

      .cls-2 {
        fill: #f6e8dd;
      }

      .cls-3 {
        fill: #fad1db;
        opacity: .6;
      }

      .cls-4 {
        fill: url(#radial-gradient);
      }
    </style>
    <radialGradient id="radial-gradient" cx="279.42" cy="603.84" fx="279.42" fy="603.84" r="162.59" gradientUnits="userSpaceOnUse">
      <stop offset="0" stop-color="#fad1db"/>
      <stop offset="1" stop-color="#f0a1bc"/>
    </radialGradient>
  </defs>
  <g id="Layer_1-2" data-name="Layer 1">
    <g>
      <g>
        <circle class="cls-3" cx="269.91" cy="137.06" r="137.06"/>
        <path class="cls-3" d="M435.55,381.46c73.49-18.13,118.37-92.41,100.24-165.9-18.14-73.49-92.41-118.37-165.9-100.23-73.49,18.14-118.37,92.41-100.24,165.9,18.14,73.49,92.41,118.36,165.9,100.23Z"/>
        <path class="cls-3" d="M233.78,471.72c42.69,62.5,127.97,78.57,190.48,35.87,62.51-42.69,78.57-127.97,35.87-190.48-42.69-62.5-127.96-78.57-190.48-35.87-62.5,42.69-78.56,127.97-35.87,190.48Z"/>
        <path class="cls-3" d="M78.66,314.25c-43.62,61.86-28.85,147.37,33.01,191,61.85,43.63,147.36,28.85,190.99-33.01,43.63-61.86,28.85-147.37-33.02-191-61.85-43.62-147.36-28.84-190.99,33.02Z"/>
        <path class="cls-3" d="M171.92,113.85C98.71,94.62,23.77,138.37,4.53,211.58c-19.24,73.21,24.52,148.15,97.73,167.38,73.21,19.23,148.15-24.52,167.38-97.73,19.24-73.21-24.52-148.15-97.73-167.38Z"/>
      </g>
      <g>
        <g>
          <path class="cls-1" d="M269.61,281.33c-28.23-10.6-51.75-32.2-67.08-57.93-5.04-8.66-9.01-17.91-11.97-27.45,0,0,.19-.06.19-.06,3.2,9.44,7.41,18.54,12.64,27,15.46,25.63,40.39,44.77,66.22,58.45h0Z"/>
          <path class="cls-1" d="M233.45,180.26c2.52,30.21,9.67,72.72,29.79,96.18,1.52,1.69,3.19,3.21,4.91,4.71,0,0-.12.16-.12.16-.94-.65-1.88-1.31-2.81-1.99-13.55-11.09-19.8-28.41-24.11-44.85-2.3-8.87-4.02-17.87-5.32-26.92-1.25-9.06-2.16-18.16-2.54-27.28h.2Z"/>
          <path class="cls-1" d="M268.19,175.69c.22,34.22,1.92,71.47,0,105.54,0,0-.2,0-.2,0-.57-8.79-.72-17.59-.9-26.39-.13-8.79.09-17.59.2-26.38.13-13.14.48-39.63.7-52.77,0,0,.2,0,.2,0h0Z"/>
          <path class="cls-1" d="M188.26,191.14s-6.53,2.95-3.98,9.77c2.54,6.82,13.83-3.92,13.83-3.92,0,0-.82-8.77-9.85-5.85Z"/>
          <path class="cls-1" d="M233.95,174s-7.14-.62-8.25,6.57c-1.12,7.19,13.98,3.34,13.98,3.34,0,0,3.58-8.05-5.73-9.91Z"/>
          <path class="cls-1" d="M269.04,168.52s-7.14-.62-8.25,6.57c-1.12,7.19,13.98,3.34,13.98,3.34,0,0,3.58-8.05-5.73-9.91Z"/>
        </g>
        <g>
          <path class="cls-1" d="M266.79,281.14c26.44-13.39,50.66-32.8,66.29-58.26,5.23-8.46,9.43-17.56,12.64-27l.19.06c-2.95,9.54-6.93,18.79-11.97,27.45-12.76,21.55-31.26,39.91-53.38,51.76-4.43,2.36-8.96,4.53-13.69,6.17,0,0-.07-.19-.07-.19h0Z"/>
          <path class="cls-1" d="M303.22,180.27c-1.55,29.3-7.9,79.95-31.97,99.05-.93.68-1.87,1.34-2.81,1.99l-.12-.16c1.72-1.5,3.39-3.02,4.91-4.71,10.48-11.99,16.01-27.32,20.59-42.39,5.07-17.41,7.47-36.16,9.4-53.78h0Z"/>
          <path class="cls-1" d="M348.21,191.14s6.53,2.95,3.98,9.77c-2.54,6.82-13.83-3.92-13.83-3.92,0,0,.82-8.77,9.84-5.85Z"/>
          <path class="cls-1" d="M302.52,174s7.14-.62,8.25,6.57c1.12,7.19-13.98,3.34-13.98,3.34,0,0-3.58-8.05,5.73-9.91Z"/>
        </g>
      </g>
      <g>
        <g>
          <path class="cls-1" d="M266.86,276.04c28.23,10.6,51.75,32.2,67.08,57.93,5.04,8.66,9.01,17.91,11.97,27.45,0,0-.19.06-.19.06-3.2-9.44-7.41-18.54-12.64-27-15.46-25.63-40.39-44.77-66.22-58.45h0Z"/>
          <path class="cls-1" d="M303.02,377.1c-2.52-30.21-9.67-72.72-29.79-96.18-1.52-1.69-3.19-3.21-4.91-4.71,0,0,.12-.16.12-.16.94.65,1.88,1.31,2.81,1.99,13.55,11.09,19.8,28.41,24.11,44.85,2.3,8.87,4.02,17.87,5.32,26.92,1.25,9.06,2.16,18.16,2.54,27.28,0,0-.2,0-.2,0h0Z"/>
          <path class="cls-1" d="M268.28,381.67c-.22-34.22-1.92-71.47,0-105.54,0,0,.2,0,.2,0,.57,8.79.72,17.59.9,26.39.13,8.79-.09,17.59-.2,26.39-.13,13.14-.48,39.63-.7,52.77,0,0-.2,0-.2,0h0Z"/>
          <path class="cls-1" d="M348.21,366.22s6.53-2.95,3.98-9.77c-2.54-6.82-13.83,3.92-13.83,3.92,0,0,.82,8.77,9.84,5.85Z"/>
          <path class="cls-1" d="M302.52,383.36s7.14.62,8.25-6.57c1.12-7.19-13.98-3.34-13.98-3.34,0,0-3.58,8.05,5.73,9.91Z"/>
          <path class="cls-1" d="M267.43,388.84s7.14.62,8.25-6.57c1.12-7.19-13.98-3.34-13.98-3.34,0,0-3.58,8.05,5.73,9.91Z"/>
        </g>
        <g>
          <path class="cls-1" d="M269.68,276.22c-26.44,13.39-50.66,32.8-66.29,58.26-5.23,8.46-9.43,17.56-12.64,27l-.19-.06c2.95-9.54,6.93-18.79,11.97-27.45,12.76-21.55,31.26-39.91,53.38-51.76,4.43-2.36,8.96-4.53,13.69-6.17,0,0,.07.19.07.19h0Z"/>
          <path class="cls-1" d="M233.25,377.09c1.55-29.3,7.9-79.95,31.97-99.05.93-.68,1.87-1.34,2.81-1.99l.12.16c-1.72,1.5-3.39,3.02-4.91,4.71-10.48,11.99-16.01,27.32-20.59,42.39-5.07,17.41-7.47,36.16-9.4,53.78h0Z"/>
          <path class="cls-1" d="M188.26,366.22s-6.53-2.95-3.98-9.77c2.54-6.82,13.83,3.92,13.83,3.92,0,0-.82,8.77-9.85,5.85Z"/>
          <path class="cls-1" d="M233.95,383.36s-7.14.62-8.25-6.57c-1.12-7.19,13.98-3.34,13.98-3.34,0,0,3.58,8.05-5.73,9.91Z"/>
        </g>
      </g>
    </g>
    <g>
      <g>
        <path class="cls-4" d="M445.86,592.65l-27.65-12.03,19.86-22.69s-43.46-67.42-113.63-2.38c48.09-82.72-27.22-110.35-27.22-110.35l-17.79,24.35-17.79-24.35s-75.31,27.63-27.22,110.35c-70.18-65.04-113.63,2.38-113.63,2.38l19.86,22.69-27.65,12.02s8.31,63.11,74.62,56.54c-52.03,41.63-13.87,92.58-13.87,92.58l28.18-10.72,1.65,30.11s55.53,12.7,75.85-40.46c20.33,53.16,75.85,40.46,75.85,40.46l1.65-30.11,28.18,10.72s38.16-50.95-13.87-92.58c66.32,6.57,74.62-56.53,74.62-56.53ZM279.42,611.78h0,0Z"/>
        <path class="cls-2" d="M311.74,593.73l-5.37-2.33,3.86-4.41s-8.44-13.09-22.06-.46c9.34-16.06-5.28-21.42-5.28-21.42l-3.45,4.73-3.45-4.73s-14.62,5.36-5.28,21.42c-13.62-12.63-22.06.46-22.06.46l3.86,4.41-5.37,2.33s1.61,12.25,14.49,10.98c-10.1,8.08-2.69,17.97-2.69,17.97l5.47-2.08.32,5.85s10.78,2.47,14.73-7.85c3.95,10.32,14.73,7.85,14.73,7.85l.32-5.85,5.47,2.08s7.41-9.89-2.69-17.97c12.87,1.28,14.49-10.97,14.49-10.97Z"/>
        <path class="cls-2" d="M140.64,572.68c46.46,5.82,93.18,14.14,138.78,24.76-46.46-5.81-93.18-14.16-138.78-24.76h0Z"/>
        <path class="cls-2" d="M279.43,597.44c-2.43-45.05-2.44-90.79,0-135.84,2.45,45.05,2.43,90.78,0,135.84h0Z"/>
        <path class="cls-2" d="M279.43,597.44c45.61-10.6,92.32-18.95,138.78-24.76-45.6,10.62-92.32,18.93-138.78,24.76h0Z"/>
        <path class="cls-2" d="M279.43,597.44c27.77,40.41,53.87,82.7,77.5,125.67-27.79-40.4-53.86-82.71-77.5-125.67h0Z"/>
        <path class="cls-2" d="M201.92,723.11c23.67-40.88,49.75-81.04,77.5-119.27-23.66,40.89-49.76,81.03-77.5,119.27h0Z"/>
      </g>
      <g>
        <path class="cls-2" d="M234.42,547.61c8.42,7.21,16.32,15.56,23.82,23.73,7.48,8.36,14.75,16.87,21.19,26.1-8.53-7.34-16.26-15.43-23.82-23.73-7.37-8.29-14.87-16.99-21.19-26.1h0Z"/>
        <path class="cls-2" d="M187.61,641.24c14.44-8.46,30.05-16.2,45.14-23.5,15.17-7.15,30.99-14.4,46.67-20.3-14.44,8.47-30.05,16.21-45.14,23.5-15.18,7.14-31,14.4-46.67,20.3h0Z"/>
        <path class="cls-2" d="M279.43,712.75c-1.42-18.91-1.68-38.66-1.77-57.66.08-19.01.34-38.74,1.77-57.66,1.43,18.91,1.69,38.66,1.77,57.66-.09,19.01-.35,38.73-1.77,57.66h0Z"/>
        <path class="cls-2" d="M324.43,547.61c-6.32,9.11-13.82,17.82-21.19,26.1-7.55,8.29-15.29,16.39-23.82,23.73,6.43-9.23,13.7-17.75,21.19-26.1,7.5-8.17,15.39-16.51,23.82-23.73h0Z"/>
        <path class="cls-2" d="M371.24,641.24c-15.66-5.9-31.5-13.16-46.67-20.3-15.1-7.3-30.7-15.03-45.14-23.5,15.67,5.89,31.51,13.16,46.67,20.3,15.1,7.3,30.69,15.03,45.14,23.5h0Z"/>
      </g>
    </g>
  </g>
</svg>