<?xml version="1.0" encoding="UTF-8"?>
<svg id="Layer_2" data-name="Layer 2" xmlns="http://www.w3.org/2000/svg" xmlns:xlink="http://www.w3.org/1999/xlink" viewBox="0 0 1239.14 679.91">
  <defs>
    <style>
      .cls-1 {
        fill: #8f8571;
      }

      .cls-1, .cls-2, .cls-3, .cls-4, .cls-5, .cls-6, .cls-7, .cls-8, .cls-9, .cls-10, .cls-11, .cls-12, .cls-13, .cls-14, .cls-15, .cls-16, .cls-17, .cls-18, .cls-19, .cls-20, .cls-21, .cls-22, .cls-23, .cls-24, .cls-25, .cls-26, .cls-27 {
        stroke-width: 0px;
      }

      .cls-2 {
        fill: url(#radial-gradient-16);
      }

      .cls-3 {
        fill: url(#radial-gradient-8);
      }

      .cls-4 {
        fill: url(#radial-gradient-13);
      }

      .cls-5 {
        fill: url(#radial-gradient-12);
      }

      .cls-6 {
        fill: #f6e8dd;
      }

      .cls-7 {
        fill: url(#radial-gradient-22);
      }

      .cls-8 {
        fill: url(#radial-gradient-19);
      }

      .cls-9 {
        fill: url(#radial-gradient-20);
      }

      .cls-10 {
        fill: #f5fafa;
      }

      .cls-11 {
        fill: url(#radial-gradient-17);
      }

      .cls-12 {
        fill: url(#radial-gradient-21);
      }

      .cls-13 {
        fill: #fad1db;
        opacity: .6;
      }

      .cls-14 {
        fill: url(#radial-gradient-2);
      }

      .cls-15 {
        fill: url(#radial-gradient-7);
      }

      .cls-16 {
        fill: url(#radial-gradient-5);
      }

      .cls-17 {
        fill: url(#radial-gradient);
      }

      .cls-18 {
        fill: url(#radial-gradient-14);
      }

      .cls-19 {
        fill: url(#radial-gradient-18);
      }

      .cls-20 {
        fill: url(#radial-gradient-10);
      }

      .cls-21 {
        fill: #f6fbfb;
      }

      .cls-22 {
        fill: url(#radial-gradient-6);
      }

      .cls-23 {
        fill: url(#radial-gradient-15);
      }

      .cls-24 {
        fill: url(#radial-gradient-9);
      }

      .cls-25 {
        fill: url(#radial-gradient-3);
      }

      .cls-26 {
        fill: url(#radial-gradient-11);
      }

      .cls-27 {
        fill: url(#radial-gradient-4);
      }
    </style>
    <radialGradient id="radial-gradient" cx="100.53" cy="234.06" fx="100.53" fy="234.06" r="98.2" gradientUnits="userSpaceOnUse">
      <stop offset="0" stop-color="#fad1db"/>
      <stop offset="1" stop-color="#f0a1bc"/>
    </radialGradient>
    <radialGradient id="radial-gradient-2" cx="273.64" cy="43.28" fx="273.64" fy="43.28" r="37.95" gradientUnits="userSpaceOnUse">
      <stop offset=".21" stop-color="#fad1db"/>
      <stop offset=".37" stop-color="#c7e7e3"/>
      <stop offset=".82" stop-color="#f0a1bc"/>
    </radialGradient>
    <radialGradient id="radial-gradient-3" cx="328.95" cy="82.89" fx="328.95" fy="82.89" r="37.96" xlink:href="#radial-gradient-2"/>
    <radialGradient id="radial-gradient-4" cx="311.77" cy="89.12" fx="311.77" fy="89.12" r="18.89" xlink:href="#radial-gradient-2"/>
    <radialGradient id="radial-gradient-5" cx="311.76" cy="149.85" fx="311.76" fy="149.85" r="36.15" xlink:href="#radial-gradient-2"/>
    <radialGradient id="radial-gradient-6" cx="297.65" cy="132.85" fx="297.65" fy="132.85" r="18.89" xlink:href="#radial-gradient-2"/>
    <radialGradient id="radial-gradient-7" cx="235.53" cy="149.85" fx="235.53" fy="149.85" r="36.15" xlink:href="#radial-gradient-2"/>
    <radialGradient id="radial-gradient-8" cx="250.21" cy="133.6" fx="250.21" fy="133.6" r="18.89" xlink:href="#radial-gradient-2"/>
    <radialGradient id="radial-gradient-9" cx="218.33" cy="82.89" fx="218.33" fy="82.89" r="37.96" xlink:href="#radial-gradient-2"/>
    <radialGradient id="radial-gradient-10" cx="235.52" cy="89.11" fx="235.52" fy="89.11" r="18.89" xlink:href="#radial-gradient-2"/>
    <radialGradient id="radial-gradient-11" cx="273.64" cy="99.19" fx="273.64" fy="99.19" r="5.97" xlink:href="#radial-gradient-2"/>
    <radialGradient id="radial-gradient-12" cx="-1970.36" cy="-4915.16" fx="-1970.36" fy="-4915.16" r="98.2" gradientTransform="translate(-831.74 -4469.31) rotate(-180)" xlink:href="#radial-gradient"/>
    <radialGradient id="radial-gradient-13" cx="-1797.24" cy="-5105.94" fx="-1797.24" fy="-5105.94" r="37.95" gradientTransform="translate(-831.74 -4469.31) rotate(-180)" xlink:href="#radial-gradient-2"/>
    <radialGradient id="radial-gradient-14" cx="-1741.93" cy="-5066.33" fx="-1741.93" fy="-5066.33" r="37.96" gradientTransform="translate(-831.74 -4469.31) rotate(-180)" xlink:href="#radial-gradient-2"/>
    <radialGradient id="radial-gradient-15" cx="-1759.12" cy="-5060.1" fx="-1759.12" fy="-5060.1" r="18.89" gradientTransform="translate(-831.74 -4469.31) rotate(-180)" xlink:href="#radial-gradient-2"/>
    <radialGradient id="radial-gradient-16" cx="-1759.13" cy="-4999.37" fx="-1759.13" fy="-4999.37" r="36.15" gradientTransform="translate(-831.74 -4469.31) rotate(-180)" xlink:href="#radial-gradient-2"/>
    <radialGradient id="radial-gradient-17" cx="-1773.24" cy="-5016.37" fx="-1773.24" fy="-5016.37" r="18.89" gradientTransform="translate(-831.74 -4469.31) rotate(-180)" xlink:href="#radial-gradient-2"/>
    <radialGradient id="radial-gradient-18" cx="-1835.35" cy="-4999.37" fx="-1835.35" fy="-4999.37" r="36.15" gradientTransform="translate(-831.74 -4469.31) rotate(-180)" xlink:href="#radial-gradient-2"/>
    <radialGradient id="radial-gradient-19" cx="-1820.68" cy="-5015.61" fx="-1820.68" fy="-5015.61" r="18.89" gradientTransform="translate(-831.74 -4469.31) rotate(-180)" xlink:href="#radial-gradient-2"/>
    <radialGradient id="radial-gradient-20" cx="-1852.55" cy="-5066.33" fx="-1852.55" fy="-5066.33" r="37.96" gradientTransform="translate(-831.74 -4469.31) rotate(-180)" xlink:href="#radial-gradient-2"/>
    <radialGradient id="radial-gradient-21" cx="-1835.36" cy="-5060.1" fx="-1835.36" fy="-5060.1" r="18.89" gradientTransform="translate(-831.74 -4469.31) rotate(-180)" xlink:href="#radial-gradient-2"/>
    <radialGradient id="radial-gradient-22" cx="-1797.24" cy="-5050.02" fx="-1797.24" fy="-5050.02" r="5.97" gradientTransform="translate(-831.74 -4469.31) rotate(-180)" xlink:href="#radial-gradient-2"/>
  </defs>
  <g id="Layer_1-2" data-name="Layer 1">
    <g>
      <g>
        <g>
          <g>
            <path class="cls-17" d="M201.05,227.3l-16.7-7.26,11.99-13.71s-26.25-40.72-68.63-1.44c29.05-49.96-16.44-66.65-16.44-66.65l-10.75,14.71-10.75-14.71s-45.48,16.69-16.44,66.65c-42.39-39.29-68.63,1.44-68.63,1.44l11.99,13.71-16.7,7.26s5.02,38.12,45.07,34.15c-31.43,25.15-8.38,55.92-8.38,55.92l17.02-6.48,1,18.18s33.54,7.67,45.81-24.44c12.28,32.11,45.81,24.44,45.81,24.44l1-18.18,17.02,6.48s23.05-30.77-8.38-55.92c40.05,3.97,45.07-34.15,45.07-34.15ZM100.52,238.85h0,0Z"/>
            <path class="cls-6" d="M120.04,227.95l-3.24-1.41,2.33-2.66s-5.1-7.9-13.32-.28c5.64-9.7-3.19-12.94-3.19-12.94l-2.09,2.85-2.09-2.85s-8.83,3.24-3.19,12.94c-8.23-7.63-13.32.28-13.32.28l2.33,2.66-3.24,1.41s.97,7.4,8.75,6.63c-6.1,4.88-1.63,10.86-1.63,10.86l3.3-1.26.19,3.53s6.51,1.49,8.89-4.74c2.38,6.23,8.89,4.74,8.89,4.74l.19-3.53,3.3,1.26s4.47-5.97-1.63-10.86c7.78.77,8.75-6.63,8.75-6.63Z"/>
            <path class="cls-6" d="M16.7,215.24c13.98,1.05,28.39,3.35,42.22,5.73,13.81,2.55,28.11,5.36,41.6,9.22-13.99-1.05-28.39-3.35-42.22-5.73-13.81-2.55-28.1-5.37-41.6-9.22h0Z"/>
            <path class="cls-6" d="M100.53,230.19c-1.42-13.44-1.68-27.49-1.77-41.02.08-13.54.34-27.57,1.77-41.02,1.43,13.44,1.69,27.49,1.77,41.02-.09,13.54-.35,27.57-1.77,41.02h0Z"/>
            <path class="cls-6" d="M100.53,230.19c13.49-3.85,27.8-6.67,41.6-9.22,13.84-2.39,28.23-4.69,42.22-5.73-13.48,3.85-27.79,6.68-41.6,9.22-13.84,2.38-28.23,4.68-42.22,5.73h0Z"/>
            <path class="cls-6" d="M100.53,230.19c8.88,11.69,17.12,24.55,24.91,37.02,7.65,12.56,15.44,25.68,21.9,38.88-8.89-11.69-17.13-24.55-24.91-37.02-7.65-12.57-15.43-25.69-21.9-38.88h0Z"/>
            <path class="cls-6" d="M53.71,306.09c6.48-12.58,14.28-25.06,21.92-36.98,7.79-11.84,16.02-24.02,24.89-35.05-6.47,12.58-14.27,25.06-21.92,36.98-7.8,11.83-16.03,24.01-24.89,35.05h0Z"/>
          </g>
          <g>
            <path class="cls-6" d="M73.34,200.09c5.54,4.04,10.31,8.84,14.91,13.86,4.53,5.08,8.82,10.31,12.28,16.24-5.54-4.04-10.32-8.84-14.91-13.86-4.53-5.08-8.82-10.32-12.28-16.24h0Z"/>
            <path class="cls-6" d="M45.07,256.65c8.61-5.66,17.72-10.36,26.96-14.83,9.29-4.38,18.67-8.51,28.49-11.63-8.61,5.67-17.72,10.36-26.96,14.83-9.29,4.37-18.67,8.5-28.49,11.63h0Z"/>
            <path class="cls-6" d="M100.53,299.84c-1.42-11.4-1.68-23.33-1.77-34.82.05-11.63.36-23.24,1.77-34.82,1.41,11.58,1.72,23.19,1.77,34.82-.09,11.5-.35,23.41-1.77,34.82h0Z"/>
            <path class="cls-6" d="M127.71,200.09c-3.46,5.92-7.75,11.16-12.28,16.24-4.59,5.02-9.37,9.82-14.91,13.86,3.45-5.92,7.74-11.16,12.28-16.24,4.59-5.02,9.37-9.82,14.91-13.86h0Z"/>
            <path class="cls-6" d="M155.98,256.65c-9.82-3.13-19.2-7.26-28.49-11.63-9.25-4.47-18.36-9.16-26.96-14.83,9.82,3.12,19.2,7.25,28.49,11.63,9.24,4.47,18.35,9.17,26.96,14.83h0Z"/>
          </g>
        </g>
        <g>
          <g>
            <path class="cls-14" d="M282.89,0l-9.24,12.65-9.25-12.65s-56.3,20.64,9.25,86.56C339.19,20.64,282.89,0,282.89,0Z"/>
            <path class="cls-6" d="M273.09,86.56c-1.24-6.41-2.24-13.54-3.11-20.04-.4-3.97-1.03-9.48-1.79-13.36-.96-6.98.98-14.05,4.89-20.04,0,0,1.1,0,1.1,0,2.89,4.18,4.2,8.6,4.95,13.36.8,4.49-.63,8.93-1.1,13.36-.33,3.33-1.16,10.04-1.65,13.36-.67,4.45-1.33,8.9-2.2,13.36h-1.1Z"/>
          </g>
          <g>
            <path class="cls-25" d="M357.83,78.82l10.32-11.79s-32.47-50.42-82.43,27.98c78.68,49.52,86.48-9.94,86.48-9.94l-14.37-6.25Z"/>
            <g>
              <line class="cls-27" x1="285.71" y1="95.01" x2="337.82" y2="83.22"/>
              <path class="cls-6" d="M285.59,94.48c5.98-2.63,12.71-5.17,18.85-7.45,3.79-1.27,9.02-3.1,12.63-4.69,6.59-2.47,13.92-2.15,20.62.35,0,0,.24,1.07.24,1.07-3.44,3.74-7.46,5.99-11.93,7.78-4.2,1.77-8.85,1.35-13.27,1.88,0,0-6.68.75-6.68.75-6.53.58-13.69,1.19-20.23,1.39,0,0-.24-1.07-.24-1.07h0Z"/>
            </g>
          </g>
          <g>
            <path class="cls-16" d="M282.7,110.7c-19.04,90.99,39.41,77.62,39.41,77.62l.86-15.64,14.64,5.57s35.96-47.99-54.92-67.54Z"/>
            <g>
              <line class="cls-22" x1="282.72" y1="110.7" x2="312.58" y2="155"/>
              <path class="cls-6" d="M283.18,110.39c6.15,6.21,12.49,13.29,18.12,20,2.86,3.41,6.53,6.29,8.38,10.46,2.03,4.37,3.41,8.76,3.36,13.84,0,0-.91.61-.91.61-2.55-.96-4.6-2.27-6.5-3.67-3.65-2.81-6.85-6.02-8.76-10.2-1.53-3.62-4.11-8.57-5.98-12.07-2.91-5.88-6.06-12.33-8.62-18.35,0,0,.91-.61.91-.61h0Z"/>
            </g>
          </g>
          <g>
            <path class="cls-15" d="M264.6,110.7c-90.88,19.56-54.92,67.54-54.92,67.54l14.64-5.57.86,15.64s58.46,13.37,39.42-77.62Z"/>
            <g>
              <line class="cls-3" x1="263.95" y1="110.7" x2="236.46" y2="156.51"/>
              <path class="cls-6" d="M264.42,110.98c-3.02,8.2-6.75,16.95-10.44,24.89-1.88,4.04-2.94,8.58-5.93,12.02-3.09,3.69-6.49,6.8-11.12,8.91,0,0-.94-.57-.94-.57-.21-2.72.1-5.13.58-7.44,1-4.49,2.55-8.75,5.54-12.25,2.63-2.92,6.02-7.35,8.41-10.53,4.09-5.12,8.6-10.71,12.97-15.58,0,0,.94.57.94.57h0Z"/>
            </g>
          </g>
          <g>
            <path class="cls-24" d="M179.14,67.03l10.32,11.79-14.37,6.25s7.8,59.46,86.48,9.94c-49.96-78.4-82.43-27.98-82.43-27.98Z"/>
            <g>
              <line class="cls-20" x1="261.57" y1="95.03" x2="209.47" y2="83.2"/>
              <path class="cls-6" d="M261.45,95.57c-6.53-.21-13.7-.82-20.23-1.41-3.97-.49-9.47-1.09-13.42-1.22-4.6-.27-8.74-2.09-12.68-4.48-2-1.26-3.95-2.7-5.77-4.73l.24-1.07c4.72-1.89,9.32-2.19,14.12-1.87,4.55.22,8.57,2.6,12.78,4.03,0,0,6.35,2.2,6.35,2.2,6.14,2.29,12.86,4.83,18.85,7.47,0,0-.24,1.07-.24,1.07h0Z"/>
            </g>
          </g>
          <path class="cls-26" d="M279.61,99.19c0-3.3-2.67-5.97-5.97-5.97s-5.97,2.67-5.97,5.97,2.67,5.97,5.97,5.97,5.97-2.67,5.97-5.97Z"/>
        </g>
        <g>
          <g>
            <circle class="cls-13" cx="155.98" cy="365.2" r="52.23"/>
            <path class="cls-13" d="M219.11,458.34c28-6.91,45.11-35.21,38.2-63.22-6.91-28.01-35.22-45.11-63.22-38.2-28.01,6.91-45.11,35.21-38.2,63.22,6.91,28,35.22,45.11,63.22,38.2Z"/>
            <path class="cls-13" d="M142.21,492.73c16.27,23.82,48.77,29.94,72.59,13.67,23.82-16.27,29.94-48.77,13.67-72.59-16.27-23.82-48.77-29.94-72.59-13.67-23.82,16.27-29.94,48.77-13.67,72.59Z"/>
            <path class="cls-13" d="M83.1,432.72c-16.62,23.57-10.99,56.16,12.58,72.79,23.57,16.63,56.16,10.99,72.78-12.58,16.63-23.58,10.99-56.16-12.58-72.79-23.57-16.62-56.16-10.99-72.78,12.58Z"/>
            <path class="cls-13" d="M118.64,356.36c-27.9-7.33-56.46,9.34-63.79,37.24-7.33,27.9,9.34,56.46,37.24,63.79,27.9,7.33,56.46-9.34,63.78-37.24,7.33-27.9-9.34-56.46-37.24-63.78Z"/>
          </g>
          <g>
            <g>
              <path class="cls-1" d="M155.85,420.24c-14.62-4.14-26.05-18.34-30.16-32.58,0,0,.19-.06.19-.06,3.84,10.75,11.44,19.59,20.68,26.11,2.98,2.27,6.1,4.35,9.36,6.34l-.07.19h0Z"/>
              <path class="cls-1" d="M142.15,381.66c1.38,12.43,4.62,28.91,13.2,38.4,0,0-.12.16-.12.16-6.42-3.5-9.15-11.06-10.7-17.77-1.64-6.84-2.43-13.81-2.58-20.78h.2Z"/>
              <path class="cls-1" d="M155.39,379.92c.22,5.02.57,15.09.7,20.11.33,6.73.39,13.42-.7,20.11,0,0-.2,0-.2,0-1.09-6.69-1.03-13.38-.7-20.11.13-5.01.48-15.1.7-20.11,0,0,.2,0,.2,0h0Z"/>
              <path class="cls-1" d="M124.87,385.81s-2.49,1.12-1.52,3.72c.97,2.6,5.27-1.5,5.27-1.5,0,0-.31-3.34-3.75-2.23Z"/>
              <path class="cls-1" d="M142.28,379.28s-2.72-.24-3.15,2.5c-.43,2.74,5.33,1.27,5.33,1.27,0,0,1.36-3.07-2.18-3.78Z"/>
              <path class="cls-1" d="M155.65,377.19s-2.72-.24-3.15,2.5c-.43,2.74,5.33,1.27,5.33,1.27,0,0,1.36-3.07-2.18-3.78Z"/>
            </g>
            <g>
              <path class="cls-1" d="M154.77,420.05c13.17-8.1,24.69-17.45,30.04-32.45,0,0,.19.06.19.06-3.19,11.06-10.26,21.06-19.71,27.68-3.2,2.06-6.74,3.95-10.45,4.9,0,0-.07-.19-.07-.19h0Z"/>
              <path class="cls-1" d="M168.74,381.67c-.45,11.4-2.12,32.59-13.28,38.55,0,0-.12-.16-.12-.16,4.78-5.05,7.04-11.58,9.28-18.03,1.96-6.62,3.21-13.49,3.92-20.37,0,0,.2,0,.2,0h0Z"/>
              <path class="cls-1" d="M185.82,385.81s2.49,1.12,1.52,3.72c-.97,2.6-5.27-1.5-5.27-1.5,0,0,.31-3.34,3.75-2.23Z"/>
              <path class="cls-1" d="M168.41,379.28s2.72-.24,3.15,2.5c.43,2.74-5.33,1.27-5.33,1.27,0,0-1.36-3.07,2.18-3.78Z"/>
            </g>
          </g>
          <g>
            <g>
              <path class="cls-1" d="M154.84,418.11c14.62,4.14,26.05,18.34,30.16,32.58,0,0-.19.06-.19.06-3.84-10.75-11.44-19.59-20.68-26.11-2.98-2.27-6.1-4.35-9.36-6.34l.07-.19h0Z"/>
              <path class="cls-1" d="M168.54,456.68c-1.38-12.43-4.62-28.91-13.2-38.4,0,0,.12-.16.12-.16,6.42,3.5,9.15,11.06,10.7,17.77,1.64,6.84,2.43,13.81,2.58,20.78h-.2Z"/>
              <path class="cls-1" d="M155.3,458.42c-.22-5.02-.57-15.09-.7-20.11-.33-6.73-.39-13.42.7-20.11,0,0,.2,0,.2,0,1.09,6.69,1.03,13.38.7,20.11-.13,5.01-.48,15.1-.7,20.11,0,0-.2,0-.2,0h0Z"/>
              <path class="cls-1" d="M185.82,452.53s2.49-1.12,1.52-3.72c-.97-2.6-5.27,1.5-5.27,1.5,0,0,.31,3.34,3.75,2.23Z"/>
              <path class="cls-1" d="M168.41,459.06s2.72.24,3.15-2.5c.43-2.74-5.33-1.27-5.33-1.27,0,0-1.36,3.07,2.18,3.78Z"/>
              <path class="cls-1" d="M155.04,461.15s2.72.24,3.15-2.5c.43-2.74-5.33-1.27-5.33-1.27,0,0-1.36,3.07,2.18,3.78Z"/>
            </g>
            <g>
              <path class="cls-1" d="M155.92,418.29c-13.17,8.1-24.69,17.45-30.04,32.45,0,0-.19-.06-.19-.06,3.19-11.06,10.26-21.06,19.71-27.68,3.2-2.06,6.74-3.95,10.45-4.9,0,0,.07.19.07.19h0Z"/>
              <path class="cls-1" d="M141.95,456.67c.45-11.4,2.12-32.59,13.28-38.55,0,0,.12.16.12.16-4.78,5.05-7.04,11.58-9.28,18.03-1.96,6.62-3.21,13.49-3.92,20.37,0,0-.2,0-.2,0h0Z"/>
              <path class="cls-1" d="M124.87,452.53s-2.49-1.12-1.52-3.72c.97-2.6,5.27,1.5,5.27,1.5,0,0-.31,3.34-3.75,2.23Z"/>
              <path class="cls-1" d="M142.28,459.06s-2.72.24-3.15-2.5c-.43-2.74,5.33-1.27,5.33-1.27,0,0,1.36,3.07-2.18,3.78Z"/>
            </g>
          </g>
        </g>
      </g>
      <g>
        <g>
          <g>
            <path class="cls-5" d="M1038.09,452.61l16.7,7.26-11.99,13.71s26.25,40.72,68.63,1.44c-29.05,49.96,16.44,66.65,16.44,66.65l10.75-14.71,10.75,14.71s45.48-16.69,16.44-66.65c42.39,39.29,68.63-1.44,68.63-1.44l-11.99-13.71,16.7-7.26s-5.02-38.12-45.07-34.15c31.43-25.15,8.38-55.92,8.38-55.92l-17.02,6.48-1-18.18s-33.54-7.67-45.81,24.44c-12.28-32.11-45.81-24.44-45.81-24.44l-1,18.18-17.02-6.48s-23.05,30.77,8.38,55.92c-40.05-3.97-45.07,34.15-45.07,34.15ZM1138.62,441.05h0,0Z"/>
            <path class="cls-6" d="M1119.1,451.96l3.24,1.41-2.33,2.66s5.1,7.9,13.32.28c-5.64,9.7,3.19,12.94,3.19,12.94l2.09-2.85,2.09,2.85s8.83-3.24,3.19-12.94c8.23,7.63,13.32-.28,13.32-.28l-2.33-2.66,3.24-1.41s-.97-7.4-8.75-6.63c6.1-4.88,1.63-10.86,1.63-10.86l-3.3,1.26-.19-3.53s-6.51-1.49-8.89,4.74c-2.38-6.23-8.89-4.74-8.89-4.74l-.19,3.53-3.3-1.26s-4.47,5.97,1.63,10.86c-7.78-.77-8.75,6.63-8.75,6.63Z"/>
            <path class="cls-6" d="M1222.44,464.67c-13.98-1.05-28.39-3.35-42.22-5.73-13.81-2.55-28.11-5.36-41.6-9.22,13.99,1.05,28.39,3.35,42.22,5.73,13.81,2.55,28.1,5.37,41.6,9.22h0Z"/>
            <path class="cls-6" d="M1138.62,449.71c1.42,13.44,1.68,27.49,1.77,41.02-.08,13.54-.34,27.57-1.77,41.02-1.43-13.44-1.69-27.49-1.77-41.02.09-13.54.35-27.57,1.77-41.02h0Z"/>
            <path class="cls-6" d="M1138.62,449.71c-13.49,3.85-27.8,6.67-41.6,9.22-13.84,2.39-28.23,4.69-42.22,5.73,13.48-3.85,27.79-6.68,41.6-9.22,13.84-2.38,28.23-4.68,42.22-5.73h0Z"/>
            <path class="cls-6" d="M1138.62,449.71c-8.88-11.69-17.12-24.55-24.91-37.02-7.65-12.56-15.44-25.68-21.9-38.88,8.89,11.69,17.13,24.55,24.91,37.02,7.65,12.57,15.43,25.69,21.9,38.88h0Z"/>
            <path class="cls-6" d="M1185.43,373.81c-6.48,12.58-14.28,25.06-21.92,36.98-7.79,11.84-16.02,24.02-24.89,35.05,6.47-12.58,14.27-25.06,21.92-36.98,7.8-11.83,16.03-24.01,24.89-35.05h0Z"/>
          </g>
          <g>
            <path class="cls-6" d="M1165.8,479.81c-5.54-4.04-10.31-8.84-14.91-13.86-4.53-5.08-8.82-10.31-12.28-16.24,5.54,4.04,10.32,8.84,14.91,13.86,4.53,5.08,8.82,10.32,12.28,16.24h0Z"/>
            <path class="cls-6" d="M1194.07,423.26c-8.61,5.66-17.72,10.36-26.96,14.83-9.29,4.38-18.67,8.5-28.49,11.63,8.61-5.67,17.72-10.36,26.96-14.83,9.29-4.37,18.67-8.5,28.49-11.63h0Z"/>
            <path class="cls-6" d="M1138.62,380.07c1.42,11.41,1.68,23.33,1.77,34.82-.05,11.63-.36,23.24-1.77,34.82-1.41-11.58-1.72-23.19-1.77-34.82.09-11.5.35-23.41,1.77-34.82h0Z"/>
            <path class="cls-6" d="M1111.43,479.81c3.46-5.92,7.75-11.16,12.28-16.24,4.59-5.02,9.37-9.82,14.91-13.86-3.45,5.92-7.74,11.16-12.28,16.24-4.59,5.02-9.37,9.82-14.91,13.86h0Z"/>
            <path class="cls-6" d="M1083.16,423.26c9.82,3.13,19.2,7.26,28.49,11.63,9.25,4.47,18.36,9.16,26.96,14.83-9.82-3.12-19.2-7.25-28.49-11.63-9.24-4.47-18.35-9.17-26.96-14.83h0Z"/>
          </g>
        </g>
        <g>
          <g>
            <path class="cls-4" d="M956.26,679.91l9.24-12.65,9.25,12.65s56.3-20.64-9.25-86.56c-65.55,65.92-9.24,86.56-9.24,86.56Z"/>
            <path class="cls-6" d="M966.05,593.35c1.24,6.41,2.24,13.54,3.11,20.03.4,3.97,1.03,9.48,1.79,13.36.96,6.98-.98,14.05-4.89,20.04,0,0-1.1,0-1.1,0-2.89-4.18-4.2-8.6-4.95-13.36-.8-4.49.63-8.93,1.1-13.36.33-3.33,1.16-10.04,1.65-13.36.67-4.45,1.33-8.9,2.2-13.36h1.1Z"/>
          </g>
          <g>
            <path class="cls-18" d="M881.32,601.09l-10.32,11.79s32.47,50.42,82.43-27.98c-78.68-49.52-86.48,9.94-86.48,9.94l14.37,6.25Z"/>
            <g>
              <line class="cls-23" x1="953.43" y1="584.89" x2="901.32" y2="596.69"/>
              <path class="cls-6" d="M953.55,585.43c-5.98,2.63-12.71,5.17-18.85,7.45-3.79,1.27-9.02,3.1-12.63,4.69-6.59,2.47-13.92,2.15-20.62-.35,0,0-.24-1.07-.24-1.07,3.44-3.74,7.46-5.99,11.93-7.78,4.2-1.77,8.85-1.35,13.27-1.88,0,0,6.68-.75,6.68-.75,6.53-.58,13.69-1.19,20.23-1.39,0,0,.24,1.07.24,1.07h0Z"/>
            </g>
          </g>
          <g>
            <path class="cls-2" d="M956.45,569.21c19.04-90.99-39.41-77.62-39.41-77.62l-.86,15.64-14.64-5.57s-35.96,47.99,54.92,67.54Z"/>
            <g>
              <line class="cls-11" x1="956.42" y1="569.21" x2="926.57" y2="524.91"/>
              <path class="cls-6" d="M955.97,569.52c-6.15-6.21-12.49-13.29-18.12-20-2.86-3.41-6.53-6.29-8.38-10.46-2.03-4.37-3.41-8.76-3.36-13.84,0,0,.91-.61.91-.61,2.55.96,4.6,2.27,6.5,3.67,3.65,2.81,6.85,6.02,8.76,10.21,1.53,3.62,4.11,8.57,5.98,12.07,2.91,5.88,6.06,12.33,8.62,18.35,0,0-.91.61-.91.61h0Z"/>
            </g>
          </g>
          <g>
            <path class="cls-19" d="M974.55,569.21c90.88-19.56,54.92-67.54,54.92-67.54l-14.64,5.57-.86-15.64s-58.46-13.37-39.42,77.62Z"/>
            <g>
              <line class="cls-8" x1="975.19" y1="569.21" x2="1002.68" y2="523.4"/>
              <path class="cls-6" d="M974.72,568.93c3.02-8.2,6.75-16.95,10.44-24.89,1.88-4.04,2.94-8.58,5.93-12.02,3.09-3.69,6.49-6.8,11.12-8.91,0,0,.94.57.94.57.21,2.72-.11,5.13-.58,7.44-1,4.49-2.55,8.75-5.54,12.25-2.63,2.92-6.02,7.35-8.41,10.53-4.09,5.12-8.6,10.71-12.97,15.58,0,0-.94-.57-.94-.57h0Z"/>
            </g>
          </g>
          <g>
            <path class="cls-9" d="M1060,612.88l-10.32-11.79,14.37-6.25s-7.8-59.46-86.48-9.94c49.96,78.4,82.43,27.98,82.43,27.98Z"/>
            <g>
              <line class="cls-12" x1="977.57" y1="584.88" x2="1029.67" y2="596.71"/>
              <path class="cls-6" d="M977.69,584.34c6.53.21,13.7.82,20.23,1.41,3.97.49,9.47,1.09,13.42,1.22,4.6.27,8.74,2.09,12.68,4.48,2,1.26,3.95,2.7,5.77,4.73l-.24,1.07c-4.72,1.89-9.32,2.19-14.12,1.87-4.55-.22-8.57-2.6-12.78-4.03,0,0-6.35-2.2-6.35-2.2-6.14-2.29-12.86-4.83-18.85-7.47,0,0,.24-1.07.24-1.07h0Z"/>
            </g>
          </g>
          <path class="cls-7" d="M959.53,580.71c0,3.3,2.67,5.97,5.97,5.97s5.97-2.67,5.97-5.97-2.67-5.97-5.97-5.97-5.97,2.67-5.97,5.97Z"/>
        </g>
        <g>
          <g>
            <circle class="cls-13" cx="1083.16" cy="314.71" r="52.23"/>
            <path class="cls-13" d="M1020.04,221.57c-28,6.91-45.11,35.21-38.2,63.22,6.91,28.01,35.22,45.11,63.22,38.2,28.01-6.91,45.11-35.21,38.2-63.22-6.91-28-35.22-45.11-63.22-38.2Z"/>
            <path class="cls-13" d="M1096.93,187.17c-16.27-23.82-48.77-29.94-72.59-13.67-23.82,16.27-29.94,48.77-13.67,72.59,16.27,23.82,48.77,29.94,72.59,13.67,23.82-16.27,29.94-48.77,13.67-72.59Z"/>
            <path class="cls-13" d="M1156.04,247.18c16.62-23.57,10.99-56.16-12.58-72.79-23.57-16.63-56.16-10.99-72.78,12.58-16.63,23.58-10.99,56.16,12.58,72.79,23.57,16.62,56.16,10.99,72.78-12.58Z"/>
            <path class="cls-13" d="M1120.5,323.55c27.9,7.33,56.46-9.34,63.79-37.24,7.33-27.9-9.34-56.46-37.24-63.79-27.9-7.33-56.46,9.34-63.78,37.24-7.33,27.9,9.34,56.46,37.24,63.78Z"/>
          </g>
          <g>
            <g>
              <path class="cls-1" d="M1083.3,259.67c14.61,4.12,26.06,18.36,30.16,32.58,0,0-.19.06-.19.06-3.84-10.75-11.44-19.59-20.68-26.11-2.98-2.27-6.1-4.35-9.36-6.34l.07-.19h0Z"/>
              <path class="cls-1" d="M1096.99,298.24c-1.38-12.43-4.62-28.91-13.2-38.4,0,0,.12-.16.12-.16,6.42,3.5,9.15,11.06,10.7,17.77,1.64,6.84,2.43,13.81,2.58,20.78h-.2Z"/>
              <path class="cls-1" d="M1083.76,299.98c-.22-5.02-.57-15.09-.7-20.11-.33-6.73-.39-13.42.7-20.11,0,0,.2,0,.2,0,1.09,6.69,1.03,13.38.7,20.11-.13,5.01-.48,15.1-.7,20.11,0,0-.2,0-.2,0h0Z"/>
              <path class="cls-1" d="M1114.28,294.1s2.49-1.12,1.52-3.72c-.97-2.6-5.27,1.5-5.27,1.5,0,0,.31,3.34,3.75,2.23Z"/>
              <path class="cls-1" d="M1096.87,300.63s2.72.24,3.15-2.5c.43-2.74-5.33-1.27-5.33-1.27,0,0-1.36,3.07,2.18,3.78Z"/>
              <path class="cls-1" d="M1083.49,302.71s2.72.24,3.15-2.5c.43-2.74-5.33-1.27-5.33-1.27,0,0-1.36,3.07,2.18,3.78Z"/>
            </g>
            <g>
              <path class="cls-1" d="M1084.37,259.86c-13.17,8.1-24.69,17.45-30.04,32.45,0,0-.19-.06-.19-.06,3.19-11.06,10.26-21.06,19.71-27.68,3.2-2.06,6.74-3.95,10.45-4.9,0,0,.07.19.07.19h0Z"/>
              <path class="cls-1" d="M1070.41,298.24c.45-11.4,2.12-32.59,13.28-38.55,0,0,.12.16.12.16-4.78,5.05-7.04,11.58-9.28,18.03-1.96,6.62-3.21,13.49-3.92,20.37,0,0-.2,0-.2,0h0Z"/>
              <path class="cls-1" d="M1053.32,294.1s-2.49-1.12-1.52-3.72c.97-2.6,5.27,1.5,5.27,1.5,0,0-.31,3.34-3.75,2.23Z"/>
              <path class="cls-1" d="M1070.73,300.63s-2.72.24-3.15-2.5c-.43-2.74,5.33-1.27,5.33-1.27,0,0,1.36,3.07-2.18,3.78Z"/>
            </g>
          </g>
          <g>
            <g>
              <path class="cls-1" d="M1084.3,261.8c-14.62-4.14-26.05-18.34-30.16-32.58,0,0,.19-.06.19-.06,3.84,10.75,11.44,19.59,20.68,26.11,2.98,2.27,6.1,4.35,9.36,6.34l-.07.19h0Z"/>
              <path class="cls-1" d="M1070.61,223.23c1.38,12.43,4.62,28.91,13.2,38.4,0,0-.12.16-.12.16-6.42-3.5-9.15-11.06-10.7-17.77-1.64-6.84-2.43-13.81-2.58-20.78h.2Z"/>
              <path class="cls-1" d="M1083.84,221.49c.22,5.02.57,15.09.7,20.11.33,6.73.39,13.42-.7,20.11,0,0-.2,0-.2,0-1.09-6.69-1.03-13.38-.7-20.11.13-5.01.48-15.1.7-20.11,0,0,.2,0,.2,0h0Z"/>
              <path class="cls-1" d="M1053.32,227.38s-2.49,1.12-1.52,3.72c.97,2.6,5.27-1.5,5.27-1.5,0,0-.31-3.34-3.75-2.23Z"/>
              <path class="cls-1" d="M1070.73,220.84s-2.72-.24-3.15,2.5c-.43,2.74,5.33,1.27,5.33,1.27,0,0,1.36-3.07-2.18-3.78Z"/>
              <path class="cls-1" d="M1084.11,218.76s-2.72-.24-3.15,2.5c-.43,2.74,5.33,1.27,5.33,1.27,0,0,1.36-3.07-2.18-3.78Z"/>
            </g>
            <g>
              <path class="cls-1" d="M1083.23,261.61c13.17-8.1,24.69-17.45,30.04-32.45,0,0,.19.06.19.06-3.19,11.06-10.26,21.06-19.71,27.68-3.2,2.06-6.74,3.95-10.45,4.9,0,0-.07-.19-.07-.19h0Z"/>
              <path class="cls-1" d="M1097.19,223.24c-.45,11.4-2.12,32.59-13.28,38.55,0,0-.12-.16-.12-.16,4.78-5.05,7.04-11.58,9.28-18.03,1.96-6.62,3.21-13.49,3.92-20.37,0,0,.2,0,.2,0h0Z"/>
              <path class="cls-1" d="M1114.28,227.38s2.49,1.12,1.52,3.72c-.97,2.6-5.27-1.5-5.27-1.5,0,0,.31-3.34,3.75-2.23Z"/>
              <path class="cls-1" d="M1096.87,220.84s2.72-.24,3.15,2.5c.43,2.74-5.33,1.27-5.33,1.27,0,0-1.36-3.07,2.18-3.78Z"/>
            </g>
          </g>
        </g>
      </g>
      <g>
        <path class="cls-21" d="M227.86,223.24c19.68-2.85,29.17,6.22,32.55,24.72,3.64,19.93-3.29,63.5,16.04,75.63,10.61,6.66,21.01-.88,25-11.08,8.92-22.8-1.72-51.49,8.49-73.53,10.66-23.01,42-19.35,48.15,5.39,2.87,11.55,2.06,26.03,4.54,38.88,7.15,37.09,36.89,94.99,19.77,130.71-10.31,21.51-37.44,20.09-47.54-.41-8.96-18.17-1.33-46.47-2.93-67.03-.71-9.15-4.37-24.33-10.24-7.74-7.16,20.24-8.44,65.68-40.93,62.54-32.39-3.13-29.66-54.54-37.78-75.63-4.97-12.92-11.63,4.18-13.27,10.37-5.12,19.3-1.96,37.62-4.11,56.2-3.77,32.71-44.23,42.09-54.75,7.97-12.3-39.86,14.69-73.17,24.39-109.51,6.2-23.25-.41-62.71,32.62-67.49Z"/>
        <path class="cls-10" d="M928.17,299.34c28.3-26.49,94.95-21.13,97.26,25.53.89,17.95-8.24,30.48-24.49,36.99-9.97,3.99-40.72,7.59-44.53,16.98-8.66,21.33,23.56,19.92,35.27,14.77,12.49-5.49,24.92-34.73,40.46-18.75,10.91,11.22.03,28.35-9.73,36.21-23.05,18.55-62.86,20.43-87.81,4.64-34.87-22.07-35.26-89.37-6.42-116.36ZM966.05,326.97c-8.86,1.03-19.6,4.69-16.33,15.72,3.51,11.82,47.82,12.63,41.7-7.95-2.22-7.46-18.98-8.52-25.37-7.77Z"/>
        <path class="cls-10" d="M722.69,285.64c-.86,6.6,2,1.42,5.22,2.38.78.23.83,1.8,1.8,2.31,3.4,1.78,7.09,4.15,11.07,3.75.46.33.78.87,1.21,1.21-.72,4.72,5.36,7.73,7.24,10.5.82,1.21.7,3.12,1.44,4.37.89,1.52,2.69,1.62,3.33,2.97,3.46,7.3.02,21.5.07,29.55-.19.82-10.21,8.82-11.59,10.39-1.38,1.57-1.46,4.26-1.96,4.68-.61.52-11.63,3.12-13.69,3.8-2.26.75-4.29,0-4.15,3.69-.79.05-1.62.02-2.41,0-11.74-.28-9.59,2-17.8,3.35-2,.33-3.8-1.13-5.48-.76-.45.1-7.46,4.6-7.78,4.93-.39.41-4.85,9.61-4.93,10.17-.05.39,2.26,7.08,2.5,7.39.55.68,1.97.09,2.13.24,9.78,9.25,29.88,7.67,40.4,0,9.83-7.17,17.27-26.91,32.39-17.9,12.76,7.61,6.08,27.38-2.77,35.44-38.54,35.07-111.72,20.36-118.15-37.56-6.02-54.23,23.63-97.18,81.89-84.91ZM684.47,331.86c-4.85,4.41-3.19,12.52,2.13,15.82,9.22,5.73,40.82,5.08,38.31-10.46-2.16-13.35-32.45-12.62-40.44-5.36Z"/>
        <path class="cls-10" d="M617.75,294.09c11.03,30.15,14.59,52.94,9.65,85.64-.12.76.14,1.67,0,2.41-3.15,16.61-12.24,32.22-30.96,32.1-11.04-.07-23.48-8.33-25.44-19.72-4.73-27.47,26.54-38.64,22.55-63.57-1.91-11.92-15.81-20.83-26.87-14-1.12.69-.69,2.38-.79,2.47-1.38,1.1-3.36.47-5.34,3.71-6.21,10.16-.29,18.07.56,28.21,1.92,22.86-4.73,56.69-35.37,49.85-16.22-3.62-2.13-28.19-.99-37.87,2.97-25.16-15.35-45.68-13-67.29,2.66-24.52,33.17-27.23,37.13-1.2.64,4.18-1.33,9.32,1.95,12.53,4.05-29.35,32.19-44.47,56.1-23.53,3.81,3.33,6.76,8.8,10.84,10.27Z"/>
        <path class="cls-10" d="M491.61,294.79c29.6,33.88,18.7,99.85-32.42,104.28-57.2,4.95-80.8-40.76-61.87-90.82,15.83-41.87,66.42-45.36,94.3-13.45ZM423.56,343.54c-.35,23.04,33.69,30.24,48.22,18.65,2.3-1.84,2.09-3.81,2.44-4.17.17-.18,2.51.07,4.17-2.47,6.59-10.12,2.38-25.46-7.78-31.3-17.4-10-46.69-4.18-47.04,19.3Z"/>
        <path class="cls-10" d="M800.77,207.52c8.36-1.7,16.27,1.86,20.29,9.31,11.18,20.7.33,60.3.44,83.89.13,29.02,23.78,86.25,7.13,109.56-17.73,24.83-51.01,7.37-51.74-21.49-.93-36.86,18.95-68.02,14.54-110.96-1.72-16.73-16.18-65.1,9.34-70.3Z"/>
        <path class="cls-10" d="M875.6,278.72c9.04-.29,17.75,6.08,19.28,15.05,2.2,12.85-5.39,20.22-6.84,31.18-3.31,25.05,13.26,38.78,13.27,59,.02,42.98-67.03,34.09-54.95-9.01,2.96-10.56,12.29-20,13.74-30.89,2.3-17.36-9.02-33.2-2.91-51.16,2.71-7.97,9.91-13.89,18.41-14.16Z"/>
        <path class="cls-10" d="M858.2,249.05c-9.04-9.31-3.2-31.17,9.43-34.99,25.9-7.81,41.35,31.51,20.1,39.4-8.04,2.99-23.34,1.96-29.53-4.42Z"/>
        <path class="cls-10" d="M514.91,471.71c1.77,1.89,1.79,5.96,1.23,8.43-1.29,5.63-14.25,8.29-4,15.46,6.48,4.53,3.68-7.87,12.74-4.89,1.12,4.7-2.9,6.85-3.61,10.84,3.25-.2,6.67-.04,6.02,4.22-3.33,4.13-9.01.72-12.69.81-5.42.12-17.33,6.44-21.36-2.91-4.39-10.19,4.24-12.89,4.67-15.94.49-3.44-3.77-7.36-1.05-13.61,2.58-5.93,14.09-6.66,18.07-2.41ZM503.18,483.46c.83.59,6.15-2.8,6.64-3.59,3.89-6.24-12.51-8.33-6.64,3.59ZM507.98,502.75c1.05-5.75-10.43-12.9-9.32-4.41.67,5.12,5.11,4.71,9.32,4.41Z"/>
        <path class="cls-10" d="M589.63,476.6c6.44,7.76,4.21,23.79-4.49,29.12-4.05,2.48-19.58,4.88-22.95,2.54-1.63-1.14-1.75-35.3-.6-36.94,3.06-4.4,23.58-.08,28.04,5.28ZM568.3,501.55c24.02,4.33,24.47-28.54,0-24.12v24.12Z"/>
        <path class="cls-10" d="M804.72,472c.81-2.61,12.39-2.12,15.08-1.81,9.01,1.02,13.55,5.83,12.71,15.08-.47,5.15-4.8,7.25-4.86,9.62-.1,3.39,6.42,8.88,6,10.8-10.5,9.84-8.91-14.34-21.7-8.96-.52,2.51.86,9.06-.17,10.67-.9,1.42-7.06,1.87-7.06-.42,0-6.84-1.37-30.54,0-34.98ZM810.74,489.5c20.08,3.66,20.1-15.73,0-12.07v12.07Z"/>
        <path class="cls-10" d="M438.03,477.43v8.45c4.65,1.03,15.62-3.19,15.71,4.2.03,2.86-.76,1.65-2.99,1.82-9.11.73-14.26-3.4-12.72,9.65h19.9c2.4,0,2.39,7.24,0,7.24h-24.12c-.4,0-1.83-1.6-3.02-1.21v-34.38c0-.4,1.6-1.83,1.21-3.02h25.93c2.39,0,2.4,7.24,0,7.24h-19.9Z"/>
        <path class="cls-10" d="M621.37,477.43v8.45c3.61.62,17.2-2.51,15.61,4.11-1.25,5.19-20.36-4.02-15.61,11.57h19.9c2.77,0,1,7.24.6,7.24h-25.93c-.13,0-1.81-1.68-1.81-1.81v-34.98c0-.13,1.68-1.81,1.81-1.81h25.33c2.39,0,2.4,7.24,0,7.24h-19.9Z"/>
        <path class="cls-10" d="M783,470.19v7.24h-20.51v8.45c2.28.37,13.98-.53,14.48,0,.42.43.4,6.54-1.76,6.93-1.37.25-11.47-2.17-12.72-.91v9.66h20.51c.32,1.72.03,7.24-1.81,7.24h-24.12c-.13,0-1.81-1.68-1.81-1.81v-36.79h27.74Z"/>
        <path class="cls-10" d="M382.55,472c.61-1.96,6.63-2.4,7.24-1.81.49.47-.37,11.13.01,13.27,3.98-1.08,18.66-20.45,20.42-10.1.38,2.25-12.93,13.74-15.59,15.53-.03,1.02,12.81,11.94,14.52,14.44,1.68,2.44.39,4.68-2.12,5.33-4.05,1.06-12.9-12.41-17.23-14.34-.6,3.31,1.08,10.82-.56,13.32-1.28,1.96-6.69.3-6.69-.05,0-6.89-1.38-31.14,0-35.58Z"/>
        <path class="cls-10" d="M347.42,470.36c1.21.75,11.09,22.4,12.41,25.56,1.62,3.86,6.39,11.68.36,12.91-5.02,1.03-4.99-9.15-7.41-9.73-2.33-.56-15.25-.31-16.72,1.21-1.92,2-1.81,9.71-6.96,8.35-2.16-1.18-3.39-2.17-2.77-4.69.52-2.13,14.44-31.37,15.79-32.57s3.89-1.91,5.3-1.03ZM346.34,482.26c-2.75-2.1-6.83,10.07-6.01,10.85h9.64c.59-.56-3.18-10.5-3.63-10.85Z"/>
        <path class="cls-10" d="M725.99,501.25c8.76-7.47-13.9-9.56-16.68-15.85-7.8-17.6,24.05-19.49,23.12-8.59-.68,7.86-8.71-2.3-14.25.32-11,5.2,11.44,10.19,13.62,12.31,6.69,6.47,1.97,17.83-7.37,19.28-8.15,1.26-21.92-3.7-13.05-11.91,2.03-.35,8.33,9.81,14.61,4.45Z"/>
        <path class="cls-10" d="M924.96,489.86c8.88,9.53-2.32,20.76-14.63,18.85-12.07-1.88-11.07-14.3-4.34-11.43,3.26,1.39,6.51,9.55,12.75,3.11,7.04-7.26-11.45-8.19-15.15-13-3.06-3.99-3.17-11.55.89-14.84,10.41-8.42,28.97,4.27,17.59,7.17-3.79.97-4.38-5.72-10.92-2.59-10.99,5.25,11.16,9.91,13.79,12.74Z"/>
        <path class="cls-10" d="M686.42,478.54c-2.55,3.59-14.73-6.95-16.65.85-1.49,6.06,14.29,5.84,17.81,12.05,11.64,20.5-28.45,21.86-25.01,8.56,2.04-7.89,7.95,1.99,11.53,2.55,4.56.71,10.51-3.05,6.38-7.64-5.06-5.63-18.99-1.74-16.95-16.94,1.84-13.72,28.52-7.38,22.89.57Z"/>
        <path class="cls-10" d="M292.97,470.49c4.54-.77,16.71-.3,16.09,6.32-.6,6.35-7.28.91-10.29.54-19.05-2.34-17.92,26.82-.12,24.16,2.67-.4,7.53-4.48,9.81-1.23,3.31,4.73-3.82,7.62-7.6,8.22-26.46,4.21-32.16-33.89-7.87-38.01Z"/>
        <path class="cls-10" d="M881.31,470.19c1.75.54,2.45,5.36,1.81,6.03-.62.65-13.27-1.38-13.27,1.81v28.95c0,2.06-7.24,3.39-7.24-1.21v-29.55h-12.07s0-6.03,0-6.03c7.72,1.48,24.26-1.99,30.76,0Z"/>
        <path class="cls-10" d="M722.69,365.25c-.14-3.69,1.89-2.95,4.15-3.69,2.06-.68,13.07-3.29,13.69-3.8.5-.42.58-3.11,1.96-4.68,1.38-1.57,11.39-9.57,11.59-10.39-.06-8.05,3.39-22.25-.07-29.55-.64-1.35-2.44-1.45-3.33-2.97-.74-1.26-.62-3.16-1.44-4.37-1.88-2.77-7.96-5.78-7.24-10.5,14.71,11.68,19.45,25.5,13.87,44.63-3.73,12.8-20.11,24.48-33.17,25.33Z"/>
        <path class="cls-10" d="M720.28,365.25c-12.3,4.67-37.8,5.7-31.36,25.33-.16-.15-1.58.43-2.13-.24-.24-.3-2.56-7-2.5-7.39.08-.56,4.54-9.76,4.93-10.17.32-.33,7.33-4.83,7.78-4.93,1.68-.38,3.48,1.08,5.48.76,8.22-1.35,6.07-3.63,17.8-3.35Z"/>
        <path class="cls-10" d="M740.79,294.09c-3.98.39-7.67-1.98-11.07-3.75-.98-.51-1.02-2.08-1.8-2.31-3.21-.95-6.08,4.22-5.22-2.38,9.13,1.92,10.9,3.37,18.09,8.44Z"/>
      </g>
    </g>
  </g>
</svg>