<?xml version="1.0" encoding="UTF-8"?>
<svg id="Layer_2" data-name="Layer 2" xmlns="http://www.w3.org/2000/svg" viewBox="0 0 798.95 759.84">
  <defs>
    <style>
      .cls-1 {
        fill: #d44a9a;
      }

      .cls-1, .cls-2 {
        stroke-width: 0px;
      }

      .cls-2 {
        fill: #a00a0a;
      }
    </style>
  </defs>
  <g id="Layer_1-2" data-name="Layer 1">
    <polygon class="cls-1" points="399.47 227.34 522.92 0 489.16 256.48 722.65 145.12 544.59 332.77 798.95 379.92 544.59 427.07 722.65 614.73 489.16 503.37 522.92 759.84 399.47 532.51 276.03 759.84 309.79 503.37 76.29 614.73 254.36 427.07 0 379.92 254.36 332.77 76.29 145.12 309.79 256.48 276.03 0 399.47 227.34"/>
    <g>
      <path class="cls-2" d="M255.33,336.31c0-.22.01-.59.04-1.12.03-.52.05-1.08.08-1.66.03-.58.05-1.15.08-1.7.03-.55.07-.94.12-1.16.11-.11.29-.39.54-.83.25-.44.4-.72.46-.83,0-.11.05-.39.17-.83.11-.44.17-.72.17-.83.44-1.55.94-3.06,1.49-4.52.55-1.46,1.05-2.95,1.49-4.44,0-.11.05-.4.17-.87.11-.47.17-.73.17-.79.44-1.22,1.11-2.24,1.99-3.07.88-.83,1.66-1.8,2.32-2.91.11-.11.23-.33.37-.66.14-.33.23-.58.29-.75.28-.28.54-.68.79-1.2.25-.53.65-.98,1.2-1.37.05-.05.28-.17.66-.33.39-.17.61-.3.66-.41.39,0,.75-.3,1.08-.91.33-.61.64-1.05.91-1.33.11-.11.39-.34.83-.71.44-.36.72-.57.83-.62.39-.33.83-.72,1.33-1.16.5-.44,1.02-.88,1.58-1.33.55-.44,1.09-.8,1.62-1.08.52-.28,1.01-.42,1.45-.42l3.65-2.66c.44-.11.91-.22,1.41-.33.5-.11.91-.36,1.24-.75.55,0,1.24-.15,2.07-.46.83-.3,1.47-.57,1.91-.79.22-.22.48-.41.79-.58.3-.17.59-.3.87-.42.22.06.55.08,1,.08h2.99c.44,0,.77-.03,1-.08.11-.05.35-.15.71-.29.36-.14.75-.28,1.16-.42.42-.14.8-.28,1.16-.42.36-.14.59-.23.71-.29.11,0,.35.04.71.12.36.08.57.15.62.21.17,0,.57.04,1.2.12.64.08,1.33.17,2.07.25.75.08,1.45.17,2.12.25.66.08,1.08.12,1.25.12.05,0,.21.06.46.17.25.11.4.17.46.17,1.6.33,3.17.64,4.69.91,1.52.28,3.08.53,4.69.75.39,0,.86.04,1.41.12.55.08.97.12,1.25.12.5,0,.9-.1,1.2-.29.3-.19.68-.29,1.12-.29.5,0,.94.2,1.33.58v1.58c0,.89-.15,1.65-.46,2.28-.3.64-.6,1.37-.87,2.2-.06.06-.12.32-.21.79-.08.47-.12.76-.12.87-.22.66-.47,1.26-.75,1.79-.28.53-.58,1.15-.91,1.87-.06.06-.12.22-.21.5-.08.28-.12.44-.12.5-.06.17-.17.44-.33.83-.17.39-.33.79-.5,1.2s-.33.8-.5,1.16c-.17.36-.28.62-.33.79-.44.61-1.07,1.15-1.87,1.62-.8.47-1.59.71-2.37.71-.39,0-.69-.14-.91-.42-.22-.28-.39-.58-.5-.91v-7.39c0-.72-.17-1.37-.5-1.95-.33-.58-.72-1.12-1.16-1.62-1.16-1.33-2.25-2.27-3.28-2.82-1.02-.55-2.42-.83-4.19-.83h-1c-.33,0-.61.01-.83.04-.22.03-.55.12-1,.29-.89.28-1.8.4-2.74.37-.94-.03-1.83.18-2.66.62-.06,0-.19.07-.42.21-.22.14-.47.29-.75.46-.28.17-.53.3-.75.42-.22.11-.36.17-.42.17-.11.06-.43.12-.95.21-.53.08-.84.15-.95.21-.11,0-.51.17-1.2.5-.69.33-1.2.61-1.54.83-.28,0-.62.22-1.04.66-.42.44-.73.78-.95,1-.33.39-.75.62-1.24.71s-.97.26-1.41.54c-.11.11-.3.29-.58.54-.28.25-.58.53-.91.83-.33.3-.65.6-.95.87-.3.28-.49.44-.54.5-.33.28-.68.53-1.04.75-.36.22-.68.53-.95.91-.06.11-.32.48-.79,1.12-.47.64-.76,1.01-.87,1.12-.06.11-.29.42-.71.91s-.73.89-.95,1.16c-.61.61-.98,1.26-1.12,1.95-.14.69-.43,1.37-.87,2.03-.28.44-.64.9-1.08,1.37-.44.47-.75,1.01-.91,1.62-.06.06-.11.26-.17.62-.06.36-.08.59-.08.71-.28.61-.62,1.2-1.04,1.78s-.76,1.2-1.04,1.87c-.06.11-.12.3-.21.58-.08.28-.18.58-.29.91-.11.33-.21.65-.29.95-.08.3-.15.49-.21.54-.28.78-.57,1.38-.87,1.83-.3.44-.46,1.13-.46,2.08,0,.72.11,1.45.33,2.2.22.75.33,1.48.33,2.2v3.65c0,.22.03.62.08,1.2.05.58.12,1.2.21,1.87s.15,1.31.21,1.95c.05.64.11,1.07.17,1.29.11,1,.54,1.81,1.29,2.45.75.64,1.42,1.29,2.03,1.95.22.22.61.66,1.16,1.33.55.66.94,1.08,1.16,1.25.17.06.43.14.79.25.36.11.76.22,1.2.33.44.11.86.21,1.25.29.39.08.66.15.83.21h1.33c1.11,0,2.18-.21,3.24-.62,1.05-.42,2.05-.87,2.99-1.37.22-.17.59-.64,1.12-1.41.53-.77,1.04-1.62,1.54-2.53.5-.91.94-1.8,1.33-2.66.39-.86.61-1.42.66-1.7.05-.28.14-.68.25-1.2.11-.53.22-1.05.33-1.58.11-.53.21-1,.29-1.41s.15-.68.21-.79v-1.16c0-1-.22-1.78-.66-2.37-.44-.58-.97-1.11-1.58-1.58-.61-.47-1.26-.91-1.95-1.33-.69-.42-1.31-.93-1.87-1.54,0-.28-.11-.64-.33-1.08v-.17c0-.61.37-1.13,1.12-1.58.75-.44,1.4-.66,1.95-.66l.25.17c.17,0,.4.03.71.08.3.06.64.11,1,.17.36.06.69.12,1,.21.3.08.51.12.62.12l12.37.66c.5.28,1.13.43,1.91.46.77.03,1.54.08,2.28.17.75.08,1.4.25,1.95.5.55.25.83.71.83,1.37,0,.44-.08.78-.25,1-.17.22-.4.37-.71.46-.3.08-.64.15-1,.21-.36.06-.71.11-1.04.17-1.33.33-2.52.82-3.57,1.45-1.05.64-1.99,1.51-2.82,2.61v.58c0,.11.05.35.17.71.11.36.17.6.17.71,0,.55-.18,1.09-.54,1.62-.36.53-.59,1.09-.71,1.7-.28,1.16-.58,2.35-.91,3.57-.33,1.22-.72,2.44-1.16,3.65.17.22.46.68.87,1.37.42.69.68,1.15.79,1.37.05.06.12.17.21.33s.15.25.21.25v1.49c0,.61-.12,1.22-.37,1.83-.25.61-.68,1.05-1.29,1.33-.11.11-.4.19-.87.25-.47.06-.76.08-.87.08-.06,0-.21.07-.46.21-.25.14-.53.29-.83.46-.3.17-.58.32-.83.46-.25.14-.4.21-.46.21-.17.11-.62.19-1.37.25-.75.06-1.2.08-1.37.08-.06.06-.19.12-.42.21-.22.08-.39.15-.5.21-.83.33-1.63.53-2.41.58-.78.05-1.58.08-2.41.08-.89,0-1.66-.11-2.32-.33-.66-.22-1.41-.33-2.24-.33-.11,0-.36-.03-.75-.08-.39-.05-.8-.1-1.25-.12-.44-.03-.86-.07-1.24-.12-.39-.05-.64-.08-.75-.08-.5,0-1.05-.15-1.66-.46-.61-.3-1.16-.46-1.66-.46-.06,0-.24-.03-.54-.08-.3-.05-.62-.1-.95-.12-.33-.03-.64-.05-.91-.08-.28-.03-.44-.04-.5-.04-1.33-.44-2.6-1.09-3.82-1.95-1.22-.86-2.37-1.84-3.44-2.95-1.08-1.11-2.07-2.28-2.99-3.53s-1.73-2.45-2.45-3.61c-.5-.83-.97-1.55-1.41-2.16-.44-.61-.78-1.44-1-2.49,0-.05-.01-.26-.04-.62-.03-.36-.06-.75-.08-1.16-.03-.42-.06-.8-.08-1.16-.03-.36-.04-.59-.04-.71s-.06-.44-.17-1c-.11-.55-.17-.88-.17-1Z"/>
      <path class="cls-2" d="M316.41,355.73v-.17c0-.11.05-.33.17-.66.11-.33.17-.53.17-.58,0-.11.01-.29.04-.54.03-.25.04-.51.04-.79s-.01-.55-.04-.83c-.03-.28-.04-.47-.04-.58.39-.33.66-.68.83-1.04.17-.36.29-.73.37-1.12.08-.39.14-.79.17-1.2.03-.42.12-.84.29-1.29.5-1.16.94-2.32,1.33-3.49.39-1.16.83-2.32,1.33-3.49.05-.11.22-.4.5-.87.28-.47.47-.73.58-.79.22-.44.33-.83.33-1.16,0-.39.01-.75.04-1.08.03-.33.12-.65.29-.96.17-.3.5-.68,1-1.12v-1.16c0-.22-.01-.51-.04-.87-.03-.36-.1-.72-.21-1.08-.11-.36-.25-.66-.42-.91-.17-.25-.41-.37-.75-.37h-.25c-.78.28-1.44.53-1.99.75-.55.22-1.22.33-1.99.33h-.42c-.44,0-.78-.11-1-.33,0-.17-.06-.51-.17-1.04-.11-.53-.17-.87-.17-1.04v-.33c0-.66.22-1.38.66-2.16.44-.77.98-1.55,1.62-2.32.64-.77,1.27-1.49,1.91-2.16.64-.66,1.15-1.22,1.54-1.66,0-.05.08-.22.25-.5.17-.28.28-.44.33-.5.83-.72,1.71-1.29,2.66-1.7.94-.41,1.96-.62,3.07-.62.39,0,.71.01.95.04.25.03.59.12,1.04.29.28.11.65.29,1.12.54.47.25.73.4.79.46.11.11.19.4.25.87.05.47.08.84.08,1.12v4.4c0,.06.05.25.17.58.11.33.17.55.17.66.05.11.12.24.21.37.08.14.15.24.21.29h.33c.55-.28,1.02-.55,1.41-.83.39-.28.8-.64,1.24-1.08,0-.11.08-.3.25-.58.17-.28.3-.44.42-.5.22-.28.48-.5.79-.66.3-.17.59-.39.87-.66.44-.33.95-.75,1.54-1.25.58-.5,1.06-1,1.45-1.49.28-.28.47-.55.58-.83.11-.28.36-.55.75-.83.55-.33,1.22-.64,1.99-.91.77-.28,1.49-.42,2.16-.42.44,0,.83.12,1.16.37s.66.48,1,.71c.83.5,1.59,1.01,2.28,1.54.69.53,1.04,1.34,1.04,2.45,0,.5-.1,1.07-.29,1.7-.19.64-.46,1.22-.79,1.74-.33.53-.75.97-1.24,1.33-.5.36-1.05.54-1.66.54-.5,0-.94-.15-1.33-.46-.39-.3-.78-.65-1.16-1.04-.39-.39-.76-.73-1.12-1.04-.36-.3-.76-.46-1.2-.46-.39,0-.78.1-1.16.29-.39.19-.72.43-1,.71-.11.11-.33.32-.66.62-.33.3-.68.64-1.04,1-.36.36-.69.71-1,1.04-.3.33-.51.55-.62.66-.17.72-.4,1.29-.71,1.7-.3.42-.64.78-1,1.08-.36.3-.75.62-1.16.96-.42.33-.82.75-1.2,1.24,0,.11-.06.24-.17.37-.11.14-.17.24-.17.29,0,.11-.04.35-.12.71-.08.36-.15.75-.21,1.16-.06.42-.11.8-.17,1.16-.06.36-.08.6-.08.71-.06.11-.12.28-.21.5-.08.22-.15.36-.21.42,0,.06-.07.19-.21.42-.14.22-.28.44-.42.66-.14.22-.28.43-.42.62-.14.19-.21.32-.21.37-.17.17-.36.46-.58.87-.22.42-.39.68-.5.79-.11.22-.24.53-.37.91-.14.39-.28.79-.42,1.2-.14.42-.3.79-.5,1.12-.19.33-.4.58-.62.75,0,.22-.06.66-.17,1.33-.11.66-.17,1.11-.17,1.33-.06.06-.18.26-.37.62-.19.36-.32.6-.37.71-.39.78-.68,1.56-.87,2.37-.19.8-.46,1.59-.79,2.37-.06.06-.22.32-.5.79-.28.47-.44.76-.5.87-.11.22-.29.59-.54,1.12-.25.53-.48.9-.71,1.12-.06,0-.21.1-.46.29-.25.19-.54.42-.87.66s-.66.51-1,.79c-.33.28-.58.5-.75.66-.33.28-.55.44-.66.5-.11.05-.33.08-.66.08-.5,0-.94-.19-1.33-.58-.39-.39-.75-.75-1.08-1.08,0-.05-.04-.15-.12-.29-.08-.14-.12-.24-.12-.29s-.01-.21-.04-.46c-.03-.25-.06-.54-.08-.87-.03-.33-.07-.65-.12-.96-.06-.3-.08-.54-.08-.71v-.25Z"/>
      <path class="cls-2" d="M364.05,355.98c0-.61.07-1.12.21-1.54.14-.42.21-.93.21-1.54,0-.44-.06-.94-.17-1.49-.11-.55-.47-.83-1.08-.83s-1.08.3-1.41.91c-.33.61-.69,1.08-1.08,1.41-.06.11-.22.25-.5.42-.28.17-.44.28-.5.33-1.05.78-2.03,1.6-2.95,2.49-.91.89-1.9,1.72-2.95,2.49-.11.06-.4.28-.87.66-.47.39-.73.61-.79.66-.39.17-.82.26-1.29.29-.47.03-.87.04-1.2.04h-1.25c-.11-.05-.24-.17-.37-.33-.14-.17-.24-.3-.29-.42-.83-.61-1.54-1.27-2.12-1.99-.58-.72-.87-1.63-.87-2.74v-.25c.22-2.05.59-3.96,1.12-5.73.53-1.77,1.15-3.47,1.87-5.1.72-1.63,1.52-3.25,2.41-4.85.88-1.6,1.85-3.24,2.9-4.9.28-.44.5-.84.66-1.2.17-.36.39-.73.66-1.12.17-.17.46-.46.87-.87s.84-.86,1.29-1.33c.44-.47.88-.9,1.33-1.29.44-.39.75-.66.91-.83,0-.28.08-.5.25-.66.05-.05.18-.17.37-.33.19-.17.4-.34.62-.54.22-.19.43-.37.62-.54.19-.17.32-.25.37-.25,1.44-1.27,2.93-2.43,4.48-3.49,1.55-1.05,3.37-1.58,5.48-1.58.66,0,1.31.07,1.95.21.64.14,1.31.21,2.03.21,1.16,0,2.16-.22,2.99-.66.83-.44,1.71-.66,2.66-.66,1.44,0,2.32.36,2.66,1.08.33.72.5,1.74.5,3.07s-.25,2.6-.75,3.82l-.75,1.49c-.28.55-.58,1.05-.91,1.49-.06.06-.17.18-.33.37-.17.2-.3.29-.42.29-.33.5-.64,1.13-.91,1.91-.28.78-.57,1.56-.87,2.37-.3.8-.62,1.55-.95,2.24-.33.69-.72,1.18-1.16,1.45-.06.17-.15.43-.29.79-.14.36-.28.76-.42,1.2-.14.44-.26.86-.37,1.24-.11.39-.19.66-.25.83-.06.06-.11.14-.17.25l-.17.33c-.06.11-.18.5-.37,1.16-.19.66-.29,1.08-.29,1.24-.06.06-.17.21-.33.46s-.28.4-.33.46c-.28.55-.46,1.08-.54,1.58s-.12,1.05-.12,1.66v.08c.05.11.15.26.29.46.14.19.26.29.37.29.33,0,.66-.12,1-.37s.64-.54.91-.87c.28-.33.52-.66.75-1,.22-.33.44-.58.66-.75.83-.77,1.88-1.48,3.15-2.12,1.27-.64,2.46-.95,3.57-.95.11,0,.22.01.33.04.11.03.19.12.25.29,0,.22-.03.68-.08,1.37-.06.69-.11,1.15-.17,1.37-.22.5-.51.95-.87,1.37-.36.42-.72.83-1.08,1.25-.36.42-.71.83-1.04,1.25-.33.41-.58.87-.75,1.37-1.11,1.22-2.31,2.46-3.61,3.73-1.3,1.27-2.67,2.38-4.11,3.32-.5.39-1.05.58-1.66.58s-1.27.03-1.99.08h-.17c-.33,0-.76-.11-1.29-.33-.53-.22-1.04-.5-1.54-.83s-.94-.69-1.33-1.08c-.39-.39-.61-.75-.66-1.08v-1.33ZM354.75,347.43c0,.61.11,1.25.33,1.91.22.66.66,1,1.33,1,.44,0,.84-.1,1.2-.29.36-.19.76-.43,1.2-.71.05-.11.32-.29.79-.54.47-.25.76-.43.87-.54.17-.11.41-.34.75-.71.33-.36.69-.73,1.08-1.12.39-.39.75-.75,1.08-1.08.33-.33.55-.58.66-.75.11-.11.25-.33.42-.66s.25-.55.25-.66c.17-.11.46-.36.87-.75.42-.39.83-.79,1.25-1.2s.8-.8,1.16-1.16.62-.62.79-.79c.05-.11.22-.4.5-.87.28-.47.44-.73.5-.79,0-.11.11-.25.33-.42.22-.17.33-.28.33-.33.05-.11.11-.5.17-1.16.05-.66.08-1.05.08-1.16.17-.72.33-1.44.5-2.16.17-.72.25-1.44.25-2.16,0-.77-.12-1.52-.37-2.24-.25-.72-.84-1.08-1.78-1.08-.78,0-1.61.19-2.49.58-.89.39-1.74.86-2.57,1.41-.83.55-1.61,1.18-2.32,1.87-.72.69-1.3,1.32-1.74,1.87-.06.06-.18.25-.37.58-.19.33-.32.55-.37.66-.22.28-.42.47-.58.58-.17.11-.28.36-.33.75,0,.11-.03.3-.08.58-.06.28-.1.58-.12.91-.03.33-.07.65-.12.96-.06.3-.08.48-.08.54s-.06.19-.17.42c-.11.22-.25.47-.42.75-.17.28-.32.54-.46.79-.14.25-.24.4-.29.46-.61,1.11-1.09,2.19-1.45,3.24-.36,1.05-.54,2.21-.54,3.49Z"/>
      <path class="cls-2" d="M370.69,387.1c0-.33.01-.54.04-.62.03-.08.12-.26.29-.54.44-.78.94-1.26,1.49-1.45.55-.19,1.16-.29,1.83-.29.44,0,.91.01,1.41.04.5.03,1.02.04,1.58.04.83-.06,1.44-.3,1.83-.75.39-.44.69-.98.91-1.62.22-.64.42-1.27.58-1.91.17-.64.44-1.18.83-1.62,0-.06.05-.24.17-.54.11-.3.22-.62.33-.95.11-.33.21-.65.29-.95.08-.3.15-.49.21-.54,0-.11.14-.35.42-.71.28-.36.47-.59.58-.71.55-.94,1.01-1.94,1.37-2.99.36-1.05.66-2.12.91-3.2.25-1.08.52-2.16.83-3.24.3-1.08.71-2.12,1.2-3.11.61-1.11,1.22-2.24,1.83-3.4.61-1.16,1.11-2.38,1.49-3.65.05-.11.15-.42.29-.91.14-.5.28-1.02.42-1.58.14-.55.26-1.08.37-1.58.11-.5.19-.8.25-.91,0-.05.11-.26.33-.62.22-.36.33-.59.33-.71.05-.05.12-.32.21-.79.08-.47.15-.76.21-.87.22-1,.59-1.91,1.12-2.74.53-.83,1.01-1.69,1.45-2.57.05-.17.18-.43.37-.79.19-.36.37-.76.54-1.2.17-.44.32-.86.46-1.25.14-.39.23-.66.29-.83v-.08c0-.28-.06-.54-.17-.79-.11-.25-.17-.57-.17-.95,0-.66.23-1.13.71-1.41.47-.28.71-.66.71-1.16,0-.39-.24-.62-.71-.71-.47-.08-.84-.12-1.12-.12l-4.23,1.91c-.06.06-.14.08-.25.08-.11.06-.28.08-.5.08-1,0-1.74-.36-2.24-1.08l1.33-2.66c.05-.11.18-.4.37-.87.19-.47.32-.73.37-.79.28-.55.72-.98,1.33-1.29.61-.3,1.13-.68,1.58-1.12l.5-.5c.28-.28.57-.55.87-.83.3-.28.58-.54.83-.79.25-.25.4-.4.46-.46.72-.61,1.49-1.12,2.32-1.54.83-.42,1.52-1.01,2.07-1.78.05-.11.17-.34.33-.71.17-.36.25-.59.25-.71.11-.11.22-.47.33-1.08.11-.61.36-1.13.75-1.58.05-.05.17-.33.33-.83s.36-.88.58-1.16c.44-.5.91-1.11,1.41-1.83.5-.72,1.16-1.11,1.99-1.16.66-.22,1.36-.33,2.07-.33.39,0,.76.03,1.12.08.36.06.73.14,1.12.25.11.11.3.3.58.58.28.28.42.53.42.75v5.64c.44.06.83.11,1.16.17.33.06.66.1,1,.12.33.03.61.07.83.12.11,0,.33-.01.66-.04.33-.03.66-.04,1-.04.39,0,.61.03.66.08.05,0,.34.12.87.37.53.25.9.43,1.12.54.11.06.29.17.54.33s.4.3.46.42c.83.66,1.7,1.33,2.61,1.99s1.59,1.55,2.03,2.66c.28.66.44,1.37.5,2.12.05.75.25,1.45.58,2.12,0,.22.01.62.04,1.2.03.58.05,1.19.08,1.83.03.64.05,1.25.08,1.83.03.58.07.98.12,1.2v1.91c-.11.39-.24,1.05-.37,1.99-.14.94-.26,1.52-.37,1.74-.17.55-.47.97-.91,1.25-.44.28-.8.64-1.08,1.08-.39.61-.6,1.37-.62,2.28-.03.91-.26,1.7-.71,2.37-.17.22-.39.42-.66.58-.28.17-.61.42-1,.75-.06.11-.26.4-.62.87-.36.47-.6.73-.71.79-.11.11-.44.35-1,.71-.55.36-.89.59-1,.71-.66.5-1.2,1.09-1.62,1.78-.42.69-.98,1.29-1.7,1.78-.11.06-.25.11-.42.17-.33.11-.55.17-.66.17-.06.06-.25.12-.58.21s-.55.12-.66.12c-.11.06-.39.28-.83.66-.44.39-.72.61-.83.66-.11.06-.39.18-.83.37-.44.19-.72.32-.83.37-.06,0-.24.07-.54.21-.3.14-.62.28-.95.42-.33.14-.65.28-.95.42-.3.14-.48.21-.54.21-.89.39-1.74.58-2.57.58s-1.77.05-2.82.17h-3.9c-.33.44-.72.76-1.16.95-.44.19-.86.51-1.25.96-.06.11-.18.3-.37.58-.19.28-.29.44-.29.5-.06.11-.11.48-.17,1.12-.06.63-.08,1.01-.08,1.12-.11.33-.29.9-.54,1.7-.25.8-.53,1.65-.83,2.53-.3.88-.58,1.71-.83,2.49-.25.77-.43,1.3-.54,1.58-.28.44-.54.9-.79,1.37-.25.47-.43.93-.54,1.37v1.33c-.06.05-.17.28-.33.66-.17.39-.36.8-.58,1.24l-.17,1.91c0,.88.25,1.56.75,2.03.5.47,1.06.88,1.7,1.25.64.36,1.2.75,1.7,1.16.5.41.75.98.75,1.7,0,.28-.1.66-.29,1.16-.19.5-.43.75-.71.75h-8.3c-.61-.39-1.2-.61-1.78-.66-.58-.06-1.23-.08-1.95-.08-1.22,0-2.28.12-3.2.37-.91.25-1.89.37-2.95.37-.88,0-1.58-.24-2.07-.71-.5-.47-1.05-1.01-1.66-1.62v-.5ZM399.07,353.82c0,.33.05.72.17,1.16.11.44.3.8.58,1.08h.83c1.6,0,3.07-.53,4.4-1.58,1.33-1.05,2.57-2.07,3.73-3.07.05-.05.23-.19.54-.42.3-.22.62-.47.95-.75.33-.28.64-.52.91-.75.28-.22.47-.36.58-.41l1-1,1.66-3.32c0-.05.17-.22.5-.5.33-.28.5-.47.5-.58.55-.83.98-1.77,1.29-2.82.3-1.05.57-2.07.79-3.07l.91-1v-5.64c0-.44-.22-.96-.66-1.54-.44-.58-.98-1.13-1.62-1.66-.64-.53-1.27-.97-1.91-1.33-.64-.36-1.12-.54-1.45-.54-1.16,0-2.06.47-2.7,1.41-.64.94-1.29,1.83-1.95,2.66l-.17.17c-.06.06-.11.08-.17.08-.06.11-.17.46-.33,1.04-.17.58-.28.9-.33.95,0,.06-.04.18-.12.37-.08.19-.15.32-.21.37-.28.44-.61.97-1,1.58-.39.61-.61,1.19-.66,1.74-.06.17-.08.61-.08,1.33v.83c0,.22.03.39.08.5-.61.44-1.09,1.12-1.45,2.03-.36.91-.68,1.67-.95,2.28-.06.17-.12.4-.21.71-.08.3-.18.62-.29.96-.11.33-.21.62-.29.87s-.12.4-.12.46c-.06.11-.08.28-.08.5v1.49c0,.17.03.3.08.42-.28.17-.57.44-.87.83-.31.39-.6.83-.87,1.33-.28.5-.51,1-.71,1.49-.19.5-.29.94-.29,1.33Z"/>
      <path class="cls-2" d="M427.86,357.97c0-.05.05-.28.17-.66.11-.39.17-.61.17-.66.05-.33.11-.86.17-1.58.05-.72.22-1.3.5-1.74.11-.11.33-.44.66-1,.33-.55.53-.88.58-1,.61-1,1.12-2,1.54-3.03.42-1.02.93-2.03,1.54-3.03,1.88-3.26,3.54-6.67,4.98-10.21.05-.11.11-.28.17-.5.05-.22.08-.39.08-.5.05-.05.11-.21.17-.46.05-.25.12-.53.21-.83.08-.3.17-.58.25-.83s.12-.43.12-.54c.39-1.05.79-1.83,1.2-2.32s.87-1.27,1.37-2.32c.11-.11.19-.33.25-.66.05-.33.08-.53.08-.58.33-1,.72-1.91,1.16-2.74.44-.83.86-1.71,1.24-2.66,0-.05.05-.23.17-.54.11-.3.21-.62.29-.95s.18-.64.29-.91c.11-.28.17-.44.17-.5.05-.11.12-.25.21-.42s.15-.28.21-.33c.44-.77.8-1.52,1.08-2.24.28-.72.58-1.52.91-2.41.22-.61.51-1.12.87-1.54.36-.42.73-.87,1.12-1.37.44-.77.73-1.56.87-2.37.14-.8.4-1.59.79-2.37.33-.72.64-1.31.91-1.78.28-.47.42-1.15.42-2.03,0-.61-.04-1.25-.12-1.91s-.29-1.3-.62-1.91c-.11-.28-.32-.57-.62-.87-.3-.3-.6-.59-.87-.87-.28-.28-.53-.55-.75-.83-.22-.28-.33-.52-.33-.75,0-.33.19-.66.58-1,.39-.33.75-.55,1.08-.66.22,0,.59-.01,1.12-.04.52-.03,1.08-.05,1.66-.08.58-.03,1.13-.07,1.66-.12.53-.05.9-.08,1.12-.08.11,0,.3-.05.58-.17.28-.11.44-.17.5-.17h.91c.05,0,.18.06.37.17.19.11.32.17.37.17.88.39,1.71.76,2.49,1.12.77.36,1.16,1.09,1.16,2.2,0,.61-.06,1.34-.17,2.2-.11.86-.3,1.59-.58,2.2,0,.06-.14.32-.42.79-.28.47-.44.76-.5.87-.11.06-.19.15-.25.29-.06.14-.08.24-.08.29,0,.11-.06.3-.17.58-.11.28-.22.58-.33.91-.11.33-.22.65-.33.96-.11.3-.19.48-.25.54-.11.39-.3.73-.58,1.04-.28.3-.55.61-.83.91-.28.3-.53.62-.75.95-.22.33-.36.69-.42,1.08v1.66c0,.06-.08.15-.25.29-.17.14-.36.3-.58.5-.22.19-.42.37-.58.54s-.25.28-.25.33c-.06.11-.12.5-.21,1.16s-.15,1.08-.21,1.25c-.11.61-.4,1.4-.87,2.37-.47.97-.93,1.7-1.37,2.2-.11.11-.35.35-.71.71-.36.36-.6.57-.71.62v1.66c0,.06.05.19.17.42l.17.33h1.66c.5-.39.9-.71,1.2-.95.3-.25.62-.51.95-.79.33-.28.61-.5.83-.66.33-.28.58-.54.75-.79s.47-.43.91-.54c.61-.11,1.29-.25,2.03-.42s1.42-.25,2.03-.25h.66l.33.17c.11.06.19.11.25.17.11.06.46.12,1.04.21s.9.12.95.12c.05.06.12.11.21.17.08.06.15.14.21.25.05.06.32.21.79.46.47.25.76.4.87.46.44.28.76.49.95.62.19.14.43.48.71,1.04.22.44.34.89.37,1.33.03.44.1.89.21,1.33.28.94.58,1.87.91,2.78s.5,1.87.5,2.86c0,2.6-.43,5.09-1.29,7.47-.86,2.38-1.78,4.76-2.78,7.14,0,.11-.08.37-.25.79s-.35.86-.54,1.33c-.19.47-.37.91-.54,1.33-.17.42-.28.68-.33.79-.89,2.1-2.07,3.91-3.57,5.44-1.49,1.52-3.04,3.03-4.65,4.52-.11.11-.33.25-.66.42s-.55.28-.66.33c-1.05.44-2.07.89-3.07,1.33-1,.44-2.05.66-3.15.66-.61,0-1.19-.03-1.74-.08-.55-.06-1.11-.28-1.66-.66-.11,0-.3-.19-.58-.58-.28-.39-.44-.61-.5-.66-.28-.44-.72-.91-1.33-1.41-.61-.5-.91-1.05-.91-1.66,0-.72.12-1.47.37-2.24.25-.77.57-1.46.95-2.07.17-.22.42-.53.75-.91.33-.39.53-.63.58-.75h.83c.61,0,1.16.12,1.66.37.5.25,1,.53,1.49.83.5.3,1.02.58,1.58.83.55.25,1.19.37,1.91.37.61,0,1.11-.15,1.49-.46.39-.3.71-.66.95-1.08s.47-.87.66-1.37c.19-.5.4-.97.62-1.41.05-.11.28-.39.66-.83.39-.44.61-.72.66-.83.39-.55.59-1.15.62-1.78.03-.64.18-1.26.46-1.87.05-.22.21-.58.46-1.08s.4-.8.46-.91c.05-.11.22-.34.5-.71.28-.36.47-.57.58-.62,0-.05.04-.3.12-.75.08-.44.12-.75.12-.91.05-.22.1-.57.12-1.04.03-.47.05-.95.08-1.45.03-.5.05-.96.08-1.37.03-.42.04-.68.04-.79,0-.17-.01-.39-.04-.66-.03-.28-.06-.58-.08-.91-.03-.33-.06-.64-.08-.91-.03-.28-.07-.47-.12-.58,0-.05-.15-.32-.46-.79-.3-.47-.46-.76-.46-.87-.11-.28-.21-.58-.29-.91-.08-.33-.18-.65-.29-.96-.11-.3-.28-.57-.5-.79-.22-.22-.55-.33-1-.33s-.82.14-1.12.42c-.3.28-.68.5-1.12.66-.11.06-.3.11-.58.17-.28.06-.44.14-.5.25-.11.06-.33.19-.66.42-.33.22-.53.39-.58.5-.17.17-.47.44-.91.83-.44.39-.89.82-1.33,1.29-.44.47-.86.91-1.24,1.33-.39.42-.66.71-.83.87-.83.94-1.49,1.95-1.99,3.03s-1.05,2.14-1.66,3.2c0,.11-.06.19-.17.25-.11.06-.17.11-.17.17-.61.78-1.15,1.54-1.62,2.28-.47.75-.93,1.51-1.37,2.28-.06.11-.22.35-.5.71-.28.36-.47.6-.58.71-.06.11-.22.47-.5,1.08-.28.61-.6,1.27-.95,1.99-.36.72-.72,1.44-1.08,2.16-.36.72-.62,1.27-.79,1.66,0,.11-.08.4-.25.87-.17.47-.28.73-.33.79-.06.11-.28.4-.66.87-.39.47-.61.73-.66.79-.28.44-.42.8-.42,1.08s-.08.72-.25,1.33c-.17.44-.41.89-.75,1.33-.33.44-.73.87-1.2,1.29-.47.41-.95.75-1.45,1s-1,.37-1.49.37c-.94,0-1.69-.4-2.24-1.2-.55-.8-.83-1.62-.83-2.45Z"/>
      <path class="cls-2" d="M472.84,356.81c0-.05.08-.33.25-.83.17-.5.28-.86.33-1.08.05-.22.18-.54.37-.95.19-.42.37-.83.54-1.25s.33-.8.5-1.16c.17-.36.25-.59.25-.71.11-.05.29-.3.54-.75.25-.44.43-.75.54-.91.77-1.22,1.49-2.43,2.16-3.65.66-1.22,1.38-2.43,2.16-3.65,0-.05.1-.21.29-.46.19-.25.32-.43.37-.54.83-1.16,1.38-2.14,1.66-2.95.28-.8.72-1.78,1.33-2.95.17-.39.35-.72.54-1,.19-.28.37-.55.54-.83.17-.28.3-.58.42-.91.11-.33.17-.72.17-1.16v-1.08c-.22-.22-.43-.34-.62-.37-.19-.03-.43-.04-.71-.04-.61,0-1.2.04-1.78.12s-1.2.18-1.87.29c-.66-.17-1-.55-1-1.16s.11-1.24.33-1.91c.22-.66.55-1.22,1-1.66.05-.05.3-.25.75-.58.44-.33.75-.58.91-.75.17-.11.5-.33,1-.66.5-.33,1.02-.69,1.58-1.08.55-.39,1.08-.76,1.58-1.12.5-.36.88-.62,1.16-.79.88-.55,1.78-1.01,2.7-1.37.91-.36,1.89-.54,2.95-.54,1.16,0,1.89.17,2.2.5.3.33.65,1.02,1.04,2.07.05.11.08.19.08.25s.03.11.08.17c.11.28.18.47.21.58.03.11.04.33.04.66,0,1.27-.33,2.37-1,3.28-.66.91-1.22,1.92-1.66,3.03,0,.06-.06.22-.17.5-.11.28-.17.47-.17.58-.28.83-.61,1.59-1,2.28-.39.69-.83,1.42-1.33,2.2,0,.06-.03.08-.08.08v.08c0,.06-.03.15-.08.29-.06.14-.14.24-.25.29-.5,1.61-1.15,3.21-1.95,4.81-.8,1.61-1.67,3.13-2.61,4.56-.06.11-.14.22-.25.33-.5.78-.93,1.52-1.29,2.24-.36.72-.54,1.63-.54,2.74,0,.06.05.2.17.42.11.22.19.39.25.5,0,.22.11.33.33.33h4.56c.11,0,.25.12.41.37.17.25.28.46.33.62v1.33c-.06.11-.29.36-.71.75-.42.39-.73.69-.95.91-.11.11-.39.35-.83.71-.44.36-.72.59-.83.71-.06,0-.15.03-.29.08-.14.06-.26.11-.37.17-.66.28-1.33.62-1.99,1.04s-1.36.82-2.07,1.2c-.72.39-1.44.72-2.16,1-.72.28-1.44.42-2.16.42-1.05,0-2.13-.17-3.24-.5-1.11-.33-1.88-1.05-2.32-2.16-.06-.05-.14-.25-.25-.58-.06-.17-.08-.3-.08-.42ZM490.85,296.56v-.33c.11-.22.35-.62.71-1.2.36-.58.59-.93.71-1.04.05-.11.3-.37.75-.79.44-.42.75-.71.91-.87.05-.05.26-.14.62-.25.36-.11,1.12-.17,2.28-.17h2.07c.28,0,.57.11.87.33.3.22.57.44.79.66.11.11.29.32.54.62.25.3.51.62.79.95.28.33.54.64.79.91.25.28.43.47.54.58v.58c0,1.27-.29,2.59-.87,3.94-.58,1.36-1.51,2.25-2.78,2.7-.11.06-.44.08-1,.08h-2.24c-.44,0-.69-.03-.75-.08-.72,0-1.37-.23-1.95-.71-.58-.47-1.08-1.05-1.49-1.74-.42-.69-.73-1.41-.95-2.16-.22-.75-.33-1.42-.33-2.03Z"/>
      <path class="cls-2" d="M500.98,350.25v-5.06c0-.77.01-1.56.04-2.36.03-.8.12-1.54.29-2.2.05-.11.17-.35.33-.71.17-.36.28-.59.33-.71.28-.61.48-1.33.62-2.16.14-.83.26-1.55.37-2.16.44-1.6,1.01-3.17,1.7-4.69.69-1.52,1.56-2.95,2.61-4.27.39-.5.59-.82.62-.95.03-.14.26-.37.71-.71.11-.05.29-.17.54-.33s.43-.28.54-.33c.05-.05.14-.11.25-.17l.33-.17c.11-.05.35-.28.71-.66.36-.39.59-.61.71-.66.05-.05.14-.11.25-.17l.33-.17c.05-.05.22-.12.5-.21.28-.08.47-.12.58-.12.11-.11.48-.4,1.12-.87.64-.47,1.01-.73,1.12-.79.22-.11.58-.29,1.08-.54s.83-.4,1-.46c.05-.11.32-.19.79-.25.47-.05.76-.08.87-.08.05-.05.26-.18.62-.37.36-.19.59-.32.71-.37.55-.11,1.12-.19,1.7-.25.58-.05,1.17-.08,1.78-.08h.83c.28.06.65.1,1.12.12.47.03.93.06,1.37.08.44.03.84.06,1.2.08.36.03.57.04.62.04.94.22,1.81.75,2.61,1.58.8.83,1.48,1.55,2.03,2.16.5.44.8,1.07.91,1.87.11.8.17,1.54.17,2.2v1.25c0,.06-.14.25-.42.58-.28.33-.5.58-.66.75-.44.55-.91,1.04-1.41,1.45s-1.08.62-1.74.62c-.83,0-1.66-.19-2.49-.58-.83-.39-1.49-.88-1.99-1.49-.17-.22-.35-.57-.54-1.04-.19-.47-.39-.95-.58-1.45-.19-.5-.39-.93-.58-1.29-.19-.36-.4-.54-.62-.54-.78-.33-1.55-.5-2.32-.5-.66,0-1.33.17-1.99.5-.39.44-.84.82-1.37,1.12-.53.3-.98.71-1.37,1.2-.06.11-.15.33-.29.66-.14.33-.24.53-.29.58l-1.66,1.66c-.55.61-.93,1.29-1.12,2.03-.19.75-.51,1.43-.95,2.03-.44.78-.93,1.52-1.45,2.24-.53.72-.9,1.52-1.12,2.41-.22.72-.33,1.36-.33,1.91s-.14,1.13-.41,1.74c-.17.44-.43.82-.79,1.12-.36.3-.54.73-.54,1.29-.17,1-.25,1.96-.25,2.9,0,1,.08,1.94.25,2.82.17.33.33.66.5,1,.11.28.25.57.42.87.17.3.3.54.42.71.05.11.25.32.58.62.33.3.69.6,1.08.87.39.28.77.54,1.16.79.39.25.69.37.91.37.05,0,.21-.03.46-.08.25-.05.4-.11.46-.17.94-.77,1.62-1.55,2.03-2.32.41-.77.98-1.58,1.7-2.41.05-.05.22-.22.5-.5.28-.28.41-.44.41-.5.11-.05.3-.32.58-.79.28-.47.44-.76.5-.87.22-.33.52-.54.91-.62.39-.08.75-.12,1.08-.12.66,0,1.12.3,1.37.91.25.61.37,1.22.37,1.83,0,.78-.15,1.62-.46,2.53-.3.91-.65,1.76-1.04,2.53-.17.17-.44.44-.83.83-.39.39-.8.82-1.24,1.29-.44.47-.87.9-1.29,1.29-.41.39-.71.66-.87.83-.5.44-.97.71-1.41.79-.44.08-.97.26-1.58.54-.06.11-.22.25-.5.42-.28.17-.47.28-.58.33-.5.28-1.04.46-1.62.54-.58.08-1.18.12-1.78.12h-1.24c-.83-.17-1.59-.46-2.28-.87-.69-.42-1.37-.9-2.03-1.45-.11-.11-.4-.34-.87-.71-.47-.36-.73-.57-.79-.62,0-.05-.04-.21-.12-.46s-.18-.54-.29-.87c-.11-.33-.22-.65-.33-.95-.11-.3-.19-.54-.25-.71-.06-.11-.11-.4-.17-.87-.06-.47-.14-.73-.25-.79,0-.22-.08-.62-.25-1.2-.17-.58-.28-.98-.33-1.2Z"/>
      <path class="cls-2" d="M251.68,459.13c0-.55.21-1.17.62-1.87.42-.69.87-1.23,1.37-1.62.05-.11.25-.28.58-.5.17-.11.3-.22.42-.33h7.3c.05-.11.21-.26.46-.46.25-.19.43-.32.54-.37.05-.05.22-.12.5-.21.28-.08.42-.15.42-.21.11,0,.23-.08.37-.25.14-.17.26-.3.37-.42.17-.17.39-.4.66-.71.28-.3.55-.61.83-.91.28-.3.52-.59.75-.87.22-.28.33-.44.33-.5.44-.44.75-.97.91-1.58.17-.61.41-1.19.75-1.74.11-.05.35-.32.71-.79.36-.47.59-.76.71-.87.05-.11.11-.44.17-1,.05-.55.08-.88.08-1,.11-.44.22-.79.33-1.04.11-.25.22-.47.33-.66.11-.19.25-.42.42-.66s.36-.57.58-.95c.11-.17.28-.47.5-.91.22-.44.46-.91.71-1.41s.48-.97.71-1.41c.22-.44.39-.75.5-.91.05,0,.18-.08.37-.25.19-.17.29-.28.29-.33.05-.17.17-.62.33-1.37s.28-1.2.33-1.37c.05-.05.17-.22.33-.5.17-.28.33-.55.5-.83.17-.28.33-.54.5-.79.17-.25.28-.4.33-.46.11-.28.33-.76.66-1.45.33-.69.52-1.12.58-1.29.05-.05.14-.24.25-.54.11-.3.22-.62.33-.95.11-.33.22-.64.33-.91.11-.28.17-.47.17-.58l.33-.5c.11-.17.19-.3.25-.42.11-.17.25-.42.42-.75s.28-.53.33-.58c.05-.17.15-.62.29-1.37.14-.75.26-1.2.37-1.37.05-.17.25-.58.58-1.25s.58-1.13.75-1.41c.05-.05.19-.26.41-.62.22-.36.47-.75.75-1.16.28-.42.53-.8.75-1.16.22-.36.33-.59.33-.71.11-.05.19-.32.25-.79.05-.47.11-.76.17-.87l.33-.66c.05-.11.14-.26.25-.46.11-.19.22-.37.33-.54l.33-.66c.33-.33.82-.65,1.45-.95.64-.3.95-.76.95-1.37v-5.64c-.06-.11-.14-.25-.25-.42-.11-.11-.21-.21-.29-.29s-.15-.18-.21-.29c-.83-1.11-1.94-1.66-3.32-1.66h-.91c-.11,0-.32.03-.62.08-.3.06-.82.12-1.54.21-.72.08-1.67.18-2.86.29-1.19.11-2.73.19-4.61.25-.5,0-1.16.25-1.99.75-.83.5-1.65,1.09-2.45,1.78-.8.69-1.49,1.45-2.08,2.28-.58.83-.87,1.61-.87,2.32,0,.61.17,1.2.5,1.78.33.58.73,1.12,1.2,1.62.47.5.95.95,1.45,1.37.5.42.91.82,1.25,1.2.05,0,.19.22.42.66.22.44.41.78.58,1,.17.28.26.46.29.54.03.08.04.24.04.46,0,.55-.1,1.24-.29,2.07-.19.83-.54,1.47-1.04,1.91-.17.17-.46.37-.87.62s-.68.37-.79.37c-1.11.28-2.1.42-2.99.42-.44,0-.89-.03-1.33-.08-.44-.05-.89-.17-1.33-.33-.11-.05-.42-.33-.91-.83-.5-.5-.86-.88-1.08-1.16-.06,0-.15-.21-.29-.62-.14-.42-.26-.76-.37-1.04,0-.05-.06-.21-.17-.46-.11-.25-.17-.4-.17-.46-.22-.77-.5-1.55-.83-2.32-.33-.77-.5-1.58-.5-2.41s.08-1.8.25-2.91c.17-1.11.42-2.21.75-3.32.33-1.11.77-2.14,1.33-3.11.55-.97,1.22-1.73,1.99-2.28.44-.28.91-.51,1.41-.71.5-.19.88-.51,1.16-.95.33-.44.58-.87.75-1.29.17-.41.47-.76.91-1.04.94-.28,2.07-.53,3.4-.75,1.33-.22,2.41-.63,3.24-1.24,1.11-.05,2.19-.08,3.24-.08h7.63c1.49,0,2.99.03,4.48.08.11.06.28.12.5.21.22.08.39.12.5.12h3.32c.17,0,.59.01,1.29.04.69.03,1.42.07,2.2.12.77.06,1.52.1,2.24.12.72.03,1.16.07,1.33.12.22,0,.8-.01,1.74-.04.94-.03,1.85-.04,2.74-.04h1.08c.33,0,.55.03.66.08.94,0,1.77.12,2.49.37.72.25,1.55.43,2.49.54h1.66c.11.06.39.17.83.33.44.17.72.3.83.42.11,0,.35.03.71.08.36.06.57.11.62.17.05.11.22.3.5.58.28.28.44.42.5.42.11.06.28.14.5.25.22.11.39.17.5.17.11.11.34.35.71.71.36.36.73.72,1.12,1.08.39.36.76.72,1.12,1.08.36.36.62.59.79.71.05.06.22.18.5.37.28.19.58.4.91.62.33.22.65.43.95.62.3.19.48.32.54.37.05,0,.11.06.17.17.05.11.14.17.25.17.05.11.15.29.29.54.14.25.23.4.29.46.11.17.28.49.5.95.22.47.46.96.71,1.45s.47.97.66,1.41c.19.44.35.75.46.91.05.06.11.19.17.42.05.22.14.39.25.5.28,1.05.59,2.03.95,2.95.36.91.68,1.92.95,3.03v3.32c0,2.05-.12,4.12-.37,6.22-.25,2.1-.68,4.12-1.29,6.06,0,.06-.04.17-.12.33s-.12.3-.12.42c-.11.11-.35.43-.71.95-.36.53-.6.84-.71.95-.06.11-.11.25-.17.42-.06.17-.08.39-.08.66-.44,1.27-.94,2.45-1.49,3.53-.55,1.08-1.16,2.23-1.83,3.44-.11.06-.25.26-.42.62-.17.36-.28.59-.33.71-.61.83-1.2,1.42-1.78,1.78-.58.36-1.09.87-1.54,1.54-.06.06-.21.32-.46.79-.25.47-.4.76-.46.87-.33.44-.78.79-1.33,1.04-.55.25-1.02.57-1.41.95-.72.61-1.45,1.25-2.2,1.91-.75.66-1.56,1.22-2.45,1.66-.11.06-.39.19-.83.42-.44.22-.93.47-1.45.75-.53.28-1.02.53-1.49.75-.47.22-.76.36-.87.42-.11.06-.28.17-.5.33-.22.17-.39.3-.5.42-.11.06-.44.15-1,.29-.55.14-.86.24-.91.29-.61.28-1.16.58-1.66.91-.5.33-1.05.58-1.66.75-.33,0-.91.01-1.74.04-.83.03-1.67.06-2.53.08-.86.03-1.67.07-2.45.12-.78.06-1.3.08-1.58.08-.17,0-.58.06-1.25.17-.66.11-1.38.22-2.16.33-.78.11-1.54.21-2.28.29-.75.08-1.31.15-1.7.21-.06,0-.22.04-.5.12-.28.08-.47.15-.58.21h-14.52c-.22.05-.64.14-1.24.25-.61.11-1.25.22-1.91.33-.66.11-1.3.21-1.91.29-.61.08-1.02.15-1.25.21h-4.07c-.11,0-.43.01-.95.04-.53.03-1.08.05-1.66.08-.58.03-1.13.05-1.66.08-.53.03-.84.04-.95.04h-.25c-.61,0-1.33-.14-2.16-.42-.83-.28-1.25-.83-1.25-1.66ZM277.49,450.17c0,1.49.33,2.45,1,2.86s1.71.62,3.15.62,2.89-.11,4.36-.33c1.47-.22,2.86-.44,4.19-.66.28-.11.75-.25,1.41-.42.66-.17,1.08-.28,1.24-.33.11,0,.36-.1.75-.29.39-.19.8-.4,1.24-.62.44-.22.86-.44,1.25-.66.39-.22.64-.36.75-.42.05-.05.39-.1,1-.12.61-.03.97-.1,1.08-.21.05-.05.32-.19.79-.42.47-.22.84-.41,1.12-.58.11,0,.28-.08.5-.25.22-.17.39-.3.5-.42.94-.55,1.89-1.04,2.86-1.45.97-.42,1.89-1.04,2.78-1.87.17-.11.43-.35.79-.71s.76-.75,1.2-1.16c.44-.41.91-.8,1.41-1.16.5-.36.94-.62,1.33-.79.33-.39.66-.75,1-1.08.28-.28.55-.58.83-.91.28-.33.53-.61.75-.83.05-.05.17-.21.33-.46s.3-.43.42-.54c0-.05.08-.26.25-.62.17-.36.28-.57.33-.62.61-.77,1.37-1.62,2.28-2.53.91-.91,1.48-1.87,1.7-2.86.28-1.05.57-2.25.87-3.61.3-1.35.46-2.59.46-3.69,0-.55-.15-1.17-.46-1.87-.3-.69-.6-1.26-.87-1.7.28-.77.46-1.48.54-2.12.08-.63.12-1.29.12-1.95v-4.65c-.28-.61-.61-1.16-1-1.66-.39-.5-.69-1.05-.91-1.66-.11-.11-.19-.33-.25-.66-.06-.33-.11-.53-.17-.58-1.38-2.21-3.24-3.94-5.56-5.19s-4.73-1.87-7.22-1.87c-.94,0-1.69.14-2.24.42-.55.28-1.01.65-1.37,1.12-.36.47-.71,1.01-1.04,1.62-.33.61-.72,1.22-1.16,1.83-.39.55-.76,1.04-1.12,1.45-.36.42-.65.93-.87,1.54-.06.06-.12.28-.21.66-.08.39-.12.61-.12.66-.11.17-.28.51-.5,1.04-.22.53-.39.84-.5.95-.28.44-.71.96-1.29,1.54-.58.58-.93,1.18-1.04,1.78,0,.11-.01.29-.04.54-.03.25-.06.53-.08.83-.03.3-.06.58-.08.83-.03.25-.04.4-.04.46-.11.11-.3.35-.58.71-.28.36-.44.6-.5.71-.06,0-.12.08-.21.25s-.12.28-.12.33c-.06.06-.11.22-.17.5-.06.28-.08.47-.08.58-.11.06-.3.25-.58.58-.28.33-.44.55-.5.66-.06.06-.12.17-.21.33s-.12.28-.12.33c-.06.11-.11.3-.17.58-.06.28-.14.44-.25.5-.11.28-.3.71-.58,1.29-.28.58-.55,1.16-.83,1.74-.28.58-.53,1.12-.75,1.62-.22.5-.36.8-.41.91-.06.11-.22.35-.5.71-.28.36-.44.59-.5.71-.06.06-.11.14-.17.25l-.17.33c0,.06-.06.22-.17.5-.11.28-.17.47-.17.58-.28.66-.57,1.23-.87,1.7-.3.47-.57,1.09-.79,1.87,0,.11-.06.3-.17.58-.11.28-.17.44-.17.5-.06.11-.17.48-.33,1.12-.17.64-.28,1.01-.33,1.12-.06.11-.19.29-.41.54-.22.25-.46.53-.71.83-.25.3-.5.6-.75.87-.25.28-.4.44-.46.5-.44.61-.76,1.18-.95,1.7-.19.53-.43,1.18-.71,1.95-.39.94-.83,1.88-1.33,2.82-.5.94-.75,1.94-.75,2.99Z"/>
      <path class="cls-2" d="M333.84,456.23c0-.33-.03-.91-.08-1.74-.06-.83-.12-1.7-.21-2.61-.08-.91-.15-1.78-.21-2.61-.06-.83-.08-1.41-.08-1.74v-1.25c0-.77.1-1.45.29-2.03.19-.58.43-1.23.71-1.95,0-.11.04-.29.12-.54s.15-.43.21-.54c.22-.77.48-1.4.79-1.87.3-.47.59-1.06.87-1.78,0-.05.04-.18.12-.37.08-.19.17-.4.25-.62.08-.22.15-.44.21-.66.05-.22.08-.36.08-.42.05-.11.22-.43.5-.96.28-.52.44-.84.5-.95.05-.11.12-.39.21-.83.08-.44.12-.72.12-.83.05-.11.17-.29.33-.54s.3-.43.41-.54c.05-.05.21-.21.46-.46s.51-.52.79-.83c.28-.3.55-.58.83-.83.28-.25.44-.4.5-.46.17-.22.47-.58.91-1.08.44-.5.69-.83.75-1,.05-.05.17-.26.33-.62.17-.36.3-.57.42-.62,0-.05.08-.12.25-.21s.28-.15.33-.21c.05,0,.22-.04.5-.12.28-.08.47-.15.58-.21l.58-.58c.05-.05.15-.17.29-.33.14-.17.28-.34.42-.54.14-.19.34-.46.62-.79.33-.28.84-.59,1.54-.96.69-.36,1.2-.59,1.54-.71,0-.11.04-.19.12-.25.08-.05.12-.11.12-.17,1-.77,2.1-1.3,3.32-1.58,1.22-.28,2.46-.42,3.73-.42.44,0,1.08.06,1.91.17.83.11,1.67.26,2.53.46.86.19,1.65.46,2.37.79.72.33,1.22.75,1.49,1.25.11.11.19.35.25.71.05.36.08.6.08.71.05.06.18.32.37.79.19.47.32.76.37.87v.58c-.17.83-.29,1.69-.37,2.57-.08.89-.32,1.69-.71,2.41,0,.11-.08.29-.25.54-.17.25-.28.43-.33.54-.44.55-.9,1.09-1.37,1.62-.47.53-1.01.98-1.62,1.37-.11.06-.33.15-.66.29-.33.14-.68.3-1.04.5-.36.2-.71.37-1.04.54s-.53.28-.58.33c-.94.44-1.9.72-2.86.83-.97.11-1.92.39-2.86.83h-6.97c-.61,0-1.13.07-1.58.21-.44.14-.8.51-1.08,1.12-.06.11-.15.35-.29.71-.14.36-.29.75-.46,1.16-.17.42-.31.8-.42,1.16-.11.36-.19.57-.25.62-.11.22-.33.64-.66,1.25-.33.61-.55,1-.66,1.16v2.24c0,.5.04,1.15.12,1.95.08.8.25,1.58.5,2.32s.62,1.4,1.12,1.95c.5.55,1.13.83,1.91.83.39,0,.72-.07,1-.21.28-.14.64-.21,1.08-.21h.91c.05.06.22.14.5.25.28.11.47.17.58.17.22-.11.48-.35.79-.71.3-.36.48-.68.54-.95l3.65-3.73h.5c.5,0,.88.24,1.16.71.28.47.42.93.42,1.37,0,.94-.25,1.72-.75,2.32-.5.61-1.05,1.24-1.66,1.91-.06.11-.18.3-.37.58-.19.28-.29.44-.29.5-.28.44-.66.78-1.16,1-.5.22-.89.55-1.16,1-.11.06-.24.22-.37.5-.14.28-.24.44-.29.5-.11.06-.46.15-1.04.29-.58.14-.93.26-1.04.37-1.11.5-2.12,1.06-3.03,1.7-.91.64-2.01.96-3.28.96-.61,0-1.3-.18-2.07-.54-.78-.36-1.54-.8-2.28-1.33-.75-.53-1.42-1.11-2.03-1.74-.61-.64-1.05-1.2-1.33-1.7ZM348.94,430v.25c0,.22.07.44.21.66.14.22.34.33.62.33h.17c.11-.05.44-.22,1-.5.55-.28.88-.44,1-.5.94-.39,1.76-.69,2.45-.91.69-.22,1.54-.58,2.53-1.08.28-.22.75-.57,1.41-1.04.66-.47,1-.84,1-1.12v-.25c-.17-.17-.46-.5-.87-1-.42-.5-.68-.83-.79-1-.11-.05-.19-.11-.25-.17-.06-.05-.11-.08-.17-.08-.11,0-.3-.03-.58-.08-.28-.05-.47-.08-.58-.08-.5,0-1.08.14-1.74.42-.66.28-1.31.64-1.95,1.08-.64.44-1.22.91-1.74,1.41-.53.5-.9,1-1.12,1.49-.17.44-.3.8-.42,1.08-.11.28-.17.64-.17,1.08Z"/>
      <path class="cls-2" d="M370.77,459.46c-.22,0-.42.07-.58.21-.17.14-.39.21-.66.21h-.42c-.17-.05-.43-.18-.79-.37-.36-.19-.75-.4-1.16-.62-.41-.22-.82-.42-1.2-.58-.39-.17-.66-.3-.83-.42-.44-.28-.98-.58-1.62-.91-.64-.33-1.09-.72-1.37-1.16v-1.33c0-.61.04-1.27.12-1.99.08-.72.25-1.4.5-2.03.25-.64.62-1.17,1.12-1.62.5-.44,1.13-.66,1.91-.66.55,0,1.08.18,1.58.54.5.36.95.82,1.37,1.37.41.55.79,1.12,1.12,1.7.33.58.64,1.07.91,1.45.05.06.15.22.29.5.14.28.28.55.41.83.14.28.28.54.42.79.14.25.21.4.21.46.22.39.51.61.87.66.36.06.68.08.95.08.61,0,1.2-.05,1.78-.17.58-.11,1.17-.3,1.78-.58.5-.22.88-.66,1.16-1.33.28-.66.48-1.38.62-2.16.14-.77.21-1.52.21-2.24v-1.74c0-1.38-.22-2.7-.66-3.94-.44-1.25-.89-2.5-1.33-3.78-.22-.61-.37-1.24-.46-1.91s-.18-1.33-.29-1.99c-.06-.22-.11-.46-.17-.71-.06-.25-.11-.61-.17-1.08-.06-.47-.14-1.06-.25-1.78-.11-.72-.22-1.66-.33-2.82v-3.4c0-.17.17-.59.5-1.29.33-.69.58-1.17.75-1.45l2.99-2.99c.05-.05.21-.18.46-.37.25-.19.5-.39.75-.58.25-.19.48-.39.71-.58.22-.19.39-.34.5-.46.61-.5,1.22-.79,1.83-.87.61-.08,1.3-.23,2.07-.46.11,0,.3-.05.58-.17.28-.11.44-.17.5-.17h1c.11.06.39.22.83.5.44.28.72.47.83.58.11,0,.28.04.5.12.22.08.39.12.5.12s.44.04,1,.12c.55.08.86.15.91.21.11.06.42.28.91.66.5.39.8.61.91.66.28.22.66.5,1.16.83s.75.72.75,1.16c.22.66.33,1.36.33,2.07s-.11,1.38-.33,1.99c-.66.28-1.33.57-1.99.87-.66.3-1.38.46-2.16.46-.94,0-1.74-.22-2.41-.66-.66-.44-1.25-.94-1.74-1.49-.5-.55-.98-1.05-1.45-1.49-.47-.44-.98-.66-1.54-.66-.61,0-1.26.26-1.95.79-.69.53-1.04,1.09-1.04,1.7v.17c0,.06.05.21.17.46.11.25.17.4.17.46.11.78.17,1.58.17,2.41,0,.78.14,1.55.42,2.32.05.11.18.35.37.71.19.36.32.57.37.62.22.89.37,1.83.46,2.82.08,1,.23,1.96.46,2.91.22.78.47,1.59.75,2.45.28.86.47,1.7.58,2.53.17.83.33,1.65.5,2.45.17.8.25,1.59.25,2.37v1.83c0,.11-.06.39-.17.83-.11.44-.17.72-.17.83v1c-.06.06-.28.26-.66.62-.39.36-.61.57-.66.62-.06.11-.15.28-.29.5-.14.22-.3.47-.5.75-.19.28-.37.53-.54.75-.17.22-.28.36-.33.42-.17.11-.43.3-.79.58-.36.28-.76.55-1.2.83-.44.28-.86.54-1.25.79-.39.25-.66.4-.83.46-.11.11-.62.24-1.54.37-.91.14-1.59.24-2.03.29h-1.58c-.83,0-1.51-.12-2.03-.37-.53-.25-1.12-.37-1.78-.37Z"/>
      <path class="cls-2" d="M395.75,456.39c0-.05.08-.33.25-.83.17-.5.28-.86.33-1.08.05-.22.18-.54.37-.95.19-.42.37-.83.54-1.25s.33-.8.5-1.16c.17-.36.25-.59.25-.71.11-.05.29-.3.54-.75.25-.44.43-.75.54-.91.77-1.22,1.49-2.43,2.16-3.65.66-1.22,1.38-2.43,2.16-3.65,0-.05.1-.21.29-.46.19-.25.32-.43.37-.54.83-1.16,1.38-2.14,1.66-2.95.28-.8.72-1.78,1.33-2.95.17-.39.35-.72.54-1,.19-.28.37-.55.54-.83.17-.28.3-.58.42-.91.11-.33.17-.72.17-1.16v-1.08c-.22-.22-.43-.34-.62-.37-.19-.03-.43-.04-.71-.04-.61,0-1.2.04-1.78.12s-1.2.18-1.87.29c-.66-.17-1-.55-1-1.16s.11-1.24.33-1.91c.22-.66.55-1.22,1-1.66.05-.05.3-.25.75-.58.44-.33.75-.58.91-.75.17-.11.5-.33,1-.66.5-.33,1.02-.69,1.58-1.08.55-.39,1.08-.76,1.58-1.12.5-.36.88-.62,1.16-.79.88-.55,1.78-1.01,2.7-1.37.91-.36,1.89-.54,2.95-.54,1.16,0,1.89.17,2.2.5.3.33.65,1.02,1.04,2.07.05.11.08.19.08.25s.03.11.08.17c.11.28.18.47.21.58.03.11.04.33.04.66,0,1.27-.33,2.37-1,3.28-.66.91-1.22,1.92-1.66,3.03,0,.06-.06.22-.17.5-.11.28-.17.47-.17.58-.28.83-.61,1.59-1,2.28-.39.69-.83,1.42-1.33,2.2,0,.06-.03.08-.08.08v.08c0,.06-.03.15-.08.29-.06.14-.14.24-.25.29-.5,1.61-1.15,3.21-1.95,4.81-.8,1.61-1.67,3.13-2.61,4.56-.06.11-.14.22-.25.33-.5.78-.93,1.52-1.29,2.24-.36.72-.54,1.63-.54,2.74,0,.06.05.2.17.42.11.22.19.39.25.5,0,.22.11.33.33.33h4.56c.11,0,.25.12.41.37.17.25.28.46.33.62v1.33c-.06.11-.29.36-.71.75-.42.39-.73.69-.95.91-.11.11-.39.35-.83.71-.44.36-.72.59-.83.71-.06,0-.15.03-.29.08-.14.06-.26.11-.37.17-.66.28-1.33.62-1.99,1.04s-1.36.82-2.07,1.2c-.72.39-1.44.72-2.16,1-.72.28-1.44.42-2.16.42-1.05,0-2.13-.17-3.24-.5-1.11-.33-1.88-1.05-2.32-2.16-.06-.05-.14-.25-.25-.58-.06-.17-.08-.3-.08-.42ZM413.76,396.14v-.33c.11-.22.35-.62.71-1.2.36-.58.59-.93.71-1.04.05-.11.3-.37.75-.79.44-.42.75-.71.91-.87.05-.05.26-.14.62-.25.36-.11,1.12-.17,2.28-.17h2.07c.28,0,.57.11.87.33.3.22.57.44.79.66.11.11.29.32.54.62.25.3.51.62.79.95.28.33.54.64.79.91.25.28.43.47.54.58v.58c0,1.27-.29,2.59-.87,3.94-.58,1.36-1.51,2.25-2.78,2.7-.11.06-.44.08-1,.08h-2.24c-.44,0-.69-.03-.75-.08-.72,0-1.37-.23-1.95-.71-.58-.47-1.08-1.05-1.49-1.74-.42-.69-.73-1.41-.95-2.16-.22-.75-.33-1.42-.33-2.03Z"/>
      <path class="cls-2" d="M412.26,471.41v-.25c.06-.33.12-.93.21-1.78.08-.86.12-1.37.12-1.54.05-.5.14-1.07.25-1.7.11-.64.36-1.18.75-1.62.17-.17.43-.43.79-.79.36-.36.73-.72,1.12-1.08.39-.36.75-.71,1.08-1.04s.55-.55.66-.66c.11-.11.44-.3,1-.58.55-.28.88-.44,1-.5.05-.05.17-.17.33-.33s.28-.25.33-.25c.28-.22.59-.36.95-.42.36-.05.73-.08,1.12-.08.28,0,.54.01.79.04.25.03.51.04.79.04h.33c.05,0,.17-.04.33-.12s.3-.15.41-.21c.11-.05.43-.28.95-.66.53-.39.84-.61.95-.66.11,0,.3-.04.58-.12.28-.08.44-.15.5-.21v-.5c0-.28-.11-.51-.33-.71-.22-.19-.48-.39-.79-.58-.3-.19-.61-.39-.91-.58-.3-.19-.54-.4-.71-.62-.5-.77-.84-1.51-1.04-2.2-.19-.69-.29-1.48-.29-2.37v-1.49c0-.05.1-.25.29-.58.19-.33.34-.58.46-.75.17-.28.47-.71.91-1.29.44-.58.69-.93.75-1.04.11-.05.32-.17.62-.33.3-.17.62-.35.95-.54.33-.19.66-.36,1-.5.33-.14.58-.23.75-.29.17-.17.26-.33.29-.5.03-.17.04-.36.04-.58v-1.24c-.06-.05-.15-.22-.29-.5-.14-.28-.28-.55-.42-.83-.14-.28-.28-.55-.41-.83-.14-.28-.24-.44-.29-.5-.28-1.05-.46-1.99-.54-2.82s-.12-1.74-.12-2.74c0-.72.04-1.3.12-1.74.08-.44.19-.84.33-1.2.14-.36.32-.72.54-1.08.22-.36.47-.82.75-1.37,0-.05.03-.22.08-.5.05-.28.14-.47.25-.58,0-.05.04-.28.12-.66.08-.39.12-.61.12-.66.11-.05.34-.26.71-.62.36-.36.59-.59.71-.71.05-.05.15-.37.29-.96.14-.58.26-.93.37-1.04,0-.05.19-.21.58-.46.39-.25.61-.43.66-.54.11,0,.25-.1.41-.29.17-.19.28-.32.33-.37.05-.05.18-.15.37-.29.19-.14.4-.3.62-.5.22-.19.43-.37.62-.54.19-.17.32-.28.37-.33s.15-.17.29-.33c.14-.17.3-.34.5-.54.19-.19.37-.37.54-.54s.28-.25.33-.25c.11-.05.44-.12,1-.21.55-.08.88-.12,1-.12.05,0,.23-.05.54-.17.3-.11.62-.22.95-.33.33-.11.64-.22.91-.33.28-.11.47-.17.58-.17h1c.61.06,1.19.08,1.74.08s1.09.03,1.62.08c.53.06,1.04.17,1.54.33.5.17,1,.44,1.49.83.11.11.32.3.62.58.3.28.61.57.91.87.3.3.59.61.87.91.28.3.47.51.58.62.22.28.42.62.58,1.04s.36.82.58,1.2c.22.39.48.72.79,1,.3.28.68.42,1.12.42s.88-.26,1.33-.79c.44-.52.95-1.09,1.54-1.7.58-.61,1.26-1.17,2.03-1.7.77-.53,1.71-.79,2.82-.79h.5c.5,0,.86.11,1.08.33.05.06.15.28.29.66.14.39.23.61.29.66.17.28.36.5.58.66.22.17.39.39.5.66v1.49c0,.61-.04,1.19-.12,1.74-.08.55-.4,1.05-.95,1.49-.11.11-.43.33-.95.66-.53.33-.87.55-1.04.66h-.66c-.11-.05-.28-.18-.5-.37-.22-.19-.39-.32-.5-.37-.61-.22-1.34-.37-2.2-.46-.86-.08-1.65-.12-2.37-.12-.83,0-1.49.24-1.99.71-.5.47-.91,1.04-1.24,1.7-.33.66-.61,1.38-.83,2.16-.22.78-.44,1.47-.66,2.07-.06.06-.18.22-.37.5-.19.28-.32.44-.37.5-.44.78-.73,1.37-.87,1.78-.14.42-.51.93-1.12,1.54-.17.22-.5.58-1,1.08s-1.02,1.04-1.58,1.62c-.55.58-1.08,1.12-1.58,1.62-.5.5-.86.83-1.08,1-.28.17-.71.39-1.29.66-.58.28-1.18.54-1.78.79-.61.25-1.2.47-1.78.66-.58.19-1.01.29-1.29.29-.44,0-.83-.07-1.16-.21-.33-.14-.66-.21-1-.21-.72,0-1.48.1-2.28.29-.8.19-1.51.32-2.12.37-.61.5-1.05,1.19-1.33,2.07-.28.89-.42,1.66-.42,2.32v.33c0,.11.03.19.08.25,0,.11.17.42.5.91.33.5.61.86.83,1.08.39.55.91.97,1.58,1.25.66.28,1.25.55,1.74.83.05,0,.18.07.37.21.19.14.4.29.62.46.22.17.43.32.62.46.19.14.32.21.37.21s.28.04.66.12c.39.08.61.15.66.21.22.11.54.29.95.54.41.25.84.53,1.29.83.44.3.86.61,1.24.91.39.3.69.54.91.71.05.06.18.17.37.33.19.17.4.33.62.5.22.17.43.33.62.5.19.17.32.28.37.33.61.5,1.17.8,1.7.91.53.11,1.15.28,1.87.5.77.11,1.62.47,2.53,1.08.91.61,1.65,1.22,2.2,1.83,0,.22.04.57.12,1.04.08.47.15.97.21,1.49.05.53.12,1.02.21,1.49.08.47.12.82.12,1.04v.58c0,2.6-.44,5.06-1.33,7.39-.28.77-.64,1.34-1.08,1.7-.44.36-.97.79-1.58,1.29-.94.72-1.76,1.41-2.45,2.08-.69.66-1.65,1-2.86,1h-8.38c-.11,0-.35.04-.71.12-.36.08-.6.12-.71.12h-4.98c-.28.17-.53.26-.75.29-.22.03-.47.04-.75.04h-.42c-.11,0-.29-.07-.54-.21-.25-.14-.53-.29-.83-.46-.31-.17-.6-.32-.87-.46-.28-.14-.44-.21-.5-.21l-.5-.17c-.17-.06-.3-.11-.41-.17-.06-.06-.18-.17-.37-.33-.19-.17-.32-.25-.37-.25-.72-.72-1.38-1.13-1.99-1.25-.61-.11-1.38-.3-2.32-.58-.83-.22-1.58-.57-2.24-1.04-.66-.47-1.36-.98-2.07-1.54-.11-.11-.24-.24-.37-.37-.14-.14-.24-.26-.29-.37,0-.06-.04-.26-.12-.62-.08-.36-.15-.6-.21-.71-.39-.66-.76-1.19-1.12-1.58-.36-.39-.54-1-.54-1.83ZM420.56,469.76v.08c.61.66,1.16,1.26,1.66,1.78.5.53,1.05,1.04,1.66,1.54.11.11.29.29.54.54.25.25.4.43.46.54.11.05.3.28.58.66.28.39.44.61.5.66,0,.05.08.12.25.21s.28.12.33.12c.77.11,1.49.18,2.16.21.66.03,1.3.29,1.91.79h2.82c.88,0,1.92-.01,3.11-.04,1.19-.03,2.2-.12,3.03-.29.28-.06.72-.32,1.33-.79.61-.47,1.23-1,1.87-1.58.64-.58,1.2-1.16,1.7-1.74.5-.58.75-1.04.75-1.37,0-.72-.07-1.29-.21-1.7-.14-.42-.32-.79-.54-1.12-.22-.33-.5-.68-.83-1.04-.33-.36-.69-.79-1.08-1.29-.44-.61-1.07-1.04-1.87-1.29-.8-.25-1.51-.51-2.12-.79-.11,0-.24-.04-.37-.12-.14-.08-.24-.15-.29-.21-.11-.06-.39-.33-.83-.83-.44-.5-.72-.78-.83-.83-1-.61-2.01-1.09-3.03-1.45-1.02-.36-2.14-.54-3.36-.54-.44,0-.71.1-.79.29-.08.19-.26.46-.54.79-.06.05-.17.17-.33.33s-.36.36-.58.58c-.22.22-.44.43-.66.62-.22.19-.36.32-.41.37-.33.33-.68.57-1.04.71-.36.14-.71.29-1.04.46-.33.17-.66.36-1,.58-.33.22-.61.55-.83,1-.06.05-.12.26-.21.62-.08.36-.15.57-.21.62-.06.11-.28.35-.66.71-.39.36-.58.57-.58.62-.06.05-.12.26-.21.62-.08.36-.15.59-.21.71v.25ZM434.84,436.89c0,.55.08,1.02.25,1.41.17.39.55.69,1.16.91.28-.05.79-.25,1.54-.58.75-.33,1.23-.58,1.45-.75,1.22-.88,2.34-2,3.36-3.36,1.02-1.35,1.89-2.7,2.61-4.02.44-.72.76-1.56.95-2.53.19-.97.34-1.87.46-2.7v-.66c0-.66-.03-1.26-.08-1.78-.06-.53-.14-1.17-.25-1.95-.06-.22-.3-.33-.75-.33h-.33c-1.33,0-2.3.26-2.9.79-.61.53-1.3,1.29-2.07,2.28-.83.94-1.69,1.91-2.57,2.91-.89,1-1.47,2.13-1.74,3.4,0,.11-.03.3-.08.58-.06.28-.1.58-.12.91-.03.33-.06.65-.08.95-.03.3-.04.48-.04.54-.11.66-.26,1.32-.46,1.95-.19.64-.29,1.32-.29,2.03Z"/>
      <path class="cls-2" d="M486.7,455.15v-1c0-.17.01-.3.04-.42.03-.11.12-.3.29-.58.05-.11.23-.39.54-.83.3-.44.62-.93.95-1.45.33-.53.65-1.02.95-1.49.3-.47.48-.76.54-.87.55-.83,1.17-1.81,1.87-2.95.69-1.13,1.17-2.17,1.45-3.11.11-.11.19-.48.25-1.12.05-.64.08-1.01.08-1.12.33-1.05.86-1.92,1.58-2.61.72-.69,1.3-1.48,1.74-2.37.05-.11.12-.3.21-.58.08-.28.15-.44.21-.5,0-.05.12-.29.37-.71.25-.42.43-.73.54-.96.61-.94,1.11-1.95,1.49-3.03.39-1.08.58-2.17.58-3.28,0-.55-.19-.97-.58-1.25-.39-.28-.8-.42-1.24-.42-.28,0-.48.01-.62.04-.14.03-.32.12-.54.29-.11.11-.29.29-.54.54l-.75.75c-.25.25-.48.47-.71.66-.22.19-.36.32-.41.37,0,.06-.07.22-.21.5-.14.28-.28.57-.42.87-.14.3-.28.59-.42.87-.14.28-.24.44-.29.5,0,.06-.08.15-.25.29-.17.14-.28.24-.33.29-.11.11-.4.24-.87.37-.47.14-.73.24-.79.29s-.18.18-.37.37-.4.4-.62.62c-.22.22-.43.44-.62.66-.19.22-.32.36-.37.42-.06,0-.22.08-.5.25-.28.17-.47.28-.58.33-.06.06-.08.11-.08.17l-.08.08-.08.08c-.06.11-.17.32-.33.62-.17.3-.35.65-.54,1.04-.19.39-.36.75-.5,1.08-.14.33-.24.53-.29.58-.11.11-.4.4-.87.87-.47.47-.73.73-.79.79,0,.06-.06.17-.17.33-.11.17-.17.3-.17.42-.06.06-.18.32-.37.79-.19.47-.32.76-.37.87-.06.11-.28.39-.66.83-.39.44-.61.72-.66.83-.89,1.55-1.72,3.14-2.49,4.77-.78,1.63-1.6,3.25-2.49,4.86-.28.55-.61,1.05-1,1.49-.39.44-.72.94-1,1.49-.72.61-1.47,1.15-2.24,1.62-.78.47-1.66.71-2.66.71-.44,0-.93-.15-1.45-.46-.53-.3-.95-.59-1.29-.87,0-.17-.01-.46-.04-.87-.03-.41-.07-.84-.12-1.29-.06-.44-.1-.87-.12-1.29-.03-.42-.04-.71-.04-.87v-.42c0-.61.17-1.27.5-1.99.33-.72.73-1.42,1.2-2.12.47-.69.94-1.37,1.41-2.03.47-.66.87-1.27,1.2-1.83.05-.05.14-.21.25-.46.11-.25.25-.53.42-.83.17-.3.32-.58.46-.83.14-.25.23-.4.29-.46,0-.05.15-.22.46-.5.3-.28.46-.47.46-.58,0-.05.03-.21.08-.46.05-.25.1-.51.12-.79.03-.28.05-.55.08-.83.03-.28.04-.44.04-.5.22-1.05.58-2.07,1.08-3.07.5-1,.91-1.96,1.24-2.91,0-.11.05-.4.17-.87.11-.47.17-.73.17-.79.05-.17.15-.46.29-.87.14-.42.26-.68.37-.79,0-.22-.11-.33-.33-.33,0-.05-.08-.08-.25-.08-.06,0-.08.03-.08.08l-5.31,5.31h-.17c-.11,0-.28-.12-.5-.37-.22-.25-.46-.54-.71-.87s-.47-.65-.66-.95c-.19-.3-.29-.51-.29-.62v-.25c.05-.22.17-.58.33-1.08s.28-.77.33-.83c.05-.17.19-.48.42-.95.22-.47.47-.97.75-1.49.28-.52.53-1.01.75-1.45.22-.44.36-.72.42-.83.28-.61.51-1.17.71-1.7.19-.53.51-1.06.95-1.62l.17-.17c.05-.05.11-.08.17-.08.22-.17.53-.43.91-.79.39-.36.79-.72,1.2-1.08.42-.36.8-.69,1.16-1,.36-.3.59-.51.71-.62.77-.55,1.56-1.06,2.37-1.54.8-.47,1.73-.71,2.78-.71.61,0,1.16.03,1.66.08.5.06,1.11.14,1.83.25l.17.17c.05.06.11.08.17.08.22.33.5.75.83,1.25.33.5.5.78.5.83v5.31c-.39.44-.61.82-.66,1.12-.06.3-.08.71-.08,1.2v.25c0,.22.04.46.12.71s.26.37.54.37c.44,0,.82-.14,1.12-.42.3-.28.58-.59.83-.95.25-.36.48-.72.71-1.08.22-.36.47-.65.75-.87.11-.05.4-.21.87-.46.47-.25.73-.4.79-.46s.23-.25.54-.58c.3-.33.62-.66.95-1,.33-.33.65-.65.95-.95.3-.3.48-.48.54-.54.33-.28.8-.43,1.41-.46.61-.03,1.05-.1,1.33-.21.05-.05.18-.14.37-.25.19-.11.4-.25.62-.42.22-.17.43-.32.62-.46.19-.14.32-.23.37-.29.44-.22,1.01-.34,1.7-.37.69-.03,1.23-.1,1.62-.21.5-.11.98-.26,1.45-.46.47-.19.98-.29,1.54-.29.72,0,1.31.24,1.78.71.47.47.98.93,1.54,1.37.17.11.3.33.42.66.11.33.21.71.29,1.12s.15.83.21,1.25c.05.41.08.73.08.95,0,1.05-.24,2.09-.71,3.11-.47,1.02-.87,1.98-1.2,2.86-.11.11-.19.25-.25.42-.06.17-.11.28-.17.33-.11.06-.39.32-.83.79-.44.47-.72.76-.83.87-.06.11-.11.19-.17.25l-.17.33c0,.11-.06.3-.17.58-.11.28-.17.44-.17.5-.17.39-.42.95-.75,1.7-.33.75-.53,1.15-.58,1.2,0,.11-.08.26-.25.46-.17.19-.36.4-.58.62-.22.22-.42.43-.58.62-.17.19-.25.32-.25.37-.06.06-.12.26-.21.62-.08.36-.12.59-.12.71-.39.89-.75,1.59-1.08,2.12-.33.53-.64,1.23-.91,2.12-.11.44-.21.82-.29,1.12-.08.3-.15.6-.21.87-.06.28-.08.58-.08.91v1.08c.61,0,1.17-.05,1.7-.17.52-.11,1.09-.17,1.7-.17h1.49c.22.17.44.39.66.66.22.28.33.58.33.91v.17c-.28.61-.53,1.25-.75,1.91-.22.66-.53,1.25-.91,1.74-.22.33-.53.5-.91.5-.33,0-.58.14-.75.42,0,.06-.06.19-.17.42-.11.22-.22.44-.33.66-.11.22-.22.43-.33.62-.11.19-.17.32-.17.37-.11.17-.42.42-.91.75s-1.04.66-1.62,1-1.13.65-1.66.95c-.53.3-.9.51-1.12.62-1,.55-1.98,1.04-2.95,1.45-.97.42-2.03.62-3.2.62-.17,0-.48-.01-.95-.04-.47-.03-.76-.04-.87-.04-.5-.33-.94-.61-1.33-.83-.39-.22-.71-.47-.95-.75-.25-.28-.44-.62-.58-1.04-.14-.42-.21-.98-.21-1.7Z"/>
    </g>
  </g>
</svg>