<?xml version="1.0" encoding="UTF-8"?>
<svg id="Layer_2" data-name="Layer 2" xmlns="http://www.w3.org/2000/svg" viewBox="0 0 123.07 123.07">
  <defs>
    <style>
      .cls-1 {
        fill: none;
        stroke: #245445;
        stroke-miterlimit: 10;
        stroke-width: 4px;
      }

      .cls-2 {
        fill: #8fc63e;
      }

      .cls-2, .cls-3 {
        stroke-width: 0px;
      }

      .cls-3 {
        fill: #fff;
      }
    </style>
  </defs>
  <g id="Layer_1-2" data-name="Layer 1">
    <g>
      <circle class="cls-1" cx="61.54" cy="61.54" r="59.53"/>
      <circle class="cls-3" cx="61.54" cy="61.54" r="55.33"/>
      <g>
        <g>
          <path class="cls-2" d="M31.4,66.92c-2.5-14-9.64-25.86-19.21-33.85-6.48,11.23-9.2,24.72-6.74,38.48s9.67,25.48,19.64,33.77c6.22-10.81,8.81-24.4,6.31-38.4Z"/>
          <path class="cls-2" d="M84.1,57.51c-2.88-16.15.25-31.84,7.64-44.28-11.56-7.23-25.74-10.36-40.22-7.78-14.48,2.59-26.7,10.43-35.04,21.22,11.24,9.12,19.61,22.75,22.49,38.9,2.88,16.15-.25,31.84-7.64,44.28,11.56,7.23,25.74,10.36,40.22,7.78,14.48-2.59,26.7-10.43,35.04-21.22-11.24-9.12-19.61-22.75-22.49-38.9Z"/>
        </g>
        <path class="cls-2" d="M91.68,56.15c-2.5-14,.09-27.6,6.31-38.4,9.97,8.29,17.19,20,19.64,33.77,2.46,13.76-.26,27.25-6.74,38.48-9.57-7.99-16.71-19.84-19.21-33.85Z"/>
      </g>
    </g>
  </g>
</svg>