<?xml version="1.0" encoding="UTF-8"?>
<svg id="Layer_2" data-name="Layer 2" xmlns="http://www.w3.org/2000/svg" xmlns:xlink="http://www.w3.org/1999/xlink" viewBox="0 0 170.74 252.14">
  <defs>
    <style>
      .cls-1 {
        fill: url(#linear-gradient-2);
        stroke-width: 2px;
      }

      .cls-1, .cls-2 {
        stroke: #9d1c20;
        stroke-miterlimit: 10;
      }

      .cls-2 {
        fill: url(#linear-gradient);
        stroke-width: 3px;
      }
    </style>
    <linearGradient id="linear-gradient" x1="2103.13" y1="-1107.15" x2="2103.98" y2="-970.97" gradientTransform="translate(-1954.66 -1079.54) rotate(55.92)" gradientUnits="userSpaceOnUse">
      <stop offset="0" stop-color="#fad0d2"/>
      <stop offset=".27" stop-color="#ee777e"/>
      <stop offset=".7" stop-color="#eb2d30"/>
      <stop offset="1" stop-color="#cb2027"/>
    </linearGradient>
    <linearGradient id="linear-gradient-2" x1="2187.66" y1="-953.12" x2="2188.15" y2="-876.02" xlink:href="#linear-gradient"/>
  </defs>
  <g id="Layer_1-2" data-name="Layer 1">
    <g>
      <path class="cls-2" d="M81.16,37.39c-.81-17.59,4.52-27.95,16.94-33.46,10.63-4.71,23.32-2.43,31.44,5.66,9.94,9.9,11.15,21.33,3.72,37.9,16.72-2.07,28.81,3.87,34.62,20.04,3.51,9.77,0,22.65-8.07,29.45-11.32,9.55-23.53,9.45-36.63,2.1,1.67,15.74-2.84,28.21-17.98,34.12-11.35,4.43-22.22,2.2-30.7-6.8-10.58-11.24-10.55-23.9-3.05-36.99-18.63.4-28.81-4.97-34-17.78-4.33-10.68-1.58-23.45,6.74-31.3,10.05-9.48,21.43-10.47,36.96-2.95Z"/>
      <path class="cls-1" d="M26.89,195.64c-.46-9.96,2.56-15.83,9.59-18.94,6.02-2.67,13.2-1.37,17.8,3.2,5.63,5.6,6.31,12.08,2.11,21.46,9.46-1.17,16.31,2.19,19.6,11.35,1.99,5.53,0,12.82-4.57,16.67-6.41,5.4-13.32,5.35-20.74,1.19.94,8.91-1.61,15.97-10.18,19.32-6.43,2.51-12.58,1.24-17.38-3.85-5.99-6.36-5.97-13.53-1.72-20.94-10.54.23-16.31-2.82-19.25-10.06-2.45-6.05-.89-13.28,3.82-17.72,5.69-5.37,12.13-5.93,20.93-1.67Z"/>
    </g>
  </g>
</svg>