<?xml version="1.0" encoding="UTF-8"?>
<svg id="Layer_2" data-name="Layer 2" xmlns="http://www.w3.org/2000/svg" viewBox="0 0 278.19 489.91">
  <defs>
    <style>
      .cls-1 {
        fill: #6b8981;
      }

      .cls-1, .cls-2, .cls-3, .cls-4 {
        stroke-width: 0px;
      }

      .cls-2 {
        fill: #b1ddd4;
      }

      .cls-3 {
        fill: #309b90;
      }

      .cls-4 {
        fill: #25736b;
      }
    </style>
  </defs>
  <g id="Layer_1-2" data-name="Layer 1">
    <g>
      <path class="cls-1" d="M84.15,297.67c4.05,3.26,67.78,54.68,82.88,81.78l21.4-5.1c-10.95-21.31-31.87-43.26-50.4-60.12-18.78-1.47-37.07-7.2-53.88-16.56Z"/>
      <path class="cls-1" d="M214.39,368.16c1.25-31,34.91-105.63,37.05-110.37-10.77,15.94-24.51,29.31-40.62,39.1-8.94,23.41-17.7,52.42-17.86,76.38l21.43-5.11Z"/>
      <path class="cls-4" d="M214.39,368.16l-47.36,11.29c.31.55.63,1.12.9,1.65,11.01,22.01,25.46,79.59,30.82,101.79,1.19,4.92,6.13,7.94,11.05,6.77l16.14-3.85c4.92-1.17,7.97-6.1,6.81-11.03-5.23-22.22-18.31-80.14-18.41-104.75,0-.6.03-1.24.06-1.88Z"/>
      <path class="cls-2" d="M273.22,125.33c11.6,48.67,2.29,96.76-21.68,132.3-.03.04-.08.09-.1.16-17.9,26.51-43.99,45.98-75.64,53.53-31.61,7.53-63.68,1.92-91.65-13.65-.05-.06-.09-.08-.16-.1-37.42-20.91-67.42-59.63-79.03-108.3C-15.3,104.24,28.33,20.97,102.39,3.32c74.1-17.66,150.57,36.99,170.83,122.02Z"/>
      <ellipse class="cls-3" cx="139.1" cy="157.32" rx="113.98" ry="130.85" transform="translate(-32.68 36.54) rotate(-13.41)"/>
      <g>
        <path class="cls-4" d="M87.1,132.53c1.61,6.76-2.56,13.54-9.32,15.15-6.76,1.61-13.54-2.56-15.15-9.32-1.61-6.76,2.56-13.54,9.32-15.15,6.76-1.61,13.54,2.56,15.15,9.32Z"/>
        <path class="cls-4" d="M124.34,123.65c1.61,6.76-2.56,13.54-9.32,15.15-6.76,1.61-13.54-2.56-15.15-9.32-1.61-6.76,2.56-13.54,9.32-15.15,6.76-1.61,13.54,2.56,15.15,9.32Z"/>
        <path class="cls-4" d="M161.57,114.78c1.61,6.76-2.56,13.54-9.32,15.15-6.76,1.61-13.54-2.56-15.15-9.32-1.61-6.76,2.56-13.54,9.32-15.15,6.76-1.61,13.54,2.56,15.15,9.32Z"/>
        <path class="cls-4" d="M198.81,105.9c1.61,6.76-2.56,13.54-9.32,15.15-6.76,1.61-13.54-2.56-15.15-9.32-1.61-6.76,2.56-13.54,9.32-15.15,6.76-1.61,13.54,2.56,15.15,9.32Z"/>
        <path class="cls-4" d="M76.77,172.17c1.61,6.76-2.56,13.54-9.32,15.15-6.76,1.61-13.54-2.56-15.15-9.32-1.61-6.76,2.56-13.54,9.32-15.15,6.76-1.61,13.54,2.56,15.15,9.32Z"/>
        <path class="cls-4" d="M114.01,163.3c1.61,6.76-2.56,13.54-9.32,15.15-6.76,1.61-13.54-2.56-15.15-9.32-1.61-6.76,2.56-13.54,9.32-15.15,6.76-1.61,13.54,2.56,15.15,9.32Z"/>
        <path class="cls-4" d="M151.25,154.42c1.61,6.76-2.56,13.54-9.32,15.15-6.76,1.61-13.54-2.56-15.15-9.32-1.61-6.76,2.56-13.54,9.32-15.15,6.76-1.61,13.54,2.56,15.15,9.32Z"/>
        <path class="cls-4" d="M188.49,145.55c1.61,6.76-2.56,13.54-9.32,15.15-6.76,1.61-13.54-2.56-15.15-9.32-1.61-6.76,2.56-13.54,9.32-15.15,6.76-1.61,13.54,2.56,15.15,9.32Z"/>
        <path class="cls-4" d="M97.37,93.47c1.61,6.76-2.56,13.54-9.32,15.15-6.76,1.61-13.54-2.56-15.15-9.32-1.61-6.76,2.56-13.54,9.32-15.15,6.76-1.61,13.54,2.56,15.15,9.32Z"/>
        <path class="cls-4" d="M134.61,84.6c1.61,6.76-2.56,13.54-9.32,15.15-6.76,1.61-13.54-2.56-15.15-9.32-1.61-6.76,2.56-13.54,9.32-15.15,6.76-1.61,13.54,2.56,15.15,9.32Z"/>
        <path class="cls-4" d="M171.84,75.72c1.61,6.76-2.56,13.54-9.32,15.15-6.76,1.61-13.54-2.56-15.15-9.32-1.61-6.76,2.56-13.54,9.32-15.15,6.76-1.61,13.54,2.56,15.15,9.32Z"/>
        <path class="cls-4" d="M103.87,202.9c-1.61-6.76-8.4-10.93-15.15-9.32-6.76,1.61-10.93,8.4-9.32,15.15,1.61,6.76,8.4,10.93,15.15,9.32,6.76-1.61,10.93-8.4,9.32-15.15Z"/>
        <path class="cls-4" d="M141.11,194.02c-1.61-6.76-8.4-10.93-15.15-9.32-6.76,1.61-10.93,8.4-9.32,15.15,1.61,6.76,8.4,10.93,15.15,9.32,6.76-1.61,10.93-8.4,9.32-15.15Z"/>
        <path class="cls-4" d="M178.35,185.15c-1.61-6.76-8.39-10.93-15.15-9.32-6.76,1.61-10.93,8.4-9.32,15.15,1.61,6.76,8.39,10.93,15.15,9.32,6.76-1.61,10.93-8.4,9.32-15.15Z"/>
        <path class="cls-4" d="M215.58,176.27c-1.61-6.76-8.4-10.93-15.15-9.32-6.76,1.61-10.93,8.4-9.32,15.15,1.61,6.76,8.39,10.93,15.15,9.32,6.76-1.61,10.93-8.4,9.32-15.15Z"/>
        <path class="cls-4" d="M130.65,233.12c-1.61-6.76-8.4-10.93-15.15-9.32-6.76,1.61-10.93,8.39-9.32,15.15,1.61,6.76,8.4,10.93,15.15,9.32,6.76-1.61,10.93-8.4,9.32-15.15Z"/>
        <path class="cls-4" d="M167.89,224.25c-1.61-6.76-8.4-10.93-15.15-9.32-6.76,1.61-10.93,8.4-9.32,15.15,1.61,6.76,8.4,10.93,15.15,9.32,6.76-1.61,10.93-8.4,9.32-15.15Z"/>
        <path class="cls-4" d="M205.13,215.37c-1.61-6.76-8.39-10.93-15.15-9.32-6.76,1.61-10.93,8.4-9.32,15.15,1.61,6.76,8.4,10.93,15.15,9.32,6.76-1.61,10.93-8.4,9.32-15.15Z"/>
        <path class="cls-4" d="M225.91,136.63c1.61,6.76-2.56,13.54-9.32,15.15-6.76,1.61-13.54-2.56-15.15-9.32-1.61-6.76,2.56-13.54,9.32-15.15,6.76-1.61,13.54,2.56,15.15,9.32Z"/>
      </g>
    </g>
  </g>
</svg>