<?xml version="1.0" encoding="UTF-8"?>
<svg id="Layer_2" data-name="Layer 2" xmlns="http://www.w3.org/2000/svg" xmlns:xlink="http://www.w3.org/1999/xlink" viewBox="0 0 886 444">
  <defs>
    <style>
      .cls-1 {
        fill: url(#linear-gradient);
      }

      .cls-1, .cls-2 {
        stroke-width: 0px;
      }

      .cls-2 {
        fill: none;
      }

      .cls-3 {
        clip-path: url(#clippath);
      }
    </style>
    <clipPath id="clippath">
      <rect class="cls-2" width="886" height="444"/>
    </clipPath>
    <linearGradient id="linear-gradient" x1="208.46" y1="8.78" x2="1134.59" y2="8.78" gradientTransform="translate(-231.35 -58.85) rotate(25.49) scale(1.04) skewX(.03)" gradientUnits="userSpaceOnUse">
      <stop offset=".2" stop-color="#8dcebe"/>
      <stop offset=".48" stop-color="#a0d7cb"/>
      <stop offset=".78" stop-color="#c8e7df"/>
      <stop offset=".98" stop-color="#fff"/>
    </linearGradient>
  </defs>
  <g id="Layer_1-2" data-name="Layer 1">
    <g class="cls-3">
      <path class="cls-1" d="M810.02,400.4c-9.38-5.87-21.65-9.76-27.4-18.12-6.95-10.1,7.34-18.69,9.27-29.24,1.79-9.79,4.85-19.26,2.7-29.33-4.13-19.32-19.58-28.95-38.47-23.22-16.78,5.09-30.08,16.11-42.87,27.54-46.5,41.56-86.78,89.65-135.47,128.94-28.12,22.68-57.68,43.06-93.03,52.54-91.58,24.56-165.3-42.42-153.03-138.35,4.35-34.03,13.57-67.03,20.3-100.55,4-19.93,9.01-40.07,2.88-60.53-6.57-21.91-23.73-30.5-45.25-22.44-20.18,7.56-35.1,22.55-50.36,36.92-28.46,26.81-54.1,56.7-87.54,78.03-55.37,35.32-111.82,11.97-124.63-52.26-3.13-15.67-3.75-31.82-6.57-47.57-5.44-30.39-29.24-41.53-56.89-27.19-14.61,7.58-25.49,19.41-34.93,32.32-5.7,7.79-10.3,9.97-18.67,4.05-9.92-7.03-20.47-13.22-30.96-19.4-6.41-3.78-8.44-7.32-3.42-14.23,22.68-31.2,48.64-58.46,84.29-75.22,49.12-23.08,113.75,3.29,122.08,62.36,1.54,10.92,3.77,21.83,6.81,32.43,8.28,28.88,30.96,37.05,56.43,20.75,21.19-13.56,37.46-32.5,54.83-50.22,27.03-27.59,52.88-56.64,88.26-74.24,58.05-28.88,127.4,7.98,136.71,72.3,4.92,34-1.34,67.09-6.91,100.32-4.1,24.45-9.24,48.81-6.67,73.93,4.2,41.08,34.18,57.7,70.62,38.51,30.61-16.13,55.23-40.11,80.84-62.78,43.33-38.34,84.28-79.72,136.16-107.25,13.23-7.02,26.91-13.08,41.66-15.87,65.7-12.45,121.72,37.44,120.03,107.18-.97,40.12-15.01,76.57-32.99,111.81-3.75,7.36-7.61,7.96-14.09,3.41-7.68-5.41-15.89-10.08-23.87-15.08.05-.07.09-.15.14-.22Z"/>
    </g>
  </g>
</svg>