<?xml version="1.0" encoding="UTF-8"?>
<svg id="Layer_2" data-name="Layer 2" xmlns="http://www.w3.org/2000/svg" viewBox="0 0 116.59 56.46">
  <defs>
    <style>
      .cls-1 {
        fill: #6c2c40;
        stroke-width: 0px;
      }
    </style>
  </defs>
  <g id="Layer_1-2" data-name="Layer 1">
    <g>
      <g>
        <path class="cls-1" d="M0,55.28c2.57,0,3.01-2.22,3.01-7.17v-10.59c0-1.65-1.65-2.35-2.89-2.35v-1.01c.6.03,1.21.06,1.81.06s2.66-.06,3.33-.25c2.16,4.66,10.88,14.56,14.43,17.86v-3.84c0-2.03-.1-4.79-.32-7.87-.35-4.69-.7-4.95-2.82-4.95v-.95c1.08,0,2.19.06,3.27.06,1.33,0,2.63-.06,4-.06v.95c-2.28,0-2.35,1.52-2.57,6.03-.13,2.41-.35,8.75-.35,11.16v4h-1.17c-4.28-4.38-11.61-12.81-15.32-18.05h-.06v8.66c0,6.6.76,8.31,2.92,8.31v.95c-1.36,0-2.66-.06-4-.06-1.08,0-2.19.06-3.27.06v-.95Z"/>
        <path class="cls-1" d="M26.55,55.28c2.12,0,2.54-1.4,2.54-5.84v-9.77c0-4.12-.41-4.5-2.25-4.5v-1.01c.57.03,1.17.13,1.74.13h6.66c1.3-.1,2.32-.19,3.2-.22.86-.06,1.62-.1,2.35-.1.63,0,1.3.1,1.93.13l-.44,4.12c-.03.41-.09.79-.03,1.21h-1.05c0-.35.06-.7.06-1.05,0-2.32-2.85-3.14-5.77-3.14h-3.65c-.03.51-.16.98-.16,1.49v7.14c.82.25,3.93.32,4.47.32,2.51,0,3.77-.32,5.68-.44l-.82,1.59c-3.11,0-6.25.06-9.32.44v6.15c0,1.08.06,2.12.22,3.23h1.08c6.41,0,9.42-1.08,10.05-3.96l.86.32c-.57,1.08-.92,2.54-1.27,4.09-.13.57-.44.86-1.24.86-1.17,0-2.06-.06-2.95-.13-.95-.06-1.87-.1-2.79-.16h-7.74c-.63,0-1.02.06-1.36.06v-.95Z"/>
        <path class="cls-1" d="M46.53,40.79l.86-6.82c.48.06,1.05.16,1.71.22.63.06,1.36.1,2.09.1h11.86c.76,0,1.46-.13,2.09-.19-2.92,3.43-10.02,13.73-14.78,20.77.38.03,1.14.1,1.59.1.82,0,3.87-.1,5.96-.25,3.17-.25,4.88-1.52,5.11-4.85h1.14c-.32,1.78-.7,3.58-.7,5.39,0,.38.03.76.06,1.14-.32-.1-.63-.13-.95-.16-.32-.06-.63-.06-1.08-.06h-12.72c-1.14,0-2.25.06-3.39.13,3.3-4.19,12.37-16.14,14.84-20.71-1.24-.03-4.98.03-7.77.29-2.76.25-4.5,2.03-4.73,4.92h-1.2Z"/>
        <path class="cls-1" d="M65.72,55.28c1.59-.06,1.87-.38,2.28-2.09.73-2.95,1.3-11.23,1.3-15.03,0-2.98-.7-2.98-2.19-2.98v-.95c.76,0,1.52.06,2.28.06.92,0,1.84-.06,2.79-.06,1.71,5.39,5.42,13.16,7.87,18.36,3.08-5.99,5.42-12.37,7.99-18.55.41.06.79.1,1.21.13s.82.06,1.2.06c1.02,0,1.97-.06,2.98-.06v1.01c-2.09.06-2.32.32-2.32,3.87v3.49c0,3.46.22,6.88.32,10.34.06,2.41.73,2.41,2,2.41v.95c-1.3,0-2.57-.06-3.87-.06-1.05,0-2.09.06-3.14.06v-.95c1.93-.06,2.22-.7,2.22-3.14,0-4.88-.03-9.8-.41-14.68h-.06c-2.76,6.25-5.52,12.53-8.47,18.71h-.92l-8.34-18.27h-.06c0,5.52-.38,10.72-.38,13.32s.35,4,2.57,4.06v.95c-1.27,0-2.51-.06-3.77-.06-1.01,0-2.06.06-3.08.06v-.95Z"/>
      </g>
      <path class="cls-1" d="M105.03,34.28s1.57-.16,2.3-.28c.06.35.19.82.29,1.17.76,3.24,2.79,8.88,4.98,14.75.98,2.66,2.25,5.36,3.52,5.36h.48v.95c-.79,0-1.62-.06-2.41-.06-.05,0-.11,0-.16,0-.92-.33-2.53-1.65-4.36-6.43l-.94-2.9h-.06l-.4-1.08h.01l-3.08-8.28c-1.14,2.62-2.16,5.28-3,8.05-.95,2.12-1.53,3.91-1.95,5.4l-.38,1.08c-.16.45-.29.98-.33,1.51-.16.56-.32,1.03-.51,1.41-.37.76-1.07,1.08-1.58,1.24-.81.02-1.63.06-2.43.06v-.95c.67,0,1.64.02,2.33-1.09,1.14-1.93,3.09-7.6,4.26-10.65l2.76-7.17.65-2.1Z"/>
      <path class="cls-1" d="M57.58,3.91c-1.01,1.42,3.27,5.68,3.27,5.68-3.5-2.01-4.13-4.53-4.13-4.53.47,2.06-1.22,4.09-1.22,4.09-1.31,1.03-.54,1.19-.54,1.19l1.4.19c.63.61.03.94.03.94-.68.66.4.91.4.91.19.33-.09.44-.09.44-.7.17.14.77.14.77.84.21.8.63.8.63-.31,2.13,1.22,1.99,1.22,1.99l4.2-.45c2.38-.56,3.53.91,3.53.91-2.97,3.32-8.88,4.2-8.88,4.2-9.72,2.24-8.85.7-8.85.7,2.52-.91,3.04-2.41,3.04-2.41-4.23,2.24-4.58.45-4.58.45,0,0,1.75-.03,3.18-3.71,0,0,3.32-9.48,3.92-10s.52-1.47,2.06-1.89c0,0,0-.66.87-.45,0,0-.17-.59,2.03-1.01,0,0,.98-.49-1.12-1.29,0,0-.7-.45.14-.94,0,0,2.66-1.26,6.57,1.29,0,0,5.52,2.66,3.95,10.84,0,0-1.22-2.13-4.69-3.01,0,0-4.9-1.92-5.79-3.72l-.89-1.8Z"/>
      <path class="cls-1" d="M59.77,7.85s3.01,2.2,5.91,4.06c0,0,1.38,1.6,1.66,2.79.05.21.32.3.48.16.3-.25.65-.77.69-1.83,0,0,.16-.9-5.74-3.88-.71-.36-1.42-.58-2.32-1.27-.19-.17-1.73-1.06-.68-.03Z"/>
    </g>
  </g>
</svg>