<?xml version="1.0" encoding="UTF-8"?>
<svg id="Layer_2" data-name="Layer 2" xmlns="http://www.w3.org/2000/svg" xmlns:xlink="http://www.w3.org/1999/xlink" viewBox="0 0 238.42 115.45">
  <defs>
    <style>
      .cls-1 {
        fill: url(#linear-gradient);
      }

      .cls-1, .cls-2, .cls-3, .cls-4, .cls-5, .cls-6, .cls-7 {
        stroke-width: 0px;
      }

      .cls-2 {
        fill: url(#linear-gradient-6);
      }

      .cls-3 {
        fill: url(#linear-gradient-5);
      }

      .cls-4 {
        fill: url(#linear-gradient-2);
      }

      .cls-5 {
        fill: url(#linear-gradient-7);
      }

      .cls-6 {
        fill: url(#linear-gradient-3);
      }

      .cls-7 {
        fill: url(#linear-gradient-4);
      }
    </style>
    <linearGradient id="linear-gradient" x1="0" y1="92.36" x2="48.71" y2="92.36" gradientUnits="userSpaceOnUse">
      <stop offset="0" stop-color="#b2654f"/>
      <stop offset=".23" stop-color="#b86e57"/>
      <stop offset=".51" stop-color="#facbbf"/>
      <stop offset=".78" stop-color="#f0a28c"/>
      <stop offset=".97" stop-color="#b2654f"/>
    </linearGradient>
    <linearGradient id="linear-gradient-2" x1="54.29" y1="92.46" x2="89.76" y2="92.46" xlink:href="#linear-gradient"/>
    <linearGradient id="linear-gradient-3" x1="92.81" y1="92.39" x2="133.22" y2="92.39" xlink:href="#linear-gradient"/>
    <linearGradient id="linear-gradient-4" x1="134.39" y1="92.29" x2="191.07" y2="92.29" xlink:href="#linear-gradient"/>
    <linearGradient id="linear-gradient-5" x1="194.31" y1="92.26" x2="238.42" y2="92.26" gradientUnits="userSpaceOnUse">
      <stop offset="0" stop-color="#b2654f"/>
      <stop offset=".25" stop-color="#b86e57"/>
      <stop offset=".49" stop-color="#facbbf"/>
      <stop offset=".8" stop-color="#f0a28c"/>
      <stop offset="1" stop-color="#b2654f"/>
    </linearGradient>
    <linearGradient id="linear-gradient-6" x1="96.8" y1="22.58" x2="141.56" y2="22.58" xlink:href="#linear-gradient-5"/>
    <linearGradient id="linear-gradient-7" x1="121.5" y1="22.78" x2="140.11" y2="22.78" gradientUnits="userSpaceOnUse">
      <stop offset=".14" stop-color="#facbbf"/>
      <stop offset=".47" stop-color="#b86e57"/>
      <stop offset=".8" stop-color="#f0a28c"/>
      <stop offset="1" stop-color="#b2654f"/>
    </linearGradient>
  </defs>
  <g id="Layer_1-2" data-name="Layer 1">
    <g>
      <g>
        <path class="cls-1" d="M0,113.05c5.25,0,6.16-4.54,6.16-14.66v-21.66c0-3.37-3.37-4.8-5.9-4.8v-2.08c1.23.06,2.46.13,3.7.13s5.45-.13,6.81-.52c4.41,9.53,22.25,29.77,29.51,36.51v-7.85c0-4.15-.19-9.79-.65-16.08-.71-9.6-1.43-10.12-5.77-10.12v-1.95c2.21,0,4.48.13,6.68.13,2.72,0,5.38-.13,8.17-.13v1.95c-4.67,0-4.8,3.11-5.25,12.32-.26,4.93-.71,17.9-.71,22.83v8.17h-2.4c-8.76-8.95-23.74-26.2-31.33-36.9h-.13v17.71c0,13.49,1.56,16.99,5.97,16.99v1.95c-2.79,0-5.45-.13-8.17-.13-2.2,0-4.47.13-6.68.13v-1.95Z"/>
        <path class="cls-4" d="M54.29,113.05c4.34,0,5.19-2.85,5.19-11.93v-19.98c0-8.43-.84-9.21-4.6-9.21v-2.08c1.17.06,2.4.26,3.57.26h13.62c2.66-.19,4.73-.39,6.55-.45,1.75-.13,3.31-.19,4.8-.19,1.3,0,2.66.19,3.96.26l-.91,8.43c-.06.84-.19,1.62-.06,2.46h-2.14c0-.71.13-1.43.13-2.14,0-4.73-5.84-6.42-11.8-6.42h-7.46c-.06,1.04-.32,2.01-.32,3.05v14.59c1.69.52,8.04.65,9.14.65,5.12,0,7.72-.65,11.61-.91l-1.69,3.24c-6.36,0-12.78.13-19.07.91v12.58c0,2.2.13,4.35.45,6.62h2.2c13.1,0,19.26-2.2,20.56-8.11l1.75.65c-1.17,2.21-1.88,5.19-2.59,8.37-.26,1.17-.91,1.75-2.53,1.75-2.4,0-4.22-.13-6.03-.26-1.95-.13-3.83-.19-5.71-.32h-15.83c-1.3,0-2.08.13-2.79.13v-1.95Z"/>
        <path class="cls-6" d="M95.15,83.41l1.75-13.94c.97.13,2.14.32,3.5.45,1.3.13,2.79.19,4.28.19h24.26c1.56,0,2.98-.26,4.28-.39-5.97,7-20.49,28.08-30.22,42.48.78.06,2.33.19,3.24.19,1.69,0,7.91-.19,12.19-.52,6.49-.52,9.99-3.11,10.44-9.92h2.33c-.65,3.63-1.43,7.33-1.43,11.03,0,.78.06,1.56.13,2.33-.65-.19-1.3-.26-1.95-.32-.65-.13-1.3-.13-2.2-.13h-26.01c-2.33,0-4.6.13-6.94.26,6.74-8.56,25.29-33.01,30.35-42.35-2.53-.06-10.18.06-15.89.58-5.64.52-9.21,4.15-9.66,10.05h-2.46Z"/>
        <path class="cls-7" d="M134.39,113.05c3.24-.13,3.83-.78,4.67-4.28,1.49-6.03,2.66-22.96,2.66-30.74,0-6.1-1.43-6.1-4.47-6.1v-1.95c1.56,0,3.11.13,4.67.13,1.88,0,3.76-.13,5.71-.13,3.5,11.03,11.09,26.92,16.08,37.55,6.29-12.26,11.09-25.29,16.34-37.94.84.13,1.62.19,2.46.26s1.69.13,2.46.13c2.08,0,4.02-.13,6.1-.13v2.08c-4.28.13-4.73.65-4.73,7.91v7.13c0,7.07.45,14.07.65,21.14.13,4.93,1.49,4.93,4.09,4.93v1.95c-2.66,0-5.25-.13-7.91-.13-2.14,0-4.28.13-6.42.13v-1.95c3.96-.13,4.54-1.43,4.54-6.42,0-9.99-.06-20.04-.84-30.03h-.13c-5.64,12.78-11.28,25.62-17.32,38.27h-1.88l-17.06-37.36h-.13c0,11.28-.78,21.92-.78,27.24s.71,8.17,5.25,8.3v1.95c-2.59,0-5.12-.13-7.72-.13-2.08,0-4.22.13-6.29.13v-1.95Z"/>
      </g>
      <path class="cls-3" d="M214.77,70.11c.08,0,3.22-.32,4.71-.58.13.71.39,1.69.58,2.4,1.56,6.62,5.71,18.16,10.18,30.16,2.01,5.45,4.6,10.96,7.2,10.96h.97v1.95c-1.62,0-3.31-.13-4.93-.13-.11,0-.22,0-.32,0-1.88-.67-5.17-3.38-8.91-13.15l-1.92-5.93h-.12l-.82-2.21h.02l-6.29-16.93c-2.33,5.36-4.42,10.79-6.14,16.46-1.95,4.33-3.12,8.01-3.98,11.04l-.77,2.21c-.33.93-.6,2-.68,3.09-.33,1.14-.66,2.11-1.04,2.89-.76,1.56-2.19,2.21-3.24,2.53-1.65.03-3.33.11-4.97.11v-1.95c1.36,0,3.34.04,4.77-2.23,2.33-3.96,6.32-15.54,8.72-21.77l5.64-14.66,1.32-4.29Z"/>
      <path class="cls-2" d="M117.75,8c-2.07,2.9,6.69,11.62,6.69,11.62-7.15-4.11-8.44-9.26-8.44-9.26.97,4.22-2.5,8.37-2.5,8.37-2.68,2.11-1.11,2.43-1.11,2.43l2.86.39c1.29,1.25.07,1.93.07,1.93-1.39,1.36.82,1.86.82,1.86.39.68-.18.89-.18.89-1.43.36.29,1.57.29,1.57,1.72.43,1.64,1.29,1.64,1.29-.64,4.36,2.5,4.08,2.5,4.08l8.58-.93c4.86-1.14,7.22,1.86,7.22,1.86-6.08,6.79-18.16,8.58-18.16,8.58-19.88,4.58-18.09,1.43-18.09,1.43,5.15-1.86,6.22-4.93,6.22-4.93-8.65,4.58-9.37.93-9.37.93,0,0,3.58-.07,6.51-7.58,0,0,6.79-19.38,8.01-20.45s1.07-3,4.22-3.86c0,0,0-1.36,1.79-.93,0,0-.36-1.22,4.15-2.07,0,0,2-1-2.29-2.65,0,0-1.43-.93.29-1.93,0,0,5.43-2.57,13.44,2.65,0,0,11.3,5.43,8.08,22.17,0,0-2.5-4.36-9.58-6.15,0,0-10.01-3.93-11.83-7.62l-1.82-3.68Z"/>
      <path class="cls-5" d="M122.23,16.05s6.15,4.5,12.08,8.29c0,0,2.82,3.28,3.4,5.71.1.44.65.61.99.32.61-.52,1.32-1.58,1.4-3.75,0,0,.33-1.84-11.74-7.93-1.45-.73-2.9-1.19-4.74-2.6-.38-.34-3.53-2.16-1.39-.05Z"/>
    </g>
  </g>
</svg>