<?xml version="1.0" encoding="UTF-8"?>
<svg id="Layer_2" data-name="Layer 2" xmlns="http://www.w3.org/2000/svg" viewBox="0 0 341.65 404.95">
  <defs>
    <style>
      .cls-1 {
        fill: #aa5025;
      }

      .cls-1, .cls-2, .cls-3, .cls-4, .cls-5, .cls-6, .cls-7, .cls-8 {
        stroke-width: 0px;
      }

      .cls-2, .cls-5 {
        fill: #4c220e;
      }

      .cls-3 {
        fill: #f58c59;
      }

      .cls-4 {
        fill: #fde5d0;
      }

      .cls-5 {
        fill-rule: evenodd;
      }

      .cls-6 {
        fill: #eca86b;
      }

      .cls-7 {
        fill: #eeae81;
      }

      .cls-8 {
        fill: #fbbf80;
      }
    </style>
  </defs>
  <g id="Layer_1-2" data-name="Layer 1">
    <g>
      <g>
        <path class="cls-4" d="M53.34,369.11c-4.29,4.03-8.56,8.08-12.9,12.07-6.43,5.91-12.75,11.95-19.74,17.22-1.72,1.29-3.58,2.4-5.41,3.54-1.24.77-2.62.73-4,.4-4.41-1.05-8.29-5.62-8.62-10.14-.17-2.36.56-4.33,2.47-5.83,1.87-1.47,3.92-2.61,6.13-3.45,5.51-2.07,10.99-4.2,16.3-6.76,6.29-3.03,12.37-6.4,18.08-10.43,1.88-1.32,3.78-2.61,5.8-4,1.31,1.75,2.6,3.46,3.97,5.28-.73.72-1.4,1.42-2.1,2.08Z"/>
        <g>
          <path class="cls-3" d="M51.99,359.19c-.67.58-.25.9,0,1.24,1.2,1.67,2.41,3.34,3.61,5.01.37.52.76,1.02,1.12,1.55.38.55.81.6,1.49.16-1.54-3.09-3.47-5.79-6.21-7.96Z"/>
          <path class="cls-3" d="M55.95,356.63c-.05-.17-.09-.33-.14-.5.16.02.33.03.49.05.14.02.28.04.42.06-.29-.29-.59-.58-.94-.92-.37.35-.67.62-.97.9.36.13.72.26,1.09.4v-.03s.04.04.04.04Z"/>
          <path class="cls-3" d="M59.02,357.91c.09.36.18.73.32,1.29-.85-.84-1.53-1.51-2.21-2.18-.01.4-.2.53-.53.27-.24-.19-.44-.44-.65-.66-.01,0-.02,0-.04-.01,0,.31,0,.63,0,1-.83-.16-.83-.88-1.11-1.38-.9.34-1.67.85-2.29,1.58,3.14,2.44,5.23,5.56,6.84,9.16,1.31-1.16,2.47-2.18,3.62-3.2-1.11-2.52-3.52-6.1-3.96-5.87Z"/>
          <path class="cls-3" d="M61.67,350.96c-1.37,1.04-2.67,2.03-3.96,3.01,1.18,1.56,2.32,2.92,3.28,4.39.98,1.5,1.79,3.12,2.77,4.89,1.4-1.12,2.75-2.21,4.12-3.31-1.9-3.23-3.37-6.51-6.22-8.97Z"/>
          <path class="cls-3" d="M65.01,348.3h0c.13.22.23.48.4.67.38.42.79.8,1.41,1.41-1.44-.52-1.75-.93-1.82-2.08,0,0,0,0,0,0h0c-.27.24-.55.49-.82.73.44.53.8.97,1.17,1.41-.47-.05-.71-.29-.98-.5-.23-.18-.48-.32-.73-.48.92,1.27,1.81,2.47,2.46,3.83-.57-.5-1.02-1.07-1.52-1.61-.5-.53-1.05-1.02-1.57-1.53-.08.07-.15.15-.23.22,2.46,2.64,4.23,5.72,5.67,9.09,1.45-1.05,2.79-2.01,4.17-3.01-.62-1.07-1.05-2.09-1.72-2.91-1.46-1.77-3.03-3.46-4.59-5.14-.31-.34-.8-.89-1.3-.11Z"/>
        </g>
        <g>
          <path class="cls-1" d="M84.72,336.37c-.66-.29-.89.23-1.1.76.37-.25.73-.51,1.1-.76Z"/>
          <path class="cls-1" d="M81.35,336.78c-.18.2-.36.41-.54.61.04.03.07.06.11.09.21-.17.42-.34.63-.52-.07-.06-.14-.13-.2-.19Z"/>
          <path class="cls-1" d="M82.31,340.95c-.31.23-.62.46-.94.69.08.09.15.18.23.27.3-.25.6-.49.9-.74-.06-.08-.13-.15-.19-.23Z"/>
          <path class="cls-1" d="M77.75,342.89c-.38.34-.6.53-.94.84.74.14.87-.14.94-.84Z"/>
          <path class="cls-1" d="M80.26,344.68c.24-.37.49-.74.73-1.11-.58-.03-.98.16-1.09.73.12.13.24.25.36.38Z"/>
          <path class="cls-1" d="M76,344.09c-.06.19-.12.39-.19.58.08.02.23.08.24.06.1-.17.17-.35.26-.53-.1-.04-.2-.07-.31-.11Z"/>
          <path class="cls-1" d="M74.89,344.74c-.39.48-.66.8-.93,1.12.1.08.2.17.3.25.43-.22.98-.37.63-1.38Z"/>
          <path class="cls-1" d="M77.49,346.03c-.81.31-1.07.8-1.14,1.66.68-.43,1.22-.71,1.14-1.66Z"/>
          <path class="cls-1" d="M73.83,347.98q1.08-.7,1-1.5c-.62.28-1.09.6-1,1.5Z"/>
          <path class="cls-1" d="M79.1,344.81q-.8.46-.88,1.4c.51-.47.85-.77,1.19-1.08-.1-.11-.21-.21-.32-.32Z"/>
          <path class="cls-1" d="M73.11,345.88c-.26.53-.42.86-.69,1.41q.9-.46.69-1.41Z"/>
          <path class="cls-1" d="M71.54,348.29c.15-.37.59-.71.05-1.23-.32.45-.53.82-.05,1.23Z"/>
          <path class="cls-1" d="M100.32,321.41c-1.74.48-3.23,1.44-4.57,2.6-4.51,3.93-8.98,7.9-13.46,11.87-.15.13-.25.32-.37.49.56-.11.95-.36,1.31-.66,1.91-1.61,3.81-3.24,5.73-4.84,2.63-2.21,5.26-4.4,7.9-6.59.21-.17.5-.25.76-.37-.7.77-1.49,1.34-2.21,2-3.43,3.15-6.83,6.33-10.25,9.5-.29.27-.59.52-.42.97,2.92-2.23,5.82-4.48,8.76-6.68,1-.75,2.09-1.37,3.13-2.04-2.88,3.45-6.62,5.82-9.84,8.86,1.08-.65,2.15-1.31,3.23-1.96-.66.86-1.42,1.54-2.22,2.18-.84.68-1.74,1.28-2.55,1.99-.74.65-1.8.96-2.24,2.02.28.02.46.04.92.08-.82.68-1.45,1.15-2.02,1.67-.33.31-.58.71-.86,1.06.16.06.34.11.64.22-1.85,1.64-3.62,3.21-5.5,4.87-.09-.6-.16-1-.22-1.4-.87.55-1.68,1.06-2.52,1.59-.04-.48-.07-.85-.11-1.23-.09-.04-.17-.08-.26-.12-.33.45-.67.91-.96,1.32-.19-.14-.4-.3-.61-.46,0,0,0-.01,0-.02-.21.08-.42.16-.63.24-.13-.33-.23-.58-.36-.92-.44.24-.81.44-1.24.68.8,1,1.59,1.88,2.25,2.84.66.94,1.2,1.97,1.85,3.06,1.71-1.15,3.3-2.2,4.87-3.29,6.91-4.77,14.3-8.75,21.43-13.16,1.78-1.1,3.48-2.38,5.06-3.76.81-.71,1.64-1.75,1.83-2.76.63-3.33-.26-6.41-2.23-9.16-.49-.69-1.17-1.05-2.02-.99-.68.05-1.37.12-2.02.3Z"/>
        </g>
      </g>
      <path class="cls-2" d="M101.42,318.84c-.49.08-1.06.17-1.61.33-1.9.55-3.69,1.55-5.34,2.95l-1.09.93c-2.84,2.42-5.77,4.92-8.56,7.48-.73.67-1.45,1.34-2.18,2-4.96,4.58-10.09,9.32-15.99,13.25-1.12-.52-2.18-.25-3.25.8-.61.6-1.31,1.15-1.98,1.68-.28.22-.56.43-.83.66l-1.74,1.41c-2.32,1.88-4.63,3.76-6.95,5.63-1.1.89-1.68,1.96-1.72,3.19-.02.65-.33.96-.86,1.3-1.64,1.04-3.28,2.08-4.91,3.12-1.3.83-2.59,1.65-3.89,2.48-8.1,5.13-16.92,9.46-26.98,13.24-3.3,1.24-7.09,2.78-10.3,5.43-1.91,1.57-2.91,3.22-3.15,5.17-.78,6.21,3.85,13.1,9.89,14.72,2.06.56,3.86.44,5.49-.35l.31-.15c1.13-.55,2.3-1.12,3.33-1.86l1.1-.79c2.39-1.71,4.86-3.48,7.11-5.45,4.77-4.18,9.52-8.55,14.11-12.77l1.92-1.76c2.28-2.1,4.55-4.21,6.81-6.33,2.14-2,4.29-4,6.45-5.99.25-.23.77-.33,1.14-.31,1.07.03,1.95-.24,2.76-.85,3.03-2.29,6.04-4.54,8.95-6.7,1.51-1.12,2.77-2.01,3.95-2.79.53-.35,1.04-.79.93-1.52-.1-.59.19-.81.7-1.13.9-.57,1.79-1.15,2.68-1.74,1.55-1.01,3.15-2.05,4.74-3.03,2.39-1.48,4.79-2.95,7.18-4.42,3.6-2.21,7.33-4.5,10.97-6.79,1.77-1.11,3.47-2.4,5.06-3.83,1.6-1.44,2.62-3.22,3.02-5.28.16-.81.24-1.62.24-2.42,0-2.19-.59-4.34-1.79-6.54-1.28-2.35-3.2-3.34-5.73-2.95ZM56.92,366.85h0c-.24-.35-.49-.7-.74-1.04l-3.99-5.53s-.07-.09-.11-.14c-.12-.15-.2-.26-.2-.37,0-.08.04-.15.12-.25,2.37,1.93,4.25,4.33,5.87,7.53-.49.26-.72.13-.95-.21ZM2.94,392.19c-.01-.21-.02-.42-.02-.63,0-2.08.79-3.72,2.4-4.98,1.83-1.44,3.87-2.58,6.07-3.41,6.17-2.31,11.3-4.35,16.32-6.77,7.01-3.38,12.94-6.8,18.12-10.45,1.29-.91,2.6-1.81,3.94-2.73l1.66-1.14,3.7,4.92c-.18.18-.36.36-.53.53-.47.48-.94.94-1.41,1.39l-3.27,3.08c-3.14,2.96-6.39,6.02-9.63,8.99-.91.84-1.82,1.68-2.73,2.52-5.41,5-11,10.17-16.99,14.69-1.46,1.1-3.05,2.08-4.59,3.03l-.8.5c-1.01.63-2.22.75-3.81.37-4.33-1.03-8.11-5.47-8.42-9.92ZM56.03,355.9s-.02,0-.03,0l-.42-.04.21-.19.24.24ZM55.58,356.23l-.29-.1.21-.19.08.3ZM54.75,356.74c.16.43.36.98,1.12,1.12l.3.06v-.69c.09.09.18.18.28.26.29.23.5.2.63.15.06-.03.12-.07.17-.15l2.55,2.51-.38-1.55c.77.84,2.33,3.22,3.26,5.26l-3.23,2.85c-1.74-3.8-3.84-6.6-6.56-8.78.49-.52,1.08-.92,1.8-1.23.02.06.05.12.07.18ZM63.1,361.52c-.63-1.16-1.22-2.26-1.91-3.3-.67-1.02-1.41-1.98-2.21-2.99-.31-.39-.62-.79-.93-1.21l3.6-2.73c2.15,1.91,3.49,4.29,4.9,6.81.33.59.66,1.18,1.01,1.78l-3.72,2.99c-.25-.46-.5-.9-.73-1.34ZM64.25,351.7c.05.05.1.11.15.16.16.17.31.34.46.51.34.38.68.77,1.08,1.12l.92.81-.53-1.1c-.46-.95-1.03-1.82-1.64-2.7.17.1.37.18.64.2l.62.07-1.41-1.7.28-.25c.16.93.64,1.34,1.93,1.81l1.07.39-.81-.8c-.2-.19-.37-.37-.53-.52-.34-.33-.62-.6-.87-.88-.1-.11-.17-.25-.25-.4-.01-.03-.03-.06-.04-.09.07-.08.15-.16.23-.16.17-.02.41.24.59.43,1.74,1.87,3.18,3.43,4.58,5.13.44.54.78,1.18,1.14,1.86.14.27.29.54.44.82l-3.74,2.69c-1.28-2.93-2.67-5.33-4.31-7.38ZM73.03,353.08c-.42-.73-.82-1.41-1.27-2.07-.47-.67-.98-1.29-1.53-1.96-.18-.22-.36-.44-.54-.66l.73-.4.35.89.71-.27c.18.14.35.27.51.39l.2.15.94-1.29.12,1.4,2.54-1.61.24,1.48,6.16-5.45-.72-.24s.03-.03.04-.05c.19-.26.37-.5.59-.7.39-.36.8-.69,1.29-1.08.22-.18.46-.37.71-.58l.47-.39-1.16-.1c.29-.45.73-.74,1.2-1.03.28-.18.56-.36.81-.58.47-.41.99-.8,1.49-1.17.36-.27.71-.53,1.06-.81.72-.58,1.55-1.3,2.26-2.22l.81-1.05-1.98,1.2c.58-.49,1.17-.97,1.75-1.44,2.08-1.7,4.24-3.46,6.03-5.61l1.05-1.26-1.38.89c-.33.21-.66.42-.98.62-.72.45-1.47.91-2.16,1.43-2.13,1.59-4.27,3.23-6.34,4.82l-1.77,1.35s.06-.05.09-.08c1.2-1.11,2.4-2.22,3.6-3.34,2.22-2.06,4.43-4.11,6.65-6.16.25-.23.51-.45.78-.67.49-.41.99-.84,1.45-1.35l.85-.94-1.14.55c-.08.04-.16.07-.23.1-.2.08-.4.16-.57.3-2.64,2.19-5.28,4.39-7.9,6.59-.97.82-1.94,1.64-2.91,2.46-.88.75-1.76,1.49-2.65,2.24l2.04-1.8c3.48-3.08,7.07-6.26,10.63-9.36,1.49-1.3,2.95-2.13,4.47-2.55.65-.18,1.36-.25,1.97-.29.73-.06,1.34.24,1.8.88,2.04,2.84,2.77,5.85,2.19,8.97-.15.82-.81,1.8-1.75,2.62-1.63,1.42-3.32,2.68-5.03,3.73-2.49,1.54-5.05,3.05-7.52,4.51-4.63,2.73-9.41,5.55-13.91,8.66-1.06.73-2.13,1.45-3.24,2.19l-1.41.95c-.16-.26-.31-.52-.46-.78ZM80.49,343.88l-.26.4-.05-.05c.04-.14.13-.27.31-.35ZM76.68,347.17c.09-.34.26-.57.55-.75-.06.34-.25.54-.55.75ZM79.02,345.15l-.44.4c.07-.16.19-.25.44-.4ZM74.34,345.81l.41-.5c0,.28-.17.38-.41.5ZM74.09,347.51c.06-.29.23-.47.52-.64,0,.25-.12.37-.52.64ZM71.51,347.82c-.01-.09.02-.18.09-.31.02.1-.02.19-.09.31Z"/>
    </g>
    <g>
      <g>
        <path class="cls-8" d="M100.71,127.98c2.36.17,4.7.53,7,1.12,2.65.68,5.06,1.85,7.35,3.29,1.68,1.05,3.36,2.09,5.01,3.18,2.34,1.54,4.31,3.43,5.62,5.95.85,1.62,1.84,3.15,2.94,4.62,2.01,2.67,3.58,5.6,4.75,8.74.09.25.16.52.19.78.4,3.81-.01,7.53-1.24,11.17-1.13,3.35-2.71,6.46-4.66,9.39-.06.09-.11.18-.12.3,1.29-1.16,2.54-2.34,3.39-3.87,2.24-4.05,3.69-8.32,3.7-13,0-.21,0-.42,0-.82.6.87.8,1.65.67,2.5-.99,6.88-3.52,13.06-8.39,18.13-1.12,1.16-2.38,2.19-3.7,3.39,1.14-.36,2.11-.74,2.98-1.35,1.73-1.23,3.15-2.78,4.36-4.5,2.72-3.86,4.41-8.15,5.15-12.82.02-.12.05-.23.09-.34,0-.02.04-.03.18-.13.13,1.15.23,2.23-.05,3.29-.82,3.16-2.16,6.1-3.92,8.84-1.51,2.35-3.14,4.62-5.21,6.52-1.03.95-2.18,1.78-3.32,2.6-.84.61-1.75,1.13-2.82,1.81,1.15-.11,2.06-.28,2.93-.68,2.26-1.04,4.03-2.69,5.65-4.52,2.83-3.2,5.01-6.8,6.4-10.85.06-.17.12-.34.19-.51.02-.05.07-.09.17-.21.03.15.07.25.06.33-.17,2.33-.83,4.53-1.86,6.62-.02.04-.08.06-.12.09,0,0,0-.01,0-.02h0s0,0,0,0l-.02.03h0,0c-.03-.13-.06-.26-.12-.55-.48.76-.84,1.4-1.27,2-2.44,3.47-5.5,6.23-9.21,8.29-.72.4-1.4.86-2.21,1.37,1.55,0,2.78-.53,3.93-1.26,3.2-2.01,5.8-4.62,7.82-7.81.19-.3.42-.57.64-.85-.69,2.39-1.75,4.61-3.17,6.63-1.15,1.64-2.53,3.11-3.81,4.65-.13.15-.32.26-.51.36-4.99,2.71-10.29,4.38-15.97,4.81-1.46.11-2.92.29-4.31.43,3.46.91,6.97.67,10.47-.2,2.3-.57,4.53-1.36,6.7-2.33.21-.09.43-.18.69-.28-.34.72-.84,1.21-1.46,1.48-3.83,1.64-7.84,2.61-11.98,3.05-.8.09-1.6.22-2.41.31-1.16.13-2.32.24-3.45.35,1.76.33,3.59.58,5.42.39,1.87-.19,3.75-.44,5.59-.86,1.79-.41,3.52-1.06,5.35-1.63-.52.84-1.24,1.32-2.08,1.56-1.87.53-3.74,1.14-5.65,1.46-2.12.35-4.29.41-6.44.59-.54.05-1.08.1-1.61.11-.92.02-1.85,0-2.68,0,2.54.64,5.2.86,7.92.6,2.7-.26,5.32-.85,7.91-1.79-.12.13-.23.27-.37.39-2.62,2.39-5.72,3.92-9.03,5.06-2.21.76-4.42,1.53-6.67,2.14-4.05,1.1-8.14.87-12.19-.05-2.42-.55-4.84-1.13-7.24-1.77-1.21-.32-2.39-.79-3.57-1.22-1.57-.57-2.71-1.73-3.86-2.87-.74-.74-1.48-1.48-2.25-2.18-1.33-1.21-2.73-2.34-4.03-3.59-.88-.85-1.56-1.91-2.44-2.76-2.05-1.97-3.07-4.45-3.74-7.14-.51-2.06-.98-4.14-1.63-6.17-.57-1.76-1.35-3.46-2.06-5.18-1.54-3.72-2.06-7.57-1.44-11.54.3-1.92.89-3.79,1.94-5.48.52-.84.98-1.72,1.52-2.55,1.36-2.08,2.18-4.38,2.97-6.72,1.35-3.99,3.32-7.62,6.49-10.52,1.58-1.44,3.13-2.88,5.08-3.82,2.39-1.15,4.88-2.04,7.52-2.31,2.92-.3,5.85-.44,8.78-.69.92-.08,1.85-.24,2.74-.47,1.97-.53,3.95-.69,5.97-.54Z"/>
        <path class="cls-8" d="M128.7,185.74c-1.13.75-2.12,1.52-3.21,2.11-1.09.6-2.28,1.02-3.57,1.58,1.95.49,5.49-1.48,6.78-3.68Z"/>
        <path class="cls-8" d="M123.1,190.13c-.72-.08-1.26.23-1.8.76.96.26,1.49.02,1.8-.76Z"/>
      </g>
      <g>
        <path class="cls-6" d="M82.84,151.62c.24-.29.47-.58.71-.88-.05-.05-.1-.1-.16-.15-.31.24-.68.45-.55,1.02Z"/>
        <path class="cls-6" d="M89.52,142.75c-.91-.37-1.8-.08-2.41.77,2.38-.53,3.03-.45,3.56.5-.29-.02-.56-.02-.82-.05-1.12-.11-2.21.03-3.29.32-.73.2-.86.33-1.11,1.19,1.29-.42,2.55-.92,3.95-.47-.69.18-1.38.36-2.06.55-.69.19-1.38.38-2.06.61-.64.21-.96.71-1.15,1.48,1.25-.78,2.41-1.42,3.83-1.21-.48.3-1,.5-1.5.75-.87.45-1.74.93-2.59,1.43-.25.15-.5.36-.43.78,1.17-.75,2.13-1.86,3.7-1.36-.52.41-1.09.72-1.66,1.03-.55.3-1.09.61-1.49,1.1.55-.18,1-.61,1.73-.56-.38.35-.7.62-.99.92-.66.69-1.33,1.38-1.96,2.1-.27.31-.47.67-.28,1.14q1.38-1.5,2.16-1.61c-.62,1.23-1.86,2.1-2.12,3.55.26-.28.44-.62.67-.92.23-.3.51-.55.76-.83-.08.57-.27,1.04-.5,1.49-.47.93-1,1.81-1.08,2.91-.06.85-.63,1.26-1.49,1.23-.56-.02-1.14-.09-1.67-.28-1.27-.44-2.53-.93-3.77-1.46-.56-.24-1.06-.62-1.58-.94.02-.05.04-.1.07-.15h1.11c.02-.05.04-.11.06-.16-.92-.51-1.85-1.03-2.85-1.59.18-.04.26-.05.34-.07.11-.02.22-.04.38-.06-.77-.48-1.48-.91-2.34-1.45.56.03.89.05,1.23.07-.94-.7-1.98-.56-3.11-.39.65-.86,1.49-.64,2.23-.81-1.02-.6-2.05,0-3.1-.01.49-.9,1.42-.77,2.29-.92-.35-.44-.71-.51-1.11-.37-.56.2-1.14.39-1.68.63-.22.1-.47.31-.54.53-.49,1.5-.41,3.01.14,4.48.11.3.31.6.54.81.68.58,1.35,1.2,2.12,1.65,1.03.61,2.13,1.09,3.21,1.59,1.21.55,2.48.84,3.82.92.98.05,1.97.17,2.94.33.72.12,1.38.44,1.81,1.07.12.18.23.44.2.65-.22,1.52-.63,2.99-1.53,4.27-.55.78-1.09,1.57-1.66,2.33-.31.41-.68.77-1.03,1.15-.05-.03-.1-.07-.14-.1.33-.68.66-1.35.99-2.03-.05-.03-.09-.05-.14-.08-.96,1.59-1.93,3.18-2.89,4.77-.13-1.27.78-2.1,1.34-3.23-.77.36-1.09.83-1.31,1.42-.22.62-.49,1.22-.77,1.82-.14.31-.35.6-.52.9-.06-.02-.12-.04-.19-.06.06-.36.1-.73.2-1.09.1-.36.24-.71.4-1.15-.54.19-.75.52-.89.93-.21.62-.43,1.25-.67,1.86-.17.43-.39.85-.6,1.27-.29-1.1.4-1.94.65-2.96-.65.17-1.02.47-1.1,1.09-.08.62-.19,1.24-.3,1.86-.06.33-.14.65-.2.98-.72-1-.14-1.96-.04-2.96-.57.1-.82.39-.86.91-.04.6-.08,1.19-.13,1.79-.03.31-.07.62-.11.93-.07,0-.14,0-.22-.01-.57-.89,0-1.86-.07-2.8-.5.05-.64.37-.65.75,0,.45.05.9.07,1.35.01.43,0,.86,0,1.3-.09.01-.19.02-.28.04-.7-.72-.2-1.7-.33-2.68-.72.87.08,1.79-.39,2.63-.23-.27-.45-.51-.67-.77-.22.45-.08.78.3.93.52.2,1.08.45,1.62.45,1.79.01,3.5-.32,5.05-1.34,1.73-1.14,3.1-2.63,4.33-4.27,1.85-2.46,3.15-5.22,4.27-8.08.07-.17.13-.34.23-.48.25-.33.57-.37.82-.05.8,1.04,1.58,2.1,2.35,3.17.1.14.24.4.19.48-.33.5.13.74.3,1.07.19.36.54.64.66,1.27-.38-.32-.61-.52-.95-.81.15,1.21,1.17,1.78,1.42,2.77-.3-.28-.59-.56-.89-.84-.05.03-.1.06-.15.1.13.24.23.5.4.72.41.52.86,1,1.27,1.51.09.11.09.27.14.41l-.14.11c-.4-.33-.81-.65-1.24-1-.23.65.28.95.53,1.35.26.42.7.74.75,1.33-.36-.29-.73-.58-1.09-.87.2,1.22,1.33,1.63,2.15,2.45-.95-.03-1.45-.73-2.14-1.02-.23.47,0,.77.33,1.01.72.53,1.44,1.05,2.21,1.61-1.23.3-1.73-.88-2.69-1.27.03.27-.02.49.07.6.89,1.17,2.27,1.58,3.5,2.22-1.51.32-2.45-.71-3.52-1.51-.2.44-.01.71.27.89.6.38,1.22.74,1.86,1.05.42.2.9.29,1.41.44-.68.46-1.28.21-1.84-.05-.55-.25-1.06-.58-1.62-.89.3,1.34.62,1.64,1.89,1.83.12.02.24.04.36.06,1.36.14,1.93-.2,2.18-1.53.21-1.08.3-2.19.37-3.3.2-3.05-.98-5.68-2.66-8.12-.81-1.18-1.75-2.28-2.62-3.43-.27-.36-.55-.72-.77-1.11-.68-1.2-.35-2.2.88-2.82.37-.19.72-.43,1.09-.63.63-.33,1.25-.71,1.92-.95,1.23-.44,2.53-.59,3.81-.47,2.12.19,4.22.48,6.33.75,1.39.18,2.78.47,4.18.6,1.2.11,2.13-.58,2.56-1.72.03-.08,0-.17,0-.29-.16.01-.3.03-.54.05.08-.33.12-.65.24-.94.16-.39.01-.62-.36-.88.06.57.13,1.1-.42,1.62-.07-.67-.12-1.17-.16-1.67-.06-.76-.17-.89-.97-1.05.69,1.63.71,1.73.31,2.52-.32-.75-.6-1.48-.94-2.17-.41-.83-.97-1.5-2.05-1.53q1.74,1.95,1.66,3.21c-.4-.53-.73-1.03-1.11-1.48-.5-.59-1.02-1.17-1.58-1.71-.33-.32-.77-.39-1.29-.15.22.15.4.25.55.38.6.5,1.21.98,1.77,1.52.31.3.54.7.27,1.3-.37-.31-.69-.56-1.01-.83-.8-.68-1.58-1.37-2.4-2.02-.37-.29-.81-.44-1.37-.14,1.26.66,2.58,1.14,3.05,2.61-.39-.13-.72-.36-1.06-.57-.91-.57-1.82-1.14-2.74-1.69-.28-.17-.57-.22-.91,0q2.44,1.63,2.52,2.43c-.43-.25-.82-.47-1.2-.7-.66-.41-1.31-.84-1.99-1.23-.26-.15-.58-.37-.88.04.83.31,1.71.5,2.41,1.39-.66-.22-1.14-.39-1.62-.53-.6-.18-1.21-.35-1.81-.52-.33-.1-.62-.03-.98.32,1.08.28,2.01.65,2.79,1.48-1.3-.37-2.48-.7-3.66-1.04-.47-.13-.85-.04-1.23.36,1.19.18,2.36.21,3.27,1.32-.72-.11-1.29-.22-1.87-.28-1.01-.1-2.02-.19-3.04-.25-.16-.01-.34.12-.51.18,1.01.19,2.05-.04,3,.7-.53.05-.98.09-1.42.12-1.37.08-2.74-.05-4.08.44-.92.34-1.6-.29-1.56-1.27.02-.36.06-.73.18-1.06,1.19-3.32,2.66-6.48,5.08-9.13.97-1.06,1.89-2.18,2.48-3.51.65-1.45.37-2.36-.76-3.13-.51.02-.86.07-1.21.04-.2-.02-.38-.17-.57-.24Z"/>
      </g>
      <g>
        <path class="cls-2" d="M97.45,125.18c-.57.08-1.13.21-1.68.33-.63.14-1.28.29-1.92.36-1.24.14-2.52.22-3.75.29-.46.03-.91.06-1.37.09v-.04h-1.85c-3.16,0-6,.41-8.67,1.27-3.73,1.2-6.52,2.79-8.76,4.99l-.47.46c-1.39,1.36-2.83,2.77-3.96,4.44-1.63,2.4-2.93,5.22-3.97,8.6-.54,1.75-1.06,3.31-1.93,4.76-.56.94-1.21,2.03-1.82,3.14-.47.86-.95,1.74-1.3,2.67-.95,2.47-1.4,5.1-1.38,7.83.04,3.47.64,6.54,1.84,9.37,1.38,3.28,2.58,6.25,3.35,9.44.43,1.8,1.03,3.29,1.82,4.57.23.37.46.75.68,1.13.43.72.87,1.47,1.36,2.17.27.38.53.77.79,1.15.89,1.32,1.81,2.68,3.02,3.79.93.85,1.92,1.67,2.87,2.47l.9.75c.22.19.46.36.69.53.4.3.78.58,1.1.92,1.42,1.53,3.16,2.73,5.3,3.65,3.11,1.34,6.04,2.14,8.96,2.46.64.07,1.17.16,1.65.27.73.17,1.45.37,2.17.56,1.31.36,2.67.73,4.05.94,2.8.43,5.69.27,8.84-.5,2.26-.55,4.48-1.29,6.55-2,3.95-1.35,7.17-3.19,9.85-5.64,4.16-3.8,7.7-7.39,10.8-10.98,2-2.32,3.58-4.96,4.8-8.07.39-.97.75-1.96,1.11-2.94.24-.65.47-1.3.72-1.94.8-2.12,1.21-4.45,1.24-7.14,0-.12,0-.25,0-.37,0-.71-.02-1.43-.05-2.12-.01-.43-.03-.86-.04-1.29-.05-2.23-.42-4.36-1.11-6.34-.94-2.69-2.01-5.38-3.04-7.89-.64-1.57-1.49-3.13-2.6-4.77-.53-.79-1-1.63-1.46-2.45-.16-.28-.32-.57-.48-.85-.26-.45-.52-.91-.77-1.37-.4-.72-.81-1.44-1.23-2.15-.59-.99-1.42-1.77-2.22-2.53-.22-.21-.44-.42-.66-.63-1.9-1.87-3.72-3.34-5.55-4.49l-.5-.31c-.54-.33-1.09-.67-1.61-1.04-2.04-1.45-4.19-2.64-6.41-3.54-2.12-.86-4.47-1.44-7.37-1.83-2.09-.28-4.32-.49-6.52-.18ZM127.46,176.08c-.07.11-.15.24-.16.42l-.05.62.46-.42c1.32-1.19,2.58-2.38,3.44-3.93,2.47-4.46,3.69-8.7,3.73-12.97.2.49.25.97.18,1.49-1.06,7.37-3.78,13.26-8.32,18-.75.78-1.57,1.5-2.43,2.26-.41.36-.83.73-1.26,1.12l-.84.76,1.08-.34c1.02-.32,2.09-.71,3.05-1.39,1.63-1.16,3.08-2.65,4.42-4.56,2.56-3.64,4.27-7.75,5.08-12.24.04.71.02,1.38-.15,2.04-.77,3-2.08,5.95-3.89,8.77-1.32,2.07-2.97,4.46-5.16,6.47-1.01.93-2.16,1.76-3.29,2.59-.57.41-1.18.79-1.83,1.19-.31.19-.64.39-.98.61l-.88.56,1.03-.1c1.32-.12,2.2-.33,3.01-.7.26-.12.51-.24.75-.38-.37.23-.74.44-1.11.65-.49.27-.96.58-1.47.9-.24.15-.49.31-.75.48l-.75.46h.88c1.78,0,3.11-.7,4.06-1.3,3.04-1.92,5.59-4.4,7.58-7.39-.65,1.77-1.53,3.45-2.62,5-.82,1.16-1.77,2.27-2.69,3.34-.37.43-.74.86-1.11,1.3-.1.12-.29.22-.43.3-5.07,2.76-10.41,4.37-15.87,4.78-1.01.08-2.02.19-3,.29-.44.05-.88.1-1.32.14l-1.38.14,1.34.35c3.2.84,6.66.77,10.59-.2,2.23-.55,4.49-1.34,6.72-2.33-.26.33-.58.57-.95.73-3.64,1.55-7.65,2.57-11.91,3.03-.42.04-.84.1-1.27.16-.38.05-.76.11-1.14.15-.81.09-1.62.17-2.42.25l-2.75.28,1.7.32c1.63.3,3.55.59,5.49.39,2.23-.22,4.01-.5,5.62-.87,1.25-.28,2.44-.68,3.71-1.1.3-.1.6-.2.9-.3-.39.4-.88.67-1.46.84-.4.11-.8.23-1.2.35-1.44.42-2.93.86-4.41,1.1-1.48.24-3.01.35-4.5.44-.64.04-1.28.09-1.92.14l-.19.02c-.46.04-.94.08-1.41.09-.66.01-1.31,0-1.94,0h-2.74s1.94.49,1.94.49c1.23.31,2.48.51,3.74.62-.57-.02-1.13-.04-1.69-.06-.45-.02-.89,0-1.4.04-.24.01-.5.03-.78.04l-.97.04.87.43c3.17,1.58,10.6.76,12.16-.31l.21-.14-.14-.21c-.28-.4-.66-.33-.92-.28-.04,0-.09.02-.13.02-.21.03-.41.06-.62.09,1.54-.26,3.06-.63,4.59-1.12-2.24,1.93-4.96,3.4-8.5,4.62l-.33.11c-2.06.71-4.19,1.44-6.32,2.02-3.63.99-7.58.97-12.07-.05-2.66-.6-5.03-1.18-7.23-1.77-.93-.25-1.85-.59-2.75-.92-.27-.1-.53-.2-.8-.29-1.49-.54-2.57-1.61-3.71-2.75l-.14-.14c-.7-.7-1.43-1.43-2.18-2.11-.52-.47-1.06-.94-1.59-1.4-.81-.7-1.65-1.43-2.43-2.19-.43-.41-.82-.89-1.19-1.35-.39-.48-.79-.97-1.25-1.41-1.75-1.68-2.88-3.85-3.67-7.02-.11-.45-.22-.9-.33-1.35-.39-1.59-.79-3.24-1.3-4.83-.43-1.35-1-2.68-1.54-3.96-.17-.41-.35-.82-.52-1.23-1.54-3.72-2.02-7.56-1.42-11.4.32-2.08.95-3.84,1.91-5.38.23-.36.44-.74.66-1.11.27-.48.56-.97.86-1.43,1.35-2.06,2.16-4.29,3-6.78,1.5-4.43,3.6-7.84,6.43-10.41l.11-.1c1.56-1.43,3.04-2.78,4.91-3.68,2.74-1.32,5.11-2.05,7.44-2.29,1.7-.17,3.43-.3,5.11-.41,1.22-.09,2.44-.17,3.67-.28.96-.08,1.89-.25,2.78-.48,1.88-.5,3.86-.68,5.89-.53,2.42.18,4.76.55,6.96,1.11,2.38.61,4.76,1.67,7.28,3.26l.81.51c1.38.86,2.81,1.76,4.19,2.67,2.54,1.67,4.35,3.59,5.54,5.85.82,1.56,1.79,3.08,2.97,4.65,1.94,2.58,3.53,5.5,4.71,8.68.09.25.15.49.17.72.39,3.76-.02,7.48-1.23,11.06-1.09,3.23-2.6,6.28-4.63,9.33ZM133.74,176.38c-.16.25-.3.49-.44.72-.28.45-.54.88-.82,1.28-1.53,2.18-3.33,4.09-5.38,5.72.91-.79,1.69-1.62,2.35-2.36,2.81-3.17,4.92-6.69,6.28-10.45-.23,1.74-.74,3.43-1.54,5.15l-.13-.56-.32.51Z"/>
        <path class="cls-2" d="M106.87,157.1c-1.73-1.08-3.4-1.77-5.13-2.09-1.4-.26-2.87-.17-4.64.3-.17.04-.33.09-.5.14-.51.14-1.03.29-1.55.34-3.71.34-6.74,1.45-9.2,3.37,0-.02.01-.03.02-.05.12-.35.23-.66.37-.93.92-1.75,1.87-3.5,2.82-5.21.75-1.35,1.77-2.65,3.21-4.1,1.08-1.08,1.76-2.43,2.03-4.01.22-1.28-.14-2.41-1.04-3.27-1.55-1.48-3.34-1.87-5.31-1.15-1.66.6-3.05,1.67-4.12,3.17-1.47,2.05-2.14,4.4-2.65,6.64-.5,2.21-.72,4.61-.65,7.12,0,.13-.02.27-.04.43,0,.01,0,.02,0,.04-.04-.01-.08-.02-.12-.03-.24-.06-.44-.11-.59-.21l-.18-.12c-.68-.48-1.39-.98-1.97-1.56-.64-.65-1.27-1.36-1.87-2.03-.5-.57-1-1.13-1.53-1.68-.76-.8-1.58-1.63-2.51-2.37-1.54-1.22-3.28-1.15-4.77.2l-.16.15c-.12.11-.24.22-.36.32-1.21.97-1.66,2.4-1.34,4.23.36,2.07,1.56,3.82,3.46,5.08,1.5.99,3.19,1.75,4.81,2.48l.09.04c.82.37,1.76.52,2.59.63.6.08,1.21.1,1.79.12.39.02.79.03,1.18.06.62.05.73.16.83.77.03.23,0,.51-.07.77-.23.75-.65,1.48-1.3,2.22-1.18,1.36-2.22,2.27-3.38,2.95-.35.21-.68.46-1,.71-.2.16-.41.32-.62.46l-.34.23c-.83.58-1.69,1.17-2.56,1.71-.4.25-.84.48-1.25.7-.32.17-.63.33-.94.51-1.58.91-2.54,2.09-2.93,3.61-.38,1.45,0,2.47,1.22,3.3.84.57,1.84.83,3.05.79,2.7-.08,5.12-1.08,7.4-3.06,2.64-2.28,4.63-5.21,6.27-9.23.25-.61.47-1.23.69-1.88.05-.13.09-.26.14-.39.46.85.81,1.96.84,2.78.09,2.12.13,4.18.16,5.92,0,.55,0,1.1-.01,1.65-.02.91-.04,1.84.03,2.76.14,1.97.96,3.37,2.43,4.14.71.37,1.4.64,2.07.79,1.67.38,2.93-.33,3.31-1.85.68-2.74.8-5.16.38-7.41-.57-3.05-1.86-6.03-3.94-9.09-.65-.95-1.14-1.83-1.51-2.69.59-.58,1.15-.79,1.85-.69.55.07,1.11.06,1.65.04.18,0,.36-.01.55-.01,2.33-.02,4.86.21,7.73.72,1.8.32,3.44.57,5.16.4,1.83-.18,3.31-1.44,3.7-3.12.08-.35.12-.69.12-1.03,0-1.42-.68-2.72-1.88-3.48ZM106.34,160.48c.06-.05.11-.11.15-.16,0,.04-.02.08-.03.12l-.08.34.6-.05c-.42,1.04-1.25,1.58-2.27,1.49-.84-.07-1.68-.21-2.5-.34-.55-.09-1.11-.18-1.66-.25l-.92-.12c-1.77-.23-3.61-.47-5.42-.63-1.37-.12-2.69.04-3.92.49-.52.19-1.01.46-1.49.72-.15.08-.3.17-.46.25-.18.1-.36.2-.53.31-.18.11-.36.22-.55.32-.69.35-1.12.81-1.29,1.36-.05.17-.08.35-.08.53,0,.4.13.83.38,1.28.23.4.51.77.79,1.14.3.4.61.79.92,1.18.57.72,1.16,1.47,1.69,2.24,1.95,2.83,2.78,5.37,2.62,7.96-.06,1-.15,2.16-.36,3.26-.04.21-.09.38-.15.54l-.49-.15c-.16-.05-.32-.09-.48-.13-.3-.08-.59-.16-.85-.28.39.1.81.12,1.29.02l.68-.14-.62-.32c-.29-.15-.6-.29-.9-.43-.97-.45-1.88-.87-2.52-1.71,0,0,0-.01,0-.03.16.11.31.24.47.38.51.43,1.09.93,2,.7l.52-.13-2.65-1.93c-.22-.16-.32-.29-.32-.45.13.08.26.17.39.26.42.3.9.63,1.59.65l.62.02-.44-.44c-.26-.26-.54-.48-.81-.68-.31-.24-.6-.46-.83-.72l.7.56-.05-.57c-.04-.49-.3-.81-.53-1.1-.09-.11-.18-.22-.25-.34-.07-.11-.16-.22-.25-.33-.12-.15-.21-.26-.27-.39l1,.81.45-.32-.05-.17s-.02-.08-.03-.12c-.03-.12-.06-.26-.15-.38-.19-.24-.39-.47-.6-.71-.09-.11-.18-.21-.27-.32l.49.46-.21-.83c-.12-.5-.41-.89-.69-1.27-.17-.22-.33-.44-.46-.68l.8.68-.12-.69c-.09-.49-.31-.8-.49-1.05-.07-.1-.14-.19-.19-.29-.05-.1-.13-.19-.21-.29-.19-.24-.25-.32-.11-.52.15-.23-.06-.58-.19-.77-.72-.99-1.54-2.11-2.36-3.17-.21-.27-.43-.32-.58-.32-.23,0-.46.13-.63.37-.11.15-.18.33-.26.54-1.35,3.44-2.66,5.91-4.24,8.02-1.41,1.88-2.77,3.22-4.27,4.21-1.34.89-2.95,1.31-4.91,1.3-.17,0-.34-.03-.52-.07l.52-.07v-.62c0-.15,0-.29,0-.44.04.13.11.25.19.37l.07.11.58.04.06-.52c.03-.22.05-.43.07-.65.05-.6.1-1.2.13-1.8.02-.28.11-.46.3-.56-.03.12-.06.25-.09.38-.17.72-.36,1.54.23,2.36l.33.46.18-.85c.05-.23.1-.46.14-.69l.03-.17c.1-.57.2-1.13.27-1.7.04-.33.18-.55.46-.71-.05.15-.11.29-.17.44-.27.66-.55,1.35-.33,2.18l.17.66.29-.62c.06-.13.12-.26.19-.39.15-.3.29-.59.41-.9.21-.53.42-1.11.68-1.87.04-.11.08-.2.12-.29-.04.12-.08.24-.11.36-.07.26-.11.52-.15.78-.02.11-.03.22-.05.33l-.04.21.58.2.1-.17c.05-.09.11-.18.17-.27.13-.21.26-.42.37-.65.08-.18.17-.36.25-.56-.01.15,0,.3,0,.46l.08.74,1.99-3.28.4.29.15-.17c.11-.12.22-.23.33-.35.24-.26.5-.53.72-.82.47-.62.92-1.27,1.36-1.9l.31-.44c.81-1.15,1.31-2.54,1.57-4.38.05-.29-.1-.61-.24-.82-.43-.63-1.1-1.02-1.98-1.17-.99-.17-1.99-.28-2.97-.34-1.36-.07-2.58-.36-3.73-.89l-.4-.18c-.93-.43-1.9-.87-2.79-1.39-.64-.38-1.24-.89-1.81-1.39l-.28-.24c-.2-.17-.37-.43-.47-.7-.55-1.48-.59-2.93-.14-4.32.04-.13.22-.3.41-.38.23-.1.47-.2.71-.29-.2.14-.38.33-.53.59l-.2.36h.42c.38.01.76-.06,1.12-.13.1-.02.2-.04.3-.05-.26.12-.51.3-.74.61l-.37.49.61-.09c.38-.06.72-.11,1.05-.13l2.45,1.51-.76.15,2.9,1.61h-.67l-.21.5.19.11c.16.1.32.2.48.31.36.24.73.48,1.14.65,1.25.54,2.53,1.03,3.79,1.46.49.17,1.08.27,1.74.29,1.02.04,1.68-.51,1.75-1.46.07-.92.46-1.67.88-2.48l.18-.34c.21-.41.44-.92.53-1.57l.11-.78-.27.29c.3-.38.61-.79.83-1.23l.21-.42-.47.06c-.78.1-.91.16-1.91,1.24.05-.12.13-.23.24-.37.6-.67,1.21-1.32,1.96-2.09.19-.2.4-.38.62-.59.11-.1.23-.21.36-.32l.43-.39-.58-.04c-.1,0-.19,0-.28,0,.06-.03.12-.07.18-.1.55-.3,1.12-.62,1.64-1.03l.37-.29-.45-.14c-.41-.13-.78-.16-1.13-.12.16-.09.33-.17.49-.26.18-.09.36-.18.54-.26.32-.15.66-.3.97-.5l.57-.36-.67-.1c-1.27-.18-2.32.25-3.4.88.18-.35.42-.56.76-.67.57-.19,1.16-.35,1.73-.51l.32-.09c.47-.13.95-.26,1.43-.38l1.46-.39-.82-.26c-1.31-.42-2.49-.05-3.63.32.15-.37.31-.43.78-.56,1.14-.31,2.19-.41,3.2-.31.18.02.37.03.56.03l.73.04-.22-.4c-.16-.28-.33-.49-.53-.65.16,0,.33-.01.52-.02.11,0,.22-.01.35-.02,1.01.71,1.18,1.49.61,2.77-.6,1.35-1.57,2.5-2.44,3.45-2.67,2.93-4.14,6.46-5.13,9.21-.11.31-.17.67-.19,1.13-.02.6.18,1.1.57,1.38.36.27.83.31,1.32.13.98-.36,1.96-.38,3.01-.4.33,0,.67-.01,1.01-.03.31-.02.61-.04.95-.08l1.12-.1-.5-.39c-.13-.1-.26-.19-.39-.26.26.02.51.05.76.07.39.04.77.1,1.2.17.21.03.43.07.67.11l.65.1-.42-.51c-.79-.96-1.78-1.17-2.75-1.31.14-.02.28-.01.45.04.79.23,1.59.45,2.42.69l2.1.6-.62-.66c-.71-.76-1.55-1.15-2.39-1.41.11-.03.22-.02.33.01l.48.14c.44.13.89.25,1.33.39.32.1.63.2,1,.33l1.4.46-.38-.48c.25.15.51.3.78.46l.84.49-.05-.49c-.09-.84-.13-.94-2.02-2.21,0,0,.02.01.03.02.92.56,1.83,1.12,2.74,1.69l.13.08c.3.19.61.38.98.51l.47.15-.15-.47c-.09-.29-.22-.54-.37-.77.23.2.46.39.69.59.22.18.44.36.68.56l.58.48.13-.3c.17-.38.19-.73.06-1.05.18.23.36.48.54.73.12.16.24.33.37.5l.41.55.04-.68c.07-1.23.03-1.42-1.23-2.84.46.19.83.59,1.15,1.25.23.47.43.96.65,1.47.09.23.19.46.29.69l.21.49.24-.48c.14-.28.23-.5.27-.71,0,.07.01.15.02.22l.11,1.11.37-.35ZM89.25,182.69c.54.25,1.28.58,2.09.02l.42-.29c-.26.71-.72.89-1.76.79-.07,0-.13-.02-.2-.03l-.15-.02c-.96-.14-1.29-.33-1.53-1.07.38.22.74.43,1.12.6ZM88.32,180.96c-.09-.05-.17-.11-.26-.16-.1-.06-.17-.13-.21-.21.05.04.09.07.14.11.11.09.22.17.33.26ZM68.56,178.78c.06.11.14.21.23.31l.03.03c-.12-.04-.24-.08-.37-.12h0c.04-.07.07-.14.1-.21ZM69.5,176.46c-.02.09-.03.18-.05.28-.01-.17-.02-.33-.01-.5,0-.22.06-.35.15-.42-.01.21-.05.42-.09.64ZM99.1,156.86c-.17-.09-.35-.18-.53-.27.16.03.32.11.48.24.02.01.03.03.05.04ZM102.13,157.64c-.33-.29-.66-.57-.99-.84l-.4-.33s-.07-.06-.11-.08c.19,0,.36.08.51.23.32.31.64.65.99,1.03ZM105.77,158.77c-.07-.22-.17-.49-.31-.83.24.1.26.26.3.7,0,.04,0,.08,0,.13ZM87.89,143.1c.42-.27.91-.33,1.42-.16-.38,0-.84.05-1.42.16ZM69.11,151.25h.03c.13-.06.25-.08.38-.05-.13.01-.27.03-.41.05Z"/>
        <path class="cls-2" d="M129.96,163.67c-.29,1.02-.57,2.02-.88,3.01-.72,2.31-1.77,4.51-2.8,6.55l.22.11h0l-.24-.07c-.12.24-.24.48-.31.75-.06.24.13.5.27.61.17.14.52.08.66-.07.26-.28.51-.55.71-.86,1.33-2.12,2.38-4.44,3.12-6.9.28-.94.42-1.78.42-2.57,0-.67-.1-1.29-.3-1.9l-.25-.77-.22.78c-.13.45-.26.9-.38,1.34Z"/>
        <path class="cls-2" d="M103.38,202.62c-1.95-.17-3.41-.15-4.03.07l-.59.21.57.26c1.57.71,4.77.8,6.1.16l.77-.36-.84-.11c-.43-.06-.85-.1-1.25-.15,1.91.12,3.75-.17,5.4-.55l.19-.04.03-.65-10.78-.23,1.14.5c1.11.49,2.21.76,3.29.89Z"/>
        <path class="cls-2" d="M106.86,132.98l.29-.04-.09-.28c-.45-1.4-4.26-3.51-6.41-3.83l-.88-.13.68.57c.79.66,5.27,3.52,5.95,3.75.13.05.26.01.37-.01.03,0,.06-.02.09-.02Z"/>
        <path class="cls-2" d="M121.82,189.19l-.67.29.71.18c2.04.51,5.67-1.44,7.05-3.8l.55-.93-.9.6c-.35.23-.69.47-1.02.7-.74.51-1.43.99-2.17,1.4-.74.4-1.53.73-2.37,1.07-.38.16-.78.32-1.18.49Z"/>
        <path class="cls-2" d="M129.11,164.25v-.17s-.56-.25-.56-.25l-.45,1.15c-.48,1.24-.97,2.49-1.45,3.73-.07.17-.09.37-.07.55.02.2.15.36.34.43.19.07.41.02.55-.12.12-.11.19-.26.25-.37.88-1.89,1.31-3.42,1.38-4.96Z"/>
        <path class="cls-2" d="M103.43,132.1s-.02-.1-.04-.15c-.03-.16-.07-.33-.22-.44-1.3-.95-2.73-1.62-4.36-2.05l-.97-.26.74.68c1.31,1.21,3.56,2.55,4.61,2.54h.34s-.1-.33-.1-.33Z"/>
        <path class="cls-2" d="M99.98,131.78c-.9-1.13-2.44-1.61-3.74-1.15l-.72.25.68.21c-.46-.1-.94-.07-1.47.08l-.54.16.48.3c.88.54,1.73.73,2.74.6l.57-.07-.44-.37c-.41-.35-.83-.57-1.27-.68l4.21,1.3-.51-.63Z"/>
        <path class="cls-2" d="M108.21,131.84l-.2-.15h0s.21.12.21.12l.09-.16-.12-.13c-.83-.9-2.12-1.59-3.85-2.04l-1.72-.45,5.38,3.17.21-.37Z"/>
        <path class="cls-2" d="M98.54,203.84l-.6.16.54.3c1.09.61,2.15.69,3.24.22l.58-.25-.6-.22c-1.16-.42-2.13-.48-3.17-.22Z"/>
        <path class="cls-2" d="M120.81,191.02l.43.11c1.07.29,1.74,0,2.1-.91l.12-.3-.32-.04c-.91-.11-1.52.36-2.01.83l-.32.31Z"/>
        <path class="cls-2" d="M96.69,204.5c-.19,0-.39.02-.59.02h-.81s.67.46.67.46c1.07.73,1.78.98,2.5.2l.19-.21-.24-.16c-.54-.36-1.11-.33-1.71-.3Z"/>
      </g>
    </g>
    <g>
      <g>
        <path class="cls-7" d="M258.96,19.48c.45-.58.91-1.16,1.43-1.83-.38-.08-.62-.14-.99-.22-.21.76-.39,1.39-.56,2.01.04.01.09.03.13.04Z"/>
        <path class="cls-7" d="M322.04,7.97c-3.59-1.5-7.29-2.75-10.99-3.97-2.21-.73-4.53-.99-6.86-.54-1.74.34-3.45.84-5.19,1.18-2.86.55-5.63,1.4-8.28,2.55-6.65,2.89-13.24,5.92-19.87,8.86-2.57,1.14-4.83,2.72-6.88,4.62-1.98,1.83-3.94,3.69-5.88,5.56-1.54,1.48-2.85,3.14-3.77,5.08-.31.66-.68,1.31-1.11,1.9-1.74,2.42-2.74,5.17-3.56,7.99-.88,3.06-.82,6.15-.27,9.28.61,3.49,1.02,7.02,1.53,10.53.1.71.23,1.43.34,2.14.05,0,.11,0,.16,0,.17-.76.33-1.52.5-2.28.5,2.52.39,5.09,1.29,7.52-.27-2.04-.22-4.04.58-6.15.04.3.06.44.09.59.25,1.59.51,3.18.76,4.78.17-1.08.34-2.17.51-3.25.73,2.11,1.25,4.22,1.79,6.33.25.97.53,1.93.8,2.9.2.71.63,1.15,1.54,1.37-1.69-3.17-2.83-6.29-2.11-9.78,1.23,3.3,1.66,6.84,3.24,10.2.18-.3.29-.44.36-.61.09-.2.15-.42.2-.59-2.05-2.47-2.66-5.22-2.2-8.25,1.02,2.46,1.21,5.2,2.43,7.71,2.53-3.38,3.25-7.38,4.7-11.1-.19-.13-.31-.23-.44-.3-1.43-.75-1.8-2.09-1.74-3.52.08-1.67.63-3.25,1.38-4.75,1.07-2.11,2.41-4.03,3.99-5.79,2.18-2.43,4.54-4.61,7.42-6.19.8-.44,1.55-.97,2.32-1.46-.02-.06-.04-.11-.06-.17-1.25,0-2.5,0-3.76,0,.15-.17.32-.27.5-.29,1.34-.14,2.68-.36,4.02-.37,1.05-.01,1.86-.45,2.68-1-1.96-.05-3.9.45-6.1-.07,1.25-.35,2.26-.77,3.3-.9,1.76-.21,3.53-.25,5.3-.34,1-.05,1.3-.15,2.13-.86-2.69.05-5.29.9-8.02.43,1.84-.72,3.67-1.13,5.57-1.23,1.35-.07,2.7-.14,4.05-.17.61-.01,1.08-.22,1.5-.7-1.57-.05-3.13-.04-4.69.06-1.59.1-3.16,0-4.97-.21,2.03-.72,3.89-1.03,5.79-1.06,1.89-.02,3.78,0,5.67,0,.98,0,1.21-.08,1.93-.8-3.65.12-7.22.23-10.79.35.13-.22.28-.27.42-.31,3.87-.96,7.8-.89,11.73-.57.75.06,1.48.14,2.42-.29-2.68-.31-5.13-.59-7.59-.87,2.66-.84,3.59-.95,6.12-.69,2.6.26,5.21.43,7.79,1.27,0-.45,0-.79-.01-1.16-3.22-.93-6.59-.11-9.75-1.16,3.28-.77,6.52-.53,9.82.41.06-.48.12-.91.19-1.44-2.53.08-4.91.52-7.45-.23,2.57-.87,5.03-.92,7.52-.64.12-.66.24-1.28.36-1.95.95.62.96.62,1,1.39.02.38,0,.77-.02,1.16-.09,2.5.23,4.95,1.28,7.22.86,1.85,1.86,3.64,2.93,5.38,1.27,2.06,2.19,4.25,2.89,6.54.79,2.55,1.08,5.13.39,7.76-.19.71-.32,1.43-.52,2.14-.66,2.22-1.2,4.47-1.38,6.79-.07.96-.18,1.93-.39,2.87-.59,2.61-1.93,4.58-4.68,5.35-.96.27-1.63.07-2.23-.68-1.38-1.72-3.02-3.18-4.75-4.54-1.79-1.41-3.52-2.87-5.28-4.31-.29-.24-.59-.47-.95-.76-.08.34-.14.56-.19.79-.72,3.36-1.4,6.72-2.17,10.07-.73,3.13-1.98,6.09-3.34,8.99-.21.45-.41.96-1.1,1.39.3-.73.51-1.23.7-1.72.21-.54.41-1.08.61-1.63.19-.51.38-1.01.55-1.52.19-.55.38-1.09.54-1.65.13-.47.39-.92.25-1.44-.41.68-.73,1.38-1.06,2.08-.31.66-.63,1.33-.95,1.99-.34.69-.66,1.4-1.03,2.07-.35.64-.19,1.51-.97,2.13-.1-.41-.2-.69-.23-.98-.11-1.19.21-2.3.66-3.37,1.12-2.67,2.3-5.31,3.38-7.99.48-1.18.93-2.39,1.13-3.64.5-3.05.72-6.12.49-9.22-.1-1.34-.18-2.71-.04-4.04.35-3.46.16-6.86-.98-10.16-.58-1.67-1.28-3.29-2.22-4.85l-.86.4c.2,1.2.39,2.31.59,3.52-1.1-.8-1.46-1.99-2.12-3.05l-.93.43c.31,1,.61,1.95.91,2.9-.07.04-.15.08-.22.12-.49-.72-.99-1.44-1.47-2.17-.38-.59-.39-.59-1.11-.03.25.84.5,1.68.75,2.52-.06.03-.13.06-.19.09-.52-.75-1.04-1.49-1.62-2.33-.36.22-.74.45-1.23.75l1.38,2.98c-.08.05-.17.11-.25.16-.72-.83-1.44-1.66-2.22-2.56-.23.17-.49.37-.75.56.5,1.08,1.45,1.86,1.31,3.2-.77-.83-1.54-1.65-2.36-2.53-.22.18-.44.36-.68.55.51,1.04,1.3,1.88,1.43,3.04-1.19-.33-1.73-1.37-2.51-2.23-.34.38-.63.7-.83.92.62.92,1.14,1.69,1.66,2.47-.08.07-.15.13-.23.2-.67-.64-1.35-1.29-2.08-1.99-.18.23-.38.48-.52.67.39.85.74,1.59,1.08,2.33-.06.05-.12.11-.18.16-.59-.46-1.18-.92-1.82-1.42-.21.24-.42.49-.67.78.53.58,1.26.96,1.28,2.12-.69-.58-1.2-1.01-1.8-1.51-1.14,1.23-2.11,2.65-2.91,4.19-.09.17-.02.44.03.65.19.78.46,1.55.58,2.35.3,2.05.09,4.07-.62,6.03-.39,1.08-.77,2.17-1.13,3.27-.62,1.91-1.04,3.9-1.86,5.71-2.03,4.5-4.28,8.9-6.74,13.18-.43.75-.62.86-1.49.66-3.5-.77-6.65-2.32-9.32-4.67-1.9-1.68-3.57-3.62-5.32-5.46-2.31-2.44-4.61-4.87-6.87-7.36-1.4-1.54-2.65-3.21-3.6-5.09-1.2-2.37-1.86-4.89-2.03-7.54-.1-1.54-.31-3.07-.51-4.6-.17-1.26-.45-2.51-.59-3.77-.16-1.43-.05-2.86.56-4.19.39-.85.93-1.53,1.99-1.36.55.81-.04,1.61,0,2.41.15-.24.31-.47.44-.71.41-.75.75-1.05,1.61-1.4-1.28,4.45-1.31,4.62-.77,5.45.58-1.76.67-3.7,2.45-5.01-.46,1.64-.87,3.1-1.3,4.65.67-.29.7-.28.8-.67.33-1.23.98-2.23,2.15-3.1-.29,1.06-.54,1.97-.8,2.93.72-.03.72-.52.83-.91.28-.98.67-1.87,1.79-2.32-.23.91-.44,1.76-.66,2.62,1.09.27,1.5-.67,2.22-1.15.03.34.05.61.08.97,2.44-.24,4.65.2,6.59,1.66.08-1.54.1-2.93.24-4.3.09-.93.26-1.79-.54-2.55-.29-.27-.41-.74-.52-1.15-.06-.21.05-.47.1-.78.85.24.96.94,1.25,1.53q.47-.84.31-1.42c-.21-.78-.44-1.56-.64-2.34-.05-.18-.02-.39-.02-.58.07-.01.13-.03.2-.04.28.68.56,1.36.89,2.17.48-.73.67-1.34.43-2.07-.19-.58-.3-1.19-.45-1.79.08-.02.15-.04.23-.06l.67,1.45c.63-.63.81-1.27.51-2.05-.12-.32-.39-.67-.03-1.09.23.38.43.71.66,1.09q.27-.61.1-1.25c-.21-.81-.06-.97.78-.89.77-1.3,1.48-2.64,2.32-3.88,1.24-1.82,2.74-3.44,4.43-4.86.81-.68,1.24-1.51,1.45-2.76-.42.63-.68,1.08-1,1.49-.3.38-.38.98-1.08,1.19.4-2.07,1.43-3.71,2.62-5.28-3.96-1.6-7.97-2.1-12.04-1.67-2.79.29-5.55.93-8.32,1.41-4.44.78-8.89,1.53-13.33,2.35-2.57.47-4.95,1.53-7.21,2.77-3.67,2.02-6.86,4.66-9.71,7.77-2.11,2.31-3.42,4.85-4.06,7.89-.55,2.66-.76,5.34-1.06,8.02-.63,5.62.48,10.97,2.3,16.24.91,2.64,2.1,5.14,3.51,7.54,1.19,2.03,2.33,4.1,3.69,6.01,2.41,3.39,5,6.66,7.46,10.02,1.48,2.02,2.85,4.12,4.29,6.17,1.85,2.61,3.5,5.35,5.75,7.67,2.37,2.45,4.84,4.76,7.67,6.66.38.26.79.48,1.18.73-5.74-8.05-6.03-8.55-7.37-12.91.81,1.1,1.63,2.08,2.31,3.15,2.05,3.27,4.04,6.57,6.05,9.86.57.94,2.25,1.93,3.43,2.03-1.51-1.95-3.09-3.89-4.55-5.91-1.49-2.06-2.64-4.31-3.43-6.98.82,1.08,1.56,1.96,2.19,2.9,2.34,3.5,4.8,6.9,7.49,10.14.32.38.62.87,1.04,1.04.97.4,2,.64,3.01.94.04-.08.09-.15.13-.23-2.2-1.77-4.1-3.82-5.87-6-2.05-2.53-3.59-5.22-4.19-7.24,1.53,1.84,3.04,3.59,4.48,5.4,2.24,2.81,4.7,5.41,7.33,7.86,1.36,1.26,2.92,1.31,4.58,1.38-5.07-3.29-9.56-7.14-12.8-12.62,1.59,1.48,3.03,2.75,4.39,4.1,3.13,3.11,6.43,6,10.17,8.36.58.36,1.15.57,1.83.59,1.93.05,3.85.13,5.78.19,4,.13,7.97.94,12,.5.23-.02.46.01.69.02,5.11.04,10.17-.49,15.19-1.39,2.74-.49,5.34-1.49,7.94-2.46,3.96-1.49,7.66-3.45,11.18-5.78.33-.22.61-.49,1.03-.82-2.16.55-4.11,1.2-6.12,1.53-2.01.33-4.07.49-6.1.45-2.07-.05-4.14-.39-6.2-.7-2.03-.31-4.7-1.28-5.55-1.85,3.31.28,6.72.68,10.14.84,5.59.27,11.01-.46,16-3.24,1.52-.84,2.81-1.85,3.64-3.42.98-1.84,2.04-3.63,3.07-5.44.09-.16.26-.29.39-.43-.09-.03-.19-.07-.28-.1-5.58,3.2-9.91,3.81-12.66,3.26,1.57-.52,3.16-1.1,4.78-1.59,2.84-.86,5.69-1.67,8.36-3.03,1.04-.53,1.62-1.33,2.11-2.32-4.03,2.63-8.16,4.92-13.44,4.27.51-.13.82-.17,1.1-.29,3.05-1.21,6.22-2.12,9.01-3.9,2.01-1.28,3.97-2.66,5.93-4.02.3-.21.54-.55.74-.87,1.28-2.02,2.56-4.04,3.82-6.07.83-1.35,1.62-2.71,2.41-4.08.22-.39.38-.82.57-1.23-3.96,3.16-7.91,6.18-12.93,7.26.91-.65,1.84-1.32,2.77-1.97.76-.53,1.5-1.09,2.29-1.56,2.99-1.78,5.85-3.74,8.41-6.11.72-.66,1.38-2.22,1.37-3.4-1.72,2.39-3.79,4.33-6.05,6.09-2.1,1.63-4.39,2.81-6.86,3.22,1.24-.94,2.56-2.01,3.95-2.98,3.39-2.38,6.49-5.06,9.07-8.35,1.02-1.3,1.52-2.65,1.52-4.23,0-2.12-.03-4.24-.05-6.36-.03-2.89-.12-5.78-.07-8.67.03-2.04.26-4.08.37-6.12.1-1.83-.19-3.63-.7-5.37-.47-1.59-1.07-3.14-1.72-4.67-1.52-3.58-3.04-7.17-4.69-10.7-1.99-4.25-5.35-7.16-9.61-8.93Z"/>
        <path class="cls-7" d="M262.04,18.01c-.49-.1-.73-.15-1.07-.22-.12.5-.23.97-.37,1.55.47-.44.89-.82,1.43-1.33Z"/>
        <path class="cls-7" d="M230.67,45.49c0-.26,0-.51.01-.77-.09.24-.18.47-.27.71.08.02.17.04.25.06Z"/>
        <path class="cls-7" d="M255.8,71.86c-.4-1.4-.78-2.72-1.15-4.04-.1,1.93.31,3.46,1.15,4.04Z"/>
      </g>
      <g>
        <path class="cls-5" d="M336.86,21.83l-.07.03-1.1-2.41c-.7-1.55-1.41-3.1-2.11-4.65-1.96-4.31-5.32-7.45-10.27-9.62-.73-.32-1.5-.57-2.25-.81-.5-.16-.99-.32-1.48-.5-.91-.34-1.83-.69-2.74-1.04-1.51-.59-3.08-1.19-4.64-1.72-3.17-1.08-5.97-1.37-8.56-.87-2.83.54-5.89,1.25-9.36,2.17-3.4.9-6.66,2.33-9.81,3.72-.59.26-1.17.52-1.76.77-2.76,1.2-5.46,2.54-8.22,3.73-.57.25-1.15.49-1.73.73-2.73,1.15-5.55,2.33-8.03,4.14-.12.09-.43.12-.62.06-1.58-.5-3.26-1.04-4.93-1.64-4.25-1.54-8.82-1.89-14.4-1.12-4.73.65-9.62,1.38-14.53,2.14l-.97.15c-2.06.31-4.19.64-6.21,1.22-3.74,1.08-7.34,2.95-10.7,5.56-3.07,2.38-5.65,5.28-7.77,7.81-.17.2-.36.45-.48.73-.14.33-.29.66-.44.99-.68,1.52-1.38,3.09-1.67,4.81-.26,1.57-.55,3.13-.84,4.7-.33,1.82-.68,3.7-.98,5.55-.22,1.32-.33,2.73-.36,4.29-.09,5.2,1.21,10.41,4.22,16.92,2.57,5.57,6.11,10.5,10.14,15.92,1.77,2.38,3.48,4.88,5.14,7.29.69,1.01,1.39,2.02,2.09,3.03.44.63.87,1.28,1.3,1.93.88,1.33,1.8,2.7,2.82,3.96,2.28,2.8,4.77,5.28,7.4,7.37,3.02,2.41,5.99,4.19,9.05,5.45,5.6,2.29,11.29,3.6,16.92,3.89,2.65.13,5.34.39,7.95.64,1.27.12,2.53.24,3.8.35,1.71.15,3.42,0,5.24-.43.38-.09.69-.13.96-.12,3.33.11,6.82-.06,10.66-.5l.57-.07c2.58-.29,5.25-.6,7.79-1.24,3.28-.82,6.52-1.97,9.67-3.43,2.04-.94,4.04-2.02,6-3.22,5.1-3.13,8.85-6.99,11.47-11.82l.39-.72c.73-1.36,1.49-2.78,2.39-4.04,3.59-5.06,6.95-10.51,10.27-16.66,2.35-4.35,3.74-8.6,4.24-12.99.11-1,.15-2.02.18-3,.02-.54.04-1.09.07-1.63.08-1.37.16-2.75.24-4.12.1-1.63.19-3.26.29-4.89.03-.62.05-1.23.07-1.85.02-.54.04-1.08.06-1.62.04-.85.09-1.7.15-2.54.1-1.67.2-3.39.23-5.09.04-2.42-.36-4.74-1.19-6.89-.77-2.02-1.6-4.05-2.41-6.02-.35-.86-.7-1.71-1.05-2.57l-.15-.21ZM261.04,18.6l.12-.51.35.07-.47.44ZM324.99,73.25c-.4.31-.79.61-1.17.9l-.81.61,1-.17c2.33-.39,4.68-1.49,6.98-3.27,2.3-1.79,4.09-3.52,5.55-5.4-.2.9-.67,1.85-1.19,2.33-2.26,2.08-4.91,4.01-8.37,6.07-.61.37-1.2.79-1.77,1.19l-.54.38c-.65.46-1.29.92-1.93,1.37l-1.82,1.3,1.18-.25c4.59-.99,8.31-3.58,12.24-6.68-.05.1-.1.19-.15.28-.4.69-.8,1.35-1.2,2.03-.01-.16-.07-.34-.2-.54l-.12-.18-.19.09c-.08.04-.16.07-.23.1-.2.08-.4.16-.57.29-1.94,1.47-4.1,2.83-6.59,4.14-1.23.65-2.45,1.38-3.62,2.08-.53.32-1.06.64-1.6.95l-1.23.72,1.4-.26c1.96-.36,3.85-.96,5.64-1.79,1.63-.76,3.17-1.7,4.58-2.8.76-.6,1.48-1.2,2.14-1.8-.21.35-.41.7-.62,1.05-1.3,2.11-2.65,4.24-3.82,6.07-.19.29-.41.62-.67.8l-.63.44c-1.72,1.2-3.5,2.43-5.29,3.57-2.06,1.31-4.38,2.16-6.63,2.99-.78.29-1.57.58-2.35.88-.16.07-.34.11-.59.16-.14.03-.29.07-.47.11l-1.29.33,1.32.16c5.04.61,9.07-1.42,12.74-3.75-.42.6-.89,1.02-1.49,1.33-2.45,1.25-5.11,2.05-7.69,2.83l-.63.19c-1.12.34-2.24.72-3.32,1.09-.49.17-.98.34-1.47.5l-.89.3.92.18c1.91.38,6.01.48,12.33-3.01l-.71,1.24c-.27.47-.55.96-.83,1.44.12-.2.18-.44.14-.75l-.04-.29-13.79,3.81,1.1.19c.63.11,1.25.15,1.85.2.2.01.4.03.6.04.42.03.83.04,1.24.03-.86.21-1.72.5-2.57.96l-.62.33.69.13c.25.05.46.09.66.13.39.08.71.15,1.04.19,1.86.25,3.55-.24,5.4-.86.06-.02.12-.04.19-.07.2-.09.4-.23.49-.45.05-.12.09-.32-.01-.56-.13-.3-.65-.56-.99-.5-.17.03-.33.05-.5.07.81-.25,1.58-.56,2.3-.89s1.42-.71,2.04-1.06c.2-.12.54-.31.75-.64-.5.87-1,1.76-1.47,2.64-.7,1.32-1.8,2.35-3.54,3.32-4.42,2.46-9.61,3.51-15.87,3.21-2.37-.11-4.76-.34-7.07-.56-1.03-.1-2.05-.19-3.07-.28l-.96-.08.79.54c.9.61,3.62,1.59,5.65,1.89l.54.08c1.86.28,3.79.58,5.7.62,1.98.05,4.04-.11,6.14-.45,1.39-.23,2.75-.61,4.18-1,.27-.08.54-.15.82-.23-.03.02-.06.04-.1.07-3.7,2.45-7.34,4.33-11.13,5.76l-.32.12c-2.44.92-4.97,1.87-7.58,2.33-2.02.36-3.97.65-5.86.87.11,0,.23-.02.33-.05.02,0,.04-.02.07-.02.14-.07.24-.19.36-.33.06-.07.12-.15.2-.23l.29-.31-.88-.21c-.26-.06-.48-.12-.69-.16-.49-.1-.97-.19-1.46-.28-.94-.18-1.91-.36-2.85-.58-3.43-.81-6.99-2.22-10.89-4.3-.77-.41-1.58-.76-2.36-1.1-.36-.16-.72-.32-1.08-.48l-.2-.09-.31.5.14.14c.17.17.33.35.5.52.38.4.77.81,1.17,1.2.32.31.7.56,1.06.79,4.84,3.07,10.24,4.76,16.06,5.01h.06c.12,0,.25.01.38,0-3.18.36-6.22.53-9.17.5-.08,0-.16,0-.24-.01-.16-.01-.32-.02-.48,0-2.57.28-5.17.04-7.69-.2-1.4-.13-2.85-.26-4.28-.31-.74-.02-1.47-.05-2.21-.08-1.19-.04-2.38-.09-3.57-.11-.6-.01-1.12-.18-1.71-.55-3.27-2.06-6.49-4.7-10.13-8.32-.93-.92-1.89-1.81-2.91-2.74-.48-.44-.97-.89-1.48-1.36l-1.26-1.18.88,1.49c2.76,4.67,6.52,8.46,12.12,12.2-1.27-.08-2.47-.29-3.51-1.26-2.79-2.6-5.18-5.16-7.3-7.83-1-1.26-2.01-2.46-3.08-3.73-.46-.55-.93-1.11-1.4-1.67l-.78-.94.35,1.17c.62,2.07,2.2,4.81,4.23,7.33,1.89,2.33,3.64,4.15,5.47,5.68-.12-.03-.23-.06-.35-.1-.7-.2-1.43-.4-2.1-.68-.27-.11-.52-.43-.75-.73-.07-.08-.13-.17-.19-.24-2.48-2.99-4.92-6.3-7.47-10.12-.43-.64-.91-1.26-1.42-1.91-.25-.32-.51-.65-.77-1l-.83-1.09.39,1.32c.77,2.59,1.91,4.9,3.47,7.06,1.02,1.41,2.11,2.79,3.16,4.13.33.42.66.84.99,1.26-1.01-.31-2.17-1.07-2.61-1.79l-1.44-2.36c-1.5-2.46-3.06-5.01-4.62-7.5-.46-.74-.99-1.42-1.54-2.14-.25-.33-.51-.67-.77-1.02l-.87-1.18.43,1.4c1.29,4.2,1.6,4.83,6.7,11.99-.05-.03-.09-.06-.13-.09-3.09-2.06-5.7-4.62-7.63-6.62-1.69-1.75-3.07-3.77-4.4-5.73-.44-.64-.87-1.28-1.32-1.91-.59-.84-1.17-1.68-1.75-2.53-.82-1.2-1.67-2.45-2.55-3.64-1.03-1.41-2.08-2.79-3.14-4.18-1.44-1.9-2.92-3.86-4.32-5.83-1.08-1.52-2.04-3.18-2.97-4.78-.24-.41-.47-.81-.71-1.22-1.45-2.46-2.62-4.99-3.49-7.5-2.11-6.1-2.84-11.23-2.29-16.13.06-.55.12-1.11.18-1.66.22-2.08.44-4.24.88-6.34.62-2.97,1.93-5.52,4-7.78,2.99-3.27,6.15-5.79,9.64-7.72,2.66-1.47,4.93-2.34,7.14-2.74,3.21-.59,6.47-1.16,9.63-1.71l3.69-.64c.84-.15,1.68-.31,2.52-.47,1.89-.36,3.84-.74,5.78-.94,3.6-.38,6.99-.03,10.32,1.07l-.22.27c-1.95,2.38-2.32,2.95-2.12,4.2l.07.43.34-.28c1.4-1.16,2.07-2.45,2.16-4.18l.02-.36c.36.12.71.24,1.07.38-1.02,1.36-2.06,3.03-2.47,5.12l-.08.4.38-.11c-1.56,1.36-2.93,2.89-4.07,4.56-.59.86-1.12,1.79-1.63,2.68-.21.36-.41.72-.62,1.08-.38-.03-.66,0-.84.21-.2.23-.16.57-.04,1,.09.32.12.46.09.62l-.58-.95-.22.26c-.41.47-.21.91-.08,1.2.02.05.05.1.06.15.22.56.16,1.02-.21,1.51l-.51-1.1-.15-.18-.61.17.06.24c.04.18.09.37.13.55.09.41.19.84.33,1.26.16.47.12.89-.15,1.43l-.77-1.89-.61.12v.21c0,.06,0,.11,0,.17,0,.14,0,.3.03.46.15.6.32,1.2.49,1.79l.15.55c.1.36.12.45-.04.78-.2-.48-.46-.99-1.2-1.2l-.27-.08-.04.28c-.01.1-.04.19-.06.27-.05.21-.09.41-.04.62l.02.07c.12.41.25.88.57,1.18.65.61.57,1.31.48,2.12l-.02.22c-.1.96-.14,1.93-.18,2.95-.01.3-.03.6-.04.91-1.74-1.17-3.75-1.65-6.14-1.46l-.1-1.13-.35.23c-.23.15-.43.34-.62.53-.37.36-.68.66-1.16.63l.72-2.83-.46.18c-1.27.5-1.67,1.55-1.93,2.48-.02.06-.03.12-.04.18-.05.2-.08.35-.19.44l.87-3.2-.58.43c-1.16.87-1.88,1.89-2.24,3.23-.04.15-.06.21-.17.28l1.36-4.82-.59.43c-1.45,1.07-1.83,2.53-2.21,3.94-.05.19-.1.39-.15.58-.11-.53.13-1.45,1.07-4.7l.14-.5-.48.2c-.75.31-1.15.6-1.52,1.15.07-.43.08-.89-.24-1.35l-.06-.09-.11-.02c-1.31-.21-1.92.76-2.26,1.51-.58,1.26-.77,2.68-.59,4.33.08.7.2,1.4.32,2.08.1.56.2,1.13.27,1.69v.09c.21,1.47.41,2.99.51,4.49.18,2.71.87,5.28,2.06,7.64.87,1.72,2.06,3.4,3.64,5.14,2.26,2.48,4.6,4.96,6.87,7.36.45.47.89.96,1.34,1.44,1.27,1.37,2.58,2.79,4,4.04,2.66,2.35,5.83,3.94,9.43,4.73.96.21,1.27.07,1.77-.78,2.47-4.31,4.75-8.75,6.76-13.21.55-1.22.93-2.54,1.29-3.82.18-.64.37-1.29.57-1.92.39-1.2.81-2.37,1.13-3.26.72-2,.93-4.07.63-6.16-.08-.52-.22-1.03-.36-1.53-.08-.28-.16-.56-.23-.86-.03-.13-.09-.38-.05-.46.79-1.5,1.7-2.83,2.71-3.96l2.03,1.71v-.55c-.02-1.02-.55-1.52-1.01-1.95-.06-.06-.13-.12-.19-.18l.37-.43,1.8,1.4.48-.42-1.09-2.36.26-.33,2.05,1.95.56-.49-1.67-2.49.51-.57c.12.14.23.28.34.42.55.69,1.13,1.41,2.11,1.68l.35.1-.04-.37c-.09-.84-.51-1.52-.91-2.18-.15-.25-.31-.5-.45-.77l.34-.28,2.58,2.76.06-.54c.11-1.02-.35-1.73-.8-2.42-.15-.23-.31-.48-.44-.73l.4-.3,2.21,2.54.62-.39-1.38-2.98.84-.51,1.6,2.31.58-.26-.77-2.57c.17-.14.33-.25.36-.27.04.03.15.19.25.34.33.51.67,1.01,1.02,1.51l.58.85.6-.32-.91-2.89.53-.24c.13.23.25.46.38.69.42.8.85,1.62,1.69,2.24l.5.36-.66-3.94.49-.23c.81,1.38,1.49,2.89,2.08,4.61,1.03,3,1.35,6.29.97,10.06-.14,1.4-.05,2.84.04,4.09.21,2.86.05,5.86-.49,9.16-.21,1.27-.69,2.52-1.12,3.58-.69,1.7-1.42,3.42-2.14,5.08-.42.97-.83,1.94-1.24,2.91-.38.91-.81,2.13-.68,3.5.02.21.08.41.14.64.03.11.06.24.1.37l.09.38.31-.25c.56-.45.69-1.02.81-1.51.06-.25.11-.49.22-.69.28-.53.55-1.07.8-1.6l.23-.48c.32-.66.64-1.32.95-1.99l.07-.16c.06-.14.13-.28.2-.42-.13.42-.27.84-.42,1.25l-.05.14c-.15.43-.3.85-.46,1.27l-.18.48c-.17.46-.34.93-.52,1.39-.13.34-.27.67-.43,1.07l-.56,1.36.65-.41c.7-.44.94-.94,1.14-1.39l.05-.1c1.23-2.63,2.6-5.75,3.36-9.04.54-2.31,1.03-4.67,1.51-6.96.22-1.04.44-2.08.66-3.11.03-.13.06-.25.09-.4l.05.04c.21.17.41.32.6.48.56.46,1.11.92,1.67,1.37,1.18.97,2.4,1.98,3.62,2.94,2.07,1.63,3.52,3.02,4.71,4.5.66.83,1.43,1.07,2.5.77,2.59-.74,4.18-2.55,4.86-5.54.23-1.03.34-2.09.4-2.9.16-1.99.58-4.06,1.37-6.74.13-.42.22-.85.32-1.27.07-.29.13-.58.21-.87.63-2.41.5-4.99-.39-7.89-.77-2.5-1.73-4.66-2.92-6.6-1.18-1.92-2.13-3.67-2.91-5.35-.94-2.03-1.35-4.35-1.26-7.1v-.24c.02-.31.04-.62.02-.94-.05-.87-.13-.94-1.12-1.59l-.31-.21-.38,2.09c-.52-.05-1.01-.09-1.49-.11.03,0,.06,0,.08,0,.07,0,.14-.03.2-.06.14-.06.25-.17.36-.26.06-.05.11-.1.17-.14l.23-.16-.18-.21c-.05-.06-.1-.12-.15-.19-.12-.15-.24-.3-.39-.43.21-.04.42-.08.62-.15.21-.07.36-.24.48-.4.05-.06.09-.11.14-.16l.2-.2-.22-.17c-.06-.04-.11-.09-.16-.15-.14-.14-.31-.29-.52-.35-1.04-.28-3.05.2-3.99.96l-.42.33,1.2.24-3.48.85.87.26c.87.26,1.57.41,2.22.46-1.1.12-2.14.35-3.17.7l-.75.25.75.22c.49.14.96.25,1.43.31-1.36,0-2.69.16-3.99.47l-.86.2.83.28c1.67.56,3.41.6,5.1.65,1.48.04,3.01.08,4.48.47v.63c-2.19-.67-4.42-.88-6.57-1.09l-.93-.09c-2.54-.25-3.53-.14-6.22.7l-1.12.35,7.37.85c-.3.01-.59-.01-.89-.04h-.1c-3.54-.29-7.72-.45-11.81.57-.2.05-.4.13-.58.42l-.24.39,10.57-.34c-.34.25-.6.28-1.26.28h-1.61c-1.35-.01-2.71-.02-4.06,0-2,.03-3.87.37-5.87,1.07l-1.02.36,1.07.13c1.99.23,3.54.3,5.02.21,1.28-.08,2.6-.1,4.01-.08-.24.14-.52.21-.84.21-1.37.02-2.76.1-4.05.17-1.91.1-3.75.51-5.65,1.25l-.84.33.89.15c.68.12,1.36.15,2.03.14-.48.04-.95.08-1.43.14-.73.09-1.44.32-2.2.56-.36.11-.74.23-1.14.35l-.93.26.94.22c1.48.35,2.83.25,4.14.16.38-.03.74-.05,1.1-.07-.57.3-1.12.48-1.77.48-1,.01-2.01.14-2.99.25-.35.04-.7.09-1.06.12-.23.02-.45.15-.65.37l-.38.42h3.8c-.09.07-.18.13-.27.19-.51.34-1.04.68-1.58.98-.01,0-.03.02-.04.02l-.7-.14c-1.03-.21-2.06-.1-3.46.36l-1.05.35,1.1.14c1.38.17,2.45.06,3.46-.37l.29-.12c-2.41,1.39-4.67,3.31-7.09,6.02-1.66,1.86-2.98,3.77-4.03,5.85-.88,1.75-1.34,3.33-1.41,4.85-.08,1.8.55,3.06,1.87,3.75.08.04.15.09.24.15h.02c-.39,1.03-.73,2.08-1.06,3.1-.82,2.52-1.67,5.13-3.28,7.43-.54-1.24-.87-2.54-1.18-3.81-.29-1.17-.59-2.38-1.06-3.51l-.34-.82-.13.88c-.12.81-.17,1.59-.14,2.34-.29-1.05-.59-2.12-.98-3.14l-.3-.81-.17.85c-.34,1.65-.27,3.21.05,4.69-.47-1.82-.95-3.69-1.59-5.54l-.33-.95-.42,2.68c-.17-1.07-.34-2.14-.51-3.21l-.23-1.54-.34.9c-.44,1.18-.69,2.36-.73,3.65-.11-.69-.19-1.4-.26-2.12-.1-.94-.21-1.9-.39-2.86l-.23-1.18-.57,2.61c-.07-.42-.14-.84-.2-1.27-.16-1.11-.31-2.22-.46-3.32-.32-2.37-.65-4.82-1.07-7.21-.61-3.51-.53-6.43.27-9.17.72-2.49,1.7-5.38,3.52-7.92.41-.57.79-1.22,1.13-1.94.84-1.77,2.06-3.41,3.72-5.01,1.93-1.86,3.91-3.73,5.88-5.56,2.16-2,4.38-3.49,6.82-4.58,2.57-1.14,5.14-2.3,7.71-3.45,3.98-1.79,8.09-3.64,12.16-5.41,2.61-1.14,5.38-1.99,8.23-2.53.88-.17,1.77-.39,2.62-.59.84-.2,1.7-.42,2.56-.58,2.14-.41,4.41-.23,6.73.54,3.56,1.17,7.33,2.45,10.97,3.96,4.42,1.84,7.61,4.8,9.48,8.81,1.55,3.31,3,6.72,4.4,10.03l.28.66c.75,1.77,1.3,3.25,1.71,4.64.55,1.88.78,3.6.69,5.28-.04.78-.1,1.56-.16,2.34-.09,1.24-.19,2.52-.21,3.79-.03,1.99,0,4.01.03,5.96.01.9.03,1.81.04,2.71l.02,1.56c.02,1.6.03,3.2.03,4.8,0,1.51-.47,2.81-1.46,4.08-2.32,2.95-5.27,5.67-9.02,8.3-.96.68-1.89,1.39-2.78,2.09ZM246.63,51.69c.21,1.36.39,2.76.57,4.1l.2,1.5c.09.65.17,1.31.25,1.96.18,1.43.36,2.91.6,4.35.87,5.23,3.63,9.51,8.21,12.73.57.4,1.19.69,1.85.99.23.11.47.22.71.34l-2.75,6.17c-.06-.03-.12-.06-.18-.09-.3-.16-.61-.31-.92-.45-3.34-1.46-5.98-3.33-8.06-5.71-2.8-3.2-5.79-6.23-8.85-9.31-1.22-1.22-2.39-2.66-3.68-4.53-1.09-1.57-1.83-3.48-2.19-5.69-.31-1.92-.6-3.84-.88-5.76l-.28-1.9s0-.01,0-.02c.7-.15,1.39-.3,2.08-.45,1.63-.36,3.17-.69,4.74-1,3.04-.6,5.79.05,8.17,1.93.19.15.37.5.42.82ZM292.87,58.41c-.01-.34-.03-.71-.04-1.09-.05-.98-.1-2.09-.04-3.18.24-4.73-.24-8.6-1.5-12.17-.25-.7-.53-1.4-.8-2.07-.14-.35-.28-.7-.42-1.06-.09-.22-.17-.45-.24-.66l-.04-.12c4.16-2.51,8.67-3.4,13.79-2.72.3.04.45.15.6.42.47.92.96,1.83,1.45,2.74.95,1.77,1.92,3.61,2.79,5.45,1.13,2.4,1.82,4.61,2.11,6.74.12.88.1,1.84-.07,2.79-.26,1.53-.59,2.83-.99,3.99-.72,2.05-.98,4.16-1.14,5.95l-.04.46c-.06.75-.13,1.53-.24,2.28-.25,1.7-1.02,2.9-2.35,3.69-.18-.21-.36-.42-.53-.63-.5-.59-.96-1.15-1.48-1.67-.78-.79-1.82-1.82-2.97-2.77-1.16-.96-2.37-1.91-3.54-2.83-.75-.59-1.5-1.18-2.25-1.78-.43-.34-.84-.71-1.32-1.14-.22-.2-.46-.41-.72-.64ZM260.67,74.24c-.04.13-.08.27-.14.41-.03.06-.06.12-.1.18-.32-.72-.59-1.46-.83-2.19.3.54.66,1.07,1.08,1.58v.02ZM258.75,74.5c-.42-.21-.66-.52-.79-.99l-.25-.87c-.17-.62-.35-1.23-.51-1.85.38,1.3.94,2.53,1.54,3.72ZM302.27,28.71c.48-.03.97-.06,1.46-.08l-.11.86c-1.18-.32-2.32-.54-3.44-.67.69-.01,1.39-.06,2.1-.1ZM283.84,37.05c.72-.1,1.46-.19,2.21-.25-.4.25-.72.29-1.36.33-.41.02-.82.04-1.23.06-.4.02-.81.04-1.22.06.54-.05,1.07-.12,1.6-.19ZM259.33,18.6l.25-.88.38.08-.62.8Z"/>
        <path class="cls-5" d="M295.08,110c-.61-.07-1.22-.13-1.83-.19-1.36-.13-2.76-.27-4.12-.5-4.24-.69-8.56-2.14-14.02-4.69-.59-.28-1.2-.52-1.85-.77-.31-.12-.63-.25-.97-.39l-.84-.34.55.73c1.02,1.35,1.69,1.96,2.99,2.7,4.93,2.81,10.36,4.4,16.15,4.73,1.1.06,2.21-.02,3.29-.09.37-.03.74-.05,1.11-.07.12,0,.23-.04.33-.09.08-.04.15-.08.22-.12.06-.03.12-.07.18-.1l.17-.08-.08-.62-.54-.05c-.25-.02-.49-.04-.74-.07Z"/>
        <path class="cls-5" d="M282.3,102.02c-.37-.1-.75-.19-1.12-.3l-1.1-.3.88.74c1.42,1.19,3.03,2.08,4.92,2.72,3.25,1.09,6,1.78,8.66,2.15,3.44.49,6.27.54,8.93.16.49-.07.98-.2,1.45-.33.21-.06.43-.11.64-.17l.28-.07-.26-.66h-.18c-.26.03-.53.05-.79.08-.55.05-1.13.11-1.68.08h-.25c-1.92-.1-3.9-.18-5.83-.41-4.28-.51-8.31-1.73-12.04-2.99-.82-.28-1.67-.5-2.5-.71Z"/>
        <path class="cls-5" d="M299.82,108.12c-4.24.16-8.41-.33-12.4-1.46-2.28-.65-4.58-1.36-6.81-2.05-1-.31-2-.62-3-.93l-.78-.24.51.63c.28.35.62.64,1.07.93l.38.25c.46.3.93.61,1.44.84,6.46,2.94,12.62,3.93,18.83,3.04.31-.04.61-.13.9-.2.13-.04.26-.07.4-.1l.22-.05-.09-.57-.31-.05c-.11-.02-.23-.04-.35-.04Z"/>
        <path class="cls-5" d="M337.56,60.17c.23-.37.61-.99-.05-1.47-.68-.49-1.11.09-1.35.4-.05.07-.11.14-.16.2-.59.65-1.17,1.31-1.76,1.97-.93,1.05-1.9,2.14-2.87,3.19-.98,1.06-2,2.11-2.98,3.12-.44.45-.88.91-1.32,1.36l-.15.15.43.58.19-.11c.46-.27.93-.53,1.4-.78,1.05-.57,2.13-1.15,3.06-1.91,2.14-1.73,3.97-3.93,5.43-6.52.03-.06.07-.12.1-.17Z"/>
        <path class="cls-5" d="M260.93,92.45c-.65.19-1.33.42-2.09.73-.96.38-1.49,1.17-1.36,2.02.15.97.95,1.6,2.01,1.56.65-.03,1.29-.15,1.91-.27.27-.05.55-.11.82-.15h.04s.04-.03.04-.03c1.37-.76,1.97-1.81,1.6-2.8-.38-1.02-1.6-1.46-2.98-1.06Z"/>
        <path class="cls-5" d="M247.68,101.7l-1.82-1.26,1.49,1.64c.14.15.27.29.39.42.23.25.44.47.62.7,2.42,3.05,5.56,5.52,9.89,7.79.67.35,1.39.65,2.02.91.21.09.5.21.78.09,0,0,.01,0,.02,0,.18-.08.32-.25.42-.51l.07-.19-.17-.11c-.11-.07-13.58-9.36-13.73-9.46Z"/>
        <path class="cls-5" d="M237.65,81.44c-.13-.1-.27-.19-.41-.29-.31-.21-.62-.43-.9-.69-1.31-1.23-2.92-1.26-4.17-1.15-.93.08-1.57.6-1.73,1.4-.17.87.29,1.63,1.19,2,1.42.57,2.69.59,3.88.04.47-.21.95-.41,1.43-.61l1.05-.44-.35-.26Z"/>
        <path class="cls-5" d="M223.8,64.91l-.32-1.61-.33.57c-.15.25-.29.5-.43.75-.32.56-.65,1.14-1,1.69-.63,1.01-.98,2.15-1.05,3.5-.05.96.5,1.71,1.37,1.88.36.07.7.02,1-.12.44-.2.78-.6.96-1.15.37-1.15.45-2.26.26-3.31-.14-.75-.29-1.49-.44-2.22Z"/>
        <path class="cls-5" d="M233.37,32.13c.07-.03.13-.07.2-.11.86-.55,2.06-1.47,2.44-3.04l.55-2.25-1,.2c-.43.09-.85.17-1.26.27-1.34.32-2.31,1.2-3.06,2.75-.31.64-.15,1.4.41,1.88.53.45,1.16.56,1.71.3Z"/>
        <path class="cls-5" d="M218.64,59.67c.34.03.69.04,1.03.05.15,0,.31,0,.46.01h.33s-.17-.76-.17-.76c-.07-.33-.14-.67-.23-1-.36-1.32-1.25-2.33-2.72-3.09-.68-.35-1.42-.2-1.99.41-.56.61-.64,1.42-.21,2.02.73,1.01,1.79,2.19,3.51,2.35Z"/>
        <path class="cls-5" d="M278.01,68.93c.54.68,1.44.88,2.28.51.03-.01.06-.02.08-.04.32-.15.61-.34.86-.55,1.29-1.15,1.46-2.19.69-4.15l-.08-.2-.21.04c-.08.02-.16.04-.25.06-.17.04-.33.08-.48.1-1.4.1-2.25,1.01-2.95,1.99-.5.69-.47,1.59.05,2.24Z"/>
        <path class="cls-5" d="M259.23,32.55l-.12.06c-1.81.98-2.33,1.86-2.04,3.49.2,1.14.99,1.88,2.01,1.88.31,0,.6-.06.86-.18.65-.3,1.09-.95,1.19-1.8.17-1.56-.43-2.7-1.79-3.39l-.12-.06Z"/>
        <path class="cls-5" d="M240.86,38.46c-.17-.17-.31-.32-.38-.48-.64-1.47-1.96-1.85-3.14-2.09-.86-.18-1.57.14-1.94.86-.37.73-.2,1.52.49,2.17,1.19,1.14,2.61,1.38,4.1.7.13-.06.27-.12.4-.18.11-.05.21-.1.32-.15l.63-.29-.21-.25c-.09-.1-.18-.2-.27-.29Z"/>
        <path class="cls-5" d="M258.66,48.73c-1.14.39-1.9,1.11-2.26,2.14-.16.45-.28.92-.4,1.38-.05.21-.11.41-.16.61l-.1.35.36-.03c.19-.02.39-.03.58-.03.43-.02.88-.04,1.3-.16.48-.13,1.14-.34,1.79-.64.2-.09.4-.19.59-.31.88-.51,1.03-1.61.66-2.36-.42-.87-1.41-1.27-2.36-.94Z"/>
        <path class="cls-5" d="M273.7,92.07c.12-.05.23-.1.34-.15,1.7-.79,2.37-1.89,2.15-3.52l-.02-.13-.12-.06c-1.71-.89-3.07-.12-4.17.74-.8.62-1.04,1.57-.61,2.37.46.84,1.46,1.15,2.43.75Z"/>
        <path class="cls-5" d="M273.31,76.77c-.73.77-.84,1.65-.33,2.4.52.75,1.42.93,2.37.49.04-.02.08-.04.11-.06,1.58-.81,2.19-2.01,1.86-3.67l-.03-.13-.13-.05c-1.44-.56-2.7-.22-3.86,1.01Z"/>
        <path class="cls-5" d="M292.01,68.25c-.09.29-.19.59-.3.88-.22.63-.45,1.29-.59,1.96-.73,3.46-1.91,6.89-3.52,10.17-.24.5-.45,1.01-.66,1.51l-.13.3c-.07.16-.11.32-.16.49l-.13.42.6.31.12-.19c.06-.09.12-.18.19-.28.14-.21.29-.42.41-.65.37-.71.73-1.42,1.09-2.13.23-.45.46-.91.69-1.36,0-.01.01-.02.02-.04-.33.79-.66,1.59-1.01,2.45-.08.2-.1.4-.12.6,0,.08-.02.16-.03.24l-.06.37.37-.09c.16-.04.29-.08.41-.14.24-.11.4-.26.5-.45.33-.67.67-1.38,1.03-2.1-.35.89-.55,1.68-.47,2.1l.05.26.25-.06c.09-.02.17-.05.24-.08.4-.18.57-.56.72-.87l.03-.07c.15-.33.32-.66.48-.99.61-1.2,1.23-2.45,1.4-3.98l.08-.71-.5.51c-.4.41-.84,1.03-1.24,1.73.36-.76.72-1.52,1.08-2.29.41-.89.38-1.73-.08-2.56l-.24-.43-.21.45c-.13.28-.26.57-.39.85-.18.38-.35.76-.52,1.15.48-1.41.86-2.85,1.12-4.3.12-.65.15-1.31.18-1.95.01-.3.03-.59.05-.88l.02-.23-.71-.11-.06.2Z"/>
        <path class="cls-5" d="M319.8,31.87c.31-.14.59-.37.81-.68.55-.78.71-1.66.5-2.62-.09-.42-.18-.84-.28-1.28l-.2-.95-.78.56c-.35.25-.69.49-1.03.73-.77.54-1.27,1.16-1.5,1.9-.3.93.04,1.85.85,2.29.53.29,1.13.29,1.65.05Z"/>
        <path class="cls-5" d="M337.16,50.32c.08-.22.12-.46.11-.67-.01-.18-.15-.54-.41-.59-.21-.04-.48.02-.68.16-.13.09-.2.23-.26.35-.02.04-.04.08-.06.12l-3.51,5.58c-.49.78-.98,1.56-1.47,2.35l-1.28,2.05.93-.58c3.03-1.91,5.14-4.69,6.64-8.76Z"/>
        <path class="cls-5" d="M281.38,25.3c-.88-.57-1.87-.6-3-.1,0,0-.02,0-.03.01-.75.35-1.18,1.14-1.06,1.95.12.82.75,1.43,1.6,1.57.34.05.72.04,1.11-.03.26-.05.49-.12.69-.22,1.07-.5,1.42-1.56,1.6-2.38l.03-.16-.42-.29c-.18-.13-.36-.25-.53-.36Z"/>
        <path class="cls-5" d="M324.91,56.1c-.71.31-1.36.72-1.89,1.19-.71.62-.81,1.57-.24,2.31.51.66,1.4.86,2.19.49.03-.02.07-.03.1-.05.96-.51,1.56-1.22,1.8-2.11.13-.47.23-.95.34-1.45.05-.23.1-.46.15-.69l.09-.4-.4.11c-.23.06-.45.11-.68.17-.51.12-1,.23-1.46.44Z"/>
        <path class="cls-5" d="M267.75,30.75c-.13.1-.26.2-.39.3-.18.13-.36.26-.53.41-.67.59-.99,1.3-.95,2.12.04.96.68,1.7,1.57,1.86.39.07.76.01,1.1-.14.44-.2.8-.59,1-1.1.26-.67.26-1.39-.01-2.2-.13-.38-.23-.77-.35-1.21-.06-.21-.12-.44-.18-.67l-.11-.39-.57.51c-.2.18-.38.35-.58.51Z"/>
        <path class="cls-5" d="M331.15,55.21l.81-.64c2.78-2.19,5.91-8.63,5.49-11.29l-.05-.33-.3.14c-.07.03-.13.05-.18.07-.13.05-.27.1-.34.24h0c-1.63,3.53-3.25,7.06-4.88,10.61l-.55,1.21Z"/>
        <path class="cls-5" d="M323.06,39.67c.26-.12.51-.31.7-.55.56-.7.8-1.52.71-2.44-.04-.4-.08-.79-.13-1.2l-.11-.93-.9.5c-.4.22-.78.44-1.17.63-.78.4-1.3.98-1.55,1.72-.3.87.01,1.75.76,2.2.52.31,1.15.33,1.68.08Z"/>
        <path class="cls-5" d="M320.38,52.05c-.48.88-.31,1.84.44,2.39.54.4,1.22.45,1.81.18.22-.1.42-.24.61-.43.66-.67,1.01-1.45,1.02-2.34,0-.36.01-.72.01-1.09v-.88s-.87.26-.87.26c-.36.11-.69.21-1.03.3-.87.24-1.54.78-1.99,1.6Z"/>
        <path class="cls-5" d="M265.22,86.67l.96.59v-1.04c0-.42,0-.83,0-1.25.02-1.05-.35-2.02-1.11-2.9-.54-.63-1.39-.78-2.09-.35-.7.41-.96,1.2-.66,2.01.4,1.06.98,1.81,1.78,2.27.37.22.74.45,1.13.69Z"/>
        <path class="cls-5" d="M271.18,74.93c.41-.19.77-.54,1.02-1.02.67-1.3.46-2.52-.61-3.65l-.12-.13-.48.22c-.22.1-.43.2-.64.29-.02,0-.03.01-.05.02-.74.34-1.24.97-1.51,1.86-.32,1.1.07,2.05,1,2.43.47.19.95.17,1.39-.03Z"/>
        <path class="cls-5" d="M316.23,62.31c-.81.49-1.1,1.45-.7,2.32.21.45.53.85.82,1.18.32.38.66.73,1.02,1.1.15.16.3.32.46.48l.27.28.15-.36c.08-.2.17-.41.26-.62.21-.5.44-1.01.6-1.55.26-.86.09-1.71-.49-2.4-.62-.74-1.61-.92-2.39-.44Z"/>
        <path class="cls-5" d="M228.14,73.24c1.19.94,2.31,1.16,3.39.65.12-.05.23-.12.35-.19l.11-.07v-.13c.08-1.48-.59-2.52-2.06-3.19-.97-.45-1.88-.26-2.37.47-.53.8-.3,1.76.58,2.45Z"/>
        <path class="cls-5" d="M285.22,19.01l.44-.69-.28-.11c-.16-.06-.31-.12-.46-.18-.33-.12-.64-.24-.93-.38-.73-.34-1.41-.41-2.08-.21-.93.28-1.52,1.18-1.4,2.13.12.96.93,1.65,1.94,1.65.38,0,.74-.07,1.05-.22.45-.21.84-.57,1.15-1.07.19-.31.39-.61.58-.92Z"/>
        <path class="cls-5" d="M257.23,41.22c-.93-.04-1.64.34-2.06,1.1-.39.7-.31,1.24.25,1.85.43.46,1.1.74,1.86.75.46,0,.89-.08,1.26-.25.23-.11.44-.25.61-.42.53-.53.64-1.28.3-2.02-.5-.85-1.5-.98-2.22-1.02Z"/>
        <path class="cls-5" d="M304.92,18.66h0c.55.05,1.06-.03,1.53-.25.27-.13.53-.3.78-.52.27-.25.58-.47.9-.7.15-.11.31-.23.48-.35l.29-.22-.81-.51c-.37-.24-.75-.48-1.14-.71-.82-.48-1.68-.53-2.55-.15-.81.32-1.26,1.1-1.13,1.91.13.82.77,1.41,1.65,1.5Z"/>
        <path class="cls-5" d="M217.68,44.92c.37-.17.67-.49.82-.92.23-.66.33-1.39.4-2.07.06-.56.08-1.13.09-1.68,0-.24.01-.47.02-.71l.02-.53-.42.32c-.14.11-.28.22-.43.33-.32.25-.65.51-.99.74-.88.59-1.4,1.46-1.63,2.77-.15.87.27,1.6,1.05,1.83.37.11.74.07,1.05-.08Z"/>
        <path class="cls-5" d="M277.01,59.38l.77.75.08-.47c.03-.19.07-.37.1-.55.08-.39.15-.76.15-1.15,0-.85-.03-1.76-.2-2.64-.16-.84-.91-1.35-1.74-1.2-.8.15-1.28.83-1.22,1.71.08,1.15.48,2.04,1.21,2.72.28.26.56.53.84.82Z"/>
        <path class="cls-5" d="M307.34,78.32c-.89-.23-1.75-.11-2.53.35-.68.39-1,1.12-.81,1.85.18.74.81,1.23,1.58,1.26.5.02.96-.07,1.36-.25.49-.23.89-.6,1.18-1.11.19-.32.35-.66.52-.99.07-.15.14-.29.22-.43l.15-.29-.74-.16c-.31-.07-.62-.14-.93-.21Z"/>
        <path class="cls-5" d="M291.28,17.68c-.41-.06-.82-.03-1.22,0-.17.01-.34.02-.51.03h-.06s-.05.03-.05.03c-1,.54-1.45,1.29-1.27,2.13.19.88,1.01,1.41,2.03,1.3.47-.05.97-.19,1.44-.41.05-.03.11-.05.16-.08.66-.34.98-.97.85-1.7-.13-.72-.64-1.21-1.38-1.31Z"/>
        <path class="cls-5" d="M272.54,21.38c-1-.13-1.8.23-2.33,1.03-.46.7-.41,1.62.12,2.23.55.63,1.39.81,2.18.46.02,0,.03-.02.05-.02.73-.34,1.19-.95,1.38-1.81.07-.3.13-.6.2-.9l.16-.69-.74-.13c-.35-.06-.68-.12-1.02-.16Z"/>
        <path class="cls-5" d="M316.49,41.62c-.45.23-.78.63-.93,1.1-.14.47-.08.97.17,1.4.25.43.66.77,1.02,1.07l.06.05c.27.23.57.42.88.62.14.09.28.18.42.28l.26.17.29-.73c.14-.34.28-.69.41-1.04.27-.7.26-1.37-.02-1.98-.22-.49-.62-.86-1.12-1.04-.48-.17-.98-.13-1.43.09Z"/>
        <path class="cls-5" d="M303.76,14.33h0c.4.02.78-.05,1.11-.21.37-.17.7-.45.97-.83.16-.23.32-.48.48-.73l.37-.57-.53-.39c-.24-.18-.48-.35-.72-.51-.72-.49-1.52-.57-2.32-.23-.02,0-.04.02-.06.03-.73.34-1.18,1.13-1.06,1.91.13.86.85,1.49,1.75,1.53Z"/>
        <path class="cls-5" d="M299.33,18.88c.02-.13.04-.25.06-.39l.04-.23-.61-.16c-.26-.07-.51-.13-.75-.2-.73-.21-1.43-.1-2.08.33-.72.47-1.02,1.34-.73,2.11.29.76,1.08,1.22,1.93,1.12.25-.03.48-.1.7-.2.64-.29,1.12-.87,1.29-1.57.06-.26.11-.53.15-.81Z"/>
        <path class="cls-5" d="M280.79,52.77l.77.83.31-1.02c.13-.42.25-.82.36-1.23.25-.91.14-1.76-.33-2.52-.41-.66-1.19-.95-1.89-.7-.66.23-1.04.88-.99,1.62.05.8.36,1.51.93,2.11.28.29.55.59.84.9Z"/>
        <path class="cls-5" d="M221.45,50.2c-.03.7.38,1.28,1.04,1.48.33.1.72.08,1.05-.07.27-.12.49-.34.62-.65.29-.71.45-1.42.47-2.08.01-.49-.1-.96-.21-1.47-.05-.22-.1-.45-.15-.69l-.08-.43-.76.67c-.3.26-.56.49-.82.72-.74.67-1.13,1.52-1.17,2.52Z"/>
        <path class="cls-5" d="M260.77,107.75c-.57-.24-1.14-.47-1.7-.73h0c-.93-.43-1.85-.86-2.77-1.3l-1.35-.64-.48.66.19.15c.32.25.64.51.96.77.73.6,1.49,1.22,2.3,1.73.73.46,1.55.77,2.35,1.08.21.08.42.16.62.24.31.12.61.13.85.02h0c.2-.1.36-.27.44-.5.27-.75-.46-1.06-.7-1.16l-.72-.3Z"/>
        <path class="cls-5" d="M249.28,94.33c.5.07.95.01,1.36-.17s.76-.51,1.05-.96c.22-.34.4-.7.59-1.07.08-.17.17-.34.27-.52l.18-.33-.37-.03c-.19-.02-.37-.03-.55-.04-.38-.03-.74-.06-1.09-.11-.81-.12-1.48,0-2.05.4-.59.4-.84.99-.7,1.65.14.66.63,1.1,1.33,1.2Z"/>
        <path class="cls-5" d="M267.51,107.13l-.5-.07.24.44c1.01,1.82,6.22,4.29,9.14,4.35h.82s-.67-.46-.67-.46c-1.16-.81-8.04-4.12-9.03-4.26Z"/>
        <path class="cls-5" d="M315.89,71.83c-.4-.07-.72-.12-1.03-.1-.76.04-1.49.09-2.2.3-.72.22-1.13.9-.96,1.66.16.75.84,1.18,1.69,1.09.32-.04.66-.09.95-.22.1-.04.19-.1.27-.16.5-.41.97-.87,1.46-1.36.21-.21.44-.43.68-.66l.38-.36-.52-.07c-.28-.04-.51-.07-.72-.11Z"/>
        <path class="cls-5" d="M226.31,38.82c.19-.06.39-.13.58-.2l.51-.18-.22-.59c-.09-.25-.18-.49-.27-.72-.38-.91-1.12-1.52-2.15-1.74-.55-.12-1.08.04-1.42.42-.33.38-.41.9-.23,1.42.45,1.25,1.94,2,3.19,1.59Z"/>
        <path class="cls-5" d="M315.57,23.25l.68.27.22-.72c.11-.35.22-.71.31-1.06.28-1.05-.2-2.02-1.15-2.35-.46-.16-.95-.12-1.37.08-.42.21-.74.58-.89,1.03-.3.93.21,1.94,1.19,2.34.34.14.67.27,1.01.41Z"/>
        <path class="cls-5" d="M320.67,84.12c.35-.09.7-.18,1.06-.26.64-.14,1.23-.35,1.8-.61,1.46-.68,2.69-1.69,3.83-2.74.22-.2.68-.62.17-1.28l-.14-.17-7.7,4.75.31.49.68-.17Z"/>
        <path class="cls-5" d="M311.22,32.91l.11.05h0c.27.12.54.19.86.27.14.04.3.08.46.13l.3.09.02-.31c0-.16.02-.32.03-.47.02-.36.05-.71.04-1.06-.02-.85-.45-1.48-1.25-1.83-.68-.3-1.52-.08-1.95.53-.43.61-.37,1.43.15,1.91.35.32.79.52,1.23.7Z"/>
        <path class="cls-5" d="M270.89,62.49c-.4.61-.28,1.39.29,1.98.08.09.18.16.27.24l1.81,1.5.3-1.75c.02-.1.04-.2.06-.29.05-.25.1-.5.1-.76-.02-.77-.54-1.41-1.27-1.55-.64-.13-1.19.1-1.54.65Z"/>
        <path class="cls-5" d="M259.16,55.25s-.05.02-.07.03c-.81.38-1.27,1.39-.96,2.17.13.34.41.61.78.77.44.19.95.18,1.41,0,.02,0,.04-.02.06-.03.82-.38,1.22-1.27.92-2.07-.14-.38-.44-.69-.82-.86-.41-.18-.89-.18-1.32-.01Z"/>
        <path class="cls-5" d="M294.04,15.77c.46-.22.83-.64.99-1.12.12-.37.11-.74-.04-1.03-.35-.68-1.34-.94-2.14-.56,0,0-.02,0-.03.01-.41.2-.73.53-.91.93-.19.41-.19.86-.02,1.21.34.71,1.29.96,2.12.57.01,0,.02-.01.03-.02Z"/>
        <path class="cls-5" d="M303.65,101.01c.38-.18.7-.39.93-.65l.38-.42h-.57c-2.29.02-4.66.04-7.12.48l-.83.15.78.33c.43.18.9.32,1.37.42l-4.25.05.05.71.15.05c3.55,1.26,7.33,1.12,11.55-.42l1.38-.5-4.53.05c.25-.07.48-.16.69-.25Z"/>
        <path class="cls-5" d="M287.39,23.95s-.03.01-.04.02c-.74.36-1.04,1.17-.7,1.87.38.78,1.48,1.14,2.32.76h0c.77-.36,1.09-1.11.77-1.83-.18-.41-.53-.73-.97-.89-.45-.16-.95-.14-1.38.06Z"/>
        <path class="cls-5" d="M335.83,53.89c-.18.08-.27.24-.35.36l-.05.08c-.82,1.23-1.63,2.47-2.5,3.78l-1.5,2.28,1.25-1.01c.13-.1.24-.19.34-.27.2-.15.37-.28.51-.43l.31-.33c.84-.87,1.7-1.77,2.52-2.69.24-.27.35-.64.44-.97l.05-.17c.06-.21-.09-.6-.33-.68-.21-.07-.48-.06-.7.04Z"/>
        <path class="cls-5" d="M336.66,40.02l-.16-.79-.31.74c-.96,2.3-1.62,4.44-2.22,6.43l-.41,1.36.85-1.14c1.64-2.22,2.59-5,2.25-6.61Z"/>
        <path class="cls-5" d="M229.78,93.99l.33,1.21c.84,3.06,1.63,4.55,2.82,5.31l.5.33-.12-.59c-.46-2.18-1.67-3.87-2.76-5.27l-.77-.99Z"/>
        <path class="cls-5" d="M272.77,57.26c-.03-.68-.46-1.17-1.1-1.28-.61-.11-1.09.17-1.28.73-.21.62,0,1.18.59,1.58.27.18.55.33.84.49.13.07.27.15.41.23l.33.19.04-.37c.02-.17.05-.33.07-.48.06-.37.11-.71.09-1.07Z"/>
        <path class="cls-5" d="M260.16,65.77l-.09.65c-.27,1.9.12,3.34,1.25,4.53l.4.42.03-.58c.1-1.65-.29-3.07-1.23-4.48l-.36-.54Z"/>
        <path class="cls-5" d="M253.66,20.53v.47s.39-.26.39-.26c1.16-.78,1.78-1.86,1.94-3.41l.06-.6-.47.38c-1.32,1.06-1.91,2.12-1.92,3.42Z"/>
        <path class="cls-5" d="M312.12,100.51c.44-.2.8-.58,1.09-1.18l.22-.47-5.17,1.2.89.27c1.22.38,2.22.53,2.98.18Z"/>
        <path class="cls-5" d="M291.99,81.78l-.31,1.07.64-.54c.22-.19.41-.39.58-.6l-.78,1.23.64-.19c.1-.03.2-.07.29-.11.54-.25.87-.7.99-1.37l.03-.19-.6-.28v.02c.23-.55.34-1.17.33-1.87v-.71s-.45.56-.45.56c-.78,1-1.07,2.01-1.36,2.99Z"/>
        <path class="cls-5" d="M300.9,23.21l-1.19.52,1.34.07c.97.06,1.97.11,2.94-.34h0s.42-.2.42-.2l-.4-.24c-1.13-.69-2.19-.22-3.12.19Z"/>
        <path class="cls-5" d="M318.62,86.85l1.7-.63c.2-.07.42-.13.65-.18.31-.07.64-.15.96-.29.44-.2.85-.54,1.12-1.2l.16-.39-.42.04c-1.02.11-1.62.65-2.16,1.12-.18.16-.36.32-.55.46l-1.47,1.07Z"/>
        <path class="cls-5" d="M261.44,66.29c-.09.76-.19,1.63.65,2.39l.24.22.15-.29c.45-.89.1-1.54-.2-2.11-.13-.24-.25-.47-.3-.7l-.38-1.66-.11,1.7c0,.15-.03.3-.04.45Z"/>
        <path class="cls-5" d="M253.65,17.63l-.07-.4-.33.25c-.77.59-1.12,1.27-1.1,2.16v.42s.37-.21.37-.21c1.09-.62,1.32-1.08,1.12-2.21Z"/>
        <polygon class="cls-5" points="300.38 99.59 303.79 99.19 303.7 98.41 300.35 98.77 300.38 99.59"/>
        <path class="cls-5" d="M271.69,53.43l.45.23-.09-.5c-.09-.5-.32-1.17-1.22-1.23l-.26-.02v.26c-.04.75.48.97.89,1.16.08.03.15.07.23.1Z"/>
        <path class="cls-5" d="M271.11,43.93c.53.27,1.01.31,1.45.1.08-.04.15-.08.22-.13l.13-.09-.11-.67-2.34.45.64.33Z"/>
        <polygon class="cls-5" points="266.28 108.85 268.04 109.81 268.37 109.16 266.58 108.16 266.28 108.85"/>
      </g>
    </g>
  </g>
</svg>