<?xml version="1.0" encoding="UTF-8"?>
<svg xmlns="http://www.w3.org/2000/svg" xmlns:xlink="http://www.w3.org/1999/xlink" viewBox="0 0 75.58 36.06">
  <defs>
    <style>
      .cls-1 {
        fill: url(#linear-gradient-12);
      }

      .cls-1, .cls-2, .cls-3, .cls-4, .cls-5, .cls-6, .cls-7, .cls-8, .cls-9, .cls-10, .cls-11, .cls-12, .cls-13, .cls-14, .cls-15, .cls-16, .cls-17, .cls-18, .cls-19, .cls-20, .cls-21, .cls-22, .cls-23, .cls-24, .cls-25, .cls-26, .cls-27, .cls-28, .cls-29, .cls-30, .cls-31, .cls-32, .cls-33, .cls-34, .cls-35, .cls-36 {
        stroke-width: 0px;
      }

      .cls-2 {
        fill: url(#linear-gradient-17);
      }

      .cls-3 {
        fill: url(#linear-gradient-19);
      }

      .cls-4 {
        fill: url(#linear-gradient);
      }

      .cls-5 {
        fill: url(#linear-gradient-6);
      }

      .cls-6 {
        fill: url(#radial-gradient-8);
      }

      .cls-37 {
        isolation: isolate;
      }

      .cls-7 {
        fill: url(#linear-gradient-15);
      }

      .cls-8 {
        fill: url(#linear-gradient-11);
      }

      .cls-9 {
        fill: url(#linear-gradient-5);
      }

      .cls-10, .cls-24 {
        fill: #fcdcdd;
      }

      .cls-11 {
        fill: #fbd2db;
      }

      .cls-12 {
        fill: url(#linear-gradient-13);
      }

      .cls-13 {
        fill: url(#linear-gradient-16);
      }

      .cls-14 {
        fill: url(#linear-gradient-20);
      }

      .cls-15 {
        fill: url(#linear-gradient-14);
      }

      .cls-16 {
        fill: url(#linear-gradient-2);
      }

      .cls-17 {
        fill: url(#linear-gradient-7);
      }

      .cls-18 {
        fill: url(#radial-gradient-2);
      }

      .cls-19 {
        fill: url(#radial-gradient-7);
      }

      .cls-20 {
        fill: url(#linear-gradient-3);
      }

      .cls-21 {
        fill: url(#radial-gradient-5);
      }

      .cls-22 {
        fill: url(#linear-gradient-9);
      }

      .cls-23 {
        fill: url(#radial-gradient);
      }

      .cls-24 {
        mix-blend-mode: multiply;
        opacity: .74;
      }

      .cls-25 {
        fill: url(#linear-gradient-8);
      }

      .cls-26 {
        fill: url(#radial-gradient-10);
      }

      .cls-27 {
        fill: url(#linear-gradient-18);
      }

      .cls-28 {
        fill: #fff;
      }

      .cls-29 {
        fill: url(#radial-gradient-6);
      }

      .cls-30 {
        fill: url(#linear-gradient-10);
      }

      .cls-31 {
        fill: url(#radial-gradient-9);
      }

      .cls-32 {
        fill: url(#radial-gradient-3);
      }

      .cls-33 {
        fill: url(#radial-gradient-11);
      }

      .cls-34 {
        fill: url(#linear-gradient-4);
      }

      .cls-35 {
        fill: #f6e8dd;
      }

      .cls-36 {
        fill: url(#radial-gradient-4);
      }
    </style>
    <linearGradient id="linear-gradient" x1="-999.03" y1="1044.22" x2="-988.16" y2="1044.22" gradientTransform="translate(662.69 -1296.12) rotate(-19.25)" gradientUnits="userSpaceOnUse">
      <stop offset="0" stop-color="#c8e8e3"/>
      <stop offset="1" stop-color="#83c0b8"/>
    </linearGradient>
    <linearGradient id="linear-gradient-2" x1="-1002.78" y1="1042.05" x2="-988.19" y2="1042.05" xlink:href="#linear-gradient"/>
    <linearGradient id="linear-gradient-3" x1="-1002.46" y1="1044.61" x2="-994.11" y2="1044.61" xlink:href="#linear-gradient"/>
    <linearGradient id="linear-gradient-4" x1="-1002.17" y1="1047.37" x2="-994.1" y2="1047.37" xlink:href="#linear-gradient"/>
    <linearGradient id="linear-gradient-5" x1="-1022.31" y1="1041.63" x2="-1007.35" y2="1041.63" xlink:href="#linear-gradient"/>
    <linearGradient id="linear-gradient-6" x1="-1022.34" y1="1043.76" x2="-1011.25" y2="1043.76" xlink:href="#linear-gradient"/>
    <linearGradient id="linear-gradient-7" x1="-1016.55" y1="1044.33" x2="-1007.7" y2="1044.33" xlink:href="#linear-gradient"/>
    <linearGradient id="linear-gradient-8" x1="-1016.57" y1="1047.07" x2="-1008.31" y2="1047.07" xlink:href="#linear-gradient"/>
    <linearGradient id="linear-gradient-9" x1="-1008.22" y1="1046.3" x2="-1005.35" y2="1046.3" xlink:href="#linear-gradient"/>
    <linearGradient id="linear-gradient-10" x1="-1005.28" y1="1046.31" x2="-1002.08" y2="1046.31" xlink:href="#linear-gradient"/>
    <linearGradient id="linear-gradient-11" x1="-1020.52" y1="1042.95" x2="-1011.21" y2="1042.95" xlink:href="#linear-gradient"/>
    <linearGradient id="linear-gradient-12" x1="-1023.74" y1="1041.09" x2="-1011.23" y2="1041.09" xlink:href="#linear-gradient"/>
    <linearGradient id="linear-gradient-13" x1="-1023.47" y1="1043.28" x2="-1016.31" y2="1043.28" xlink:href="#linear-gradient"/>
    <linearGradient id="linear-gradient-14" x1="-1023.22" y1="1045.64" x2="-1016.3" y2="1045.64" xlink:href="#linear-gradient"/>
    <linearGradient id="linear-gradient-15" x1="-1040.48" y1="1040.73" x2="-1027.66" y2="1040.73" xlink:href="#linear-gradient"/>
    <linearGradient id="linear-gradient-16" x1="-1040.52" y1="1042.55" x2="-1031" y2="1042.55" xlink:href="#linear-gradient"/>
    <linearGradient id="linear-gradient-17" x1="-1035.55" y1="1043.04" x2="-1027.96" y2="1043.04" xlink:href="#linear-gradient"/>
    <linearGradient id="linear-gradient-18" x1="-1035.56" y1="1045.39" x2="-1028.48" y2="1045.39" xlink:href="#linear-gradient"/>
    <linearGradient id="linear-gradient-19" x1="-1028.4" y1="1044.73" x2="-1025.95" y2="1044.73" xlink:href="#linear-gradient"/>
    <linearGradient id="linear-gradient-20" x1="-1025.89" y1="1044.74" x2="-1023.14" y2="1044.74" xlink:href="#linear-gradient"/>
    <radialGradient id="radial-gradient" cx="107.54" cy="-341.68" fx="107.54" fy="-341.68" r="3.25" gradientTransform="translate(-56.35 373.79) rotate(-7.13)" gradientUnits="userSpaceOnUse">
      <stop offset=".21" stop-color="#fbd2db"/>
      <stop offset=".37" stop-color="#c8e8e3"/>
      <stop offset=".82" stop-color="#efa1bc"/>
    </radialGradient>
    <radialGradient id="radial-gradient-2" cx="107.54" cy="-340.27" fx="107.54" fy="-340.27" r="1.62" xlink:href="#radial-gradient"/>
    <radialGradient id="radial-gradient-3" cx="112.28" cy="-338.29" fx="112.28" fy="-338.29" r="3.25" xlink:href="#radial-gradient"/>
    <radialGradient id="radial-gradient-4" cx="110.81" cy="-337.76" fx="110.81" fy="-337.76" r="1.62" xlink:href="#radial-gradient"/>
    <radialGradient id="radial-gradient-5" cx="110.81" cy="-332.56" fx="110.81" fy="-332.56" r="3.1" xlink:href="#radial-gradient"/>
    <radialGradient id="radial-gradient-6" cx="109.6" cy="-334.01" fx="109.6" fy="-334.01" r="1.62" xlink:href="#radial-gradient"/>
    <radialGradient id="radial-gradient-7" cx="104.28" cy="-332.56" fx="104.28" fy="-332.56" r="3.1" xlink:href="#radial-gradient"/>
    <radialGradient id="radial-gradient-8" cx="105.54" cy="-333.95" fx="105.54" fy="-333.95" r="1.62" xlink:href="#radial-gradient"/>
    <radialGradient id="radial-gradient-9" cx="102.81" cy="-338.29" fx="102.81" fy="-338.29" r="3.25" xlink:href="#radial-gradient"/>
    <radialGradient id="radial-gradient-10" cx="104.28" cy="-337.76" fx="104.28" fy="-337.76" r="1.62" xlink:href="#radial-gradient"/>
    <radialGradient id="radial-gradient-11" cx="107.54" cy="-336.9" fx="107.54" fy="-336.9" r=".51" xlink:href="#radial-gradient"/>
  </defs>
  <g class="cls-37">
    <g id="Layer_2" data-name="Layer 2">
      <g id="Layer_1-2" data-name="Layer 1">
        <g>
          <g>
            <g>
              <path class="cls-28" d="M41.89,29.27c.18.22.47.3.73.22.04-.01.08-.03.11-.05,2.48-1.35,5.09-3.06,7.11-4.51-.44,1.79-.96,3.93-1.34,5.53-.04.18,0,.35.08.49.01.21.11.4.3.53.18.12.39.14.58.08.11-.03.21-.1.29-.19,1.75-1.91,4.59-5.01,6.06-7.02.24.4.48.81.74,1.22,1.37,2.23,2.89,4.49,3.96,6.15.17.26.48.36.77.27.03,0,.06-.02.09-.04.01,0,.03-.02.04-.02.01,0,.03,0,.04,0,.03,0,.06-.01.09-.02.29-.09.48-.37.47-.68-.11-1.95-.22-4.65-.43-7.24-.04-.5-.08-.99-.13-1.47,2.37.75,6.49,1.57,9.03,2.08.12.02.23.02.34-.02.19-.06.35-.21.42-.41.08-.21.04-.43-.07-.6-.02-.17-.09-.33-.23-.44-1.24-1.06-2.93-2.48-4.34-3.67,2.49-.03,5.6-.19,8.4-.57.04,0,.08-.01.11-.03.26-.08.45-.33.47-.61,0-.16-.04-.31-.13-.43-.05-.18-.17-.34-.35-.43-3.05-1.45-6.05-2.79-7.77-3.43-.86-.32-1.9-.75-2.92-1.12-1.03-.36-2.03-.67-2.91-.71h0c-.87-.04-1.68.03-2.42.27-.61.2-1.18.51-1.64.97-.16.16-.23.4-.18.62-.43-.1-.88-.11-1.33-.02-.12.02-.23.09-.32.17-.12-.02-.25,0-.36.05-.42.19-.77.47-1.06.8-.09-.21-.28-.36-.51-.39-.62-.09-1.25-.02-1.84.17-.76.24-1.47.68-2.16,1.23-.68.56-1.31,1.39-1.92,2.29-.61.9-1.2,1.86-1.7,2.63-1.01,1.53-2.64,4.38-4.24,7.36-.09.18-.1.38-.04.55,0,.15.05.3.15.43Z"/>
              <g>
                <g>
                  <path class="cls-4" d="M74.92,18.26c-3.06.41-6.54.57-9.1.56-.87-.76-2.09-1.8-3.11-2.6,2.1.05,4.26.49,5.38.68,1.62.28,3.76.66,6.83,1.35Z"/>
                  <path class="cls-16" d="M61.47,12.85c1.48.07,3.88,1.14,5.63,1.79,1.68.62,4.68,1.96,7.72,3.41-3.22-.81-5.58-1.3-7.15-1.62-1.33-.27-3.94-.77-5.8-.81-.15-.1-.28-.2-.41-.27-1.04-.65-2.22-1.25-3.54-1.44.83-.82,2.08-1.11,3.56-1.04Z"/>
                </g>
                <g>
                  <path class="cls-20" d="M60.89,18.59c-.09-.46-.19-.87-.31-1.23-.35-1.07-1.28-2.34-2.07-2.71,1.94.63,4.17,2.38,5.59,3.61,1.33,1.14,4.44,3.73,6.41,5.42-1.54-.9-4.41-2.59-5.31-3.05-1.15-.59-3.03-1.56-4.31-2.04Z"/>
                  <path class="cls-34" d="M61.02,19.27c1.28.46,3,1.22,4.1,1.75.95.46,4.02,2.14,5.51,2.96-2.66-.53-7.08-1.42-9.3-2.17-.09-.94-.19-1.79-.31-2.54Z"/>
                </g>
                <g>
                  <path class="cls-9" d="M42.38,28.65c1.6-2.96,3.23-5.81,4.21-7.31,1.03-1.56,2.33-3.84,3.49-4.77,1.15-.93,2.33-1.43,3.49-1.26-.95.94-1.55,2.12-2.01,3.26-.05.13-.11.29-.17.46-1.48,1.13-3.29,3.08-4.2,4.08-1.08,1.19-2.7,2.97-4.81,5.53Z"/>
                  <path class="cls-5" d="M51.09,20.03c-.36,1.24-.73,2.8-.98,3.93-2.07,1.52-4.96,3.44-7.68,4.92,2.08-2.37,3.57-3.95,4.72-5.12.79-.82,2.27-2.45,3.94-3.73Z"/>
                </g>
                <g>
                  <path class="cls-17" d="M51.66,25.05c-.45.9-1.78,3.96-2.49,5.6.6-2.53,1.58-6.46,1.97-8.16.42-1.83,1.19-4.57,2.38-6.22-.42.77-.41,2.34-.07,3.41.12.36.28.75.48,1.18-.75,1.14-1.7,3.04-2.28,4.19Z"/>
                  <path class="cls-25" d="M51.97,25.32c.57-1.08,1.51-2.71,2.27-3.84.34.67.76,1.42,1.25,2.23-1.34,1.92-4.39,5.24-6.22,7.25.72-1.54,2.2-4.71,2.7-5.64Z"/>
                </g>
                <g>
                  <path class="cls-22" d="M54.08,19.4c-.59-1.82-.04-3.87,1.44-4.55,1.26,3.85,4.24,12.72,5.56,16.54-2.16-3.31-6.05-9.04-7.01-11.99Z"/>
                  <path class="cls-30" d="M59.92,17.5c.97,2.94,1.21,9.86,1.43,13.81-1.19-3.87-4.02-12.78-5.28-16.63,1.6-.32,3.25,1.01,3.85,2.82Z"/>
                </g>
              </g>
            </g>
            <g>
              <path class="cls-28" d="M24.28,33.69c.15.19.4.26.63.19.03-.01.07-.02.1-.04,2.13-1.16,4.37-2.62,6.1-3.86-.37,1.54-.83,3.37-1.15,4.74-.04.15,0,.3.06.42,0,.18.1.35.25.45.15.1.33.12.5.07.09-.03.18-.08.25-.16,1.5-1.64,3.93-4.3,5.19-6.02.2.35.42.69.63,1.05,1.18,1.91,2.48,3.85,3.4,5.27.14.22.42.31.66.23.03,0,.05-.02.08-.03.01,0,.02-.01.03-.02.01,0,.02,0,.04,0,.03,0,.05-.01.07-.02.25-.08.41-.32.4-.58-.09-1.68-.19-3.99-.37-6.21-.03-.43-.07-.85-.11-1.26,2.04.64,5.57,1.35,7.75,1.79.1.02.2.01.29-.02.16-.05.3-.18.36-.35.07-.18.04-.37-.06-.52-.01-.14-.08-.28-.2-.38-1.07-.91-2.51-2.13-3.72-3.15,2.13-.02,4.8-.16,7.2-.49.03,0,.07-.01.1-.02.23-.07.39-.28.4-.52,0-.14-.04-.26-.11-.37-.04-.16-.15-.29-.3-.37-2.61-1.25-5.19-2.39-6.66-2.94-.73-.27-1.63-.64-2.51-.96-.88-.31-1.74-.57-2.49-.61h0c-.74-.03-1.44.03-2.08.23-.53.17-1.01.44-1.4.83-.14.14-.2.34-.16.53-.37-.08-.75-.1-1.14-.02-.11.02-.2.07-.28.15-.1-.01-.21,0-.31.05-.36.17-.66.4-.91.69-.08-.18-.24-.31-.44-.34-.53-.08-1.07-.02-1.58.14-.65.21-1.26.58-1.85,1.06-.59.48-1.12,1.19-1.65,1.97-.53.77-1.03,1.6-1.46,2.25-.87,1.31-2.26,3.76-3.64,6.31-.08.15-.09.32-.03.47,0,.13.04.26.13.37Z"/>
              <g>
                <g>
                  <path class="cls-8" d="M52.6,24.26c-2.62.35-5.6.49-7.8.48-.75-.65-1.8-1.55-2.67-2.23,1.8.04,3.65.42,4.62.58,1.39.24,3.22.57,5.86,1.16Z"/>
                  <path class="cls-1" d="M41.07,19.61c1.27.06,3.33.98,4.83,1.53,1.44.53,4.01,1.68,6.62,2.92-2.76-.7-4.79-1.11-6.13-1.39-1.14-.23-3.38-.66-4.97-.7-.13-.09-.24-.17-.35-.23-.89-.55-1.9-1.07-3.04-1.24.72-.71,1.78-.95,3.05-.9Z"/>
                </g>
                <g>
                  <path class="cls-12" d="M40.58,24.54c-.08-.39-.17-.75-.27-1.06-.3-.92-1.1-2.01-1.78-2.33,1.66.54,3.57,2.04,4.8,3.1,1.14.98,3.8,3.2,5.5,4.65-1.32-.77-3.78-2.22-4.55-2.62-.98-.5-2.6-1.34-3.7-1.75Z"/>
                  <path class="cls-15" d="M40.68,25.12c1.1.39,2.57,1.05,3.52,1.5.81.39,3.44,1.83,4.72,2.54-2.28-.46-6.07-1.22-7.97-1.86-.08-.81-.16-1.53-.27-2.18Z"/>
                </g>
                <g>
                  <path class="cls-7" d="M24.71,33.16c1.37-2.54,2.77-4.98,3.61-6.27.88-1.34,2-3.29,2.99-4.09.99-.8,2-1.23,2.99-1.08-.82.81-1.33,1.82-1.72,2.79-.05.12-.09.25-.14.4-1.27.97-2.82,2.64-3.6,3.5-.92,1.02-2.31,2.55-4.13,4.74Z"/>
                  <path class="cls-13" d="M32.17,25.77c-.31,1.06-.62,2.4-.84,3.37-1.77,1.3-4.26,2.95-6.58,4.22,1.78-2.04,3.06-3.38,4.04-4.39.68-.7,1.95-2.1,3.38-3.2Z"/>
                </g>
                <g>
                  <path class="cls-2" d="M32.66,30.08c-.39.77-1.52,3.4-2.13,4.8.51-2.17,1.35-5.53,1.69-7,.36-1.57,1.02-3.92,2.04-5.33-.36.66-.36,2.01-.06,2.93.1.31.24.65.41,1.01-.65.98-1.46,2.61-1.95,3.59Z"/>
                  <path class="cls-27" d="M32.92,30.31c.49-.92,1.3-2.33,1.95-3.29.3.58.66,1.22,1.07,1.91-1.15,1.64-3.76,4.5-5.33,6.21.62-1.32,1.89-4.04,2.31-4.84Z"/>
                </g>
                <g>
                  <path class="cls-3" d="M34.74,25.23c-.5-1.56-.03-3.32,1.24-3.9,1.08,3.3,3.63,10.9,4.77,14.18-1.85-2.84-5.19-7.75-6.01-10.28Z"/>
                  <path class="cls-14" d="M39.74,23.6c.83,2.52,1.04,8.46,1.23,11.84-1.02-3.32-3.45-10.96-4.53-14.26,1.37-.28,2.79.86,3.3,2.42Z"/>
                </g>
              </g>
            </g>
          </g>
          <g>
            <path class="cls-28" d="M58.75,12.47c-1.61-.35-3.73-.51-5.74-.26h-.03c-2,.25-4,.92-5.47,1.65h0c-1.54.76-2.44.98-3.21,1.07h-.01c-1.12.14-2.26-.07-3.19-.64h0c-.94-.56-1.66-1.54-1.81-2.78h0c-.18-1.38.28-2.55,1.04-3.31h0c.7-.72,1.62-1.11,2.51-1.26h0c-.03-.89.27-1.79.84-2.52h0c.64-.83,1.66-1.46,2.93-1.61h0c.41-.05.85-.05,1.31,0h0c.21-.64.56-1.2,1.05-1.64h0c.66-.61,1.55-.99,2.55-1.11h0c1.01-.13,1.96.02,2.75.46h0c.58.31,1.06.77,1.42,1.34h0c.43-.16.85-.26,1.25-.31h0c1.27-.16,2.41.19,3.24.84h0c.74.58,1.25,1.38,1.44,2.25h0c.9-.07,1.88.09,2.73.61h0c.92.55,1.65,1.57,1.82,2.94h0s0,0,0,.01h0c.16,1.24-.31,2.37-1.08,3.14h0c-.77.78-1.81,1.26-2.93,1.4h-.02s-.02,0-.02,0h0c-.77.1-1.69.1-3.36-.27h0Z"/>
            <path class="cls-11" d="M52.92,11.45c-2.11.26-4.19.95-5.75,1.72-1.51.75-2.27.92-2.98,1-1.92.24-3.91-.75-4.15-2.77-.32-2.62,1.91-3.81,3.67-3.77-.61-2.05,1.22-4.76,4.78-3.97.24-1.6,1.36-2.65,3.12-2.87,1.76-.22,3.1.53,3.73,2.03,3.26-1.63,5.69.55,5.6,2.69,1.69-.47,4.15.14,4.47,2.77.25,2.02-1.44,3.46-3.36,3.69-.71.09-1.49.11-3.13-.25-1.69-.37-3.88-.54-5.99-.27ZM51.6,6.44c.26,1.47.67,2.79.89,3.4.09.26.19.35.26.34.07,0,.15-.12.18-.4.06-.66.14-2.03.05-3.51-.09-1.55-.56-1.73-.92-1.69-.37.05-.73.34-.46,1.86ZM55.31,6.68c-.27,1.3-.35,2.53-.36,3.12,0,.25.05.35.12.37.07.02.18-.04.3-.27.28-.52.81-1.62,1.24-2.87.45-1.31.08-1.62-.25-1.71-.35-.09-.77.02-1.05,1.37ZM58.74,7.82c-.7.89-1.24,1.8-1.47,2.24-.1.19-.09.29-.05.33.05.04.15.04.33-.09.41-.29,1.24-.92,2.05-1.71.84-.83.69-1.2.47-1.4-.23-.2-.59-.28-1.32.64ZM45.02,9.03c-.17.24-.23.65.79,1.25.97.57,1.93.99,2.4,1.17.2.08.31.06.34,0,.03-.05.01-.15-.13-.31-.33-.37-1.07-1.12-1.97-1.81-.93-.72-1.27-.55-1.44-.3ZM48.1,6.33c-.3.17-.58.56.17,1.72.72,1.11,1.5,2.05,1.9,2.48.17.19.29.22.36.19.06-.03.09-.15.03-.39-.15-.56-.53-1.74-1.11-2.93-.6-1.24-1.03-1.24-1.35-1.07Z"/>
          </g>
          <g>
            <path class="cls-28" d="M46.83,19.12c-1.47-.32-3.4-.47-5.24-.24h-.03c-1.82.23-3.65.84-4.99,1.5h0c-1.4.7-2.23.9-2.93.98h-.01c-1.02.13-2.06-.07-2.92-.59h0c-.85-.51-1.52-1.4-1.66-2.54h0c-.16-1.26.25-2.32.95-3.02h0c.64-.65,1.47-1.02,2.29-1.15h0c-.02-.81.24-1.63.77-2.3h0c.59-.76,1.52-1.33,2.67-1.47h0c.38-.05.78-.05,1.2,0h0c.19-.58.52-1.09.96-1.5h0c.61-.56,1.41-.9,2.33-1.02h0c.92-.11,1.79.02,2.51.42h0c.53.29.97.71,1.29,1.22h0c.39-.14.77-.24,1.15-.28h0c1.16-.15,2.2.18,2.96.77h0c.68.53,1.14,1.26,1.31,2.06h0c.82-.07,1.72.08,2.49.56h0c.84.5,1.51,1.43,1.66,2.69h0s0,0,0,0h0c.14,1.14-.28,2.16-.99,2.87h0c-.7.71-1.66,1.15-2.67,1.28h-.02s-.01,0-.02,0h0c-.7.09-1.55.09-3.07-.24h0Z"/>
            <path class="cls-11" d="M41.5,18.19c-1.93.24-3.83.87-5.25,1.57-1.38.68-2.07.84-2.72.92-1.75.22-3.57-.69-3.79-2.53-.3-2.4,1.75-3.48,3.35-3.44-.56-1.87,1.12-4.35,4.36-3.62.22-1.46,1.24-2.42,2.85-2.62,1.61-.2,2.84.48,3.4,1.85,2.97-1.49,5.2.5,5.11,2.46,1.54-.43,3.79.13,4.08,2.53.23,1.84-1.32,3.16-3.07,3.37-.64.08-1.36.1-2.86-.23-1.55-.34-3.54-.49-5.47-.25ZM40.3,13.61c.24,1.34.61,2.55.81,3.11.09.24.17.32.24.31.07,0,.14-.11.17-.37.06-.6.12-1.85.04-3.21-.08-1.42-.51-1.58-.84-1.54-.34.04-.67.31-.42,1.69ZM43.68,13.83c-.24,1.19-.32,2.31-.33,2.84,0,.23.05.32.11.34.06.02.16-.04.27-.25.26-.47.74-1.48,1.13-2.62.41-1.2.08-1.48-.23-1.56-.32-.08-.7.02-.95,1.25ZM46.81,14.87c-.64.81-1.13,1.64-1.35,2.04-.09.17-.09.26-.05.3.04.04.14.03.3-.08.38-.26,1.13-.84,1.87-1.57.77-.76.63-1.1.43-1.28-.21-.19-.54-.26-1.21.58ZM34.29,15.98c-.15.22-.21.59.72,1.14.89.52,1.76.9,2.19,1.06.19.07.28.05.31,0,.03-.05.01-.14-.12-.28-.3-.34-.98-1.03-1.8-1.66-.85-.65-1.16-.5-1.31-.27ZM37.1,13.51c-.28.15-.53.51.16,1.57.66,1.01,1.37,1.87,1.73,2.27.16.17.27.2.32.17.06-.03.08-.13.03-.35-.14-.51-.49-1.59-1.01-2.68-.54-1.13-.94-1.14-1.23-.98Z"/>
          </g>
          <g>
            <path class="cls-28" d="M31.4,24.39c-1.08-.23-2.5-.34-3.84-.18h-.02c-1.34.17-2.68.62-3.66,1.1h0c-1.03.51-1.63.66-2.15.72h0c-.75.09-1.51-.05-2.14-.43h0c-.63-.38-1.11-1.03-1.21-1.86h0c-.12-.92.19-1.71.69-2.22h0c.47-.48,1.08-.75,1.68-.85h0c-.02-.6.18-1.2.56-1.69h0c.43-.56,1.11-.98,1.96-1.08h0c.28-.03.57-.04.88,0h0c.14-.43.38-.8.7-1.1h0c.44-.41,1.04-.66,1.71-.75h0c.67-.08,1.31.02,1.84.31h0c.39.21.71.52.95.9h0c.29-.11.57-.17.84-.21h0c.85-.11,1.61.13,2.17.56h0c.5.39.83.92.96,1.51h0c.61-.05,1.26.06,1.83.41h0c.62.37,1.11,1.05,1.22,1.97h0s0,0,0,0h0c.11.83-.21,1.58-.72,2.1h0c-.51.52-1.22.84-1.96.94h-.01s0,0-.01,0h0c-.52.06-1.14.07-2.26-.18h0Z"/>
            <path class="cls-11" d="M27.5,23.71c-1.42.17-2.81.64-3.85,1.15-1.01.5-1.52.61-1.99.67-1.29.16-2.62-.5-2.78-1.86-.22-1.76,1.28-2.55,2.46-2.53-.41-1.37.82-3.19,3.2-2.66.16-1.07.91-1.78,2.09-1.92,1.18-.14,2.08.36,2.5,1.36,2.18-1.09,3.81.37,3.75,1.8,1.13-.31,2.78.1,3,1.86.17,1.35-.97,2.32-2.25,2.47-.47.06-.99.07-2.1-.17-1.13-.25-2.6-.36-4.02-.18ZM26.61,20.35c.17.98.45,1.87.6,2.28.06.18.13.23.18.23.05,0,.1-.08.12-.27.04-.44.09-1.36.03-2.35-.06-1.04-.38-1.16-.62-1.13-.25.03-.49.23-.31,1.24ZM29.1,20.51c-.18.87-.23,1.7-.24,2.09,0,.17.03.23.08.25.05.01.12-.03.2-.18.19-.35.54-1.08.83-1.92.3-.88.06-1.09-.17-1.15-.23-.06-.52.01-.7.92ZM31.39,21.28c-.47.59-.83,1.2-.99,1.5-.07.13-.06.19-.03.22.03.03.1.02.22-.06.28-.19.83-.62,1.37-1.15.57-.55.46-.81.31-.94-.15-.14-.4-.19-.89.43ZM22.2,22.09c-.11.16-.15.43.53.83.65.38,1.29.66,1.61.78.14.05.21.04.23,0,.02-.03,0-.1-.09-.21-.22-.25-.72-.75-1.32-1.21-.62-.48-.85-.37-.96-.2ZM24.27,20.28c-.2.11-.39.37.12,1.15.48.74,1,1.37,1.27,1.66.11.13.2.15.24.13.04-.02.06-.1.02-.26-.1-.38-.36-1.17-.74-1.97-.4-.83-.69-.83-.9-.72Z"/>
          </g>
          <g>
            <g>
              <path class="cls-23" d="M8.25,17.62l-.65,1.17-.92-.98s-4.56,2.35,1.71,7.26c4.87-6.3-.13-7.45-.13-7.45Z"/>
              <g>
                <line class="cls-18" x1="8.39" y1="25.07" x2="7.82" y2="20.53"/>
                <path class="cls-35" d="M7.84,25.14c-1.27-.38-2.21-.8-3.3-1.32-.66-.39-1.13-.68-1.92-.91-1.01-.4.69-1.03,1.42-1.33.9-.36,2.22-.73,3.22-.98,0,0,1.09-.14,1.09-.14,1.03,0,2.4.03,3.36.16.8.11,2.58.3,1.71.94-.33.23-.77.48-.97.7-1.07,1.1-2.16,1.88-3.54,2.75,0,0-1.09.14-1.09.14h0Z"/>
              </g>
            </g>
            <g>
              <path class="cls-32" d="M15.46,23.52l.75-1.11s-3.3-3.94-6.71,3.25c7.21,3.37,7.24-1.76,7.24-1.76l-1.29-.38Z"/>
              <g>
                <line class="cls-36" x1="9.5" y1="25.66" x2="13.81" y2="24.11"/>
                <path class="cls-35" d="M9.32,25.14c.14-1.62.34-2.95.84-4.4.2-.26-.03-2.04.7-1.42.76.64,1.7,2.27,2.27,3.34.13.22.37.7.49.93,0,0,.37,1.03.37,1.03.32,1.48.81,3.7.61,5.04-.16.95-1.13-.58-1.45-.65-1.31-.8-2.31-1.69-3.46-2.84,0,0-.37-1.03-.37-1.03h0Z"/>
              </g>
            </g>
            <g>
              <path class="cls-21" d="M9.42,27.03c-.65,7.93,4.17,6.18,4.17,6.18l-.09-1.34,1.3.32s2.55-4.46-5.38-5.15Z"/>
              <g>
                <line class="cls-29" x1="9.42" y1="27.03" x2="12.43" y2="30.47"/>
                <path class="cls-35" d="M9.83,26.66c1.56-.45,2.87-.75,4.4-.81.32.1,1.89-.77,1.58.14-.32.94-1.5,2.41-2.29,3.32-.16.2-.52.6-.69.79,0,0-.83.72-.83.72-1.26.84-3.16,2.1-4.48,2.39-.94.19.13-1.27.08-1.59.27-1.51.74-2.77,1.4-4.25,0,0,.83-.72.83-.72h0Z"/>
              </g>
            </g>
            <g>
              <path class="cls-19" d="M7.88,27.22c-7.51,2.63-3.95,6.32-3.95,6.32l1.19-.63.24,1.32s5.11.51,2.52-7.01Z"/>
              <g>
                <line class="cls-6" x1="7.82" y1="27.23" x2="5.97" y2="31.41"/>
                <path class="cls-35" d="M8.33,27.45c1.07,1.22,1.89,2.29,2.6,3.65.05.33,1.5,1.39.54,1.49-.98.11-2.82-.34-3.98-.66-.25-.06-.76-.21-1.01-.29,0,0-1.01-.44-1.01-.44-1.29-.79-3.24-1.97-4.07-3.05-.23-.31-.12-.47.28-.5.82,0,1.36-.14,2.1-.32,1.2-.18,2.21-.31,3.54-.31,0,0,1.01.44,1.01.44h0Z"/>
              </g>
            </g>
            <g>
              <path class="cls-31" d="M.15,24.42l1,.89-1.15.68s1.3,4.97,7.45-.07C2.38,19.79.15,24.42.15,24.42Z"/>
              <g>
                <line class="cls-26" x1="7.45" y1="25.92" x2="2.9" y2="25.47"/>
                <path class="cls-35" d="M7.4,26.47c-.83,1.4-1.58,2.51-2.66,3.61-.3.15-.85,1.86-1.25.98-.41-.9-.56-2.78-.61-3.99-.02-.26-.04-.79-.04-1.05,0,0,.11-1.09.11-1.09.35-1.48.87-3.69,1.63-4.81.56-.79.77,1.01,1.03,1.21.84,1.28,1.36,2.52,1.9,4.06,0,0-.11,1.09-.11,1.09h0Z"/>
              </g>
            </g>
            <path class="cls-33" d="M9.03,26.08c-.04-.28-.29-.48-.57-.44s-.48.29-.44.57.29.48.57.44.48-.29.44-.57Z"/>
          </g>
          <g>
            <path class="cls-24" d="M12.94,9.65c-.06.29-.06.58-.03.86h0c.13,1.01.81,1.88,1.79,2.23h0c-.14.4-.18.83-.13,1.24h0c.1.84.6,1.62,1.39,2.05h0c.52.29,1.1.39,1.65.32h0c.71-.09,1.37-.45,1.82-1.04h0c.58.44,1.3.62,1.99.53h0c.55-.07,1.09-.31,1.52-.72h0c.66-.62.95-1.5.84-2.33h0c-.05-.42-.2-.83-.45-1.2h0c.84-.58,1.28-1.59,1.15-2.58h0c-.03-.28-.11-.55-.24-.82h0c-.52-1.1-1.67-1.7-2.81-1.55h0c-.14.02-.29.05-.43.09h0c-.38-1.25-1.61-2.09-2.95-1.92h0c-1.35.17-2.35,1.3-2.39,2.63h0c-.13,0-.27,0-.4.02h0c-1.14.14-2.11,1-2.34,2.19h0Z"/>
            <g>
              <path class="cls-28" d="M13.27,9.71c.25-1.28,1.48-2.13,2.76-1.9h0c-.16-1.31.76-2.5,2.07-2.67s2.48.75,2.66,2.04h0c1.19-.56,2.62-.05,3.18,1.15.55,1.18.05,2.59-1.12,3.16h0c.9.96.85,2.48-.11,3.38-.95.89-2.45.85-3.35-.09t0,0c-.64,1.16-2.09,1.58-3.25.94-1.14-.63-1.57-2.06-.95-3.21h0c-1.3-.25-2.14-1.5-1.9-2.8Z"/>
              <g>
                <path class="cls-10" d="M18.59,9.74s.05.08.1.08.08-.05.08-.1l-.12-.96c.11-.05.18-.17.16-.29-.02-.16-.16-.27-.32-.25s-.27.16-.25.32c.02.12.11.22.23.24l.12.96Z"/>
                <path class="cls-10" d="M19.39,9.89s-.02.1.02.13c.04.03.1.02.13-.02l.59-.76c.11.04.24,0,.32-.09.1-.12.07-.3-.05-.4-.12-.1-.3-.07-.4.05-.08.1-.08.23-.01.33l-.59.76Z"/>
                <path class="cls-10" d="M19.85,10.56s-.08.05-.08.1.05.08.1.08l.96-.12c.05.11.17.18.29.16.16-.02.27-.16.25-.32s-.16-.27-.32-.25c-.12.02-.22.11-.24.23l-.96.12Z"/>
                <path class="cls-10" d="M19.7,11.36s-.1-.02-.13.02c-.03.04-.02.1.02.13l.76.59c-.04.11,0,.24.09.32.12.1.3.07.4-.05.1-.12.07-.3-.05-.4-.1-.08-.23-.08-.33-.01l-.76-.59Z"/>
                <path class="cls-10" d="M19.03,11.81s-.05-.08-.1-.08-.08.05-.08.1l.12.96c-.11.05-.18.17-.16.29.02.16.16.27.32.25s.27-.16.25-.32c-.02-.12-.11-.22-.23-.24l-.12-.96Z"/>
                <path class="cls-10" d="M18.24,11.67s.02-.1-.02-.13c-.04-.03-.09-.02-.13.02l-.59.76c-.11-.04-.24,0-.32.09-.1.12-.07.3.05.4.12.1.3.07.4-.05.08-.1.08-.23.01-.33l.59-.76Z"/>
                <path class="cls-10" d="M17.78,11s.08-.05.08-.1-.05-.08-.1-.08l-.96.12c-.05-.11-.17-.18-.29-.16-.16.02-.27.16-.25.32s.16.27.32.25c.12-.02.22-.11.24-.23l.96-.12Z"/>
                <path class="cls-10" d="M17.93,10.2s.1.02.13-.02c.03-.04.02-.1-.02-.13l-.76-.59c.04-.11,0-.24-.09-.32-.12-.1-.3-.07-.4.05-.1.12-.07.3.05.4.1.08.23.08.33.01l.76.59Z"/>
                <path class="cls-10" d="M18.19,10.86c-.04-.35.2-.66.55-.7s.66.2.7.55-.2.66-.55.7-.66-.2-.7-.55Z"/>
              </g>
            </g>
          </g>
        </g>
      </g>
    </g>
  </g>
</svg>