<?xml version="1.0" encoding="UTF-8"?>
<svg id="Layer_2" data-name="Layer 2" xmlns="http://www.w3.org/2000/svg" viewBox="0 0 651.33 226.45">
  <defs>
    <style>
      .cls-1 {
        fill: #00998b;
        stroke-width: 0px;
      }
    </style>
  </defs>
  <g id="Layer_1-2" data-name="Layer 1">
    <g>
      <path class="cls-1" d="M45.09,12.1c14.75-2.13,21.86,4.66,24.4,18.53,2.73,14.94-2.46,47.59,12.02,56.69,7.95,4.99,15.75-.66,18.74-8.3,6.68-17.09-1.29-38.59,6.36-55.12,7.99-17.24,31.48-14.5,36.09,4.04,2.15,8.66,1.55,19.51,3.4,29.14,5.36,27.8,27.65,71.19,14.81,97.97-7.73,16.12-28.06,15.06-35.63-.31-6.71-13.62-1-34.83-2.19-50.24-.53-6.86-3.27-18.24-7.67-5.8-5.37,15.17-6.32,49.23-30.68,46.87-24.28-2.34-22.23-40.88-28.31-56.68-3.73-9.68-8.72,3.13-9.95,7.77-3.84,14.47-1.47,28.2-3.08,42.13-2.83,24.52-33.15,31.55-41.04,5.98-9.22-29.88,11.01-54.84,18.28-82.08,4.65-17.43-.31-47,24.45-50.59Z"/>
      <path class="cls-1" d="M569.99,69.13c21.22-19.86,71.17-15.84,72.9,19.13.67,13.45-6.18,22.85-18.36,27.72-7.47,2.99-30.52,5.69-33.38,12.73-6.49,15.98,17.66,14.93,26.44,11.07,9.36-4.12,18.68-26.03,30.33-14.06,8.17,8.41.03,21.25-7.29,27.14-17.28,13.91-47.12,15.31-65.82,3.48-26.14-16.54-26.43-66.99-4.81-87.22ZM598.38,89.84c-6.64.77-14.69,3.52-12.24,11.78,2.63,8.86,35.84,9.47,31.26-5.96-1.66-5.59-14.22-6.38-19.02-5.82Z"/>
      <path class="cls-1" d="M415.98,58.87c-.65,4.95,1.5,1.07,3.91,1.78.59.17.62,1.35,1.35,1.73,2.55,1.33,5.32,3.11,8.3,2.81.35.24.58.65.9.9-.54,3.54,4.02,5.8,5.42,7.87.62.91.53,2.33,1.08,3.28.67,1.14,2.02,1.21,2.5,2.23,2.6,5.47.01,16.11.06,22.15-.14.62-7.65,6.61-8.68,7.79-1.04,1.18-1.1,3.19-1.47,3.51-.46.39-8.72,2.34-10.26,2.85-1.69.56-3.22,0-3.11,2.77-.59.04-1.21.01-1.81,0-8.8-.21-7.19,1.5-13.34,2.51-1.5.25-2.85-.85-4.11-.57-.34.08-5.59,3.45-5.83,3.7-.29.3-3.63,7.2-3.69,7.62-.04.29,1.69,5.31,1.88,5.54.41.51,1.48.07,1.6.18,7.33,6.94,22.4,5.75,30.28,0,7.37-5.37,12.94-20.17,24.28-13.42,9.56,5.7,4.56,20.52-2.07,26.56-28.89,26.29-83.74,15.26-88.56-28.15-4.51-40.64,17.71-72.84,61.38-63.64ZM387.33,93.51c-3.64,3.3-2.39,9.38,1.6,11.86,6.91,4.29,30.6,3.81,28.71-7.84-1.62-10.01-24.32-9.46-30.31-4.02Z"/>
      <path class="cls-1" d="M337.33,65.2c8.26,22.6,10.93,39.68,7.23,64.19-.09.57.11,1.25,0,1.81-2.36,12.45-9.18,24.15-23.2,24.06-8.27-.05-17.6-6.24-19.07-14.78-3.55-20.59,19.89-28.96,16.9-47.65-1.43-8.93-11.85-15.61-20.14-10.49-.84.52-.52,1.79-.59,1.85-1.03.82-2.52.35-4,2.78-4.65,7.62-.22,13.54.42,21.15,1.44,17.14-3.54,42.49-26.51,37.36-12.15-2.72-1.6-21.13-.74-28.39,2.23-18.86-11.5-34.24-9.75-50.44,1.99-18.37,24.86-20.41,27.83-.9.48,3.13-1,6.98,1.46,9.39,3.04-22,24.13-33.33,42.05-17.64,2.85,2.5,5.07,6.59,8.13,7.7Z"/>
      <path class="cls-1" d="M242.77,65.73c22.18,25.39,14.02,74.84-24.3,78.16-42.87,3.71-60.56-30.55-46.38-68.07,11.86-31.38,49.79-34,70.68-10.08ZM191.77,102.27c-.26,17.27,25.25,22.67,36.14,13.98,1.73-1.38,1.57-2.85,1.83-3.13.13-.13,1.88.05,3.12-1.85,4.94-7.58,1.79-19.08-5.83-23.46-13.04-7.5-34.99-3.13-35.26,14.47Z"/>
      <path class="cls-1" d="M474.5.31c6.27-1.28,12.19,1.39,15.21,6.98,8.38,15.51.25,45.19.33,62.88.1,21.75,17.83,64.64,5.35,82.12-13.29,18.61-38.23,5.52-38.78-16.11-.7-27.62,14.2-50.98,10.9-83.17-1.29-12.54-12.13-48.79,7-52.69Z"/>
      <path class="cls-1" d="M530.59,53.68c6.77-.22,13.3,4.56,14.45,11.28,1.65,9.63-4.04,15.16-5.13,23.37-2.48,18.78,9.94,29.07,9.94,44.22.02,32.22-50.24,25.55-41.19-6.76,2.22-7.91,9.21-14.99,10.3-23.16,1.73-13.01-6.76-24.88-2.18-38.34,2.03-5.98,7.42-10.41,13.8-10.62Z"/>
      <path class="cls-1" d="M517.54,31.44c-6.78-6.98-2.4-23.37,7.07-26.22,19.41-5.86,30.99,23.62,15.06,29.53-6.02,2.24-17.49,1.47-22.14-3.31Z"/>
      <path class="cls-1" d="M260.24,198.33c1.32,1.41,1.34,4.47.92,6.32-.97,4.22-10.68,6.22-3,11.59,4.85,3.39,2.76-5.9,9.55-3.67.84,3.52-2.18,5.13-2.71,8.13,2.44-.15,5-.03,4.51,3.16-2.5,3.1-6.75.54-9.52.61-4.06.09-12.99,4.83-16.01-2.18-3.29-7.64,3.17-9.66,3.5-11.95.37-2.58-2.82-5.52-.79-10.2,1.93-4.45,10.56-4.99,13.54-1.81ZM251.45,207.14c.62.44,4.61-2.1,4.98-2.69,2.91-4.68-9.38-6.24-4.98,2.69ZM255.05,221.6c.79-4.31-7.81-9.67-6.99-3.3.5,3.84,3.83,3.53,6.99,3.3Z"/>
      <path class="cls-1" d="M316.24,202c4.83,5.82,3.16,17.83-3.36,21.83-3.04,1.86-14.67,3.66-17.2,1.9-1.22-.85-1.31-26.46-.45-27.69,2.29-3.29,17.68-.06,21.01,3.96ZM300.26,220.7c18,3.24,18.34-21.39,0-18.08v18.08Z"/>
      <path class="cls-1" d="M477.46,198.55c.6-1.96,9.28-1.59,11.3-1.36,6.75.77,10.16,4.37,9.53,11.31-.35,3.86-3.6,5.43-3.65,7.21-.07,2.54,4.81,6.65,4.5,8.09-7.87,7.38-6.68-10.75-16.26-6.72-.39,1.88.64,6.79-.13,8-.68,1.06-5.29,1.4-5.29-.31,0-5.13-1.03-22.89,0-26.22ZM481.97,211.66c15.05,2.75,15.07-11.79,0-9.05v9.05Z"/>
      <path class="cls-1" d="M202.62,202.62v6.33c3.48.78,11.7-2.39,11.77,3.15.03,2.14-.57,1.23-2.24,1.37-6.83.54-10.69-2.55-9.53,7.23h14.92c1.8,0,1.79,5.42,0,5.42h-18.08c-.3,0-1.37-1.2-2.26-.9v-25.77c0-.3,1.2-1.37.9-2.26h19.44c1.79,0,1.8,5.42,0,5.42h-14.92Z"/>
      <path class="cls-1" d="M340.04,202.62v6.33c2.71.47,12.89-1.88,11.7,3.08-.94,3.89-15.26-3.01-11.7,8.67h14.92c2.08,0,.75,5.42.45,5.42h-19.44c-.1,0-1.36-1.26-1.36-1.36v-26.22c0-.1,1.26-1.36,1.36-1.36h18.99c1.79,0,1.8,5.42,0,5.42h-14.92Z"/>
      <path class="cls-1" d="M461.18,197.19v5.42h-15.37v6.33c1.71.28,10.48-.39,10.85,0,.31.33.3,4.91-1.32,5.2-1.03.18-8.59-1.62-9.54-.68v7.24h15.37c.24,1.29.03,5.42-1.36,5.42h-18.08c-.1,0-1.36-1.26-1.36-1.36v-27.57h20.79Z"/>
      <path class="cls-1" d="M161.03,198.55c.46-1.47,4.97-1.8,5.42-1.36.37.36-.27,8.34,0,9.95,2.98-.81,13.98-15.33,15.31-7.57.29,1.69-9.69,10.3-11.68,11.64-.02.77,9.6,8.95,10.89,10.82,1.26,1.83.3,3.5-1.59,4-3.03.79-9.67-9.3-12.92-10.75-.45,2.48.81,8.11-.42,9.98-.96,1.47-5.01.22-5.01-.04,0-5.16-1.04-23.34,0-26.67Z"/>
      <path class="cls-1" d="M134.7,197.32c.9.56,8.31,16.79,9.3,19.16,1.21,2.89,4.79,8.75.27,9.68-3.76.77-3.74-6.86-5.55-7.3s-11.43-.23-12.53.91c-1.44,1.5-1.36,7.28-5.22,6.26-1.62-.88-2.54-1.62-2.08-3.52.39-1.6,10.82-23.51,11.83-24.42s2.91-1.43,3.97-.78ZM133.9,206.24c-2.06-1.57-5.12,7.54-4.5,8.13h7.23c.44-.42-2.38-7.87-2.72-8.13Z"/>
      <path class="cls-1" d="M418.45,220.47c6.56-5.6-10.42-7.17-12.51-11.88-5.85-13.19,18.03-14.61,17.33-6.44-.51,5.89-6.52-1.72-10.68.24-8.25,3.9,8.57,7.64,10.21,9.22,5.01,4.85,1.48,13.36-5.53,14.45-6.11.95-16.43-2.77-9.78-8.93,1.52-.26,6.24,7.35,10.95,3.34Z"/>
      <path class="cls-1" d="M567.59,211.94c6.65,7.14-1.74,15.56-10.96,14.13-9.05-1.41-8.3-10.72-3.25-8.57,2.45,1.04,4.88,7.16,9.56,2.33,5.28-5.44-8.59-6.14-11.35-9.75-2.29-2.99-2.37-8.66.67-11.12,7.8-6.31,21.71,3.2,13.19,5.37-2.84.72-3.28-4.29-8.18-1.94-8.24,3.94,8.36,7.43,10.34,9.55Z"/>
      <path class="cls-1" d="M388.79,203.45c-1.91,2.69-11.04-5.21-12.48.63-1.12,4.54,10.71,4.38,13.35,9.03,8.72,15.36-21.33,16.39-18.74,6.42,1.53-5.92,5.96,1.49,8.64,1.91,3.42.53,7.88-2.28,4.78-5.72-3.79-4.22-14.23-1.31-12.71-12.69,1.38-10.28,21.38-5.53,17.15.42Z"/>
      <path class="cls-1" d="M93.89,197.41c3.4-.58,12.53-.22,12.06,4.74-.45,4.76-5.46.68-7.72.4-14.28-1.75-13.43,20.1-.09,18.11,2-.3,5.64-3.36,7.35-.92,2.48,3.55-2.86,5.71-5.69,6.16-19.83,3.16-24.1-25.4-5.9-28.49Z"/>
      <path class="cls-1" d="M534.87,197.19c1.31.4,1.84,4.02,1.36,4.52-.47.49-9.95-1.04-9.95,1.36v21.7c0,1.54-5.42,2.54-5.42-.9v-22.15h-9.05s0-4.52,0-4.52c5.79,1.11,18.18-1.49,23.05,0Z"/>
      <path class="cls-1" d="M415.98,118.54c-.11-2.77,1.42-2.21,3.11-2.77,1.54-.51,9.8-2.46,10.26-2.85.37-.31.43-2.33,1.47-3.51,1.03-1.17,8.54-7.17,8.68-7.79-.04-6.04,2.54-16.68-.06-22.15-.48-1.01-1.83-1.09-2.5-2.23-.55-.94-.46-2.37-1.08-3.28-1.41-2.07-5.96-4.33-5.42-7.87,11.03,8.75,14.58,19.11,10.4,33.45-2.8,9.59-15.07,18.35-24.86,18.98Z"/>
      <path class="cls-1" d="M414.17,118.54c-9.22,3.5-28.33,4.27-23.51,18.99-.12-.11-1.19.33-1.6-.18-.18-.23-1.92-5.25-1.88-5.54.06-.42,3.4-7.32,3.69-7.62.24-.25,5.49-3.62,5.83-3.7,1.26-.28,2.61.81,4.11.57,6.16-1.01,4.55-2.72,13.34-2.51Z"/>
      <path class="cls-1" d="M429.54,65.2c-2.98.29-5.75-1.48-8.3-2.81-.73-.38-.76-1.56-1.35-1.73-2.41-.71-4.56,3.17-3.91-1.78,6.84,1.44,8.17,2.53,13.56,6.33Z"/>
    </g>
  </g>
</svg>